<svg xmlns="http://www.w3.org/2000/svg" viewBox="0 0 156.4 36.46"><g id="Layer_2" data-name="Layer 2"><g id="Layer_1-2" data-name="Layer 1"><path d="M31.76,28.11C45.3,27.19,61.08,30.46,73.45,25c-3.54-4.25-9.77-1.71-14.55-2.3-18.39-.8-38.48,4.49-56.12.83-1.46-2.83-2.07-7,2.33-7,22.54-2,46.53.6,68.35-3.79C63.22,4.91,3.37,18.75,0,8.51c3.21-8.58,45.31-2.42,56-5C87.52,1.62,119.16,2.2,150.69.08c4.62-.35,5.35.3,5.39,5.18-1.05,4.66,2.84,14.63-2.94,15.8-5.32.33-10.64.67-15.95,1.13-2.48.21-3-1.51-3.2-3.47.79-6.13,10.41-2.61,14.64-3.82,2.45,0,3.12-1.46,2.92-3.81.08-5.67-.13-5.65-5.46-5.1-24.8,2.23-22,25.28-32.45,29.51-36-.7-72,2.21-108,.31-14-10.12,21.5-6.62,26.08-7.31Z"/></g></g></svg>