<svg xmlns="http://www.w3.org/2000/svg" viewBox="0 0 201.81 150.95"><g id="Layer_2" data-name="Layer 2"><g id="Layer_1-2" data-name="Layer 1"><path d="M111.78,14.26c7.11-.42,14-8,20.88-5.2-3.73,6.67-12.75,7.7-18.67,11.86-5.74,4.24,2.78,11.92,8,10.79,11.71-1.43,23.6,1.07,34.78,4.71,32.64,8.24,60.24,48.51,35.63,80.83C181,93.1,157,62.21,129.57,80.68c-9.48,4.88-9.66,19-15.21,27.86-1.08,2.35-3,4.32-2.17,7.21,1.94,10.89,17,33.34-2.16,32.84-3.2,2.95-5.59,3.1-8.86.28-5.12,2.94-6.46,2.77-10.33-.5-18.17-.51-2.51-22-1.24-32.49-8.92-51.14-49.7-52.61-73.07-11-9,25.16-12,2.91-16.2-9.9-3.85-33,26.34-55.18,53.25-61,10-7,35.25,5.13,37.38-9.28C83.5,17,90.53,3.12,100.31,4.36c3.15.1,5.32,4.07,8.5,2.79,7.72-1.95,16.08-8.62,23.82-6.86-4.4,7.29-14.31,8.7-21,13.23ZM98.19,34.53c-15.06.6-35.17-1.78-52.33,4C17.62,47-10.58,80.94,9.4,111.81,21,85.88,51.73,57.8,77.63,80.66c9.54,10.29,8.93,28.3,21,37.43,4.75,4,8.62-5.84,11.56-8.85,7-10.72,6.8-25.83,19-31.94,26.1-17,52.35,10.81,63.35,34.6,20.45-32.39-10.5-68.44-41-74.14C133.32,32.72,118.73,35,98.19,34.53Zm7.11,109.58-.13,0c-.45,10.82,10.88,2.42.23-12C102.77,135.55,105.26,140.13,105.3,144.11Zm-16.85,2.42c2.07-2,5.72-11.56,3.83-14.22-5.29,0-4.56,7.94-6.5,11.83C85.3,145.84,86,146.83,88.45,146.53Zm11.21-14.34-.79,0-5,16.08C103.24,152.67,99.75,137.55,99.66,132.19Zm16,.12c-8-1,.17,9.53.38,13.71C121.41,142.85,116.88,137,115.65,132.31Zm-15.86-122c-5.76,1.37-6.23,6.87-.35,7.57C105.26,16.52,103.32,12.92,99.79,10.34Z"/><path d="M9.94,107.69C-10.38,69.84,33.69,38.11,65.48,36.47,104.81,39.11,153.41,25.8,184.19,59c13,11.3,17.56,33.87,7.51,48.87-10-27.3-41.12-49.12-66.41-31-12.24,8.56-9.3,28.83-21.93,38-1.57,1.38-2.89,1.69-4.59.16C86.25,106,89,86.46,77.29,77.38,50.9,58.73,21.44,80.41,9.94,107.69Z"/><path d="M99.21,11.11c2.93,2.78,2.78,3.65.05,5.88C96.49,14.81,96.32,13.93,99.21,11.11Z"/></g></g></svg>