<svg xmlns="http://www.w3.org/2000/svg" viewBox="0 0 183.44 181.45"><g id="Layer_2" data-name="Layer 2"><g id="Layer_1-2" data-name="Layer 1"><path d="M85.71,181.45c.14-5.48-3.59-3.66-6.73-6,2.73-2.28,4.35-4.56,2.68-8C79.83,163,80.35,158,78,153.53c-6-15.08-21.76-16.5-34.18-22C32,127.23,19.89,123,8.7,117.44-12.81,102,10.32,86.25,26.79,96.75c13,6.4,27.24,9.7,40.23,15.82,11.69-1.59-7.86-7.11-10.65-8.27-14.75-8.87-38.62-8.38-46.19-26.53-3.4-9.53,7.9-11.49,14-13.24,8-.52,14.55,5.39,22,7.4C52.62,74.25,59,75.55,64.4,80.05c-17-20-2.24-53.69-29.51-59.07-2.3-7.34,15.62-1.89,18.3.92,14.43,7.05,3.33,32.72,18.58,46,6.52,6.61,16.4,5.82,23,12.46,1.59,1.65,5.16,1.12,6.18-.95-1.42-7.92-11.25-12.15-17.39-15.85C58.58,49.69,74,21.2,43.5,9.19c20.12-6.7,30,17.09,36.11,33.23,8.26,11.11,22.58,14.3,33.57,21.53,6.6-.77,4.69-17.09,5.08-23-1.2-2.7-16-10-11.72-14.4,4.54-4.87,7.29,4,11.89,2.91-2-4.51-10.14-8.93-7.67-13.5,4.89-4.45,8.64,3.82,13.37,5.58-7.46-12.72-3.36-26.82,6.31-7.5,2.38-17.85,8.21-19.65,9.55.13-.37,4,2,6.49,5.76,6.31,14.6,1.41,28.11,10.66,37.69,22.33-1,1.45-2.16,1.27-3.1.06-4.68-5-11.06-7.79-17.26-9.67,4.44,4.61,14.18,5.48,15.92,12-9.11-1.56-21.59-11.38-28.88-1.2-9,11.33,6.85,30.45,3.91,44.91-.36,14.9-3.62,35.1-16.94,42.66-18.8,9.4-42.31,5.3-32.07,36.62,3.16,1.21,10.89.7,7.36,7.1l-4.06-3.19-.64.87c4,2.54,3.12,11.73-1.09,4.29-3.72,3.27-2.55-4.31-6-3.35-1.11.36-3-.31-3.27-1.38.9-3.22,5.72-2.64,3-6.75.1-6.59-3.52-12-4.47-18.29-.58-5.84-6-5.85-9.89-4.07-5.49,6.07-1.79,19.14.23,26.77,2,4.34,10.74-1,8,7.74l-3.8-2.4-1.67,5.93Zm25-44.47c8.28-2.5,26.47-5.51,31.21-14.26,12.19-19.88,10.52-45.33,2.46-66.84-3.86-7.74,3.41-12.78,6.25-18.81-.62-4.38,1.78-11.21-1.42-14.27-5.33-.23-10.76-.91-15.82,1.51C117,32,123.58,52.69,118,67.57c11.22,9.12,9.2,21.45-4.74,25.29,10.77,7.24,6.94,22.51-5.66,24.08C113.79,123,116.64,130.05,110.75,137ZM68.64,116.86c-15.91-5.34-31.47-11.52-46.81-18.43-4.36,3.39-4.07,11.94-7,17.72,16.18,6.66,32.07,13,48.64,18.76C65.15,129.15,66.9,123,68.64,116.86ZM31.32,70.25c-1.76,4.71-7.56,14-4.43,18.46,14.89,4.33,30.42,12.78,44.76,16,.5-3.39,8.77-19.51,3.32-18.54C59.76,82.91,46.47,74.5,31.32,70.25Zm73.74,8.17c1.78-3.5,11.87-9.4,7.51-12.06-9.46-4.83-19-9.71-28.14-15.19-13.91-9.7-12.67-40.58-33.31-40C72.67,18.93,63.93,52,84.42,61.29,92.86,65,99.14,70.9,105.06,78.42ZM42.16,19.24l-.3,1c29.05,14.26-2.5,68.9,51.16,62C84.57,75.38,72,75.44,66.24,64.53,54.43,45.89,67.43,26.07,42.16,19.24ZM88.3,138.48c6.44-.07,5.4-10.78,7.68-15.53,4.16-15.24,10.25-30.31,13.69-45.53C96.83,93.69,96.3,118.82,88.3,138.48ZM83.21,87.83c-2.62-9.8-15.69,45.93-15.8,49.26C75.4,122.77,77.26,103.81,83.21,87.83Z"/><path d="M133.21,84.84c6,4.26,7.14,12,10.62,18.28,1.22,2.87-7.22,21.76-10.55,20.89-6-2.05-6.8-11.81-10.19-17C122.66,99.13,128,90.36,133.21,84.84Zm.09,36.36c8.76-14.73,9.45-17.4.16-32.14C123,104.36,125.1,105.56,133.3,121.2Z"/><path d="M141,37.25c-4.89-4.67-5.26-6.62-.08-10.55C146.13,30.59,146.25,32.47,141,37.25Z"/><path d="M133.77,92.9c5.69,8.11,6.68,17.21-.74,23.54C126.25,107.24,126.12,101.6,133.77,92.9Z"/></g></g></svg>