<svg xmlns="http://www.w3.org/2000/svg" viewBox="0 0 430.63 327.74"><g id="Layer_2" data-name="Layer 2"><g id="Layer_1-2" data-name="Layer 1"><path d="M275.77,319.38c13.54-.91,29.32,2.36,41.69-3.14-3.54-4.26-9.77-1.72-14.55-2.3-18.39-.81-38.48,4.48-56.12.82-1.46-2.83-2.07-7,2.33-7,22.54-2,46.53.59,68.35-3.8-10.24-7.76-70.09,6.09-73.46-4.15,3.21-8.58,45.31-2.42,56-5,31.55-1.93,63.19-1.34,94.72-3.46,4.62-.35,5.35.29,5.39,5.18-1,4.66,2.84,14.63-2.94,15.79-5.32.34-10.64.67-15.95,1.13-2.48.22-3-1.51-3.2-3.46.79-6.13,10.4-2.62,14.64-3.83,2.45.06,3.12-1.45,2.92-3.8.08-5.68-.13-5.66-5.46-5.11-24.8,2.24-22,25.28-32.45,29.52-36-.71-72,2.21-108,.31-14-10.12,21.5-6.63,26.08-7.32Z"/><path d="M329.29,214.53c-1.4,14.64,6.21,25.52-13.25,22.17-6.68.66-2.06-9.71-8.66-8.62-22.46,1.26-8.65-6.89-18.09-10.21-34.12,2.64-7.17-13.61-26.46-12.78-3.92-1-11.83,3.17-13.19-2.06.69-4.32-3.69-14.4,1.79-15.22,47.88-2.6,95.82-2.65,143.68-5.94,6.93,2,1.6,18.07,3.4,24.61.06,3.72-.43,4.54-4,4.69-6.73-1.56-34.77,6.09-33.73-3.85.63-3.5-2-10.44,2.82-10.92,4.09.22,35.89-6.1,23.54,3.55-5,1.91-19.52-1.06-20.95,4.5,2.55,5.82,17.81,0,23.71,1.25,5.66-.9,1.68-10,2.71-14.29-3.59-6.18-30.29.73-38.66-.61-23.89,2.42-26.13-6.1-24.58,23.73Z"/><path d="M340.6,14.26c7.11-.42,14-8,20.88-5.2-3.74,6.67-12.75,7.7-18.67,11.86-5.74,4.24,2.77,11.92,8,10.79,11.71-1.43,23.6,1.07,34.78,4.71,32.63,8.24,60.24,48.51,35.63,80.83-11.39-24.15-35.39-55-62.81-36.57-9.48,4.88-9.65,19-15.21,27.86-1.07,2.35-3,4.32-2.16,7.21,1.93,10.89,17,33.34-2.16,32.84-3.2,2.95-5.59,3.1-8.86.28-5.12,2.94-6.46,2.77-10.33-.5-18.17-.51-2.52-22-1.24-32.49-8.93-51.14-49.7-52.61-73.07-11-9,25.16-12,2.91-16.2-9.9-3.85-33,26.34-55.18,53.25-61,10-7,35.25,5.13,37.38-9.28-7.47-7.65-.43-21.56,9.35-20.32,3.15.1,5.32,4.07,8.5,2.79C345.35,5.2,353.7-1.47,361.45.29c-4.41,7.29-14.31,8.7-21,13.23ZM327,34.53c-15.06.6-35.17-1.78-52.34,4-28.23,8.51-56.43,42.44-36.45,73.31,11.63-25.93,42.33-54,68.23-31.15,9.54,10.29,8.92,28.3,21,37.43,4.74,4,8.62-5.84,11.56-8.85,7-10.72,6.8-25.83,19-31.94,26.1-17,52.35,10.81,63.35,34.6,20.44-32.39-10.5-68.44-41-74.14C362.14,32.72,347.55,35,327,34.53Zm7.1,109.58-.12,0c-.45,10.82,10.88,2.42.23-12C331.59,135.55,334.08,140.13,334.11,144.11Zm-16.84,2.42c2.07-2,5.72-11.56,3.82-14.22-5.28,0-4.55,7.94-6.49,11.83C314.12,145.84,314.82,146.83,317.27,146.53Zm11.21-14.34-.79,0q-2.49,8-5,16.08C332.06,152.67,328.57,137.55,328.48,132.19Zm16,.12c-8-1,.16,9.53.38,13.71C350.23,142.85,345.7,137,344.47,132.31Zm-15.86-122c-5.76,1.37-6.23,6.87-.35,7.57C334.08,16.52,332.14,12.92,328.61,10.34Z"/><path d="M238.76,107.69c-20.32-37.85,23.75-69.58,55.54-71.22C333.63,39.11,382.23,25.8,413,59c13,11.3,17.56,33.87,7.51,48.87-10-27.3-41.12-49.12-66.41-31-12.24,8.56-9.31,28.83-21.93,38-1.58,1.38-2.89,1.69-4.59.16-12.53-9.11-9.75-28.62-21.48-37.7C279.71,58.73,250.26,80.41,238.76,107.69Z"/><path d="M328,11.11c2.93,2.78,2.78,3.65.05,5.88C325.31,14.81,325.14,13.93,328,11.11Z"/><path d="M85.71,305.81c.14-5.48-3.59-3.66-6.73-6,2.73-2.28,4.35-4.56,2.68-8-1.83-4.43-1.31-9.39-3.66-13.89-6-15.07-21.76-16.49-34.18-22C32,251.59,19.89,247.36,8.7,241.8c-21.51-15.47,1.62-31.19,18.09-20.69,13,6.4,27.24,9.7,40.23,15.82,11.69-1.59-7.86-7.11-10.65-8.27-14.75-8.87-38.62-8.38-46.19-26.53-3.4-9.54,7.9-11.49,14-13.24,8-.52,14.55,5.39,22,7.4,6.39,2.32,12.72,3.62,18.17,8.12-17-20-2.24-53.69-29.51-59.07-2.3-7.35,15.62-1.89,18.3.92,14.43,7.05,3.33,32.72,18.58,46,6.52,6.61,16.4,5.82,23,12.46,1.59,1.65,5.16,1.12,6.18-1-1.42-7.92-11.25-12.15-17.39-15.85-24.93-13.89-9.5-42.38-40-54.39,20.12-6.7,30,17.09,36.11,33.23,8.26,11.11,22.58,14.3,33.57,21.53,6.6-.77,4.69-17.09,5.08-23-1.2-2.7-16-10-11.72-14.41,4.54-4.86,7.29,4,11.89,2.92-2-4.51-10.14-8.93-7.67-13.5,4.89-4.45,8.64,3.82,13.37,5.58-7.46-12.72-3.36-26.82,6.31-7.5,2.38-17.85,8.21-19.65,9.55.13-.37,4,2,6.49,5.76,6.31,14.6,1.41,28.11,10.66,37.69,22.33-1,1.45-2.16,1.27-3.1.06-4.68-5-11.06-7.79-17.26-9.67,4.44,4.61,14.18,5.48,15.92,12-9.11-1.56-21.59-11.38-28.88-1.21-9,11.34,6.85,30.46,3.91,44.92-.36,14.9-3.62,35.1-16.94,42.66-18.8,9.4-42.31,5.3-32.07,36.62,3.16,1.21,10.89.69,7.36,7.1l-4.06-3.19-.64.87c4,2.54,3.12,11.73-1.09,4.29-3.72,3.27-2.55-4.31-6-3.35-1.11.35-3-.31-3.27-1.39.9-3.22,5.72-2.63,3-6.74.1-6.59-3.52-12-4.47-18.29-.58-5.84-6-5.85-9.89-4.07-5.49,6.07-1.79,19.14.23,26.76,2,4.35,10.74-1,8,7.75l-3.8-2.4-1.67,5.93Zm25-44.47c8.28-2.5,26.47-5.51,31.21-14.26,12.19-19.88,10.52-45.33,2.46-66.84-3.86-7.74,3.41-12.78,6.25-18.81-.62-4.38,1.78-11.21-1.42-14.27-5.33-.23-10.76-.91-15.82,1.51-16.4,7.71-9.85,28.38-15.43,43.26,11.22,9.12,9.2,21.45-4.74,25.29,10.77,7.24,6.94,22.51-5.66,24.07C113.79,247.33,116.64,254.41,110.75,261.34ZM68.64,241.22c-15.91-5.34-31.47-11.52-46.81-18.43-4.36,3.39-4.07,11.94-7,17.72,16.18,6.66,32.07,13,48.64,18.76C65.15,253.51,66.9,247.37,68.64,241.22ZM31.32,194.6c-1.76,4.72-7.56,14-4.43,18.47,14.89,4.33,30.42,12.78,44.76,16,.5-3.38,8.77-19.5,3.32-18.53C59.76,207.26,46.47,198.86,31.32,194.6Zm73.74,8.18c1.78-3.5,11.87-9.4,7.51-12.06-9.46-4.83-19-9.71-28.14-15.19-13.91-9.7-12.67-40.58-33.31-40,21.55,7.72,12.81,40.83,33.3,50.07C92.86,189.32,99.14,195.26,105.06,202.78Zm-62.9-59.19-.3,1c29.05,14.26-2.5,68.9,51.16,62-8.45-6.85-21.07-6.79-26.78-17.7C54.43,170.25,67.43,150.43,42.16,143.59ZM88.3,262.84c6.44-.07,5.4-10.78,7.68-15.54,4.16-15.23,10.25-30.3,13.69-45.52C96.83,218.05,96.3,243.18,88.3,262.84Zm-5.09-50.65c-2.62-9.8-15.69,45.93-15.8,49.26C75.4,247.13,77.26,228.17,83.21,212.19Z"/><path d="M133.21,209.2c6,4.26,7.14,12,10.62,18.28,1.22,2.86-7.22,21.76-10.55,20.89-6-2.05-6.8-11.82-10.19-17C122.66,223.49,128,214.72,133.21,209.2Zm.09,36.36c8.76-14.73,9.45-17.4.16-32.14C123,228.72,125.1,229.91,133.3,245.56Z"/><path d="M141,161.6c-4.89-4.66-5.26-6.61-.08-10.54C146.13,155,146.25,156.83,141,161.6Z"/><path d="M133.77,217.26c5.69,8.11,6.68,17.21-.74,23.54C126.25,231.6,126.12,226,133.77,217.26Z"/></g></g></svg>