<svg xmlns="http://www.w3.org/2000/svg" viewBox="0 0 148.07 90.72"><defs><style>.cls-1{fill:#fff;}</style></defs><g id="Layer_2" data-name="Layer 2"><g id="Layer_1-2" data-name="Layer 1"><path class="cls-1" d="M73.73,90.67H144.8c1.59,0,3.09.11,3-2.21-.07-4.7-.07-9.39,0-14.09,0-1.62-.63-2.28-2.28-2.25-3.43.09-6.86,0-10.28.09-2.06.09-2.87-.58-2.82-2.7.1-4.37,0-8.75,0-13.13,0-1.92-.61-2.78-2.63-2.67-2.39.13-4.79-.06-7.18.07-1.89.1-2.57-.62-2.53-2.48.07-3.9-.09-7.8,0-11.7.08-2.25-.81-3-3-2.82-2.31.15-4.63,0-6.94.08-1.85.07-2.55-.68-2.51-2.54.09-4.54,0-9.08,0-13.61,0-1.77-.69-2.4-2.44-2.34-3,.11-5.9-.06-8.85.08C94.63,18.56,94,17.83,94,16c.05-4.38-.07-8.76,0-13.13C94,.69,93.26,0,91.06,0Q47.16.12,3.24.08C.07.08.06.09.06,3.17.06,31.35.09,59.52,0,87.7c0,2.52.82,3,3.15,3C26.68,90.65,50.21,90.68,73.73,90.67Z"/><path d="M73.73,90.67c-23.52,0-47.05,0-70.58,0-2.33,0-3.16-.5-3.15-3C.09,59.52.06,31.35.06,3.17.06.09.07.08,3.24.08Q47.15.08,91.06,0c7.33-.78-1.36,18.86,5.46,18.44,3.09.69,11.1-2.2,11.29,2.26.88,3.5-2.42,16.54,2.46,16.15,14.76-1.4,8.67,3.18,9.85,14.44,0,4.5,6.78,1.77,9.71,2.41,6.91-.54-1.75,19.34,5.42,18.5,18.25-1.3,11.2,1.57,12.6,16.25,0,2.32-1.46,2.21-3,2.21Z"/></g></g></svg>