<svg xmlns="http://www.w3.org/2000/svg" viewBox="0 0 268.06 137.19"><g id="Layer_2" data-name="Layer 2"><g id="Layer_1-2" data-name="Layer 1"><path d="M134.25,0q65.33,0,130.66,0c2.74.06,3.18.57,3.15,3.54,0,2.79-.44,3.26-3.18,3.27q-8.75,0-17.5,0c-3.67-.31-1.86,2.23-3.18,4.09-2.37,1.34-1.8,3.41-1.69,5.48s.44,4.37-1.92,5.75c-.77,1.37-1.21,3.28-2,4.72-.19.42-.7.81-.68,1.19.17,4.26-5.08,5.26-5.15,9.68-1.8,3-5.57,6.75-8.38,9.12-2.93-.06-4.06,2.36-5.73,4-1.85,1.14-4.06,2.14-5.84,3.4-3.32,1.56-6.61,4-10.75,2.9a1.47,1.47,0,0,0-1.31.38c-1.42,2.67-3.91,2-6.15,2-9.59.2-2.12,9.22-10.27,18.29.24,3.69-3.15,5-4.77,7.52-.05,4.44-4.46,5.9-6.19,9.11-1.63,3-5.36,2.48-7.12,5.06a7.07,7.07,0,0,1-4.54,3c-2.26.55-4.13,2.61-6.29,3.79-3.15,1.85-7.45-1-9.71,2.87-5.73,1.6-12.68.24-18.74.6-3.34-.14-2.35-3.41-6.53-2.72-2.23,0-4.72.7-6.17-2a13.71,13.71,0,0,1-5.15-2.7c-3.52.12-4.57-3.25-6.78-5-4.48-.3-5.66-4.69-8.58-6.93a7.24,7.24,0,0,1-2.88-5c-.28-1.8-3.29-3.29-4-5-1.24-5.46-6-9.32-5-15.32.26-1-.52-2.33-1-3.41-2.27-4.46-8.34-.82-11.84-2.72-1.55-2.74-4.11-1.85-6.38-1.92-1.54-.05-3,0-3.94-1.66-1.27-.82-3.26-1.45-4.57-2.43-.4-.25-.71-.93-1-.91-3.44.12-4.48-3.1-6.6-4.79-4-.09-5.34-3.65-7.57-5.92-1.61-1.65-4.25-2.87-3.78-6,.05-.33-.51-.75-.8-1.11-1.55-2-4-3.36-3.88-6.51,0-.72-1.68-1.44-1.82-2.28-.65-3.84-4-7-2.8-11.32.16-1.55-2.1-3.59-2.15-5.21C24,4.48,7.87,7.82,3.82,6.85c-4,.34-5.49-5.74-1.41-6.74C46.32-.13,90.31.11,134.25,0Zm51.36,59.56c-8.65.8-6-2.08-11.12-2.47-2.36-.06-5.05.84-6.6-2-2.85-1.42-6.89-2.27-9-4.77-1.06-1-2.1-2.86-3.25-2.95-2.49-.19-3.68-1.69-4.85-3.32-2-2.84-6.05-4.29-6-8.62-3.47-2.64-4.59-7-7-10.44-.25-.29,0-.94-.14-1.4s-.14-1.34-.47-1.51c-3.92-2.29.42-7.48-3.19-9.94-2.62,2.21-.49,6.12-2.05,8.91-3.19,4-3.71,9.17-7,12.71-2.81,2.45.09,3.92-4.75,7.17-2.61,2.2-3.81,6.23-8,6.42-1.41,1.39-3,3.57-4.78,4.37-1.32.55-2.63.7-3.46,2.1-.3.49-1.21.63-1.87.86-3.67.74-2,3.07-7.5,2.45-5.36-.56-3.54,3.34-10.17,2.45,2.6,2.34,1.77,5.14,1.66,7.67-.15,3.16,2.78,5,3.05,8,0,.14.45.2.58.38.31.44.83,1,.78,1.39-.41,2.89,1.92,4.21,3.42,5.87,6.47,6.81,12.32,15.17,21.59,18.07,1,2.1,2.83,1.72,4.56,1.75,2.16,0,4.56-.61,5.83,2.11,5.2,1.23,11.33.14,16.79.43.73,0,1.85-.24,2.1-.72,1-1.92,2.63-1.81,4.32-1.83,2.23,0,4.67.67,6.19-1.91,9.91-2.66,15.41-12.11,22.44-19.07,2.69-2.69,2.81-7.56,5.18-10.38C185.48,67.48,184.21,63.91,185.61,59.59Zm3.53-52.74c-17.15.81-35-1.65-51.82,1a22.43,22.43,0,0,1,2.38,5.72c.23,2.14-.64,4.48.63,6.47,1.8,3.23,3.76,6.33,4.57,9.86,5,5.56,10.22,11,15.44,16.37,4.71,1.88,9.19,6.1,14,6.48,1.92,0,4.05-.57,5.22,1.85,5.12,1.47,11.37.2,16.8.56,3-.2,2.36-3.07,6.5-2.43,2.24,0,4.67.63,6-2.09a56.78,56.78,0,0,0,8.57-4.23c4.16-5.3,15.71-13.4,16.19-19.68,1.52-3,3.56-6.11,4.53-9.35a15.49,15.49,0,0,1,2.31-9.61C223.8,5.36,206.16,7.58,189.14,6.85Zm-109.78,0c-16.61,0-33.24-.05-49.86,0C27.88,7,26.93,8.8,28.14,9.65c2.59,1.84,1.52,4.43,2,6.73.82,2.89,1.52,6.23,3,8.76,2.42,7,8.39,11.64,13.35,16.91,2.34,2.26,3.89,5.77,7.9,5.9,1.21,1.37,3.65,2,5.08,2.89,2.38,4.38,8.09-.59,10.63,3.95,4.59,1,10.15.1,15,.4,4.5.67,3.26-2.17,6.47-2.42,6.2.93,10.81-3.78,16.13-6.15,7.39-7.8,16.08-14.9,19.16-25.36,2.83-4.4.73-9.18,3.85-13.47C114,5.33,96.38,7.59,79.36,6.86Z"/><path d="M161,127.19c-.42-2.8,2.22-6.18,4.16-2.62.05,2.35,1.26,6.73-1.74,7.57C161,131.68,160.89,129.46,161,127.19Z"/><path d="M217.1,62.21c-.59-2.65,1.92-6.38,4-3.1a33.54,33.54,0,0,1,0,6.57C218.92,69.14,216.45,64.92,217.1,62.21Z"/><path d="M77.07,105c-.68-2.88,2.23-6.52,4.14-2.95,0,2.36,1.29,6.85-1.85,7.55-2.09-.43-2.51-2.69-2.16-4.6Z"/><path d="M217.21,74.88c-.88-2.94,2.32-6.57,4-2.77.23,2.27,1,6.58-1.85,7.33C217.51,78.91,216.8,76.77,217.21,74.88Z"/><path d="M81.41,92.66c.79,2.93-2.26,6.37-4,2.75-.06-2.39-1.31-6.8,2-7.43,2.08.34,2.26,2.9,2.14,4.68Z"/><path d="M77.08,117.51c-.26-1.93.28-4.13,2.39-4.48,2.83.73,2,4.93,1.77,7.14-1.85,3.91-4.85.66-4.07-2.66Z"/><path d="M165.36,115.26c.78,2.95-2.24,6.39-4,2.67-.08-2.37-1.4-6.79,1.91-7.38,2.09.38,2.27,2.91,2.14,4.71Z"/><path d="M189.25,105c-.66-2.86,1.8-6.62,3.95-3.11.22,2.93,1.25,6.35-2.19,7.76-1.29-1.35-2.09-2.71-1.69-4.65Z"/><path d="M81.49,130.22c-.23,1.82.6,4.42-2.31,4.37-2.72,0-1.92-2.55-2.05-4.23C76.25,124.56,82.15,124,81.49,130.22Z"/><path d="M81.37,79.6c.78,3.68-1.91,7.4-4.12,2.63-.38-2.19-.68-6,2-6.71,1.45.3,2.58,2.43,2.11,4.08Z"/><path d="M189.35,92.35c-.84-2.81,2-6.3,3.86-2.87.3,2.89,1.18,6.16-2.07,7.69-1.32-1.42-2.29-2.78-1.84-4.82Z"/><path d="M137.58,122.72c.2,1.71-.49,4.15-2.62,4.27-2.9-1.36-2.46-7.38.29-9C137,119.33,137.88,120.3,137.58,122.72Z"/><path d="M189.35,129.89c-.7-3.12,1.63-6,3.84-3a30.72,30.72,0,0,1-.14,6.57c-2.39,3.19-4.39-1.11-3.81-3.61Z"/><path d="M221.52,124.93c.24,1.82-.29,4.23-2.29,4.51-2.7-.61-2.3-4.39-2-6.5,1.81-4.56,5-1.92,4.2,2Z"/><path d="M221.55,112.66c.53,2.47-2.39,6.77-4.16,2.86,0-2.42-1.32-6.8,2-7.43C221.4,108.55,221.64,110.58,221.55,112.66Z"/><path d="M217.22,87.61c-.42-1.89.31-4,2.2-4.49,3.22,1.18,2.86,7.3-.06,8.95-1.35-1.29-2.72-2.38-2.18-4.46Z"/><path d="M221.51,100.06c-.23,8-6,4-4.15-2.76,1.77-3.69,4.92-.24,4,2.76Z"/><path d="M189.36,117.45c-.8-2.78,1.9-6.38,3.83-3,.34,2.89,1.16,6.11-2,7.71-1.34-1.39-2.32-2.72-1.86-4.76Z"/><path d="M189.36,79.75c-.42-7.07,5.58-5,3.83,3.18-2.08,3.47-4.67-.37-3.85-3.18Z"/><path d="M53.18,62.33c.81,2.75-1.77,6.79-3.71,3-1.73-8.11,3.9-10.51,3.73-3Z"/><path d="M109.37,127.5c.6,2.8-1.79,6.82-3.83,3.06a23.85,23.85,0,0,1-.05-5.91c1.76-3.74,4.64.06,3.75,2.85Z"/><path d="M53.18,87.37c.85,2.76-1.88,6.74-3.73,2.95-.29-2.82-1-5.94,2-7.54,1.35,1.32,2.12,2.65,1.72,4.59Z"/><path d="M105.38,114.9c-.2-7.61,5.5-4.36,3.77,2.95-2,3.91-4.5.11-3.76-2.95Z"/><path d="M53.16,75c.33,7.79-5.43,4.54-3.71-3,1.9-3.73,4.58.26,3.74,3Z"/><path d="M53.19,125.22c.32,7.06-5.49,4.9-3.74-3.22,2-3.61,4.57.58,3.71,3.22Z"/><path d="M49.22,99.89c-.66-2.83,2-6.25,3.84-2.79.08,2.26,1.13,6.53-1.69,7.35-2-.46-2.37-2.7-2.06-4.55Z"/><path d="M53.28,112.7c.66,2.68-1.93,6.22-3.82,2.88,0-2.38-1.27-6.77,1.92-7.47,1.87.43,2,2.91,1.8,4.59Z"/><path d="M133.2,133.77c-.6-4.36,4.84-4.3,4.29,0C138.18,138.16,132.51,138.23,133.2,133.77Z"/><path d="M219.22,132c2.28,2.64,2.73,3.25.2,5.23C216.73,135.4,217,134.78,219.22,132Z"/><path d="M54.23,135.16c-2.28,1.94-3.94,2.77-4.77,0C50.5,132.3,51.84,132.82,54.23,135.16Z"/></g></g></svg>