<svg xmlns="http://www.w3.org/2000/svg" viewBox="0 0 166.55 241.63"><g id="Layer_2" data-name="Layer 2"><g id="Layer_1-2" data-name="Layer 1"><path d="M109.87,141.7c-2.8,31.5,1.79,64.53-2.67,95.41-3.54-2.73-2.41-7.48-2.86-11.41-.62-26.26-.31-52.53.37-78.78.19-7.1-1.37-8.71-8.39-7.18-5.75,4.48-2.14,19-3.49,26.27.79,22.94-.42,45.87-.35,68.82a3.38,3.38,0,0,1-2,4.12c-1.9-.24-2.48-3-2.28-4.73-1.54-31,3.13-63.86-1.86-93.89-5.41,16.9-1.1,37.21-2.31,55.24-.95,14,3.58,30.44-2.13,43.2-6.28-29-.37-62.1-2.49-92.44.3-7.05-5.08-6-9.78-4.46-4.28,23.52-.4,49.77-1.68,74.11-.9,7.51,2.46,16.4-1.77,23-5.44-16.68-1.27-37-3.35-54.86-1.63-13.89,3.75-29.52-.91-42.46-6.5,2.12,3,117-7,93-.55-29.51-.06-59-.83-88.55,1.3-5.83-9.28-7.45-8.48-.62-1.93,30.93,2,63.79-3,93.79-4.21-2.64-2-8-2.57-12.22-1.11-28,2.52-57.15-1.17-84.5-4.58,17.09-1.29,36.52-2.93,54.41-1.69,4.95,4,50.64-5.15,41.3C29,207.94,32,177,31.3,146.53c.44-6.79-7.94-3.35-12.09-4.06-8.51-1.6-2,37.22-3.72,44.4,0,3.85,3.61,74.14-4.41,49.56-.18-43.17-1.2-86.34-1.09-129.5,2.63-17.84,20.43-29.42,29.92-44.05C53.47,47.57,66.76,32,79.58,16.08c3-3.79,6-3.89,9.24-.4,18,18.7,35.42,37.89,52.62,57.31,13.83,14.55,18.3,17.41,16.07,38.47.17,34.53-.68,69.11,1.17,103.6.24,2.65-1.4,5.95-.79,8.39,1.07,4.09,2.3,14.21-2.81,15.08-.5.05-1.69-1.56-1.7-2.43-.17-15.28.24-30.55.25-45.83-1.85-7.58,3.74-54.54-5-51.66-6.14.73-6.72,1.22-6.9,7.39-2,31,.06,63-1.87,93.38-8.31-6.94-2.14-40.29-3.82-52.53-1.11-15.41,3.62-32.74-.38-47.2-1.79,1.2-2.74,2.61-2.4,4.83-1.89,31.43,3.68,65.61-2.16,95.71-4.63-5.18-1.23-12.92-2-19.3q0-33.72-.19-67.45c-1-4.34,2.12-13.77-4.25-14.07-9.1.21-8.07-.83-8.06,7.65-.81,30.23,2.61,61.65-1.43,91.3-7.14-8.42-1-25-2.88-35.89-.57-20.22,0-40.6-1.44-60.74Zm17.6-50.35,0-.6c6.49-.92,13.92,1.09,19.62-2.61-3.85-8.49-41.78-2.47-52.61-4.41-3.63-.36-4.3-4.13-3.94-7.25C92.35,69.63,86.11,49.25,95.7,49c6.91.1-.07,12.05,7.88,10.26,10.24-2.38,3.32,10.22,12.13,9.39,7.2-1.68,7.64,8.4,14.75,5.33,2.23-.45,2.95-1.69,1.68-3.6-7.72-11.21-18-20.43-26.95-30.6C99.81,36.37,87.66,15.25,82.05,22,67.27,40.09,50.23,57.79,36.8,76.33c3.53,2.54,13.34,1.16,14.33-4,.29-8.22,10.35-2.22,11.34-9.1.59-4.54,1.77-5.62,6.31-5.74,2.43-.06,3.93-.86,4.71-3.3,2.29-6.31,12.68-6,10.22,2-2.74,8,4.75,27.92-7.51,27.86-10,1-51-4-51.46,7.59C58.59,93.11,93.31,90.31,127.47,91.35Zm-23.29,42c.85-8.32,12.88-11.69,14.09-1.76.18.91,1.21,1.64,1.85,2.45,3.2-4.81,5.71-12.42,12.36-7.16,7.62,5.82,10.56-10.64,18.58,6.11,3.49-4.3,1.41-10.18,1.84-15.29,1-4.56-6-5.55-7.42-1.23-.43,1.17-1.76,2-2.69,3-3.13-1.5-2.95-6.06-6.62-6.17-3.88,0-3.95,4.32-6.81,6.17-6.35-10.38-6.25-7-11.76,1-2.66-3.18-5-9.75-9.38-4.44-.53,1.67-.8,3.73-2.51,4.93a5.77,5.77,0,0,1-2.88-4.2c-5.23-5.34-6-.48-9.21,3.87-7.09-8-6.85-7.92-13.41.61-2.83-1.77-1.84-6.41-5.44-6.55-3.53.19-2.68,4.51-5.39,6.25-3.1-1.33-2.58-5.64-6.06-5.78-4,0-3.55,4.69-6.64,6.52-6.48-6.91-6-6.32-11.53.83-5.45-6.46-5.27-7.39-11-.44-7.43-7.77-6.49-6.92-11.93,1.59-2.53-1-4.06-8.91-6.75-4.41.9,5-1.21,13.12,1.62,16.5.4-11.37,11.18-11.53,12.63-.3l.9-.06c.94-5.37,6.27-11.89,10.67-5.05,4.37,5.44,6.56-10.53,13.45-.64,3.73,6.12,5.22-5.19,10.39-2.67,4.31,1,3.67,5.32,5.74,8.41,2.34-3.46,3-9.11,8-9.05,5.25-.8,5.65,5,8.77,8.17.66-.92,1.73-1.78,1.92-2.79C91.3,121.67,102.72,124.93,104.18,133.38ZM140.5,108l0,1c4-1.11,13,1.5,12.44-4.74-.14-1.88-1.09-2.76-3.12-2.69C106,103.59,62,102,18.24,105.7c-15.82,11.91,38.4,3.37,43.54,4.52C88,109.32,114.26,108.75,140.5,108ZM99.93,131.42c.3-3.38-7.27-4.89-6.79-.54C94.35,134.51,97.57,133.87,99.93,131.42Zm43.14-4.72c-2.92,3.48-3.82,4.5-.16,7.07C145.8,131,147,130.35,143.07,126.7Zm-31.33.38c-3.1,3.37-3.52,4.31-.06,6.79C115,131.34,115.31,130.51,111.74,127.08Zm-29.09,4.83c-2.63-2.84-5-3.88-6.25-.41C77.78,134.9,79.53,134.87,82.65,131.91Zm45.32,2c2.87.21,3.6-5,.57-5.45C125.13,129.17,126.26,131.88,128,133.88Zm-80.89-1.5,3.26,2.84c2.18-2.19,2-3.64-.33-5.57Zm-7.65.76c-1.14-1.18-1.93-2-2.71-2.81-2.8,2-2.14,3.34.16,5.33Zm-13.07,0c-1.91-2.23-3.87-3.37-4.9-.36C23,135.13,23.92,136.25,26.36,133.09Zm40.6-.83c-2.38-2.43-4-3.09-5.1-.13C62.66,135.54,64.51,134.32,67,132.26Z"/><path d="M162,163.62c-2.67-22.1,5.95-62.09-4.6-79.42C138,60.93,118.4,37.86,97.48,16c-4-3-8.68-10.25-14.15-8.21C63.26,27.23,45.84,49.44,28.24,71.15,2.81,100.09,5.45,100.15,5.3,138c-.49,32.9.12,65.8,1.16,98.68,0,2,0,5.5-2.75,4.92-.89-.21-2-2.07-2-3.22-.54-17.7-1-35.4-1.3-53.11-1.3-28.19,1-56.48.49-84.75a10.54,10.54,0,0,1,2.46-7.15C29,62.59,52.07,29.48,81.23,1.83,83.33-.1,85.41-.72,87.71,1c22.08,19.74,40.46,43.58,60.85,65.09,6,8.78,16.94,16.34,18,27.39-1.32,46.58-.38,93.19-.81,139.78-7.32,23-3.07-65.54-4.09-69.67Z"/></g></g></svg>