<svg xmlns="http://www.w3.org/2000/svg" viewBox="0 0 254.2 171.96"><g id="Layer_2" data-name="Layer 2"><g id="Layer_1-2" data-name="Layer 1"><path d="M253.77,159.33c-6.72-50.65-11.19-112.67-58.18-143.18C111.67-26.67,19.16,18.88,9,114.62c-4,14.1-5.92,28.59-8.68,42.83-3.31,13.73,17.09,8.56,24.84,8.48,5.71-13.35,7.43-31.48,13.26-45.79,9-40.64,31.62-89.83,79.56-90.59,29.46-1,62.84,2.23,81.94,27.54C222.46,89,219,132,222.69,169.08c9.13,6.51,20.21.24,29.92-1.78C255.34,165.83,253.69,161.84,253.77,159.33Zm-19.57,8.52c-13.39,6-6.44-33.13-9.64-42.27-3.24-24-6-51.08-21.53-70.65-21.77-29.57-63.11-33.9-97-28.66-45.52,7.58-63.57,55.3-73.26,95-4.59,8.12-6.53,42.15-15.66,40.51C14.2,142.47,27.35,116,31.77,95c19.83-69.94,85.8-95.08,150-65.78C228,52.19,233.28,124.45,234.2,167.85Zm13.24-3.77c-5.3,2.4-5.36,2.37-6.22-3.3-5.89-38-7.51-80.72-27.9-114.15C151.9-19.73,43.34,8.1,23.93,97.94c-18.63,86.41-27,82.2-6.06-1.35C28.92,17.77,122.21-16.2,189.23,17,237.66,45.28,247.18,113.57,247.44,164.08Z"/></g></g></svg>