<svg width="714" height="351" viewBox="0 0 714 351" fill="none" xmlns="http://www.w3.org/2000/svg">
<g filter="url(#filter0_d_271_56)">
<mask id="path-1-inside-1_271_56" fill="white">
<path fill-rule="evenodd" clip-rule="evenodd" d="M700 39C705.523 39 710 43.4772 710 49V195.215C710 200.738 705.523 205.215 700 205.215H385.825C360.087 207.822 347.05 213.785 335.974 218.851C327.49 222.731 320.158 226.085 309.15 227C321.562 224.503 327.554 211.057 314.482 205.215H180C174.477 205.215 170 200.738 170 195.215V49C170 43.4772 174.477 39 180 39H700Z"/>
</mask>
<path fill-rule="evenodd" clip-rule="evenodd" d="M700 39C705.523 39 710 43.4772 710 49V195.215C710 200.738 705.523 205.215 700 205.215H385.825C360.087 207.822 347.05 213.785 335.974 218.851C327.49 222.731 320.158 226.085 309.15 227C321.562 224.503 327.554 211.057 314.482 205.215H180C174.477 205.215 170 200.738 170 195.215V49C170 43.4772 174.477 39 180 39H700Z" fill="white"/>
<path d="M385.825 205.215L385.775 204.718L385.8 204.715H385.825V205.215ZM335.974 218.851L336.182 219.306L336.182 219.306L335.974 218.851ZM309.15 227L309.191 227.498L309.051 226.51L309.15 227ZM314.482 205.215V204.715H314.588L314.686 204.759L314.482 205.215ZM709.5 49C709.5 43.7533 705.247 39.5 700 39.5V38.5C705.799 38.5 710.5 43.201 710.5 49H709.5ZM709.5 195.215V49H710.5V195.215H709.5ZM700 204.715C705.247 204.715 709.5 200.462 709.5 195.215H710.5C710.5 201.014 705.799 205.715 700 205.715V204.715ZM385.825 204.715H700V205.715H385.825V204.715ZM385.876 205.713C360.215 208.311 347.233 214.251 336.182 219.306L335.766 218.396C346.866 213.319 359.96 207.332 385.775 204.718L385.876 205.713ZM336.182 219.306C327.696 223.187 320.294 226.576 309.191 227.498L309.108 226.502C320.021 225.595 327.284 222.276 335.766 218.396L336.182 219.306ZM309.051 226.51C315.118 225.289 319.548 221.406 320.897 217.209C321.568 215.12 321.48 212.951 320.464 210.96C319.445 208.964 317.469 207.098 314.278 205.672L314.686 204.759C318.031 206.254 320.208 208.259 321.354 210.505C322.503 212.756 322.593 215.2 321.849 217.515C320.367 222.125 315.594 226.214 309.248 227.49L309.051 226.51ZM180 204.715H314.482V205.715H180V204.715ZM170.5 195.215C170.5 200.462 174.753 204.715 180 204.715V205.715C174.201 205.715 169.5 201.014 169.5 195.215H170.5ZM170.5 49V195.215H169.5V49H170.5ZM180 39.5C174.753 39.5 170.5 43.7533 170.5 49H169.5C169.5 43.201 174.201 38.5 180 38.5V39.5ZM700 39.5H180V38.5H700V39.5Z" fill="black" mask="url(#path-1-inside-1_271_56)"/>
</g>
<path d="M356.394 89.506C356.571 89.506 356.725 89.576 356.856 89.716L358.158 91.13C357.337 92.1193 356.329 92.8847 355.134 93.426C353.939 93.958 352.511 94.224 350.85 94.224C349.375 94.224 348.041 93.972 346.846 93.468C345.661 92.9547 344.648 92.2453 343.808 91.34C342.968 90.4253 342.319 89.338 341.862 88.078C341.414 86.818 341.19 85.432 341.19 83.92C341.19 82.408 341.428 81.022 341.904 79.762C342.389 78.4927 343.066 77.4053 343.934 76.5C344.811 75.5853 345.857 74.876 347.07 74.372C348.293 73.868 349.637 73.616 351.102 73.616C352.558 73.616 353.841 73.854 354.952 74.33C356.072 74.7967 357.043 75.422 357.864 76.206L356.786 77.732C356.711 77.8347 356.623 77.9233 356.52 77.998C356.417 78.0727 356.277 78.11 356.1 78.11C355.913 78.11 355.699 78.026 355.456 77.858C355.223 77.6807 354.919 77.4893 354.546 77.284C354.182 77.0693 353.72 76.878 353.16 76.71C352.609 76.5327 351.919 76.444 351.088 76.444C350.127 76.444 349.245 76.612 348.442 76.948C347.639 77.284 346.949 77.774 346.37 78.418C345.791 79.062 345.339 79.846 345.012 80.77C344.695 81.694 344.536 82.744 344.536 83.92C344.536 85.1053 344.704 86.1647 345.04 87.098C345.376 88.022 345.838 88.806 346.426 89.45C347.014 90.0847 347.705 90.57 348.498 90.906C349.291 91.242 350.145 91.41 351.06 91.41C351.62 91.41 352.119 91.382 352.558 91.326C353.006 91.2607 353.417 91.1627 353.79 91.032C354.163 90.892 354.513 90.7193 354.84 90.514C355.176 90.3087 355.507 90.0567 355.834 89.758C356.021 89.59 356.207 89.506 356.394 89.506ZM366.294 73.28V94H363.284V73.28H366.294ZM375.945 79.72V94H372.935V79.72H375.945ZM376.449 75.408C376.449 75.6787 376.393 75.9353 376.281 76.178C376.178 76.4207 376.034 76.6353 375.847 76.822C375.66 76.9993 375.441 77.144 375.189 77.256C374.946 77.3587 374.685 77.41 374.405 77.41C374.134 77.41 373.878 77.3587 373.635 77.256C373.402 77.144 373.196 76.9993 373.019 76.822C372.842 76.6353 372.697 76.4207 372.585 76.178C372.482 75.9353 372.431 75.6787 372.431 75.408C372.431 75.128 372.482 74.8667 372.585 74.624C372.697 74.3813 372.842 74.1713 373.019 73.994C373.196 73.8073 373.402 73.6627 373.635 73.56C373.878 73.448 374.134 73.392 374.405 73.392C374.685 73.392 374.946 73.448 375.189 73.56C375.441 73.6627 375.66 73.8073 375.847 73.994C376.034 74.1713 376.178 74.3813 376.281 74.624C376.393 74.8667 376.449 75.128 376.449 75.408ZM392.621 82.52C392.528 82.6413 392.439 82.7347 392.355 82.8C392.271 82.8653 392.15 82.898 391.991 82.898C391.832 82.898 391.664 82.842 391.487 82.73C391.319 82.618 391.114 82.4967 390.871 82.366C390.638 82.226 390.353 82.1 390.017 81.988C389.681 81.876 389.261 81.82 388.757 81.82C388.104 81.82 387.53 81.9367 387.035 82.17C386.55 82.4033 386.139 82.7393 385.803 83.178C385.476 83.6073 385.229 84.1347 385.061 84.76C384.902 85.376 384.823 86.0713 384.823 86.846C384.823 87.6487 384.912 88.3627 385.089 88.988C385.266 89.6133 385.518 90.1407 385.845 90.57C386.181 90.9993 386.582 91.326 387.049 91.55C387.525 91.774 388.057 91.886 388.645 91.886C389.224 91.886 389.695 91.816 390.059 91.676C390.423 91.536 390.726 91.382 390.969 91.214C391.212 91.046 391.417 90.892 391.585 90.752C391.762 90.612 391.949 90.542 392.145 90.542C392.388 90.542 392.574 90.6353 392.705 90.822L393.559 91.928C393.214 92.348 392.831 92.7027 392.411 92.992C391.991 93.2813 391.548 93.5193 391.081 93.706C390.614 93.8833 390.129 94.0093 389.625 94.084C389.121 94.168 388.612 94.21 388.099 94.21C387.212 94.21 386.382 94.0467 385.607 93.72C384.842 93.384 384.17 92.9033 383.591 92.278C383.022 91.6433 382.569 90.8733 382.233 89.968C381.906 89.0533 381.743 88.0127 381.743 86.846C381.743 85.7913 381.892 84.816 382.191 83.92C382.49 83.0147 382.924 82.2353 383.493 81.582C384.072 80.9287 384.786 80.42 385.635 80.056C386.484 79.6827 387.464 79.496 388.575 79.496C389.611 79.496 390.521 79.664 391.305 80C392.098 80.336 392.803 80.812 393.419 81.428L392.621 82.52ZM401.79 73.28V85.292H402.434C402.639 85.292 402.807 85.264 402.938 85.208C403.069 85.152 403.204 85.0353 403.344 84.858L407.348 80.28C407.488 80.0933 407.642 79.9533 407.81 79.86C407.978 79.7667 408.193 79.72 408.454 79.72H411.184L406.368 85.152C406.088 85.516 405.78 85.8053 405.444 86.02C405.631 86.1507 405.794 86.3 405.934 86.468C406.074 86.6267 406.209 86.8087 406.34 87.014L411.478 94H408.79C408.547 94 408.337 93.9627 408.16 93.888C407.992 93.804 407.843 93.6547 407.712 93.44L403.582 87.84C403.442 87.6253 403.302 87.49 403.162 87.434C403.022 87.3687 402.812 87.336 402.532 87.336H401.79V94H398.78V73.28H401.79ZM432.156 79.496C433.21 79.496 434.162 79.6687 435.012 80.014C435.87 80.3593 436.598 80.8493 437.196 81.484C437.802 82.1187 438.269 82.8887 438.596 83.794C438.922 84.6993 439.086 85.7167 439.086 86.846C439.086 87.9753 438.922 88.9927 438.596 89.898C438.269 90.8033 437.802 91.578 437.196 92.222C436.598 92.8567 435.87 93.3467 435.012 93.692C434.162 94.0373 433.21 94.21 432.156 94.21C431.092 94.21 430.13 94.0373 429.272 93.692C428.422 93.3467 427.694 92.8567 427.088 92.222C426.481 91.578 426.014 90.8033 425.688 89.898C425.361 88.9927 425.198 87.9753 425.198 86.846C425.198 85.7167 425.361 84.6993 425.688 83.794C426.014 82.8887 426.481 82.1187 427.088 81.484C427.694 80.8493 428.422 80.3593 429.272 80.014C430.13 79.6687 431.092 79.496 432.156 79.496ZM432.156 91.858C433.444 91.858 434.4 91.4287 435.026 90.57C435.66 89.702 435.978 88.4653 435.978 86.86C435.978 85.2547 435.66 84.018 435.026 83.15C434.4 82.2727 433.444 81.834 432.156 81.834C430.849 81.834 429.878 82.2727 429.244 83.15C428.609 84.018 428.292 85.2547 428.292 86.86C428.292 88.4653 428.609 89.702 429.244 90.57C429.878 91.4287 430.849 91.858 432.156 91.858ZM447.592 81.61C447.9 81.2927 448.217 81.008 448.544 80.756C448.88 80.4947 449.234 80.2707 449.608 80.084C449.981 79.8973 450.378 79.7527 450.798 79.65C451.218 79.5473 451.675 79.496 452.17 79.496C452.954 79.496 453.64 79.6267 454.228 79.888C454.825 80.1493 455.324 80.518 455.726 80.994C456.136 81.47 456.444 82.044 456.65 82.716C456.855 83.3787 456.958 84.1113 456.958 84.914V94H453.962V84.914C453.962 83.9527 453.738 83.206 453.29 82.674C452.851 82.142 452.179 81.876 451.274 81.876C450.602 81.876 449.976 82.03 449.398 82.338C448.828 82.646 448.292 83.066 447.788 83.598V94H444.778V79.72H446.598C447.008 79.72 447.27 79.9113 447.382 80.294L447.592 81.61ZM473.046 94V79.72H474.866C475.276 79.72 475.538 79.9113 475.65 80.294L475.846 81.54C476.107 81.2413 476.378 80.9707 476.658 80.728C476.938 80.476 477.236 80.2613 477.554 80.084C477.88 79.8973 478.226 79.7527 478.59 79.65C478.963 79.5473 479.364 79.496 479.794 79.496C480.251 79.496 480.671 79.5613 481.054 79.692C481.436 79.8227 481.772 80.0093 482.062 80.252C482.36 80.4947 482.617 80.7887 482.832 81.134C483.046 81.4793 483.224 81.8667 483.364 82.296C483.578 81.8013 483.849 81.3767 484.176 81.022C484.502 80.6673 484.866 80.378 485.268 80.154C485.669 79.93 486.094 79.7667 486.542 79.664C486.999 79.552 487.461 79.496 487.928 79.496C488.693 79.496 489.374 79.6173 489.972 79.86C490.578 80.1027 491.087 80.4573 491.498 80.924C491.918 81.3813 492.235 81.946 492.45 82.618C492.664 83.29 492.772 84.0553 492.772 84.914V94H489.762V84.914C489.762 83.906 489.542 83.15 489.104 82.646C488.674 82.1327 488.035 81.876 487.186 81.876C486.803 81.876 486.444 81.9413 486.108 82.072C485.772 82.2027 485.478 82.394 485.226 82.646C484.974 82.898 484.773 83.2153 484.624 83.598C484.484 83.9713 484.414 84.41 484.414 84.914V94H481.404V84.914C481.404 83.8687 481.194 83.1033 480.774 82.618C480.354 82.1233 479.738 81.876 478.926 81.876C478.366 81.876 477.848 82.0207 477.372 82.31C476.896 82.59 476.457 82.9773 476.056 83.472V94H473.046ZM508.454 85.25C508.454 84.746 508.379 84.2793 508.23 83.85C508.09 83.4113 507.88 83.0333 507.6 82.716C507.32 82.3893 506.97 82.1373 506.55 81.96C506.139 81.7733 505.663 81.68 505.122 81.68C504.03 81.68 503.171 81.9927 502.546 82.618C501.921 83.2433 501.524 84.1207 501.356 85.25H508.454ZM501.272 87.098C501.309 87.91 501.435 88.6147 501.65 89.212C501.865 89.8 502.149 90.29 502.504 90.682C502.868 91.074 503.297 91.368 503.792 91.564C504.296 91.7507 504.856 91.844 505.472 91.844C506.06 91.844 506.569 91.7787 506.998 91.648C507.427 91.508 507.801 91.3587 508.118 91.2C508.435 91.032 508.706 90.8827 508.93 90.752C509.154 90.612 509.359 90.542 509.546 90.542C509.789 90.542 509.975 90.6353 510.106 90.822L510.96 91.928C510.605 92.348 510.204 92.7027 509.756 92.992C509.308 93.2813 508.832 93.5193 508.328 93.706C507.824 93.8833 507.306 94.0093 506.774 94.084C506.242 94.168 505.724 94.21 505.22 94.21C504.231 94.21 503.311 94.0467 502.462 93.72C501.622 93.384 500.889 92.894 500.264 92.25C499.648 91.606 499.163 90.808 498.808 89.856C498.463 88.904 498.29 87.8073 498.29 86.566C498.29 85.5767 498.444 84.6527 498.752 83.794C499.069 82.9353 499.517 82.1887 500.096 81.554C500.684 80.9193 501.393 80.42 502.224 80.056C503.064 79.6827 504.011 79.496 505.066 79.496C505.943 79.496 506.755 79.6407 507.502 79.93C508.249 80.21 508.893 80.6253 509.434 81.176C509.975 81.7267 510.395 82.4033 510.694 83.206C511.002 83.9993 511.156 84.9047 511.156 85.922C511.156 86.3887 511.105 86.7013 511.002 86.86C510.899 87.0187 510.713 87.098 510.442 87.098H501.272ZM531.114 94.224C529.928 94.224 529.014 93.8927 528.37 93.23C527.735 92.558 527.418 91.6153 527.418 90.402V82.086H525.85C525.682 82.086 525.537 82.0347 525.416 81.932C525.294 81.82 525.234 81.6567 525.234 81.442V80.224L527.544 79.888L528.202 75.758C528.248 75.5993 528.328 75.4733 528.44 75.38C528.552 75.2773 528.701 75.226 528.888 75.226H530.428V79.916H534.39V82.086H530.428V90.192C530.428 90.7053 530.554 91.0973 530.806 91.368C531.058 91.6387 531.394 91.774 531.814 91.774C532.047 91.774 532.248 91.746 532.416 91.69C532.584 91.6247 532.728 91.5593 532.85 91.494C532.971 91.4193 533.074 91.354 533.158 91.298C533.251 91.2327 533.34 91.2 533.424 91.2C533.592 91.2 533.727 91.2933 533.83 91.48L534.726 92.95C534.259 93.3607 533.708 93.678 533.074 93.902C532.439 94.1167 531.786 94.224 531.114 94.224ZM545.627 79.496C546.681 79.496 547.633 79.6687 548.483 80.014C549.341 80.3593 550.069 80.8493 550.667 81.484C551.273 82.1187 551.74 82.8887 552.067 83.794C552.393 84.6993 552.557 85.7167 552.557 86.846C552.557 87.9753 552.393 88.9927 552.067 89.898C551.74 90.8033 551.273 91.578 550.667 92.222C550.069 92.8567 549.341 93.3467 548.483 93.692C547.633 94.0373 546.681 94.21 545.627 94.21C544.563 94.21 543.601 94.0373 542.743 93.692C541.893 93.3467 541.165 92.8567 540.559 92.222C539.952 91.578 539.485 90.8033 539.159 89.898C538.832 88.9927 538.669 87.9753 538.669 86.846C538.669 85.7167 538.832 84.6993 539.159 83.794C539.485 82.8887 539.952 82.1187 540.559 81.484C541.165 80.8493 541.893 80.3593 542.743 80.014C543.601 79.6687 544.563 79.496 545.627 79.496ZM545.627 91.858C546.915 91.858 547.871 91.4287 548.497 90.57C549.131 89.702 549.449 88.4653 549.449 86.86C549.449 85.2547 549.131 84.018 548.497 83.15C547.871 82.2727 546.915 81.834 545.627 81.834C544.32 81.834 543.349 82.2727 542.715 83.15C542.08 84.018 541.763 85.2547 541.763 86.86C541.763 88.4653 542.08 89.702 542.715 90.57C543.349 91.4287 544.32 91.858 545.627 91.858ZM564.423 79.496C565.478 79.496 566.43 79.6687 567.279 80.014C568.138 80.3593 568.866 80.8493 569.463 81.484C570.07 82.1187 570.536 82.8887 570.863 83.794C571.19 84.6993 571.353 85.7167 571.353 86.846C571.353 87.9753 571.19 88.9927 570.863 89.898C570.536 90.8033 570.07 91.578 569.463 92.222C568.866 92.8567 568.138 93.3467 567.279 93.692C566.43 94.0373 565.478 94.21 564.423 94.21C563.359 94.21 562.398 94.0373 561.539 93.692C560.69 93.3467 559.962 92.8567 559.355 92.222C558.748 91.578 558.282 90.8033 557.955 89.898C557.628 88.9927 557.465 87.9753 557.465 86.846C557.465 85.7167 557.628 84.6993 557.955 83.794C558.282 82.8887 558.748 82.1187 559.355 81.484C559.962 80.8493 560.69 80.3593 561.539 80.014C562.398 79.6687 563.359 79.496 564.423 79.496ZM564.423 91.858C565.711 91.858 566.668 91.4287 567.293 90.57C567.928 89.702 568.245 88.4653 568.245 86.86C568.245 85.2547 567.928 84.018 567.293 83.15C566.668 82.2727 565.711 81.834 564.423 81.834C563.116 81.834 562.146 82.2727 561.511 83.15C560.876 84.018 560.559 85.2547 560.559 86.86C560.559 88.4653 560.876 89.702 561.511 90.57C562.146 91.4287 563.116 91.858 564.423 91.858ZM595.344 82.31C595.269 82.4407 595.185 82.534 595.092 82.59C594.998 82.646 594.882 82.674 594.742 82.674C594.583 82.674 594.41 82.6273 594.224 82.534C594.037 82.4313 593.818 82.3193 593.566 82.198C593.314 82.0767 593.015 81.9693 592.67 81.876C592.334 81.7733 591.937 81.722 591.48 81.722C591.106 81.722 590.766 81.7687 590.458 81.862C590.159 81.946 589.902 82.072 589.688 82.24C589.482 82.3987 589.324 82.59 589.212 82.814C589.1 83.0287 589.044 83.262 589.044 83.514C589.044 83.85 589.146 84.13 589.352 84.354C589.557 84.578 589.828 84.774 590.164 84.942C590.5 85.1007 590.882 85.2453 591.312 85.376C591.741 85.5067 592.18 85.6467 592.628 85.796C593.076 85.9453 593.514 86.118 593.944 86.314C594.373 86.51 594.756 86.7527 595.092 87.042C595.428 87.322 595.698 87.6673 595.904 88.078C596.109 88.4793 596.212 88.9693 596.212 89.548C596.212 90.22 596.09 90.8407 595.848 91.41C595.605 91.9793 595.25 92.474 594.784 92.894C594.317 93.314 593.734 93.6407 593.034 93.874C592.343 94.1073 591.55 94.224 590.654 94.224C590.159 94.224 589.678 94.1773 589.212 94.084C588.754 94 588.316 93.8833 587.896 93.734C587.485 93.5753 587.098 93.3887 586.734 93.174C586.379 92.9593 586.062 92.726 585.782 92.474L586.482 91.326C586.566 91.186 586.668 91.0787 586.79 91.004C586.92 90.92 587.079 90.878 587.266 90.878C587.462 90.878 587.653 90.9433 587.84 91.074C588.036 91.1953 588.26 91.3307 588.512 91.48C588.773 91.6293 589.086 91.7693 589.45 91.9C589.814 92.0213 590.266 92.082 590.808 92.082C591.256 92.082 591.643 92.0307 591.97 91.928C592.296 91.816 592.567 91.6667 592.782 91.48C592.996 91.2933 593.155 91.0833 593.258 90.85C593.36 90.6073 593.412 90.3507 593.412 90.08C593.412 89.716 593.309 89.4173 593.104 89.184C592.898 88.9507 592.623 88.75 592.278 88.582C591.942 88.414 591.554 88.2647 591.116 88.134C590.686 88.0033 590.248 87.8633 589.8 87.714C589.352 87.5647 588.908 87.392 588.47 87.196C588.04 87 587.653 86.7527 587.308 86.454C586.972 86.146 586.701 85.7773 586.496 85.348C586.29 84.9093 586.188 84.3773 586.188 83.752C586.188 83.1827 586.3 82.6413 586.524 82.128C586.757 81.6147 587.093 81.162 587.532 80.77C587.98 80.378 588.526 80.07 589.17 79.846C589.823 79.6127 590.574 79.496 591.424 79.496C592.385 79.496 593.258 79.65 594.042 79.958C594.826 80.266 595.484 80.686 596.016 81.218L595.344 82.31ZM611.206 85.25C611.206 84.746 611.132 84.2793 610.982 83.85C610.842 83.4113 610.632 83.0333 610.352 82.716C610.072 82.3893 609.722 82.1373 609.302 81.96C608.892 81.7733 608.416 81.68 607.874 81.68C606.782 81.68 605.924 81.9927 605.298 82.618C604.673 83.2433 604.276 84.1207 604.108 85.25H611.206ZM604.024 87.098C604.062 87.91 604.188 88.6147 604.402 89.212C604.617 89.8 604.902 90.29 605.256 90.682C605.62 91.074 606.05 91.368 606.544 91.564C607.048 91.7507 607.608 91.844 608.224 91.844C608.812 91.844 609.321 91.7787 609.75 91.648C610.18 91.508 610.553 91.3587 610.87 91.2C611.188 91.032 611.458 90.8827 611.682 90.752C611.906 90.612 612.112 90.542 612.298 90.542C612.541 90.542 612.728 90.6353 612.858 90.822L613.712 91.928C613.358 92.348 612.956 92.7027 612.508 92.992C612.06 93.2813 611.584 93.5193 611.08 93.706C610.576 93.8833 610.058 94.0093 609.526 94.084C608.994 94.168 608.476 94.21 607.972 94.21C606.983 94.21 606.064 94.0467 605.214 93.72C604.374 93.384 603.642 92.894 603.016 92.25C602.4 91.606 601.915 90.808 601.56 89.856C601.215 88.904 601.042 87.8073 601.042 86.566C601.042 85.5767 601.196 84.6527 601.504 83.794C601.822 82.9353 602.27 82.1887 602.848 81.554C603.436 80.9193 604.146 80.42 604.976 80.056C605.816 79.6827 606.764 79.496 607.818 79.496C608.696 79.496 609.508 79.6407 610.254 79.93C611.001 80.21 611.645 80.6253 612.186 81.176C612.728 81.7267 613.148 82.4033 613.446 83.206C613.754 83.9993 613.908 84.9047 613.908 85.922C613.908 86.3887 613.857 86.7013 613.754 86.86C613.652 87.0187 613.465 87.098 613.194 87.098H604.024ZM628.881 85.25C628.881 84.746 628.807 84.2793 628.657 83.85C628.517 83.4113 628.307 83.0333 628.027 82.716C627.747 82.3893 627.397 82.1373 626.977 81.96C626.567 81.7733 626.091 81.68 625.549 81.68C624.457 81.68 623.599 81.9927 622.973 82.618C622.348 83.2433 621.951 84.1207 621.783 85.25H628.881ZM621.699 87.098C621.737 87.91 621.863 88.6147 622.077 89.212C622.292 89.8 622.577 90.29 622.931 90.682C623.295 91.074 623.725 91.368 624.219 91.564C624.723 91.7507 625.283 91.844 625.899 91.844C626.487 91.844 626.996 91.7787 627.425 91.648C627.855 91.508 628.228 91.3587 628.545 91.2C628.863 91.032 629.133 90.8827 629.357 90.752C629.581 90.612 629.787 90.542 629.973 90.542C630.216 90.542 630.403 90.6353 630.533 90.822L631.387 91.928C631.033 92.348 630.631 92.7027 630.183 92.992C629.735 93.2813 629.259 93.5193 628.755 93.706C628.251 93.8833 627.733 94.0093 627.201 94.084C626.669 94.168 626.151 94.21 625.647 94.21C624.658 94.21 623.739 94.0467 622.889 93.72C622.049 93.384 621.317 92.894 620.691 92.25C620.075 91.606 619.59 90.808 619.235 89.856C618.89 88.904 618.717 87.8073 618.717 86.566C618.717 85.5767 618.871 84.6527 619.179 83.794C619.497 82.9353 619.945 82.1887 620.523 81.554C621.111 80.9193 621.821 80.42 622.651 80.056C623.491 79.6827 624.439 79.496 625.493 79.496C626.371 79.496 627.183 79.6407 627.929 79.93C628.676 80.21 629.32 80.6253 629.861 81.176C630.403 81.7267 630.823 82.4033 631.121 83.206C631.429 83.9993 631.583 84.9047 631.583 85.922C631.583 86.3887 631.532 86.7013 631.429 86.86C631.327 87.0187 631.14 87.098 630.869 87.098H621.699ZM346.412 128.224C345.227 128.224 344.312 127.893 343.668 127.23C343.033 126.558 342.716 125.615 342.716 124.402V116.086H341.148C340.98 116.086 340.835 116.035 340.714 115.932C340.593 115.82 340.532 115.657 340.532 115.442V114.224L342.842 113.888L343.5 109.758C343.547 109.599 343.626 109.473 343.738 109.38C343.85 109.277 343.999 109.226 344.186 109.226H345.726V113.916H349.688V116.086H345.726V124.192C345.726 124.705 345.852 125.097 346.104 125.368C346.356 125.639 346.692 125.774 347.112 125.774C347.345 125.774 347.546 125.746 347.714 125.69C347.882 125.625 348.027 125.559 348.148 125.494C348.269 125.419 348.372 125.354 348.456 125.298C348.549 125.233 348.638 125.2 348.722 125.2C348.89 125.2 349.025 125.293 349.128 125.48L350.024 126.95C349.557 127.361 349.007 127.678 348.372 127.902C347.737 128.117 347.084 128.224 346.412 128.224ZM357.871 115.414C358.459 114.835 359.103 114.373 359.803 114.028C360.503 113.673 361.319 113.496 362.253 113.496C363.037 113.496 363.723 113.627 364.311 113.888C364.908 114.149 365.407 114.518 365.809 114.994C366.219 115.47 366.527 116.044 366.733 116.716C366.938 117.379 367.041 118.111 367.041 118.914V128H364.045V118.914C364.045 117.953 363.821 117.206 363.373 116.674C362.934 116.142 362.262 115.876 361.357 115.876C360.685 115.876 360.059 116.03 359.481 116.338C358.911 116.646 358.375 117.066 357.871 117.598V128H354.861V107.28H357.871V115.414ZM382.722 119.25C382.722 118.746 382.647 118.279 382.498 117.85C382.358 117.411 382.148 117.033 381.868 116.716C381.588 116.389 381.238 116.137 380.818 115.96C380.407 115.773 379.931 115.68 379.39 115.68C378.298 115.68 377.439 115.993 376.814 116.618C376.189 117.243 375.792 118.121 375.624 119.25H382.722ZM375.54 121.098C375.577 121.91 375.703 122.615 375.918 123.212C376.133 123.8 376.417 124.29 376.772 124.682C377.136 125.074 377.565 125.368 378.06 125.564C378.564 125.751 379.124 125.844 379.74 125.844C380.328 125.844 380.837 125.779 381.266 125.648C381.695 125.508 382.069 125.359 382.386 125.2C382.703 125.032 382.974 124.883 383.198 124.752C383.422 124.612 383.627 124.542 383.814 124.542C384.057 124.542 384.243 124.635 384.374 124.822L385.228 125.928C384.873 126.348 384.472 126.703 384.024 126.992C383.576 127.281 383.1 127.519 382.596 127.706C382.092 127.883 381.574 128.009 381.042 128.084C380.51 128.168 379.992 128.21 379.488 128.21C378.499 128.21 377.579 128.047 376.73 127.72C375.89 127.384 375.157 126.894 374.532 126.25C373.916 125.606 373.431 124.808 373.076 123.856C372.731 122.904 372.558 121.807 372.558 120.566C372.558 119.577 372.712 118.653 373.02 117.794C373.337 116.935 373.785 116.189 374.364 115.554C374.952 114.919 375.661 114.42 376.492 114.056C377.332 113.683 378.279 113.496 379.334 113.496C380.211 113.496 381.023 113.641 381.77 113.93C382.517 114.21 383.161 114.625 383.702 115.176C384.243 115.727 384.663 116.403 384.962 117.206C385.27 117.999 385.424 118.905 385.424 119.922C385.424 120.389 385.373 120.701 385.27 120.86C385.167 121.019 384.981 121.098 384.71 121.098H375.54ZM403.94 113.72V128H400.93V113.72H403.94ZM404.444 109.408C404.444 109.679 404.388 109.935 404.276 110.178C404.173 110.421 404.028 110.635 403.842 110.822C403.655 110.999 403.436 111.144 403.184 111.256C402.941 111.359 402.68 111.41 402.4 111.41C402.129 111.41 401.872 111.359 401.63 111.256C401.396 111.144 401.191 110.999 401.014 110.822C400.836 110.635 400.692 110.421 400.58 110.178C400.477 109.935 400.426 109.679 400.426 109.408C400.426 109.128 400.477 108.867 400.58 108.624C400.692 108.381 400.836 108.171 401.014 107.994C401.191 107.807 401.396 107.663 401.63 107.56C401.872 107.448 402.129 107.392 402.4 107.392C402.68 107.392 402.941 107.448 403.184 107.56C403.436 107.663 403.655 107.807 403.842 107.994C404.028 108.171 404.173 108.381 404.276 108.624C404.388 108.867 404.444 109.128 404.444 109.408ZM413.336 115.61C413.644 115.293 413.961 115.008 414.288 114.756C414.624 114.495 414.978 114.271 415.352 114.084C415.725 113.897 416.122 113.753 416.542 113.65C416.962 113.547 417.419 113.496 417.914 113.496C418.698 113.496 419.384 113.627 419.972 113.888C420.569 114.149 421.068 114.518 421.47 114.994C421.88 115.47 422.188 116.044 422.394 116.716C422.599 117.379 422.702 118.111 422.702 118.914V128H419.706V118.914C419.706 117.953 419.482 117.206 419.034 116.674C418.595 116.142 417.923 115.876 417.018 115.876C416.346 115.876 415.72 116.03 415.142 116.338C414.572 116.646 414.036 117.066 413.532 117.598V128H410.522V113.72H412.342C412.752 113.72 413.014 113.911 413.126 114.294L413.336 115.61ZM437.543 116.31C437.468 116.441 437.384 116.534 437.291 116.59C437.197 116.646 437.081 116.674 436.941 116.674C436.782 116.674 436.609 116.627 436.423 116.534C436.236 116.431 436.017 116.319 435.765 116.198C435.513 116.077 435.214 115.969 434.869 115.876C434.533 115.773 434.136 115.722 433.679 115.722C433.305 115.722 432.965 115.769 432.657 115.862C432.358 115.946 432.101 116.072 431.887 116.24C431.681 116.399 431.523 116.59 431.411 116.814C431.299 117.029 431.243 117.262 431.243 117.514C431.243 117.85 431.345 118.13 431.551 118.354C431.756 118.578 432.027 118.774 432.363 118.942C432.699 119.101 433.081 119.245 433.511 119.376C433.94 119.507 434.379 119.647 434.827 119.796C435.275 119.945 435.713 120.118 436.143 120.314C436.572 120.51 436.955 120.753 437.291 121.042C437.627 121.322 437.897 121.667 438.103 122.078C438.308 122.479 438.411 122.969 438.411 123.548C438.411 124.22 438.289 124.841 438.047 125.41C437.804 125.979 437.449 126.474 436.983 126.894C436.516 127.314 435.933 127.641 435.233 127.874C434.542 128.107 433.749 128.224 432.853 128.224C432.358 128.224 431.877 128.177 431.411 128.084C430.953 128 430.515 127.883 430.095 127.734C429.684 127.575 429.297 127.389 428.933 127.174C428.578 126.959 428.261 126.726 427.981 126.474L428.681 125.326C428.765 125.186 428.867 125.079 428.989 125.004C429.119 124.92 429.278 124.878 429.465 124.878C429.661 124.878 429.852 124.943 430.039 125.074C430.235 125.195 430.459 125.331 430.711 125.48C430.972 125.629 431.285 125.769 431.649 125.9C432.013 126.021 432.465 126.082 433.007 126.082C433.455 126.082 433.842 126.031 434.169 125.928C434.495 125.816 434.766 125.667 434.981 125.48C435.195 125.293 435.354 125.083 435.457 124.85C435.559 124.607 435.611 124.351 435.611 124.08C435.611 123.716 435.508 123.417 435.303 123.184C435.097 122.951 434.822 122.75 434.477 122.582C434.141 122.414 433.753 122.265 433.315 122.134C432.885 122.003 432.447 121.863 431.999 121.714C431.551 121.565 431.107 121.392 430.669 121.196C430.239 121 429.852 120.753 429.507 120.454C429.171 120.146 428.9 119.777 428.695 119.348C428.489 118.909 428.387 118.377 428.387 117.752C428.387 117.183 428.499 116.641 428.723 116.128C428.956 115.615 429.292 115.162 429.731 114.77C430.179 114.378 430.725 114.07 431.369 113.846C432.022 113.613 432.773 113.496 433.623 113.496C434.584 113.496 435.457 113.65 436.241 113.958C437.025 114.266 437.683 114.686 438.215 115.218L437.543 116.31ZM448.617 128.224C447.432 128.224 446.517 127.893 445.873 127.23C445.239 126.558 444.921 125.615 444.921 124.402V116.086H443.353C443.185 116.086 443.041 116.035 442.919 115.932C442.798 115.82 442.737 115.657 442.737 115.442V114.224L445.047 113.888L445.705 109.758C445.752 109.599 445.831 109.473 445.943 109.38C446.055 109.277 446.205 109.226 446.391 109.226H447.931V113.916H451.893V116.086H447.931V124.192C447.931 124.705 448.057 125.097 448.309 125.368C448.561 125.639 448.897 125.774 449.317 125.774C449.551 125.774 449.751 125.746 449.919 125.69C450.087 125.625 450.232 125.559 450.353 125.494C450.475 125.419 450.577 125.354 450.661 125.298C450.755 125.233 450.843 125.2 450.927 125.2C451.095 125.2 451.231 125.293 451.333 125.48L452.229 126.95C451.763 127.361 451.212 127.678 450.577 127.902C449.943 128.117 449.289 128.224 448.617 128.224ZM459.908 116.366C460.356 115.461 460.897 114.751 461.532 114.238C462.167 113.715 462.927 113.454 463.814 113.454C464.122 113.454 464.411 113.491 464.682 113.566C464.953 113.631 465.195 113.734 465.41 113.874L465.2 116.142C465.163 116.301 465.102 116.413 465.018 116.478C464.943 116.534 464.841 116.562 464.71 116.562C464.57 116.562 464.369 116.539 464.108 116.492C463.847 116.436 463.571 116.408 463.282 116.408C462.862 116.408 462.489 116.469 462.162 116.59C461.845 116.711 461.555 116.889 461.294 117.122C461.042 117.355 460.818 117.64 460.622 117.976C460.426 118.312 460.244 118.695 460.076 119.124V128H457.066V113.72H458.816C459.133 113.72 459.353 113.781 459.474 113.902C459.595 114.014 459.679 114.215 459.726 114.504L459.908 116.366ZM482.242 113.72V128H480.422C480.021 128 479.764 127.809 479.652 127.426L479.428 126.096C479.129 126.413 478.812 126.703 478.476 126.964C478.149 127.225 477.799 127.449 477.426 127.636C477.053 127.823 476.651 127.967 476.222 128.07C475.802 128.173 475.349 128.224 474.864 128.224C474.08 128.224 473.389 128.093 472.792 127.832C472.195 127.571 471.691 127.202 471.28 126.726C470.879 126.25 470.575 125.681 470.37 125.018C470.165 124.346 470.062 123.609 470.062 122.806V113.72H473.072V122.806C473.072 123.767 473.291 124.514 473.73 125.046C474.178 125.578 474.855 125.844 475.76 125.844C476.423 125.844 477.039 125.695 477.608 125.396C478.187 125.088 478.728 124.668 479.232 124.136V113.72H482.242ZM498.791 116.52C498.698 116.641 498.609 116.735 498.525 116.8C498.441 116.865 498.32 116.898 498.161 116.898C498.003 116.898 497.835 116.842 497.657 116.73C497.489 116.618 497.284 116.497 497.041 116.366C496.808 116.226 496.523 116.1 496.187 115.988C495.851 115.876 495.431 115.82 494.927 115.82C494.274 115.82 493.7 115.937 493.205 116.17C492.72 116.403 492.309 116.739 491.973 117.178C491.647 117.607 491.399 118.135 491.231 118.76C491.073 119.376 490.993 120.071 490.993 120.846C490.993 121.649 491.082 122.363 491.259 122.988C491.437 123.613 491.689 124.141 492.015 124.57C492.351 124.999 492.753 125.326 493.219 125.55C493.695 125.774 494.227 125.886 494.815 125.886C495.394 125.886 495.865 125.816 496.229 125.676C496.593 125.536 496.897 125.382 497.139 125.214C497.382 125.046 497.587 124.892 497.755 124.752C497.933 124.612 498.119 124.542 498.315 124.542C498.558 124.542 498.745 124.635 498.875 124.822L499.729 125.928C499.384 126.348 499.001 126.703 498.581 126.992C498.161 127.281 497.718 127.519 497.251 127.706C496.785 127.883 496.299 128.009 495.795 128.084C495.291 128.168 494.783 128.21 494.269 128.21C493.383 128.21 492.552 128.047 491.777 127.72C491.012 127.384 490.34 126.903 489.761 126.278C489.192 125.643 488.739 124.873 488.403 123.968C488.077 123.053 487.913 122.013 487.913 120.846C487.913 119.791 488.063 118.816 488.361 117.92C488.66 117.015 489.094 116.235 489.663 115.582C490.242 114.929 490.956 114.42 491.805 114.056C492.655 113.683 493.635 113.496 494.745 113.496C495.781 113.496 496.691 113.664 497.475 114C498.269 114.336 498.973 114.812 499.589 115.428L498.791 116.52ZM518.81 128H515.8V116.086H508.842V124.192C508.842 124.705 508.968 125.097 509.22 125.368C509.472 125.639 509.808 125.774 510.228 125.774C510.462 125.774 510.662 125.746 510.83 125.69C510.998 125.625 511.143 125.559 511.264 125.494C511.386 125.419 511.488 125.354 511.572 125.298C511.666 125.233 511.754 125.2 511.838 125.2C512.006 125.2 512.142 125.293 512.244 125.48L513.14 126.95C512.674 127.361 512.123 127.678 511.488 127.902C510.854 128.117 510.2 128.224 509.528 128.224C508.343 128.224 507.428 127.893 506.784 127.23C506.15 126.558 505.832 125.615 505.832 124.402V116.086H504.264C504.096 116.086 503.952 116.035 503.83 115.932C503.709 115.82 503.648 115.657 503.648 115.442V114.224L505.958 113.888L506.616 109.758C506.663 109.599 506.742 109.473 506.854 109.38C506.966 109.277 507.116 109.226 507.302 109.226H508.842V113.916H518.81V128ZM519.426 109.338C519.426 109.609 519.37 109.865 519.258 110.108C519.156 110.341 519.011 110.551 518.824 110.738C518.638 110.915 518.418 111.06 518.166 111.172C517.924 111.275 517.667 111.326 517.396 111.326C517.126 111.326 516.869 111.275 516.626 111.172C516.393 111.06 516.183 110.915 515.996 110.738C515.819 110.551 515.674 110.341 515.562 110.108C515.46 109.865 515.408 109.609 515.408 109.338C515.408 109.058 515.46 108.797 515.562 108.554C515.674 108.302 515.819 108.087 515.996 107.91C516.183 107.723 516.393 107.579 516.626 107.476C516.869 107.364 517.126 107.308 517.396 107.308C517.667 107.308 517.924 107.364 518.166 107.476C518.418 107.579 518.638 107.723 518.824 107.91C519.011 108.087 519.156 108.302 519.258 108.554C519.37 108.797 519.426 109.058 519.426 109.338ZM531.588 113.496C532.643 113.496 533.595 113.669 534.444 114.014C535.303 114.359 536.031 114.849 536.628 115.484C537.235 116.119 537.702 116.889 538.028 117.794C538.355 118.699 538.518 119.717 538.518 120.846C538.518 121.975 538.355 122.993 538.028 123.898C537.702 124.803 537.235 125.578 536.628 126.222C536.031 126.857 535.303 127.347 534.444 127.692C533.595 128.037 532.643 128.21 531.588 128.21C530.524 128.21 529.563 128.037 528.704 127.692C527.855 127.347 527.127 126.857 526.52 126.222C525.914 125.578 525.447 124.803 525.12 123.898C524.794 122.993 524.63 121.975 524.63 120.846C524.63 119.717 524.794 118.699 525.12 117.794C525.447 116.889 525.914 116.119 526.52 115.484C527.127 114.849 527.855 114.359 528.704 114.014C529.563 113.669 530.524 113.496 531.588 113.496ZM531.588 125.858C532.876 125.858 533.833 125.429 534.458 124.57C535.093 123.702 535.41 122.465 535.41 120.86C535.41 119.255 535.093 118.018 534.458 117.15C533.833 116.273 532.876 115.834 531.588 115.834C530.282 115.834 529.311 116.273 528.676 117.15C528.042 118.018 527.724 119.255 527.724 120.86C527.724 122.465 528.042 123.702 528.676 124.57C529.311 125.429 530.282 125.858 531.588 125.858ZM547.025 115.61C547.333 115.293 547.65 115.008 547.977 114.756C548.313 114.495 548.667 114.271 549.041 114.084C549.414 113.897 549.811 113.753 550.231 113.65C550.651 113.547 551.108 113.496 551.603 113.496C552.387 113.496 553.073 113.627 553.661 113.888C554.258 114.149 554.757 114.518 555.159 114.994C555.569 115.47 555.877 116.044 556.083 116.716C556.288 117.379 556.391 118.111 556.391 118.914V128H553.395V118.914C553.395 117.953 553.171 117.206 552.723 116.674C552.284 116.142 551.612 115.876 550.707 115.876C550.035 115.876 549.409 116.03 548.831 116.338C548.261 116.646 547.725 117.066 547.221 117.598V128H544.211V113.72H546.031C546.441 113.72 546.703 113.911 546.815 114.294L547.025 115.61ZM571.232 116.31C571.157 116.441 571.073 116.534 570.98 116.59C570.887 116.646 570.77 116.674 570.63 116.674C570.471 116.674 570.299 116.627 570.112 116.534C569.925 116.431 569.706 116.319 569.454 116.198C569.202 116.077 568.903 115.969 568.558 115.876C568.222 115.773 567.825 115.722 567.368 115.722C566.995 115.722 566.654 115.769 566.346 115.862C566.047 115.946 565.791 116.072 565.576 116.24C565.371 116.399 565.212 116.59 565.1 116.814C564.988 117.029 564.932 117.262 564.932 117.514C564.932 117.85 565.035 118.13 565.24 118.354C565.445 118.578 565.716 118.774 566.052 118.942C566.388 119.101 566.771 119.245 567.2 119.376C567.629 119.507 568.068 119.647 568.516 119.796C568.964 119.945 569.403 120.118 569.832 120.314C570.261 120.51 570.644 120.753 570.98 121.042C571.316 121.322 571.587 121.667 571.792 122.078C571.997 122.479 572.1 122.969 572.1 123.548C572.1 124.22 571.979 124.841 571.736 125.41C571.493 125.979 571.139 126.474 570.672 126.894C570.205 127.314 569.622 127.641 568.922 127.874C568.231 128.107 567.438 128.224 566.542 128.224C566.047 128.224 565.567 128.177 565.1 128.084C564.643 128 564.204 127.883 563.784 127.734C563.373 127.575 562.986 127.389 562.622 127.174C562.267 126.959 561.95 126.726 561.67 126.474L562.37 125.326C562.454 125.186 562.557 125.079 562.678 125.004C562.809 124.92 562.967 124.878 563.154 124.878C563.35 124.878 563.541 124.943 563.728 125.074C563.924 125.195 564.148 125.331 564.4 125.48C564.661 125.629 564.974 125.769 565.338 125.9C565.702 126.021 566.155 126.082 566.696 126.082C567.144 126.082 567.531 126.031 567.858 125.928C568.185 125.816 568.455 125.667 568.67 125.48C568.885 125.293 569.043 125.083 569.146 124.85C569.249 124.607 569.3 124.351 569.3 124.08C569.3 123.716 569.197 123.417 568.992 123.184C568.787 122.951 568.511 122.75 568.166 122.582C567.83 122.414 567.443 122.265 567.004 122.134C566.575 122.003 566.136 121.863 565.688 121.714C565.24 121.565 564.797 121.392 564.358 121.196C563.929 121 563.541 120.753 563.196 120.454C562.86 120.146 562.589 119.777 562.384 119.348C562.179 118.909 562.076 118.377 562.076 117.752C562.076 117.183 562.188 116.641 562.412 116.128C562.645 115.615 562.981 115.162 563.42 114.77C563.868 114.378 564.414 114.07 565.058 113.846C565.711 113.613 566.463 113.496 567.312 113.496C568.273 113.496 569.146 113.65 569.93 113.958C570.714 114.266 571.372 114.686 571.904 115.218L571.232 116.31ZM595.131 121.756C594.058 121.793 593.153 121.882 592.415 122.022C591.678 122.153 591.081 122.325 590.623 122.54C590.166 122.745 589.835 122.993 589.629 123.282C589.433 123.571 589.335 123.889 589.335 124.234C589.335 124.57 589.387 124.859 589.489 125.102C589.601 125.335 589.751 125.531 589.937 125.69C590.133 125.839 590.357 125.951 590.609 126.026C590.871 126.091 591.155 126.124 591.463 126.124C592.247 126.124 592.919 125.979 593.479 125.69C594.049 125.391 594.599 124.962 595.131 124.402V121.756ZM587.151 115.708C588.766 114.205 590.689 113.454 592.919 113.454C593.741 113.454 594.469 113.589 595.103 113.86C595.747 114.121 596.284 114.495 596.713 114.98C597.152 115.465 597.483 116.044 597.707 116.716C597.941 117.379 598.057 118.116 598.057 118.928V128H596.713C596.424 128 596.205 127.958 596.055 127.874C595.906 127.781 595.78 127.599 595.677 127.328L595.383 126.166C595.019 126.493 594.66 126.787 594.305 127.048C593.951 127.3 593.582 127.515 593.199 127.692C592.826 127.869 592.42 128 591.981 128.084C591.552 128.177 591.076 128.224 590.553 128.224C589.975 128.224 589.433 128.145 588.929 127.986C588.435 127.827 588.005 127.589 587.641 127.272C587.277 126.945 586.988 126.544 586.773 126.068C586.568 125.592 586.465 125.032 586.465 124.388C586.465 123.837 586.61 123.301 586.899 122.778C587.198 122.255 587.683 121.789 588.355 121.378C589.037 120.958 589.928 120.613 591.029 120.342C592.14 120.071 593.507 119.917 595.131 119.88V118.928C595.131 117.901 594.912 117.136 594.473 116.632C594.035 116.128 593.391 115.876 592.541 115.876C591.963 115.876 591.477 115.951 591.085 116.1C590.693 116.24 590.353 116.394 590.063 116.562C589.774 116.73 589.517 116.889 589.293 117.038C589.069 117.178 588.831 117.248 588.579 117.248C588.374 117.248 588.197 117.197 588.047 117.094C587.907 116.982 587.791 116.847 587.697 116.688L587.151 115.708ZM609.479 120.734C610.413 120.734 611.113 120.496 611.579 120.02C612.046 119.544 612.279 118.923 612.279 118.158C612.279 117.374 612.046 116.753 611.579 116.296C611.113 115.839 610.413 115.61 609.479 115.61C608.555 115.61 607.855 115.839 607.379 116.296C606.913 116.753 606.679 117.374 606.679 118.158C606.679 118.531 606.74 118.877 606.861 119.194C606.983 119.511 607.16 119.787 607.393 120.02C607.627 120.244 607.916 120.421 608.261 120.552C608.616 120.673 609.022 120.734 609.479 120.734ZM613.665 128.7C613.665 128.383 613.572 128.131 613.385 127.944C613.208 127.748 612.965 127.599 612.657 127.496C612.349 127.384 611.99 127.305 611.579 127.258C611.169 127.202 610.73 127.165 610.263 127.146C609.806 127.118 609.335 127.095 608.849 127.076C608.373 127.048 607.911 127.001 607.463 126.936C607.015 127.169 606.647 127.449 606.357 127.776C606.077 128.103 605.937 128.481 605.937 128.91C605.937 129.19 606.007 129.451 606.147 129.694C606.297 129.937 606.521 130.147 606.819 130.324C607.127 130.501 607.515 130.641 607.981 130.744C608.457 130.847 609.027 130.898 609.689 130.898C611.015 130.898 612.009 130.693 612.671 130.282C613.334 129.871 613.665 129.344 613.665 128.7ZM616.689 114.238V115.358C616.689 115.731 616.465 115.96 616.017 116.044L614.589 116.282C614.832 116.823 614.953 117.425 614.953 118.088C614.953 118.788 614.813 119.423 614.533 119.992C614.263 120.561 613.885 121.047 613.399 121.448C612.914 121.849 612.335 122.157 611.663 122.372C610.991 122.587 610.263 122.694 609.479 122.694C609.181 122.694 608.887 122.68 608.597 122.652C608.317 122.615 608.042 122.568 607.771 122.512C607.501 122.671 607.3 122.839 607.169 123.016C607.039 123.193 606.973 123.375 606.973 123.562C606.973 123.87 607.109 124.099 607.379 124.248C607.65 124.397 608.005 124.505 608.443 124.57C608.891 124.635 609.4 124.677 609.969 124.696C610.539 124.715 611.117 124.747 611.705 124.794C612.293 124.841 612.872 124.92 613.441 125.032C614.011 125.135 614.515 125.312 614.953 125.564C615.401 125.807 615.761 126.138 616.031 126.558C616.302 126.978 616.437 127.524 616.437 128.196C616.437 128.812 616.283 129.414 615.975 130.002C615.667 130.59 615.219 131.113 614.631 131.57C614.053 132.027 613.343 132.391 612.503 132.662C611.663 132.942 610.707 133.082 609.633 133.082C608.569 133.082 607.641 132.979 606.847 132.774C606.063 132.569 605.405 132.289 604.873 131.934C604.351 131.589 603.959 131.187 603.697 130.73C603.445 130.273 603.319 129.797 603.319 129.302C603.319 128.63 603.529 128.056 603.949 127.58C604.379 127.104 604.957 126.731 605.685 126.46C605.293 126.273 604.976 126.017 604.733 125.69C604.5 125.363 604.383 124.934 604.383 124.402C604.383 123.982 604.537 123.543 604.845 123.086C605.153 122.629 605.615 122.241 606.231 121.924C605.522 121.532 604.962 121.014 604.551 120.37C604.141 119.717 603.935 118.956 603.935 118.088C603.935 117.379 604.071 116.739 604.341 116.17C604.621 115.601 605.009 115.115 605.503 114.714C605.998 114.313 606.581 114.005 607.253 113.79C607.935 113.575 608.677 113.468 609.479 113.468C610.711 113.468 611.785 113.725 612.699 114.238H616.689ZM629.497 121.756C628.423 121.793 627.518 121.882 626.781 122.022C626.043 122.153 625.446 122.325 624.989 122.54C624.531 122.745 624.2 122.993 623.995 123.282C623.799 123.571 623.701 123.889 623.701 124.234C623.701 124.57 623.752 124.859 623.855 125.102C623.967 125.335 624.116 125.531 624.303 125.69C624.499 125.839 624.723 125.951 624.975 126.026C625.236 126.091 625.521 126.124 625.829 126.124C626.613 126.124 627.285 125.979 627.845 125.69C628.414 125.391 628.965 124.962 629.497 124.402V121.756ZM621.517 115.708C623.131 114.205 625.054 113.454 627.285 113.454C628.106 113.454 628.834 113.589 629.469 113.86C630.113 114.121 630.649 114.495 631.079 114.98C631.517 115.465 631.849 116.044 632.073 116.716C632.306 117.379 632.423 118.116 632.423 118.928V128H631.079C630.789 128 630.57 127.958 630.421 127.874C630.271 127.781 630.145 127.599 630.043 127.328L629.749 126.166C629.385 126.493 629.025 126.787 628.671 127.048C628.316 127.3 627.947 127.515 627.565 127.692C627.191 127.869 626.785 128 626.347 128.084C625.917 128.177 625.441 128.224 624.919 128.224C624.34 128.224 623.799 128.145 623.295 127.986C622.8 127.827 622.371 127.589 622.007 127.272C621.643 126.945 621.353 126.544 621.139 126.068C620.933 125.592 620.831 125.032 620.831 124.388C620.831 123.837 620.975 123.301 621.265 122.778C621.563 122.255 622.049 121.789 622.721 121.378C623.402 120.958 624.293 120.613 625.395 120.342C626.505 120.071 627.873 119.917 629.497 119.88V118.928C629.497 117.901 629.277 117.136 628.839 116.632C628.4 116.128 627.756 115.876 626.907 115.876C626.328 115.876 625.843 115.951 625.451 116.1C625.059 116.24 624.718 116.394 624.429 116.562C624.139 116.73 623.883 116.889 623.659 117.038C623.435 117.178 623.197 117.248 622.945 117.248C622.739 117.248 622.562 117.197 622.413 117.094C622.273 116.982 622.156 116.847 622.063 116.688L621.517 115.708ZM641.885 113.72V128H638.875V113.72H641.885ZM642.389 109.408C642.389 109.679 642.333 109.935 642.221 110.178C642.118 110.421 641.974 110.635 641.787 110.822C641.6 110.999 641.381 111.144 641.129 111.256C640.886 111.359 640.625 111.41 640.345 111.41C640.074 111.41 639.818 111.359 639.575 111.256C639.342 111.144 639.136 110.999 638.959 110.822C638.782 110.635 638.637 110.421 638.525 110.178C638.422 109.935 638.371 109.679 638.371 109.408C638.371 109.128 638.422 108.867 638.525 108.624C638.637 108.381 638.782 108.171 638.959 107.994C639.136 107.807 639.342 107.663 639.575 107.56C639.818 107.448 640.074 107.392 640.345 107.392C640.625 107.392 640.886 107.448 641.129 107.56C641.381 107.663 641.6 107.807 641.787 107.994C641.974 108.171 642.118 108.381 642.221 108.624C642.333 108.867 642.389 109.128 642.389 109.408ZM651.281 115.61C651.589 115.293 651.906 115.008 652.233 114.756C652.569 114.495 652.923 114.271 653.297 114.084C653.67 113.897 654.067 113.753 654.487 113.65C654.907 113.547 655.364 113.496 655.859 113.496C656.643 113.496 657.329 113.627 657.917 113.888C658.514 114.149 659.013 114.518 659.415 114.994C659.825 115.47 660.133 116.044 660.339 116.716C660.544 117.379 660.647 118.111 660.647 118.914V128H657.651V118.914C657.651 117.953 657.427 117.206 656.979 116.674C656.54 116.142 655.868 115.876 654.963 115.876C654.291 115.876 653.665 116.03 653.087 116.338C652.517 116.646 651.981 117.066 651.477 117.598V128H648.467V113.72H650.287C650.697 113.72 650.959 113.911 651.071 114.294L651.281 115.61ZM344.97 147.72V162H341.96V147.72H344.97ZM345.474 143.408C345.474 143.679 345.418 143.935 345.306 144.178C345.203 144.421 345.059 144.635 344.872 144.822C344.685 144.999 344.466 145.144 344.214 145.256C343.971 145.359 343.71 145.41 343.43 145.41C343.159 145.41 342.903 145.359 342.66 145.256C342.427 145.144 342.221 144.999 342.044 144.822C341.867 144.635 341.722 144.421 341.61 144.178C341.507 143.935 341.456 143.679 341.456 143.408C341.456 143.128 341.507 142.867 341.61 142.624C341.722 142.381 341.867 142.171 342.044 141.994C342.221 141.807 342.427 141.663 342.66 141.56C342.903 141.448 343.159 141.392 343.43 141.392C343.71 141.392 343.971 141.448 344.214 141.56C344.466 141.663 344.685 141.807 344.872 141.994C345.059 142.171 345.203 142.381 345.306 142.624C345.418 142.867 345.474 143.128 345.474 143.408ZM352.518 162V150.114L351.118 149.918C350.885 149.871 350.693 149.787 350.544 149.666C350.404 149.545 350.334 149.372 350.334 149.148V147.916H352.518V146.712C352.518 145.9 352.635 145.172 352.868 144.528C353.111 143.884 353.451 143.338 353.89 142.89C354.338 142.442 354.879 142.101 355.514 141.868C356.149 141.625 356.863 141.504 357.656 141.504C357.983 141.504 358.291 141.527 358.58 141.574C358.879 141.621 359.168 141.691 359.448 141.784L359.392 143.296C359.373 143.548 359.247 143.697 359.014 143.744C358.79 143.791 358.505 143.814 358.16 143.814C357.74 143.814 357.362 143.865 357.026 143.968C356.69 144.061 356.401 144.225 356.158 144.458C355.925 144.691 355.743 144.999 355.612 145.382C355.491 145.765 355.43 146.241 355.43 146.81V147.916H359.336V150.086H355.528V162H352.518ZM385.49 147.72L377.622 166.06C377.519 166.275 377.393 166.443 377.244 166.564C377.104 166.685 376.885 166.746 376.586 166.746H374.36L376.992 161.034L371.168 147.72H373.786C374.038 147.72 374.229 147.781 374.36 147.902C374.5 148.014 374.603 148.149 374.668 148.308L378.07 156.414C378.154 156.647 378.229 156.881 378.294 157.114C378.369 157.338 378.439 157.571 378.504 157.814C378.579 157.571 378.653 157.333 378.728 157.1C378.803 156.867 378.887 156.633 378.98 156.4L382.242 148.308C382.307 148.14 382.415 148 382.564 147.888C382.723 147.776 382.895 147.72 383.082 147.72H385.49ZM396.013 147.496C397.067 147.496 398.019 147.669 398.869 148.014C399.727 148.359 400.455 148.849 401.053 149.484C401.659 150.119 402.126 150.889 402.453 151.794C402.779 152.699 402.943 153.717 402.943 154.846C402.943 155.975 402.779 156.993 402.453 157.898C402.126 158.803 401.659 159.578 401.053 160.222C400.455 160.857 399.727 161.347 398.869 161.692C398.019 162.037 397.067 162.21 396.013 162.21C394.949 162.21 393.987 162.037 393.129 161.692C392.279 161.347 391.551 160.857 390.945 160.222C390.338 159.578 389.871 158.803 389.545 157.898C389.218 156.993 389.055 155.975 389.055 154.846C389.055 153.717 389.218 152.699 389.545 151.794C389.871 150.889 390.338 150.119 390.945 149.484C391.551 148.849 392.279 148.359 393.129 148.014C393.987 147.669 394.949 147.496 396.013 147.496ZM396.013 159.858C397.301 159.858 398.257 159.429 398.883 158.57C399.517 157.702 399.835 156.465 399.835 154.86C399.835 153.255 399.517 152.018 398.883 151.15C398.257 150.273 397.301 149.834 396.013 149.834C394.706 149.834 393.735 150.273 393.101 151.15C392.466 152.018 392.149 153.255 392.149 154.86C392.149 156.465 392.466 157.702 393.101 158.57C393.735 159.429 394.706 159.858 396.013 159.858ZM420.675 147.72V162H418.855C418.453 162 418.197 161.809 418.085 161.426L417.861 160.096C417.562 160.413 417.245 160.703 416.909 160.964C416.582 161.225 416.232 161.449 415.859 161.636C415.485 161.823 415.084 161.967 414.655 162.07C414.235 162.173 413.782 162.224 413.297 162.224C412.513 162.224 411.822 162.093 411.225 161.832C410.627 161.571 410.123 161.202 409.713 160.726C409.311 160.25 409.008 159.681 408.803 159.018C408.597 158.346 408.495 157.609 408.495 156.806V147.72H411.505V156.806C411.505 157.767 411.724 158.514 412.163 159.046C412.611 159.578 413.287 159.844 414.193 159.844C414.855 159.844 415.471 159.695 416.041 159.396C416.619 159.088 417.161 158.668 417.665 158.136V147.72H420.675ZM439.717 149.61C440.025 149.293 440.342 149.008 440.669 148.756C441.005 148.495 441.359 148.271 441.733 148.084C442.106 147.897 442.503 147.753 442.923 147.65C443.343 147.547 443.8 147.496 444.295 147.496C445.079 147.496 445.765 147.627 446.353 147.888C446.95 148.149 447.449 148.518 447.851 148.994C448.261 149.47 448.569 150.044 448.775 150.716C448.98 151.379 449.083 152.111 449.083 152.914V162H446.087V152.914C446.087 151.953 445.863 151.206 445.415 150.674C444.976 150.142 444.304 149.876 443.399 149.876C442.727 149.876 442.101 150.03 441.523 150.338C440.953 150.646 440.417 151.066 439.913 151.598V162H436.903V147.72H438.723C439.133 147.72 439.395 147.911 439.507 148.294L439.717 149.61ZM464.764 153.25C464.764 152.746 464.689 152.279 464.54 151.85C464.4 151.411 464.19 151.033 463.91 150.716C463.63 150.389 463.28 150.137 462.86 149.96C462.449 149.773 461.973 149.68 461.432 149.68C460.34 149.68 459.481 149.993 458.856 150.618C458.231 151.243 457.834 152.121 457.666 153.25H464.764ZM457.582 155.098C457.619 155.91 457.745 156.615 457.96 157.212C458.175 157.8 458.459 158.29 458.814 158.682C459.178 159.074 459.607 159.368 460.102 159.564C460.606 159.751 461.166 159.844 461.782 159.844C462.37 159.844 462.879 159.779 463.308 159.648C463.737 159.508 464.111 159.359 464.428 159.2C464.745 159.032 465.016 158.883 465.24 158.752C465.464 158.612 465.669 158.542 465.856 158.542C466.099 158.542 466.285 158.635 466.416 158.822L467.27 159.928C466.915 160.348 466.514 160.703 466.066 160.992C465.618 161.281 465.142 161.519 464.638 161.706C464.134 161.883 463.616 162.009 463.084 162.084C462.552 162.168 462.034 162.21 461.53 162.21C460.541 162.21 459.621 162.047 458.772 161.72C457.932 161.384 457.199 160.894 456.574 160.25C455.958 159.606 455.473 158.808 455.118 157.856C454.773 156.904 454.6 155.807 454.6 154.566C454.6 153.577 454.754 152.653 455.062 151.794C455.379 150.935 455.827 150.189 456.406 149.554C456.994 148.919 457.703 148.42 458.534 148.056C459.374 147.683 460.321 147.496 461.376 147.496C462.253 147.496 463.065 147.641 463.812 147.93C464.559 148.21 465.203 148.625 465.744 149.176C466.285 149.727 466.705 150.403 467.004 151.206C467.312 151.999 467.466 152.905 467.466 153.922C467.466 154.389 467.415 154.701 467.312 154.86C467.209 155.019 467.023 155.098 466.752 155.098H457.582ZM482.439 153.25C482.439 152.746 482.364 152.279 482.215 151.85C482.075 151.411 481.865 151.033 481.585 150.716C481.305 150.389 480.955 150.137 480.535 149.96C480.124 149.773 479.648 149.68 479.107 149.68C478.015 149.68 477.156 149.993 476.531 150.618C475.906 151.243 475.509 152.121 475.341 153.25H482.439ZM475.257 155.098C475.294 155.91 475.42 156.615 475.635 157.212C475.85 157.8 476.134 158.29 476.489 158.682C476.853 159.074 477.282 159.368 477.777 159.564C478.281 159.751 478.841 159.844 479.457 159.844C480.045 159.844 480.554 159.779 480.983 159.648C481.412 159.508 481.786 159.359 482.103 159.2C482.42 159.032 482.691 158.883 482.915 158.752C483.139 158.612 483.344 158.542 483.531 158.542C483.774 158.542 483.96 158.635 484.091 158.822L484.945 159.928C484.59 160.348 484.189 160.703 483.741 160.992C483.293 161.281 482.817 161.519 482.313 161.706C481.809 161.883 481.291 162.009 480.759 162.084C480.227 162.168 479.709 162.21 479.205 162.21C478.216 162.21 477.296 162.047 476.447 161.72C475.607 161.384 474.874 160.894 474.249 160.25C473.633 159.606 473.148 158.808 472.793 157.856C472.448 156.904 472.275 155.807 472.275 154.566C472.275 153.577 472.429 152.653 472.737 151.794C473.054 150.935 473.502 150.189 474.081 149.554C474.669 148.919 475.378 148.42 476.209 148.056C477.049 147.683 477.996 147.496 479.051 147.496C479.928 147.496 480.74 147.641 481.487 147.93C482.234 148.21 482.878 148.625 483.419 149.176C483.96 149.727 484.38 150.403 484.679 151.206C484.987 151.999 485.141 152.905 485.141 153.922C485.141 154.389 485.09 154.701 484.987 154.86C484.884 155.019 484.698 155.098 484.427 155.098H475.257ZM499.862 151.234C499.442 150.693 498.98 150.315 498.476 150.1C497.972 149.885 497.426 149.778 496.838 149.778C495.662 149.778 494.743 150.212 494.08 151.08C493.417 151.939 493.086 153.213 493.086 154.902C493.086 155.779 493.161 156.531 493.31 157.156C493.459 157.772 493.674 158.276 493.954 158.668C494.234 159.06 494.575 159.345 494.976 159.522C495.377 159.699 495.83 159.788 496.334 159.788C497.099 159.788 497.757 159.625 498.308 159.298C498.868 158.962 499.386 158.491 499.862 157.884V151.234ZM502.872 141.28V162H501.052C500.651 162 500.394 161.809 500.282 161.426L500.016 159.872C499.419 160.572 498.737 161.137 497.972 161.566C497.216 161.995 496.334 162.21 495.326 162.21C494.523 162.21 493.795 162.051 493.142 161.734C492.489 161.407 491.929 160.936 491.462 160.32C490.995 159.704 490.631 158.943 490.37 158.038C490.118 157.123 489.992 156.078 489.992 154.902C489.992 153.838 490.132 152.853 490.412 151.948C490.701 151.043 491.112 150.259 491.644 149.596C492.176 148.924 492.82 148.401 493.576 148.028C494.341 147.645 495.195 147.454 496.138 147.454C496.978 147.454 497.692 147.589 498.28 147.86C498.868 148.121 499.395 148.49 499.862 148.966V141.28H502.872ZM522.135 149.414C522.723 148.835 523.367 148.373 524.067 148.028C524.767 147.673 525.584 147.496 526.517 147.496C527.301 147.496 527.987 147.627 528.575 147.888C529.173 148.149 529.672 148.518 530.073 148.994C530.484 149.47 530.792 150.044 530.997 150.716C531.203 151.379 531.305 152.111 531.305 152.914V162H528.309V152.914C528.309 151.953 528.085 151.206 527.637 150.674C527.199 150.142 526.527 149.876 525.621 149.876C524.949 149.876 524.324 150.03 523.745 150.338C523.176 150.646 522.639 151.066 522.135 151.598V162H519.125V141.28H522.135V149.414ZM546.987 153.25C546.987 152.746 546.912 152.279 546.763 151.85C546.623 151.411 546.413 151.033 546.133 150.716C545.853 150.389 545.503 150.137 545.083 149.96C544.672 149.773 544.196 149.68 543.655 149.68C542.563 149.68 541.704 149.993 541.079 150.618C540.453 151.243 540.057 152.121 539.889 153.25H546.987ZM539.805 155.098C539.842 155.91 539.968 156.615 540.183 157.212C540.397 157.8 540.682 158.29 541.037 158.682C541.401 159.074 541.83 159.368 542.325 159.564C542.829 159.751 543.389 159.844 544.005 159.844C544.593 159.844 545.101 159.779 545.531 159.648C545.96 159.508 546.333 159.359 546.651 159.2C546.968 159.032 547.239 158.883 547.463 158.752C547.687 158.612 547.892 158.542 548.079 158.542C548.321 158.542 548.508 158.635 548.639 158.822L549.493 159.928C549.138 160.348 548.737 160.703 548.289 160.992C547.841 161.281 547.365 161.519 546.861 161.706C546.357 161.883 545.839 162.009 545.307 162.084C544.775 162.168 544.257 162.21 543.753 162.21C542.763 162.21 541.844 162.047 540.995 161.72C540.155 161.384 539.422 160.894 538.797 160.25C538.181 159.606 537.695 158.808 537.341 157.856C536.995 156.904 536.823 155.807 536.823 154.566C536.823 153.577 536.977 152.653 537.285 151.794C537.602 150.935 538.05 150.189 538.629 149.554C539.217 148.919 539.926 148.42 540.757 148.056C541.597 147.683 542.544 147.496 543.599 147.496C544.476 147.496 545.288 147.641 546.035 147.93C546.781 148.21 547.425 148.625 547.967 149.176C548.508 149.727 548.928 150.403 549.227 151.206C549.535 151.999 549.689 152.905 549.689 153.922C549.689 154.389 549.637 154.701 549.535 154.86C549.432 155.019 549.245 155.098 548.975 155.098H539.805ZM558.362 141.28V162H555.352V141.28H558.362ZM567.887 158.416C568.307 158.957 568.764 159.34 569.259 159.564C569.763 159.779 570.318 159.886 570.925 159.886C572.101 159.886 573.016 159.457 573.669 158.598C574.332 157.739 574.663 156.461 574.663 154.762C574.663 153.885 574.588 153.138 574.439 152.522C574.29 151.897 574.075 151.388 573.795 150.996C573.515 150.604 573.174 150.319 572.773 150.142C572.372 149.965 571.919 149.876 571.415 149.876C570.65 149.876 569.987 150.044 569.427 150.38C568.876 150.707 568.363 151.178 567.887 151.794V158.416ZM567.733 149.792C568.33 149.092 569.007 148.527 569.763 148.098C570.528 147.669 571.415 147.454 572.423 147.454C573.226 147.454 573.954 147.617 574.607 147.944C575.26 148.261 575.82 148.728 576.287 149.344C576.754 149.96 577.113 150.725 577.365 151.64C577.626 152.545 577.757 153.586 577.757 154.762C577.757 155.817 577.612 156.801 577.323 157.716C577.043 158.621 576.637 159.41 576.105 160.082C575.573 160.745 574.929 161.267 574.173 161.65C573.417 162.023 572.563 162.21 571.611 162.21C570.771 162.21 570.057 162.075 569.469 161.804C568.89 161.533 568.363 161.16 567.887 160.684V166.746H564.877V147.72H566.697C567.108 147.72 567.369 147.911 567.481 148.294L567.733 149.792ZM586.94 141.84V149.848C586.94 150.688 586.902 151.514 586.828 152.326C586.753 153.129 586.655 153.997 586.534 154.93H584.504C584.373 153.997 584.27 153.129 584.196 152.326C584.13 151.514 584.098 150.688 584.098 149.848V141.84H586.94ZM583.524 160.264C583.524 159.993 583.57 159.741 583.664 159.508C583.766 159.265 583.906 159.055 584.084 158.878C584.261 158.701 584.466 158.561 584.7 158.458C584.933 158.355 585.19 158.304 585.47 158.304C585.74 158.304 585.992 158.355 586.226 158.458C586.468 158.561 586.674 158.701 586.842 158.878C587.019 159.055 587.159 159.265 587.262 159.508C587.364 159.741 587.416 159.993 587.416 160.264C587.416 160.544 587.364 160.801 587.262 161.034C587.159 161.267 587.019 161.473 586.842 161.65C586.674 161.827 586.468 161.963 586.226 162.056C585.992 162.159 585.74 162.21 585.47 162.21C585.19 162.21 584.933 162.159 584.7 162.056C584.466 161.963 584.261 161.827 584.084 161.65C583.906 161.473 583.766 161.267 583.664 161.034C583.57 160.801 583.524 160.544 583.524 160.264Z" fill="black"/>
<g filter="url(#filter1_d_271_56)">
<path d="M83.1487 141.312C88.2049 147.332 83.1487 159.737 110.671 149.796C109.121 140.607 70.1758 49.0233 17.3467 44.0295C17.1679 46.1085 17.1775 50.8567 18.6467 53.2171C19.5171 51.1976 18.9447 49.752 21.5324 52.069C22.9157 52.188 18.1102 59.4542 19.1358 63.7312C21.3895 61.8307 22.6536 63.3357 18.5397 70.6614C25.3605 64.2667 26.422 76.2263 31.2634 76.6427C29.8801 76.5237 19.9589 78.4629 37.7387 90.4643C34.5786 86.7018 34.2447 82.4843 42.8186 88.1087C43.9038 91.6927 38.5259 97.5134 50.2003 107.593C46.5274 101.692 50.224 99.2177 54.0994 94.6641C57.2595 98.4266 53.5629 100.901 58.4999 108.307C58.9171 103.456 60.6127 97.3767 65.9432 108.307C67.5564 111.615 69.037 112.921 69.8557 113.38C68.5476 113.263 65.1712 113.649 58.4999 117.218C83.4663 122.765 75.9414 124.401 75.0032 123.938C75.4413 123.449 75.6226 123.339 75.1556 123.596C74.87 123.753 74.8628 123.869 75.0032 123.938C73.3832 125.749 68.2513 132.75 79.4074 145.564C79.0791 133.181 76.5729 133.517 83.1487 133.517C91.993 133.517 95.5988 150.474 83.1487 141.312Z" fill="white"/>
<path d="M17.3467 44.0295C17.1679 46.1085 17.1775 50.8567 18.6467 53.2171C19.5171 51.1976 18.9447 49.752 21.5324 52.069C22.9157 52.188 18.1102 59.4542 19.1358 63.7312C21.3895 61.8307 22.6536 63.3357 18.5397 70.6614C25.3605 64.2667 26.422 76.2263 31.2634 76.6427C29.8801 76.5237 19.9589 78.4629 37.7387 90.4643C34.5786 86.7018 34.2447 82.4843 42.8186 88.1087C43.9038 91.6927 38.5259 97.5134 50.2003 107.593C46.5274 101.692 50.224 99.2177 54.0994 94.6641C57.2595 98.4266 53.5629 100.901 58.4999 108.307C58.9171 103.456 60.6127 97.3767 65.9432 108.307C71.2737 119.238 75.1556 108.307 58.4999 117.218C87.2025 123.596 72.9615 124.803 75.1556 123.596C77.3497 122.388 65.2346 129.284 79.4074 145.564C79.0791 133.181 76.5729 133.517 83.1487 133.517C91.993 133.517 95.5988 150.474 83.1487 141.312C88.2049 147.332 83.1487 159.737 110.671 149.796C109.121 140.607 70.1758 49.0233 17.3467 44.0295Z" stroke="black" stroke-width="2"/>
<path d="M200.646 75.3584C164.505 68.9807 146.08 75.3584 128.364 75.3584C113.395 75.3584 58.9599 38.9293 22.7761 28.4895C14.981 27.8792 8.60322 16.5409 5.06003 25.7533C4.35138 39.2175 10.0205 31.9868 16.5852 39.2175C28.4938 52.3344 44.7441 69.8726 44.7441 75.3584C61.7516 75.3584 47.5787 96.6178 61.0429 96.6178C74.5072 96.6178 72.3813 107.247 72.3813 132.759C85.8455 107.247 85.8455 110.082 97.8925 132.759C97.8925 158.979 97.8925 178.821 85.8455 193.702C101.963 189.45 101.254 184.49 110.648 179.529C98.6011 193.702 96.056 195.236 93.6406 210.71C92.645 217.087 97.8925 215.67 97.8925 227.008C104.27 231.26 100.727 234.095 100.727 241.181C150.332 247.559 100.727 263.858 118.443 271.653C100.727 288.66 107.324 288.121 128.364 294.787C169.959 307.965 84.0911 312.2 207.224 341.41C207.224 299.842 257.218 304.898 257.218 277.935C252.426 294.787 237.558 281.867 250.96 271.653C292.77 226.3 283.557 185.198 260.172 158.978C291.352 172.443 301.982 167.482 289.935 167.482C277.888 167.482 259.463 139.136 250.96 132.759C250.96 125.721 301.469 125.013 289.935 95.9584C279.245 69.0299 352.296 32.8398 355.13 13.7064C358.91 -11.8049 344.501 8.0372 324.659 13.7064C276.471 9.45451 214.819 66.1461 200.646 75.3584Z" fill="#439BA8" stroke="#2E234A" stroke-width="2"/>
<path d="M115.549 109.199C163.028 97.1524 165.154 93.6092 216.176 109.199C226.098 145.34 232.475 151.718 246.648 160.93C228.932 173.686 234.601 180.064 246.648 180.064C246.648 195.654 243.814 194.237 260.112 194.237C253.735 204.158 233.184 213.37 243.814 240.299C204.838 267.227 192.791 294.864 191.374 313.998C147.438 292.253 187.122 268.868 121.218 263.199C129.361 250.671 124.77 226.516 111.359 226.95C109.925 227.898 108.039 228.475 105.628 228.475C107.685 227.488 109.598 227.007 111.359 226.95C120.464 220.934 111.364 199.995 102.793 217.137C102.793 194.237 129.013 160.93 98.5415 180.064C105.628 154.553 109.88 154.553 102.793 141.797C115.549 127.624 102.793 126.915 98.5415 124.081C110.588 119.12 112.714 116.994 105.628 109.199H115.549Z" fill="#C2E2E8"/>
<path d="M178.899 173.063C176.832 176.897 173.697 175.597 168.8 183.31C175.026 185.17 181.848 171.206 190.327 172.39C195.611 173.128 199.469 171.852 199.164 166.673C197.183 171.986 190.022 167.211 193.069 167.032C201.755 166.52 192.851 163.332 198.946 162.973C203.255 162.719 201.862 160.574 206.846 154.341C195.666 159.207 174.424 169.763 178.899 173.063Z" fill="#2E234A"/>
<path d="M202.342 168.713C207.878 168.387 207.326 162.48 204.866 159.655C202.798 163.489 206.308 162.685 205.933 164.789C204.671 169.318 201.318 164.318 202.342 168.713Z" fill="#2E234A"/>
<path d="M137.288 130.53C132.451 134.241 124.271 136.06 109.707 140.177C114.458 145.445 127.252 146.523 133.055 146.403C133.802 143.602 137.741 139.652 141.536 150.666C149.565 145.806 149.286 154.066 152.463 156.58C153.61 155.886 156.859 148.751 155.7 144.442C154.251 139.055 148.961 133.644 137.288 130.53Z" fill="#439BA8"/>
<path d="M136.099 158.319C124.761 158.319 129.013 149.815 117.674 153.359C123.344 166.823 112.005 161.154 141.06 188.791C139.642 180.996 121.471 167.531 124.761 161.154C125.508 158.353 128.76 160.061 132.556 171.075C141.06 168.949 136.807 173.909 138.225 176.035C142.005 181.704 141.768 169.631 138.225 168.949C129.721 163.988 140.351 164.697 136.099 158.319Z" fill="#2E234A"/>
<path d="M185.352 130.089C189.957 130.089 205.547 130.089 216.886 142.02C215.103 144.351 206.256 139.647 205.547 142.02C204.13 138.939 180.036 131.864 181.445 148.717C174.013 144.231 174.28 151.871 171.344 154.2C170.283 153.559 171.344 148.717 171.344 140.603C171.344 134.612 174.558 132.981 185.352 130.089Z" fill="#439BA8"/>
<path d="M135.39 224.223C139.642 192.334 114.84 200.838 122.635 171.783C122.635 189.626 133.265 186.665 144.603 209.341C167.988 194.46 152.398 224.223 184.995 215.719C217.593 207.215 223.971 209.341 236.727 215.719C216.176 215.719 198.65 212.329 184.995 237.687C165.154 274.537 122.635 242.648 135.39 224.223Z" fill="#439BA8"/>
<path d="M134.175 241.452C126.101 232.343 129.129 220.198 142.249 220.198C150.66 220.198 157.186 215.745 160.416 226.271C164.453 239.428 142.249 250.561 134.175 241.452Z" fill="#2E234A"/>
<path d="M203.421 224.932C195.626 246.9 210.507 236.27 218.302 241.939C218.302 232.302 203.421 246.9 203.421 224.932Z" fill="#2E234A"/>
<path d="M136.841 246.405C131.738 245.645 128.163 251.804 127.462 258.49C133.444 257.315 132.328 252.917 136.841 246.405Z" fill="#2E234A"/>
<path d="M294.127 114.383C288.458 120.052 274.285 134.934 241.687 114.383C243.02 109.233 251.608 112.257 270.741 114.383C262.238 113.315 241.687 99.5013 261.529 99.5013C245.939 79.6593 260.112 90.2889 270.741 82.4939C250.191 73.2815 282.789 66.9037 268.131 66.9037C294.127 38.5579 328.399 47.0968 345.858 15.1726C345.858 17.2985 345.433 22.1173 343.732 24.385C343.023 22.2591 343.732 20.8418 340.897 22.9677C339.48 22.9677 343.732 30.7628 342.314 35.0147C340.189 32.8887 338.771 34.306 342.314 42.1011C335.937 35.0147 333.811 47.0616 328.85 47.0616C330.268 47.0616 340.189 49.8962 321.055 60.5259C324.598 56.9826 325.307 52.7308 316.095 57.6913C314.677 61.2345 319.638 67.6123 306.882 76.8247C311.134 71.1555 307.591 68.321 304.048 63.3604C300.505 66.9037 304.048 69.7382 298.379 76.8247C298.379 71.8642 294.127 59.8172 287.749 70.4469C281.371 81.0766 298.379 85.3284 304.048 89.5803C294.127 89.5803 292.001 95.9581 285.623 89.5803C283.497 88.163 291.292 101.627 285.623 109.422C287.04 96.8816 277.119 98.084 270.741 104.462C264.364 110.84 280.662 122.596 294.127 114.383Z" fill="white" stroke="black" stroke-width="2"/>
</g>
<defs>
<filter id="filter0_d_271_56" x="166" y="39" width="548" height="196" filterUnits="userSpaceOnUse" color-interpolation-filters="sRGB">
<feFlood flood-opacity="0" result="BackgroundImageFix"/>
<feColorMatrix in="SourceAlpha" type="matrix" values="0 0 0 0 0 0 0 0 0 0 0 0 0 0 0 0 0 0 127 0" result="hardAlpha"/>
<feOffset dy="4"/>
<feGaussianBlur stdDeviation="2"/>
<feComposite in2="hardAlpha" operator="out"/>
<feColorMatrix type="matrix" values="0 0 0 0 0 0 0 0 0 0 0 0 0 0 0 0 0 0 0.25 0"/>
<feBlend mode="normal" in2="BackgroundImageFix" result="effect1_dropShadow_271_56"/>
<feBlend mode="normal" in="SourceGraphic" in2="effect1_dropShadow_271_56" result="shape"/>
</filter>
<filter id="filter1_d_271_56" x="0" y="0" width="360.735" height="350.675" filterUnits="userSpaceOnUse" color-interpolation-filters="sRGB">
<feFlood flood-opacity="0" result="BackgroundImageFix"/>
<feColorMatrix in="SourceAlpha" type="matrix" values="0 0 0 0 0 0 0 0 0 0 0 0 0 0 0 0 0 0 127 0" result="hardAlpha"/>
<feOffset dy="4"/>
<feGaussianBlur stdDeviation="2"/>
<feComposite in2="hardAlpha" operator="out"/>
<feColorMatrix type="matrix" values="0 0 0 0 0 0 0 0 0 0 0 0 0 0 0 0 0 0 0.25 0"/>
<feBlend mode="normal" in2="BackgroundImageFix" result="effect1_dropShadow_271_56"/>
<feBlend mode="normal" in="SourceGraphic" in2="effect1_dropShadow_271_56" result="shape"/>
</filter>
</defs>
</svg>
