<svg width="555" height="239" viewBox="0 0 555 239" fill="none" xmlns="http://www.w3.org/2000/svg">
<g filter="url(#filter0_d_242_280)">
<mask id="path-1-inside-1_242_280" fill="white">
<path fill-rule="evenodd" clip-rule="evenodd" d="M271.327 49C265.805 49 261.327 53.4772 261.327 59V121.962C245.769 130.107 215.032 125.158 209 115.905C211.375 124.522 219.842 130.321 229.639 137.031C240.834 144.699 253.766 153.556 261.327 169.165V188.191C261.327 192.448 263.988 196.084 267.737 197.527C267.758 198.34 267.769 199.164 267.769 200V197.539C268.875 197.96 270.074 198.191 271.327 198.191H541C546.522 198.191 551 193.713 551 188.191V59C551 53.4772 546.522 49 541 49H271.327Z"/>
</mask>
<path fill-rule="evenodd" clip-rule="evenodd" d="M271.327 49C265.805 49 261.327 53.4772 261.327 59V121.962C245.769 130.107 215.032 125.158 209 115.905C211.375 124.522 219.842 130.321 229.639 137.031C240.834 144.699 253.766 153.556 261.327 169.165V188.191C261.327 192.448 263.988 196.084 267.737 197.527C267.758 198.34 267.769 199.164 267.769 200V197.539C268.875 197.96 270.074 198.191 271.327 198.191H541C546.522 198.191 551 193.713 551 188.191V59C551 53.4772 546.522 49 541 49H271.327Z" fill="white"/>
<path d="M261.327 121.962L261.559 122.405L261.827 122.264V121.962H261.327ZM209 115.905L209.419 115.632L208.518 116.038L209 115.905ZM229.639 137.031L229.357 137.444L229.357 137.444L229.639 137.031ZM261.327 169.165H261.827V169.051L261.777 168.947L261.327 169.165ZM267.737 197.527L268.237 197.513L268.228 197.18L267.917 197.06L267.737 197.527ZM267.769 197.539L267.947 197.072L267.269 196.814V197.539H267.769ZM261.827 59C261.827 53.7533 266.081 49.5 271.327 49.5V48.5C265.528 48.5 260.827 53.201 260.827 59H261.827ZM261.827 121.962V59H260.827V121.962H261.827ZM208.581 116.178C210.173 118.619 213.339 120.712 217.343 122.363C221.364 124.021 226.301 125.261 231.526 125.954C241.956 127.336 253.65 126.546 261.559 122.405L261.096 121.519C253.447 125.523 241.993 126.332 231.657 124.962C226.499 124.279 221.649 123.056 217.724 121.438C213.782 119.813 210.844 117.818 209.419 115.632L208.581 116.178ZM229.922 136.619C225.015 133.258 220.482 130.152 216.876 126.816C213.275 123.485 210.636 119.957 209.482 115.772L208.518 116.038C209.74 120.47 212.522 124.15 216.197 127.55C219.867 130.946 224.466 134.094 229.357 137.444L229.922 136.619ZM261.777 168.947C254.15 153.203 241.107 144.28 229.922 136.619L229.357 137.444C240.561 145.118 253.381 153.909 260.877 169.383L261.777 168.947ZM261.827 188.191V169.165H260.827V188.191H261.827ZM267.917 197.06C264.354 195.689 261.827 192.234 261.827 188.191H260.827C260.827 192.662 263.622 196.479 267.558 197.993L267.917 197.06ZM268.269 200C268.269 199.16 268.258 198.331 268.237 197.513L267.237 197.54C267.259 198.348 267.269 199.168 267.269 200H268.269ZM267.269 197.539V200H268.269V197.539H267.269ZM271.327 197.691C270.136 197.691 268.997 197.471 267.947 197.072L267.591 198.006C268.753 198.449 270.012 198.691 271.327 198.691V197.691ZM541 197.691H271.327V198.691H541V197.691ZM550.5 188.191C550.5 193.437 546.246 197.691 541 197.691V198.691C546.799 198.691 551.5 193.99 551.5 188.191H550.5ZM550.5 59V188.191H551.5V59H550.5ZM541 49.5C546.246 49.5 550.5 53.7533 550.5 59H551.5C551.5 53.201 546.799 48.5 541 48.5V49.5ZM271.327 49.5H541V48.5H271.327V49.5Z" fill="black" mask="url(#path-1-inside-1_242_280)"/>
</g>
<path d="M309.56 76.1541V93.5061H306.32V85.9221H298.172V93.5061H294.932V76.1541H298.172V83.6181H306.32V76.1541H309.56ZM318.264 81.1941V93.5061H315.288V81.1941H318.264ZM318.672 77.6061C318.672 77.8621 318.62 78.1021 318.516 78.3261C318.412 78.5501 318.272 78.7461 318.096 78.9141C317.928 79.0821 317.728 79.2181 317.496 79.3221C317.264 79.4181 317.016 79.4661 316.752 79.4661C316.496 79.4661 316.252 79.4181 316.02 79.3221C315.796 79.2181 315.6 79.0821 315.432 78.9141C315.264 78.7461 315.128 78.5501 315.024 78.3261C314.928 78.1021 314.88 77.8621 314.88 77.6061C314.88 77.3421 314.928 77.0941 315.024 76.8621C315.128 76.6301 315.264 76.4301 315.432 76.2621C315.6 76.0941 315.796 75.9621 316.02 75.8661C316.252 75.7621 316.496 75.7101 316.752 75.7101C317.016 75.7101 317.264 75.7621 317.496 75.8661C317.728 75.9621 317.928 76.0941 318.096 76.2621C318.272 76.4301 318.412 76.6301 318.516 76.8621C318.62 77.0941 318.672 77.3421 318.672 77.6061ZM326.998 76.1541V83.0181C326.998 83.7461 326.962 84.4621 326.89 85.1661C326.818 85.8621 326.726 86.6021 326.614 87.3861H324.598C324.486 86.6021 324.394 85.8621 324.322 85.1661C324.25 84.4621 324.214 83.7461 324.214 83.0181V76.1541H326.998ZM323.746 91.8741C323.746 91.6261 323.79 91.3901 323.878 91.1661C323.974 90.9421 324.102 90.7501 324.262 90.5901C324.43 90.4301 324.626 90.3021 324.85 90.2061C325.074 90.1101 325.314 90.0621 325.57 90.0621C325.818 90.0621 326.054 90.1101 326.278 90.2061C326.502 90.3021 326.694 90.4301 326.854 90.5901C327.022 90.7501 327.154 90.9421 327.25 91.1661C327.346 91.3901 327.394 91.6261 327.394 91.8741C327.394 92.1301 327.346 92.3701 327.25 92.5941C327.154 92.8101 327.022 92.9981 326.854 93.1581C326.694 93.3181 326.502 93.4421 326.278 93.5301C326.054 93.6261 325.818 93.6741 325.57 93.6741C325.314 93.6741 325.074 93.6261 324.85 93.5301C324.626 93.4421 324.43 93.3181 324.262 93.1581C324.102 92.9981 323.974 92.8101 323.878 92.5941C323.79 92.3701 323.746 92.1301 323.746 91.8741ZM344.78 93.5061H341.54V76.1541H344.78V93.5061ZM352.613 74.9901C352.997 75.6221 353.257 76.2821 353.393 76.9701C353.529 77.6501 353.541 78.3261 353.429 78.9981C353.317 79.6621 353.081 80.3021 352.721 80.9181C352.369 81.5261 351.893 82.0741 351.293 82.5621L350.357 81.9981C350.277 81.9501 350.221 81.8941 350.189 81.8301C350.157 81.7581 350.141 81.6901 350.141 81.6261C350.149 81.5541 350.165 81.4861 350.189 81.4221C350.221 81.3581 350.261 81.3021 350.309 81.2541C350.477 81.0541 350.637 80.7901 350.789 80.4621C350.941 80.1341 351.045 79.7661 351.101 79.3581C351.165 78.9501 351.157 78.5141 351.077 78.0501C351.005 77.5861 350.825 77.1221 350.537 76.6581C350.401 76.4261 350.361 76.2261 350.417 76.0581C350.481 75.8821 350.613 75.7581 350.813 75.6861L352.613 74.9901ZM358.294 93.5061V81.1941H360.106C360.49 81.1941 360.742 81.3741 360.862 81.7341L361.054 82.6461C361.27 82.4061 361.494 82.1861 361.726 81.9861C361.966 81.7861 362.218 81.6141 362.482 81.4701C362.754 81.3261 363.042 81.2141 363.346 81.1341C363.658 81.0461 363.998 81.0021 364.366 81.0021C365.142 81.0021 365.778 81.2141 366.274 81.6381C366.778 82.0541 367.154 82.6101 367.402 83.3061C367.594 82.8981 367.834 82.5501 368.122 82.2621C368.41 81.9661 368.726 81.7261 369.07 81.5421C369.414 81.3581 369.778 81.2221 370.162 81.1341C370.554 81.0461 370.946 81.0021 371.338 81.0021C372.018 81.0021 372.622 81.1061 373.15 81.3141C373.678 81.5221 374.122 81.8261 374.482 82.2261C374.842 82.6261 375.114 83.1141 375.298 83.6901C375.49 84.2661 375.586 84.9261 375.586 85.6701V93.5061H372.622V85.6701C372.622 84.8861 372.45 84.2981 372.106 83.9061C371.762 83.5061 371.258 83.3061 370.594 83.3061C370.29 83.3061 370.006 83.3581 369.742 83.4621C369.486 83.5661 369.258 83.7181 369.058 83.9181C368.866 84.1101 368.714 84.3541 368.602 84.6501C368.49 84.9461 368.434 85.2861 368.434 85.6701V93.5061H365.458V85.6701C365.458 84.8461 365.29 84.2461 364.954 83.8701C364.626 83.4941 364.142 83.3061 363.502 83.3061C363.07 83.3061 362.666 83.4141 362.29 83.6301C361.922 83.8381 361.578 84.1261 361.258 84.4941V93.5061H358.294ZM397.859 83.7981C397.771 83.9101 397.683 83.9981 397.595 84.0621C397.515 84.1261 397.395 84.1581 397.235 84.1581C397.083 84.1581 396.935 84.1141 396.791 84.0261C396.647 83.9301 396.475 83.8261 396.275 83.7141C396.075 83.5941 395.835 83.4901 395.555 83.4021C395.283 83.3061 394.943 83.2581 394.535 83.2581C394.015 83.2581 393.559 83.3541 393.167 83.5461C392.775 83.7301 392.447 83.9981 392.183 84.3501C391.927 84.7021 391.735 85.1301 391.607 85.6341C391.479 86.1301 391.415 86.6941 391.415 87.3261C391.415 87.9821 391.483 88.5661 391.619 89.0781C391.763 89.5901 391.967 90.0221 392.231 90.3741C392.495 90.7181 392.815 90.9821 393.191 91.1661C393.567 91.3421 393.991 91.4301 394.463 91.4301C394.935 91.4301 395.315 91.3741 395.603 91.2621C395.899 91.1421 396.147 91.0141 396.347 90.8781C396.547 90.7341 396.719 90.6061 396.863 90.4941C397.015 90.3741 397.183 90.3141 397.367 90.3141C397.607 90.3141 397.787 90.4061 397.907 90.5901L398.759 91.6701C398.431 92.0541 398.075 92.3781 397.691 92.6421C397.307 92.8981 396.907 93.1061 396.491 93.2661C396.083 93.4181 395.659 93.5261 395.219 93.5901C394.787 93.6541 394.355 93.6861 393.923 93.6861C393.163 93.6861 392.447 93.5461 391.775 93.2661C391.103 92.9781 390.515 92.5621 390.011 92.0181C389.507 91.4741 389.107 90.8101 388.811 90.0261C388.523 89.2341 388.379 88.3341 388.379 87.3261C388.379 86.4221 388.507 85.5861 388.763 84.8181C389.027 84.0421 389.411 83.3741 389.915 82.8141C390.419 82.2461 391.043 81.8021 391.787 81.4821C392.531 81.1621 393.387 81.0021 394.355 81.0021C395.275 81.0021 396.079 81.1501 396.767 81.4461C397.463 81.7421 398.087 82.1661 398.639 82.7181L397.859 83.7981ZM408.254 81.0021C409.166 81.0021 409.994 81.1501 410.738 81.4461C411.49 81.7421 412.13 82.1621 412.658 82.7061C413.194 83.2501 413.606 83.9141 413.894 84.6981C414.182 85.4821 414.326 86.3581 414.326 87.3261C414.326 88.3021 414.182 89.1821 413.894 89.9661C413.606 90.7501 413.194 91.4181 412.658 91.9701C412.13 92.5221 411.49 92.9461 410.738 93.2421C409.994 93.5381 409.166 93.6861 408.254 93.6861C407.334 93.6861 406.498 93.5381 405.746 93.2421C404.994 92.9461 404.35 92.5221 403.814 91.9701C403.286 91.4181 402.874 90.7501 402.578 89.9661C402.29 89.1821 402.146 88.3021 402.146 87.3261C402.146 86.3581 402.29 85.4821 402.578 84.6981C402.874 83.9141 403.286 83.2501 403.814 82.7061C404.35 82.1621 404.994 81.7421 405.746 81.4461C406.498 81.1501 407.334 81.0021 408.254 81.0021ZM408.254 91.4061C409.278 91.4061 410.034 91.0621 410.522 90.3741C411.018 89.6861 411.266 88.6781 411.266 87.3501C411.266 86.0221 411.018 85.0101 410.522 84.3141C410.034 83.6181 409.278 83.2701 408.254 83.2701C407.214 83.2701 406.442 83.6221 405.938 84.3261C405.442 85.0221 405.194 86.0301 405.194 87.3501C405.194 88.6701 405.442 89.6781 405.938 90.3741C406.442 91.0621 407.214 91.4061 408.254 91.4061ZM429.75 81.1941L423.042 96.8901C422.954 97.0981 422.838 97.2541 422.694 97.3581C422.558 97.4701 422.346 97.5261 422.058 97.5261H419.85L422.154 92.5821L417.174 81.1941H419.778C420.01 81.1941 420.19 81.2501 420.318 81.3621C420.454 81.4741 420.554 81.6021 420.618 81.7461L423.234 88.1301C423.322 88.3461 423.394 88.5621 423.45 88.7781C423.514 88.9941 423.574 89.2141 423.63 89.4381C423.702 89.2141 423.774 88.9941 423.846 88.7781C423.918 88.5541 423.998 88.3341 424.086 88.1181L426.558 81.7461C426.622 81.5861 426.726 81.4541 426.87 81.3501C427.022 81.2461 427.19 81.1941 427.374 81.1941H429.75ZM438.695 81.0021C439.607 81.0021 440.435 81.1501 441.179 81.4461C441.931 81.7421 442.571 82.1621 443.099 82.7061C443.635 83.2501 444.047 83.9141 444.335 84.6981C444.623 85.4821 444.767 86.3581 444.767 87.3261C444.767 88.3021 444.623 89.1821 444.335 89.9661C444.047 90.7501 443.635 91.4181 443.099 91.9701C442.571 92.5221 441.931 92.9461 441.179 93.2421C440.435 93.5381 439.607 93.6861 438.695 93.6861C437.775 93.6861 436.939 93.5381 436.187 93.2421C435.435 92.9461 434.791 92.5221 434.255 91.9701C433.727 91.4181 433.315 90.7501 433.019 89.9661C432.731 89.1821 432.587 88.3021 432.587 87.3261C432.587 86.3581 432.731 85.4821 433.019 84.6981C433.315 83.9141 433.727 83.2501 434.255 82.7061C434.791 82.1621 435.435 81.7421 436.187 81.4461C436.939 81.1501 437.775 81.0021 438.695 81.0021ZM438.695 91.4061C439.719 91.4061 440.475 91.0621 440.963 90.3741C441.459 89.6861 441.707 88.6781 441.707 87.3501C441.707 86.0221 441.459 85.0101 440.963 84.3141C440.475 83.6181 439.719 83.2701 438.695 83.2701C437.655 83.2701 436.883 83.6221 436.379 84.3261C435.883 85.0221 435.635 86.0301 435.635 87.3501C435.635 88.6701 435.883 89.6781 436.379 90.3741C436.883 91.0621 437.655 91.4061 438.695 91.4061ZM453.298 93.6981C452.226 93.6981 451.402 93.3981 450.826 92.7981C450.258 92.1901 449.974 91.3541 449.974 90.2901V83.4141H448.714C448.554 83.4141 448.418 83.3621 448.306 83.2581C448.194 83.1541 448.138 82.9981 448.138 82.7901V81.6141L450.118 81.2901L450.742 77.9301C450.782 77.7701 450.858 77.6461 450.97 77.5581C451.082 77.4701 451.226 77.4261 451.402 77.4261H452.938V81.3021H456.226V83.4141H452.938V90.0861C452.938 90.4701 453.03 90.7701 453.214 90.9861C453.406 91.2021 453.666 91.3101 453.994 91.3101C454.178 91.3101 454.33 91.2901 454.45 91.2501C454.578 91.2021 454.686 91.1541 454.774 91.1061C454.87 91.0581 454.954 91.0141 455.026 90.9741C455.098 90.9261 455.17 90.9021 455.242 90.9021C455.33 90.9021 455.402 90.9261 455.458 90.9741C455.514 91.0141 455.574 91.0781 455.638 91.1661L456.526 92.6061C456.094 92.9661 455.598 93.2381 455.038 93.4221C454.478 93.6061 453.898 93.6981 453.298 93.6981ZM468.362 85.9341C468.362 85.5501 468.306 85.1901 468.194 84.8541C468.09 84.5101 467.93 84.2101 467.714 83.9541C467.498 83.6981 467.222 83.4981 466.886 83.3541C466.558 83.2021 466.174 83.1261 465.734 83.1261C464.878 83.1261 464.202 83.3701 463.706 83.8581C463.218 84.3461 462.906 85.0381 462.77 85.9341H468.362ZM462.71 87.7221C462.758 88.3541 462.87 88.9021 463.046 89.3661C463.222 89.8221 463.454 90.2021 463.742 90.5061C464.03 90.8021 464.37 91.0261 464.762 91.1781C465.162 91.3221 465.602 91.3941 466.082 91.3941C466.562 91.3941 466.974 91.3381 467.318 91.2261C467.67 91.1141 467.974 90.9901 468.23 90.8541C468.494 90.7181 468.722 90.5941 468.914 90.4821C469.114 90.3701 469.306 90.3141 469.49 90.3141C469.738 90.3141 469.922 90.4061 470.042 90.5901L470.894 91.6701C470.566 92.0541 470.198 92.3781 469.79 92.6421C469.382 92.8981 468.954 93.1061 468.506 93.2661C468.066 93.4181 467.614 93.5261 467.15 93.5901C466.694 93.6541 466.25 93.6861 465.818 93.6861C464.962 93.6861 464.166 93.5461 463.43 93.2661C462.694 92.9781 462.054 92.5581 461.51 92.0061C460.966 91.4461 460.538 90.7581 460.226 89.9421C459.914 89.1181 459.758 88.1661 459.758 87.0861C459.758 86.2461 459.894 85.4581 460.166 84.7221C460.438 83.9781 460.826 83.3341 461.33 82.7901C461.842 82.2381 462.462 81.8021 463.19 81.4821C463.926 81.1621 464.754 81.0021 465.674 81.0021C466.45 81.0021 467.166 81.1261 467.822 81.3741C468.478 81.6221 469.042 81.9861 469.514 82.4661C469.986 82.9381 470.354 83.5221 470.618 84.2181C470.89 84.9061 471.026 85.6941 471.026 86.5821C471.026 87.0301 470.978 87.3341 470.882 87.4941C470.786 87.6461 470.602 87.7221 470.33 87.7221H462.71ZM475.218 91.8741C475.218 91.6261 475.262 91.3901 475.35 91.1661C475.446 90.9421 475.574 90.7501 475.734 90.5901C475.894 90.4301 476.086 90.3021 476.31 90.2061C476.534 90.1101 476.774 90.0621 477.03 90.0621C477.286 90.0621 477.522 90.1101 477.738 90.2061C477.962 90.3021 478.154 90.4301 478.314 90.5901C478.482 90.7501 478.614 90.9421 478.71 91.1661C478.806 91.3901 478.854 91.6261 478.854 91.8741C478.854 92.1301 478.806 92.3701 478.71 92.5941C478.614 92.8101 478.482 92.9981 478.314 93.1581C478.154 93.3181 477.962 93.4421 477.738 93.5301C477.522 93.6261 477.286 93.6741 477.03 93.6741C476.774 93.6741 476.534 93.6261 476.31 93.5301C476.086 93.4421 475.894 93.3181 475.734 93.1581C475.574 92.9981 475.446 92.8101 475.35 92.5941C475.262 92.3701 475.218 92.1301 475.218 91.8741ZM297.872 136.506H295.052V119.226H297.872V136.506ZM305.65 118.074C306.01 118.682 306.254 119.318 306.382 119.982C306.51 120.638 306.522 121.29 306.418 121.938C306.314 122.578 306.094 123.194 305.758 123.786C305.43 124.378 304.99 124.906 304.438 125.37L303.634 124.878C303.498 124.79 303.434 124.678 303.442 124.542C303.458 124.398 303.506 124.286 303.586 124.206C303.77 123.982 303.938 123.698 304.09 123.354C304.242 123.01 304.342 122.634 304.39 122.226C304.446 121.81 304.434 121.374 304.354 120.918C304.282 120.462 304.11 120.01 303.838 119.562C303.71 119.354 303.674 119.174 303.73 119.022C303.786 118.87 303.902 118.762 304.078 118.698L305.65 118.074ZM314.117 118.746V136.506H311.537V118.746H314.117ZM322.33 118.746V136.506H319.75V118.746H322.33ZM338.871 133.434C339.231 133.898 339.623 134.226 340.047 134.418C340.479 134.602 340.947 134.694 341.451 134.694C342.467 134.694 343.259 134.326 343.827 133.59C344.395 132.854 344.679 131.714 344.679 130.17C344.679 128.762 344.431 127.734 343.935 127.086C343.447 126.438 342.747 126.114 341.835 126.114C341.203 126.114 340.651 126.258 340.179 126.546C339.715 126.826 339.279 127.23 338.871 127.758V133.434ZM338.871 125.886C339.375 125.334 339.939 124.894 340.563 124.566C341.187 124.238 341.899 124.074 342.699 124.074C343.411 124.074 344.051 124.214 344.619 124.494C345.195 124.766 345.683 125.162 346.083 125.682C346.483 126.202 346.791 126.834 347.007 127.578C347.223 128.314 347.331 129.146 347.331 130.074C347.331 131.066 347.207 131.97 346.959 132.786C346.719 133.594 346.371 134.29 345.915 134.874C345.459 135.45 344.907 135.898 344.259 136.218C343.611 136.53 342.887 136.686 342.087 136.686C341.695 136.686 341.339 136.646 341.019 136.566C340.699 136.494 340.403 136.386 340.131 136.242C339.859 136.098 339.607 135.926 339.375 135.726C339.151 135.526 338.935 135.298 338.727 135.042L338.619 135.99C338.579 136.174 338.507 136.306 338.403 136.386C338.299 136.466 338.155 136.506 337.971 136.506H336.291V118.746H338.871V125.886ZM360.266 129.006C360.266 128.574 360.202 128.174 360.074 127.806C359.954 127.43 359.774 127.106 359.534 126.834C359.294 126.554 358.994 126.338 358.634 126.186C358.282 126.026 357.874 125.946 357.41 125.946C356.474 125.946 355.738 126.214 355.202 126.75C354.666 127.286 354.326 128.038 354.182 129.006H360.266ZM354.11 130.59C354.142 131.286 354.25 131.89 354.434 132.402C354.618 132.906 354.862 133.326 355.166 133.662C355.478 133.998 355.846 134.25 356.27 134.418C356.702 134.578 357.182 134.658 357.71 134.658C358.214 134.658 358.65 134.602 359.018 134.49C359.386 134.37 359.706 134.242 359.978 134.106C360.25 133.962 360.482 133.834 360.674 133.722C360.866 133.602 361.042 133.542 361.202 133.542C361.41 133.542 361.57 133.622 361.682 133.782L362.414 134.73C362.11 135.09 361.766 135.394 361.382 135.642C360.998 135.89 360.59 136.094 360.158 136.254C359.726 136.406 359.282 136.514 358.826 136.578C358.37 136.65 357.926 136.686 357.494 136.686C356.646 136.686 355.858 136.546 355.13 136.266C354.41 135.978 353.782 135.558 353.246 135.006C352.718 134.454 352.302 133.77 351.998 132.954C351.702 132.138 351.554 131.198 351.554 130.134C351.554 129.286 351.686 128.494 351.95 127.758C352.222 127.022 352.606 126.382 353.102 125.838C353.606 125.294 354.214 124.866 354.926 124.554C355.646 124.234 356.458 124.074 357.362 124.074C358.114 124.074 358.81 124.198 359.45 124.446C360.09 124.686 360.642 125.042 361.106 125.514C361.57 125.986 361.93 126.566 362.186 127.254C362.45 127.934 362.582 128.71 362.582 129.582C362.582 129.982 362.538 130.25 362.45 130.386C362.362 130.522 362.202 130.59 361.97 130.59H354.11ZM386.015 124.266L379.271 139.986C379.183 140.17 379.075 140.314 378.947 140.418C378.827 140.522 378.639 140.574 378.383 140.574H376.475L378.731 135.678L373.739 124.266H375.983C376.199 124.266 376.363 124.318 376.475 124.422C376.595 124.518 376.683 124.634 376.739 124.77L379.655 131.718C379.727 131.918 379.791 132.118 379.847 132.318C379.911 132.51 379.971 132.71 380.027 132.918C380.091 132.71 380.155 132.506 380.219 132.306C380.283 132.106 380.355 131.906 380.435 131.706L383.231 124.77C383.287 124.626 383.379 124.506 383.507 124.41C383.643 124.314 383.791 124.266 383.951 124.266H386.015ZM395.034 124.074C395.938 124.074 396.754 124.222 397.482 124.518C398.218 124.814 398.842 125.234 399.354 125.778C399.874 126.322 400.274 126.982 400.554 127.758C400.834 128.534 400.974 129.406 400.974 130.374C400.974 131.342 400.834 132.214 400.554 132.99C400.274 133.766 399.874 134.43 399.354 134.982C398.842 135.526 398.218 135.946 397.482 136.242C396.754 136.538 395.938 136.686 395.034 136.686C394.122 136.686 393.298 136.538 392.562 136.242C391.834 135.946 391.21 135.526 390.69 134.982C390.17 134.43 389.77 133.766 389.49 132.99C389.21 132.214 389.07 131.342 389.07 130.374C389.07 129.406 389.21 128.534 389.49 127.758C389.77 126.982 390.17 126.322 390.69 125.778C391.21 125.234 391.834 124.814 392.562 124.518C393.298 124.222 394.122 124.074 395.034 124.074ZM395.034 134.67C396.138 134.67 396.958 134.302 397.494 133.566C398.038 132.822 398.31 131.762 398.31 130.386C398.31 129.01 398.038 127.95 397.494 127.206C396.958 126.454 396.138 126.078 395.034 126.078C393.914 126.078 393.082 126.454 392.538 127.206C391.994 127.95 391.722 129.01 391.722 130.386C391.722 131.762 391.994 132.822 392.538 133.566C393.082 134.302 393.914 134.67 395.034 134.67ZM416.173 124.266V136.506H414.613C414.269 136.506 414.049 136.342 413.953 136.014L413.761 134.874C413.505 135.146 413.233 135.394 412.945 135.618C412.665 135.842 412.365 136.034 412.045 136.194C411.725 136.354 411.381 136.478 411.013 136.566C410.653 136.654 410.265 136.698 409.849 136.698C409.177 136.698 408.585 136.586 408.073 136.362C407.561 136.138 407.129 135.822 406.777 135.414C406.433 135.006 406.173 134.518 405.997 133.95C405.821 133.374 405.733 132.742 405.733 132.054V124.266H408.313V132.054C408.313 132.878 408.501 133.518 408.877 133.974C409.261 134.43 409.841 134.658 410.617 134.658C411.185 134.658 411.713 134.53 412.201 134.274C412.697 134.01 413.161 133.65 413.593 133.194V124.266H416.173ZM424.142 126.534C424.526 125.758 424.99 125.15 425.534 124.71C426.078 124.262 426.73 124.038 427.49 124.038C427.754 124.038 428.002 124.07 428.234 124.134C428.466 124.19 428.674 124.278 428.858 124.398L428.678 126.342C428.646 126.478 428.594 126.574 428.522 126.63C428.458 126.678 428.37 126.702 428.258 126.702C428.138 126.702 427.966 126.682 427.742 126.642C427.518 126.594 427.282 126.57 427.034 126.57C426.674 126.57 426.354 126.622 426.074 126.726C425.802 126.83 425.554 126.982 425.33 127.182C425.114 127.382 424.922 127.626 424.754 127.914C424.586 128.202 424.43 128.53 424.286 128.898V136.506H421.706V124.266H423.206C423.478 124.266 423.666 124.318 423.77 124.422C423.874 124.518 423.946 124.69 423.986 124.938L424.142 126.534ZM445.195 130.278C445.995 130.278 446.595 130.074 446.995 129.666C447.395 129.258 447.595 128.726 447.595 128.07C447.595 127.398 447.395 126.866 446.995 126.474C446.595 126.082 445.995 125.886 445.195 125.886C444.403 125.886 443.803 126.082 443.395 126.474C442.995 126.866 442.795 127.398 442.795 128.07C442.795 128.39 442.847 128.686 442.951 128.958C443.055 129.23 443.207 129.466 443.407 129.666C443.607 129.858 443.855 130.01 444.151 130.122C444.455 130.226 444.803 130.278 445.195 130.278ZM448.783 137.106C448.783 136.834 448.703 136.618 448.543 136.458C448.391 136.29 448.183 136.162 447.919 136.074C447.655 135.978 447.347 135.91 446.995 135.87C446.643 135.822 446.267 135.79 445.867 135.774C445.475 135.75 445.071 135.73 444.655 135.714C444.247 135.69 443.851 135.65 443.467 135.594C443.083 135.794 442.767 136.034 442.519 136.314C442.279 136.594 442.159 136.918 442.159 137.286C442.159 137.526 442.219 137.75 442.339 137.958C442.467 138.166 442.659 138.346 442.915 138.498C443.179 138.65 443.511 138.77 443.911 138.858C444.319 138.946 444.807 138.99 445.375 138.99C446.511 138.99 447.363 138.814 447.931 138.462C448.499 138.11 448.783 137.658 448.783 137.106ZM451.375 124.71V125.67C451.375 125.99 451.183 126.186 450.799 126.258L449.575 126.462C449.783 126.926 449.887 127.442 449.887 128.01C449.887 128.61 449.767 129.154 449.527 129.642C449.295 130.13 448.971 130.546 448.555 130.89C448.139 131.234 447.643 131.498 447.067 131.682C446.491 131.866 445.867 131.958 445.195 131.958C444.939 131.958 444.687 131.946 444.439 131.922C444.199 131.89 443.963 131.85 443.731 131.802C443.499 131.938 443.327 132.082 443.215 132.234C443.103 132.386 443.047 132.542 443.047 132.702C443.047 132.966 443.163 133.162 443.395 133.29C443.627 133.418 443.931 133.51 444.307 133.566C444.691 133.622 445.127 133.658 445.615 133.674C446.103 133.69 446.599 133.718 447.103 133.758C447.607 133.798 448.103 133.866 448.591 133.962C449.079 134.05 449.511 134.202 449.887 134.418C450.271 134.626 450.579 134.91 450.811 135.27C451.043 135.63 451.159 136.098 451.159 136.674C451.159 137.202 451.027 137.718 450.763 138.222C450.499 138.726 450.115 139.174 449.611 139.566C449.115 139.958 448.507 140.27 447.787 140.502C447.067 140.742 446.247 140.862 445.327 140.862C444.415 140.862 443.619 140.774 442.939 140.598C442.267 140.422 441.703 140.182 441.247 139.878C440.799 139.582 440.463 139.238 440.239 138.846C440.023 138.454 439.915 138.046 439.915 137.622C439.915 137.046 440.095 136.554 440.455 136.146C440.823 135.738 441.319 135.418 441.943 135.186C441.607 135.026 441.335 134.806 441.127 134.526C440.927 134.246 440.827 133.878 440.827 133.422C440.827 133.062 440.959 132.686 441.223 132.294C441.487 131.902 441.883 131.57 442.411 131.298C441.803 130.962 441.323 130.518 440.971 129.966C440.619 129.406 440.443 128.754 440.443 128.01C440.443 127.402 440.559 126.854 440.791 126.366C441.031 125.878 441.363 125.462 441.787 125.118C442.211 124.774 442.711 124.51 443.287 124.326C443.871 124.142 444.507 124.05 445.195 124.05C446.251 124.05 447.171 124.27 447.955 124.71H451.375ZM466.133 124.266V136.506H464.573C464.229 136.506 464.009 136.342 463.913 136.014L463.721 134.874C463.465 135.146 463.193 135.394 462.905 135.618C462.625 135.842 462.325 136.034 462.005 136.194C461.685 136.354 461.341 136.478 460.973 136.566C460.613 136.654 460.225 136.698 459.809 136.698C459.137 136.698 458.545 136.586 458.033 136.362C457.521 136.138 457.089 135.822 456.737 135.414C456.393 135.006 456.133 134.518 455.957 133.95C455.781 133.374 455.693 132.742 455.693 132.054V124.266H458.273V132.054C458.273 132.878 458.461 133.518 458.837 133.974C459.221 134.43 459.801 134.658 460.577 134.658C461.145 134.658 461.673 134.53 462.161 134.274C462.657 134.01 463.121 133.65 463.553 133.194V124.266H466.133ZM474.354 124.266V136.506H471.774V124.266H474.354ZM474.786 120.57C474.786 120.802 474.738 121.022 474.642 121.23C474.554 121.438 474.43 121.622 474.27 121.782C474.11 121.934 473.922 122.058 473.706 122.154C473.498 122.242 473.274 122.286 473.034 122.286C472.802 122.286 472.582 122.242 472.374 122.154C472.174 122.058 471.998 121.934 471.846 121.782C471.694 121.622 471.57 121.438 471.474 121.23C471.386 121.022 471.342 120.802 471.342 120.57C471.342 120.33 471.386 120.106 471.474 119.898C471.57 119.69 471.694 119.51 471.846 119.358C471.998 119.198 472.174 119.074 472.374 118.986C472.582 118.89 472.802 118.842 473.034 118.842C473.274 118.842 473.498 118.89 473.706 118.986C473.922 119.074 474.11 119.198 474.27 119.358C474.43 119.51 474.554 119.69 474.642 119.898C474.738 120.106 474.786 120.33 474.786 120.57ZM487.807 127.278C487.447 126.814 487.051 126.49 486.619 126.306C486.187 126.122 485.719 126.03 485.215 126.03C484.207 126.03 483.419 126.402 482.851 127.146C482.283 127.882 481.999 128.974 481.999 130.422C481.999 131.174 482.063 131.818 482.191 132.354C482.319 132.882 482.503 133.314 482.743 133.65C482.983 133.986 483.275 134.23 483.619 134.382C483.963 134.534 484.351 134.61 484.783 134.61C485.439 134.61 486.003 134.47 486.475 134.19C486.955 133.902 487.399 133.498 487.807 132.978V127.278ZM490.387 118.746V136.506H488.827C488.483 136.506 488.263 136.342 488.167 136.014L487.939 134.682C487.427 135.282 486.843 135.766 486.187 136.134C485.539 136.502 484.783 136.686 483.919 136.686C483.231 136.686 482.607 136.55 482.047 136.278C481.487 135.998 481.007 135.594 480.607 135.066C480.207 134.538 479.895 133.886 479.671 133.11C479.455 132.326 479.347 131.43 479.347 130.422C479.347 129.51 479.467 128.666 479.707 127.89C479.955 127.114 480.307 126.442 480.763 125.874C481.219 125.298 481.771 124.85 482.419 124.53C483.075 124.202 483.807 124.038 484.615 124.038C485.335 124.038 485.947 124.154 486.451 124.386C486.955 124.61 487.407 124.926 487.807 125.334V118.746H490.387ZM503.97 129.006C503.97 128.574 503.906 128.174 503.778 127.806C503.658 127.43 503.478 127.106 503.238 126.834C502.998 126.554 502.698 126.338 502.338 126.186C501.986 126.026 501.578 125.946 501.114 125.946C500.178 125.946 499.442 126.214 498.906 126.75C498.37 127.286 498.03 128.038 497.886 129.006H503.97ZM497.814 130.59C497.846 131.286 497.954 131.89 498.138 132.402C498.322 132.906 498.566 133.326 498.87 133.662C499.182 133.998 499.55 134.25 499.974 134.418C500.406 134.578 500.886 134.658 501.414 134.658C501.918 134.658 502.354 134.602 502.722 134.49C503.09 134.37 503.41 134.242 503.682 134.106C503.954 133.962 504.186 133.834 504.378 133.722C504.57 133.602 504.746 133.542 504.906 133.542C505.114 133.542 505.274 133.622 505.386 133.782L506.118 134.73C505.814 135.09 505.47 135.394 505.086 135.642C504.702 135.89 504.294 136.094 503.862 136.254C503.43 136.406 502.986 136.514 502.53 136.578C502.074 136.65 501.63 136.686 501.198 136.686C500.35 136.686 499.562 136.546 498.834 136.266C498.114 135.978 497.486 135.558 496.95 135.006C496.422 134.454 496.006 133.77 495.702 132.954C495.406 132.138 495.258 131.198 495.258 130.134C495.258 129.286 495.39 128.494 495.654 127.758C495.926 127.022 496.31 126.382 496.806 125.838C497.31 125.294 497.918 124.866 498.63 124.554C499.35 124.234 500.162 124.074 501.066 124.074C501.818 124.074 502.514 124.198 503.154 124.446C503.794 124.686 504.346 125.042 504.81 125.514C505.274 125.986 505.634 126.566 505.89 127.254C506.154 127.934 506.286 128.71 506.286 129.582C506.286 129.982 506.242 130.25 506.154 130.386C506.066 130.522 505.906 130.59 505.674 130.59H497.814ZM298.496 165.698C297.48 165.698 296.696 165.414 296.144 164.846C295.6 164.27 295.328 163.462 295.328 162.422V155.294H293.984C293.84 155.294 293.716 155.25 293.612 155.162C293.508 155.066 293.456 154.926 293.456 154.742V153.698L295.436 153.41L296 149.87C296.04 149.734 296.108 149.626 296.204 149.546C296.3 149.458 296.428 149.414 296.588 149.414H297.908V153.434H301.304V155.294H297.908V162.242C297.908 162.682 298.016 163.018 298.232 163.25C298.448 163.482 298.736 163.598 299.096 163.598C299.296 163.598 299.468 163.574 299.612 163.526C299.756 163.47 299.88 163.414 299.984 163.358C300.088 163.294 300.176 163.238 300.248 163.19C300.328 163.134 300.404 163.106 300.476 163.106C300.62 163.106 300.736 163.186 300.824 163.346L301.592 164.606C301.192 164.958 300.72 165.23 300.176 165.422C299.632 165.606 299.072 165.698 298.496 165.698ZM308.318 154.718C308.822 154.222 309.374 153.826 309.974 153.53C310.574 153.226 311.274 153.074 312.074 153.074C312.746 153.074 313.334 153.186 313.838 153.41C314.35 153.634 314.778 153.95 315.122 154.358C315.474 154.766 315.738 155.258 315.914 155.834C316.09 156.402 316.178 157.03 316.178 157.718V165.506H313.61V157.718C313.61 156.894 313.418 156.254 313.034 155.798C312.658 155.342 312.082 155.114 311.306 155.114C310.73 155.114 310.194 155.246 309.698 155.51C309.21 155.774 308.75 156.134 308.318 156.59V165.506H305.738V147.746H308.318V154.718ZM324.027 155.534C324.411 154.758 324.875 154.15 325.419 153.71C325.963 153.262 326.615 153.038 327.375 153.038C327.639 153.038 327.887 153.07 328.119 153.134C328.351 153.19 328.559 153.278 328.743 153.398L328.563 155.342C328.531 155.478 328.479 155.574 328.407 155.63C328.343 155.678 328.255 155.702 328.143 155.702C328.023 155.702 327.851 155.682 327.627 155.642C327.403 155.594 327.167 155.57 326.919 155.57C326.559 155.57 326.239 155.622 325.959 155.726C325.687 155.83 325.439 155.982 325.215 156.182C324.999 156.382 324.807 156.626 324.639 156.914C324.471 157.202 324.315 157.53 324.171 157.898V165.506H321.591V153.266H323.091C323.363 153.266 323.551 153.318 323.655 153.422C323.759 153.518 323.831 153.69 323.871 153.938L324.027 155.534ZM337.72 153.074C338.624 153.074 339.44 153.222 340.168 153.518C340.904 153.814 341.528 154.234 342.04 154.778C342.56 155.322 342.96 155.982 343.24 156.758C343.52 157.534 343.66 158.406 343.66 159.374C343.66 160.342 343.52 161.214 343.24 161.99C342.96 162.766 342.56 163.43 342.04 163.982C341.528 164.526 340.904 164.946 340.168 165.242C339.44 165.538 338.624 165.686 337.72 165.686C336.808 165.686 335.984 165.538 335.248 165.242C334.52 164.946 333.896 164.526 333.376 163.982C332.856 163.43 332.456 162.766 332.176 161.99C331.896 161.214 331.756 160.342 331.756 159.374C331.756 158.406 331.896 157.534 332.176 156.758C332.456 155.982 332.856 155.322 333.376 154.778C333.896 154.234 334.52 153.814 335.248 153.518C335.984 153.222 336.808 153.074 337.72 153.074ZM337.72 163.67C338.824 163.67 339.644 163.302 340.18 162.566C340.724 161.822 340.996 160.762 340.996 159.386C340.996 158.01 340.724 156.95 340.18 156.206C339.644 155.454 338.824 155.078 337.72 155.078C336.6 155.078 335.768 155.454 335.224 156.206C334.68 156.95 334.408 158.01 334.408 159.386C334.408 160.762 334.68 161.822 335.224 162.566C335.768 163.302 336.6 163.67 337.72 163.67ZM358.859 153.266V165.506H357.299C356.955 165.506 356.735 165.342 356.639 165.014L356.447 163.874C356.191 164.146 355.919 164.394 355.631 164.618C355.351 164.842 355.051 165.034 354.731 165.194C354.411 165.354 354.067 165.478 353.699 165.566C353.339 165.654 352.951 165.698 352.535 165.698C351.863 165.698 351.271 165.586 350.759 165.362C350.247 165.138 349.815 164.822 349.463 164.414C349.119 164.006 348.859 163.518 348.683 162.95C348.507 162.374 348.419 161.742 348.419 161.054V153.266H350.999V161.054C350.999 161.878 351.187 162.518 351.563 162.974C351.947 163.43 352.527 163.658 353.303 163.658C353.871 163.658 354.399 163.53 354.887 163.274C355.383 163.01 355.847 162.65 356.279 162.194V153.266H358.859ZM368.76 159.278C369.56 159.278 370.16 159.074 370.56 158.666C370.96 158.258 371.16 157.726 371.16 157.07C371.16 156.398 370.96 155.866 370.56 155.474C370.16 155.082 369.56 154.886 368.76 154.886C367.968 154.886 367.368 155.082 366.96 155.474C366.56 155.866 366.36 156.398 366.36 157.07C366.36 157.39 366.412 157.686 366.516 157.958C366.62 158.23 366.772 158.466 366.972 158.666C367.172 158.858 367.42 159.01 367.716 159.122C368.02 159.226 368.368 159.278 368.76 159.278ZM372.348 166.106C372.348 165.834 372.268 165.618 372.108 165.458C371.956 165.29 371.748 165.162 371.484 165.074C371.22 164.978 370.912 164.91 370.56 164.87C370.208 164.822 369.832 164.79 369.432 164.774C369.04 164.75 368.636 164.73 368.22 164.714C367.812 164.69 367.416 164.65 367.032 164.594C366.648 164.794 366.332 165.034 366.084 165.314C365.844 165.594 365.724 165.918 365.724 166.286C365.724 166.526 365.784 166.75 365.904 166.958C366.032 167.166 366.224 167.346 366.48 167.498C366.744 167.65 367.076 167.77 367.476 167.858C367.884 167.946 368.372 167.99 368.94 167.99C370.076 167.99 370.928 167.814 371.496 167.462C372.064 167.11 372.348 166.658 372.348 166.106ZM374.94 153.71V154.67C374.94 154.99 374.748 155.186 374.364 155.258L373.14 155.462C373.348 155.926 373.452 156.442 373.452 157.01C373.452 157.61 373.332 158.154 373.092 158.642C372.86 159.13 372.536 159.546 372.12 159.89C371.704 160.234 371.208 160.498 370.632 160.682C370.056 160.866 369.432 160.958 368.76 160.958C368.504 160.958 368.252 160.946 368.004 160.922C367.764 160.89 367.528 160.85 367.296 160.802C367.064 160.938 366.892 161.082 366.78 161.234C366.668 161.386 366.612 161.542 366.612 161.702C366.612 161.966 366.728 162.162 366.96 162.29C367.192 162.418 367.496 162.51 367.872 162.566C368.256 162.622 368.692 162.658 369.18 162.674C369.668 162.69 370.164 162.718 370.668 162.758C371.172 162.798 371.668 162.866 372.156 162.962C372.644 163.05 373.076 163.202 373.452 163.418C373.836 163.626 374.144 163.91 374.376 164.27C374.608 164.63 374.724 165.098 374.724 165.674C374.724 166.202 374.592 166.718 374.328 167.222C374.064 167.726 373.68 168.174 373.176 168.566C372.68 168.958 372.072 169.27 371.352 169.502C370.632 169.742 369.812 169.862 368.892 169.862C367.98 169.862 367.184 169.774 366.504 169.598C365.832 169.422 365.268 169.182 364.812 168.878C364.364 168.582 364.028 168.238 363.804 167.846C363.588 167.454 363.48 167.046 363.48 166.622C363.48 166.046 363.66 165.554 364.02 165.146C364.388 164.738 364.884 164.418 365.508 164.186C365.172 164.026 364.9 163.806 364.692 163.526C364.492 163.246 364.392 162.878 364.392 162.422C364.392 162.062 364.524 161.686 364.788 161.294C365.052 160.902 365.448 160.57 365.976 160.298C365.368 159.962 364.888 159.518 364.536 158.966C364.184 158.406 364.008 157.754 364.008 157.01C364.008 156.402 364.124 155.854 364.356 155.366C364.596 154.878 364.928 154.462 365.352 154.118C365.776 153.774 366.276 153.51 366.852 153.326C367.436 153.142 368.072 153.05 368.76 153.05C369.816 153.05 370.736 153.27 371.52 153.71H374.94ZM381.958 154.718C382.462 154.222 383.014 153.826 383.614 153.53C384.214 153.226 384.914 153.074 385.714 153.074C386.386 153.074 386.974 153.186 387.478 153.41C387.99 153.634 388.418 153.95 388.762 154.358C389.114 154.766 389.378 155.258 389.554 155.834C389.73 156.402 389.818 157.03 389.818 157.718V165.506H387.25V157.718C387.25 156.894 387.058 156.254 386.674 155.798C386.298 155.342 385.722 155.114 384.946 155.114C384.37 155.114 383.834 155.246 383.338 155.51C382.85 155.774 382.39 156.134 381.958 156.59V165.506H379.378V147.746H381.958V154.718ZM407.532 165.698C406.516 165.698 405.732 165.414 405.18 164.846C404.636 164.27 404.364 163.462 404.364 162.422V155.294H403.02C402.876 155.294 402.752 155.25 402.648 155.162C402.544 155.066 402.492 154.926 402.492 154.742V153.698L404.472 153.41L405.036 149.87C405.076 149.734 405.144 149.626 405.24 149.546C405.336 149.458 405.464 149.414 405.624 149.414H406.944V153.434H410.34V155.294H406.944V162.242C406.944 162.682 407.052 163.018 407.268 163.25C407.484 163.482 407.772 163.598 408.132 163.598C408.332 163.598 408.504 163.574 408.648 163.526C408.792 163.47 408.916 163.414 409.02 163.358C409.124 163.294 409.212 163.238 409.284 163.19C409.364 163.134 409.44 163.106 409.512 163.106C409.656 163.106 409.772 163.186 409.86 163.346L410.628 164.606C410.228 164.958 409.756 165.23 409.212 165.422C408.668 165.606 408.108 165.698 407.532 165.698ZM417.354 154.718C417.858 154.222 418.41 153.826 419.01 153.53C419.61 153.226 420.31 153.074 421.11 153.074C421.782 153.074 422.37 153.186 422.874 153.41C423.386 153.634 423.814 153.95 424.158 154.358C424.51 154.766 424.774 155.258 424.95 155.834C425.126 156.402 425.214 157.03 425.214 157.718V165.506H422.646V157.718C422.646 156.894 422.454 156.254 422.07 155.798C421.694 155.342 421.118 155.114 420.342 155.114C419.766 155.114 419.23 155.246 418.734 155.51C418.246 155.774 417.786 156.134 417.354 156.59V165.506H414.774V147.746H417.354V154.718ZM438.655 158.006C438.655 157.574 438.591 157.174 438.463 156.806C438.343 156.43 438.163 156.106 437.923 155.834C437.683 155.554 437.383 155.338 437.023 155.186C436.671 155.026 436.263 154.946 435.799 154.946C434.863 154.946 434.127 155.214 433.591 155.75C433.055 156.286 432.715 157.038 432.571 158.006H438.655ZM432.499 159.59C432.531 160.286 432.639 160.89 432.823 161.402C433.007 161.906 433.251 162.326 433.555 162.662C433.867 162.998 434.235 163.25 434.659 163.418C435.091 163.578 435.571 163.658 436.099 163.658C436.603 163.658 437.039 163.602 437.407 163.49C437.775 163.37 438.095 163.242 438.367 163.106C438.639 162.962 438.871 162.834 439.063 162.722C439.255 162.602 439.431 162.542 439.591 162.542C439.799 162.542 439.959 162.622 440.071 162.782L440.803 163.73C440.499 164.09 440.155 164.394 439.771 164.642C439.387 164.89 438.979 165.094 438.547 165.254C438.115 165.406 437.671 165.514 437.215 165.578C436.759 165.65 436.315 165.686 435.883 165.686C435.035 165.686 434.247 165.546 433.519 165.266C432.799 164.978 432.171 164.558 431.635 164.006C431.107 163.454 430.691 162.77 430.387 161.954C430.091 161.138 429.943 160.198 429.943 159.134C429.943 158.286 430.075 157.494 430.339 156.758C430.611 156.022 430.995 155.382 431.491 154.838C431.995 154.294 432.603 153.866 433.315 153.554C434.035 153.234 434.847 153.074 435.751 153.074C436.503 153.074 437.199 153.198 437.839 153.446C438.479 153.686 439.031 154.042 439.495 154.514C439.959 154.986 440.319 155.566 440.575 156.254C440.839 156.934 440.971 157.71 440.971 158.582C440.971 158.982 440.927 159.25 440.839 159.386C440.751 159.522 440.591 159.59 440.359 159.59H432.499ZM458.521 159.278C459.321 159.278 459.921 159.074 460.321 158.666C460.721 158.258 460.921 157.726 460.921 157.07C460.921 156.398 460.721 155.866 460.321 155.474C459.921 155.082 459.321 154.886 458.521 154.886C457.729 154.886 457.129 155.082 456.721 155.474C456.321 155.866 456.121 156.398 456.121 157.07C456.121 157.39 456.173 157.686 456.277 157.958C456.381 158.23 456.533 158.466 456.733 158.666C456.933 158.858 457.181 159.01 457.477 159.122C457.781 159.226 458.129 159.278 458.521 159.278ZM462.109 166.106C462.109 165.834 462.029 165.618 461.869 165.458C461.717 165.29 461.509 165.162 461.245 165.074C460.981 164.978 460.673 164.91 460.321 164.87C459.969 164.822 459.593 164.79 459.193 164.774C458.801 164.75 458.397 164.73 457.981 164.714C457.573 164.69 457.177 164.65 456.793 164.594C456.409 164.794 456.093 165.034 455.845 165.314C455.605 165.594 455.485 165.918 455.485 166.286C455.485 166.526 455.545 166.75 455.665 166.958C455.793 167.166 455.985 167.346 456.241 167.498C456.505 167.65 456.837 167.77 457.237 167.858C457.645 167.946 458.133 167.99 458.701 167.99C459.837 167.99 460.689 167.814 461.257 167.462C461.825 167.11 462.109 166.658 462.109 166.106ZM464.701 153.71V154.67C464.701 154.99 464.509 155.186 464.125 155.258L462.901 155.462C463.109 155.926 463.213 156.442 463.213 157.01C463.213 157.61 463.093 158.154 462.853 158.642C462.621 159.13 462.297 159.546 461.881 159.89C461.465 160.234 460.969 160.498 460.393 160.682C459.817 160.866 459.193 160.958 458.521 160.958C458.265 160.958 458.013 160.946 457.765 160.922C457.525 160.89 457.289 160.85 457.057 160.802C456.825 160.938 456.653 161.082 456.541 161.234C456.429 161.386 456.373 161.542 456.373 161.702C456.373 161.966 456.489 162.162 456.721 162.29C456.953 162.418 457.257 162.51 457.633 162.566C458.017 162.622 458.453 162.658 458.941 162.674C459.429 162.69 459.925 162.718 460.429 162.758C460.933 162.798 461.429 162.866 461.917 162.962C462.405 163.05 462.837 163.202 463.213 163.418C463.597 163.626 463.905 163.91 464.137 164.27C464.369 164.63 464.485 165.098 464.485 165.674C464.485 166.202 464.353 166.718 464.089 167.222C463.825 167.726 463.441 168.174 462.937 168.566C462.441 168.958 461.833 169.27 461.113 169.502C460.393 169.742 459.573 169.862 458.653 169.862C457.741 169.862 456.945 169.774 456.265 169.598C455.593 169.422 455.029 169.182 454.573 168.878C454.125 168.582 453.789 168.238 453.565 167.846C453.349 167.454 453.241 167.046 453.241 166.622C453.241 166.046 453.421 165.554 453.781 165.146C454.149 164.738 454.645 164.418 455.269 164.186C454.933 164.026 454.661 163.806 454.453 163.526C454.253 163.246 454.153 162.878 454.153 162.422C454.153 162.062 454.285 161.686 454.549 161.294C454.813 160.902 455.209 160.57 455.737 160.298C455.129 159.962 454.649 159.518 454.297 158.966C453.945 158.406 453.769 157.754 453.769 157.01C453.769 156.402 453.885 155.854 454.117 155.366C454.357 154.878 454.689 154.462 455.113 154.118C455.537 153.774 456.037 153.51 456.613 153.326C457.197 153.142 457.833 153.05 458.521 153.05C459.577 153.05 460.497 153.27 461.281 153.71H464.701ZM475.679 160.154C474.759 160.186 473.983 160.262 473.351 160.382C472.719 160.494 472.207 160.642 471.815 160.826C471.423 161.002 471.139 161.214 470.963 161.462C470.795 161.71 470.711 161.982 470.711 162.278C470.711 162.566 470.755 162.814 470.843 163.022C470.939 163.222 471.067 163.39 471.227 163.526C471.395 163.654 471.587 163.75 471.803 163.814C472.027 163.87 472.271 163.898 472.535 163.898C473.207 163.898 473.783 163.774 474.263 163.526C474.751 163.27 475.223 162.902 475.679 162.422V160.154ZM468.839 154.97C470.223 153.682 471.871 153.038 473.783 153.038C474.487 153.038 475.111 153.154 475.655 153.386C476.207 153.61 476.667 153.93 477.035 154.346C477.411 154.762 477.695 155.258 477.887 155.834C478.087 156.402 478.187 157.034 478.187 157.73V165.506H477.035C476.787 165.506 476.599 165.47 476.471 165.398C476.343 165.318 476.235 165.162 476.147 164.93L475.895 163.934C475.583 164.214 475.275 164.466 474.971 164.69C474.667 164.906 474.351 165.09 474.023 165.242C473.703 165.394 473.355 165.506 472.979 165.578C472.611 165.658 472.203 165.698 471.755 165.698C471.259 165.698 470.795 165.63 470.363 165.494C469.939 165.358 469.571 165.154 469.259 164.882C468.947 164.602 468.699 164.258 468.515 163.85C468.339 163.442 468.251 162.962 468.251 162.41C468.251 161.938 468.375 161.478 468.623 161.03C468.879 160.582 469.295 160.182 469.871 159.83C470.455 159.47 471.219 159.174 472.163 158.942C473.115 158.71 474.287 158.578 475.679 158.546V157.73C475.679 156.85 475.491 156.194 475.115 155.762C474.739 155.33 474.187 155.114 473.459 155.114C472.963 155.114 472.547 155.178 472.211 155.306C471.875 155.426 471.583 155.558 471.335 155.702C471.087 155.846 470.867 155.982 470.675 156.11C470.483 156.23 470.279 156.29 470.063 156.29C469.887 156.29 469.735 156.246 469.607 156.158C469.487 156.062 469.387 155.946 469.307 155.81L468.839 154.97ZM483.61 165.506V153.266H485.17C485.522 153.266 485.746 153.43 485.842 153.758L486.01 154.826C486.234 154.57 486.466 154.338 486.706 154.13C486.946 153.914 487.202 153.73 487.474 153.578C487.754 153.418 488.05 153.294 488.362 153.206C488.682 153.118 489.026 153.074 489.394 153.074C489.786 153.074 490.146 153.13 490.474 153.242C490.802 153.354 491.09 153.514 491.338 153.722C491.594 153.93 491.814 154.182 491.998 154.478C492.182 154.774 492.334 155.106 492.454 155.474C492.638 155.05 492.87 154.686 493.15 154.382C493.43 154.078 493.742 153.83 494.086 153.638C494.43 153.446 494.794 153.306 495.178 153.218C495.57 153.122 495.966 153.074 496.366 153.074C497.022 153.074 497.606 153.178 498.118 153.386C498.638 153.594 499.074 153.898 499.426 154.298C499.786 154.69 500.058 155.174 500.242 155.75C500.426 156.326 500.518 156.982 500.518 157.718V165.506H497.938V157.718C497.938 156.854 497.75 156.206 497.374 155.774C497.006 155.334 496.458 155.114 495.73 155.114C495.402 155.114 495.094 155.17 494.806 155.282C494.518 155.394 494.266 155.558 494.05 155.774C493.834 155.99 493.662 156.262 493.534 156.59C493.414 156.91 493.354 157.286 493.354 157.718V165.506H490.774V157.718C490.774 156.822 490.594 156.166 490.234 155.75C489.874 155.326 489.346 155.114 488.65 155.114C488.17 155.114 487.726 155.238 487.318 155.486C486.91 155.726 486.534 156.058 486.19 156.482V165.506H483.61ZM513.959 158.006C513.959 157.574 513.895 157.174 513.767 156.806C513.647 156.43 513.467 156.106 513.227 155.834C512.987 155.554 512.687 155.338 512.327 155.186C511.975 155.026 511.567 154.946 511.103 154.946C510.167 154.946 509.431 155.214 508.895 155.75C508.359 156.286 508.019 157.038 507.875 158.006H513.959ZM507.803 159.59C507.835 160.286 507.943 160.89 508.127 161.402C508.311 161.906 508.555 162.326 508.859 162.662C509.171 162.998 509.539 163.25 509.963 163.418C510.395 163.578 510.875 163.658 511.403 163.658C511.907 163.658 512.343 163.602 512.711 163.49C513.079 163.37 513.399 163.242 513.671 163.106C513.943 162.962 514.175 162.834 514.367 162.722C514.559 162.602 514.735 162.542 514.895 162.542C515.103 162.542 515.263 162.622 515.375 162.782L516.107 163.73C515.803 164.09 515.459 164.394 515.075 164.642C514.691 164.89 514.283 165.094 513.851 165.254C513.419 165.406 512.975 165.514 512.519 165.578C512.063 165.65 511.619 165.686 511.187 165.686C510.339 165.686 509.551 165.546 508.823 165.266C508.103 164.978 507.475 164.558 506.939 164.006C506.411 163.454 505.995 162.77 505.691 161.954C505.395 161.138 505.247 160.198 505.247 159.134C505.247 158.286 505.379 157.494 505.643 156.758C505.915 156.022 506.299 155.382 506.795 154.838C507.299 154.294 507.907 153.866 508.619 153.554C509.339 153.234 510.151 153.074 511.055 153.074C511.807 153.074 512.503 153.198 513.143 153.446C513.783 153.686 514.335 154.042 514.799 154.514C515.263 154.986 515.623 155.566 515.879 156.254C516.143 156.934 516.275 157.71 516.275 158.582C516.275 158.982 516.231 159.25 516.143 159.386C516.055 159.522 515.895 159.59 515.663 159.59H507.803ZM520.685 164.018C520.685 163.786 520.725 163.57 520.805 163.37C520.893 163.162 521.009 162.982 521.153 162.83C521.305 162.678 521.481 162.558 521.681 162.47C521.889 162.382 522.109 162.338 522.341 162.338C522.573 162.338 522.789 162.382 522.989 162.47C523.197 162.558 523.377 162.678 523.529 162.83C523.681 162.982 523.801 163.162 523.889 163.37C523.977 163.57 524.021 163.786 524.021 164.018C524.021 164.258 523.977 164.478 523.889 164.678C523.801 164.878 523.681 165.054 523.529 165.206C523.377 165.358 523.197 165.474 522.989 165.554C522.789 165.642 522.573 165.686 522.341 165.686C522.109 165.686 521.889 165.642 521.681 165.554C521.481 165.474 521.305 165.358 521.153 165.206C521.009 165.054 520.893 164.878 520.805 164.678C520.725 164.478 520.685 164.258 520.685 164.018Z" fill="black"/>
<g filter="url(#filter1_d_242_280)">
<path d="M57.3616 95.0119C60.7493 99.0455 57.3616 107.357 75.8021 100.697C74.7638 94.5398 48.6695 33.1766 13.2728 29.8307C13.153 31.2236 13.1594 34.405 14.1438 35.9866C14.727 34.6334 14.3435 33.6649 16.0773 35.2173C17.0041 35.297 13.7843 40.1655 14.4715 43.0313C15.9816 41.7578 16.8285 42.7662 14.0721 47.6746C18.6422 43.39 19.3534 51.4032 22.5973 51.6822C21.6705 51.6025 15.023 52.9018 26.9359 60.943C24.8186 58.4221 24.5948 55.5962 30.3395 59.3647C31.0666 61.7661 27.4633 65.6661 35.2855 72.4198C32.8245 68.466 35.3013 66.808 37.8979 63.757C40.0153 66.2779 37.5385 67.936 40.8463 72.8982C41.1259 69.6478 42.2619 65.5744 45.8335 72.8982C46.9144 75.1146 47.9064 75.9895 48.455 76.2973C47.5785 76.2186 45.3163 76.4771 40.8463 78.8685C57.5744 82.5855 52.5325 83.6815 51.904 83.3714C52.1975 83.0433 52.3189 82.9695 52.006 83.1418C51.8147 83.2471 51.8099 83.325 51.904 83.3714C50.8185 84.5845 47.38 89.275 54.8549 97.8608C54.6348 89.5639 52.9556 89.7891 57.3616 89.7891C63.2875 89.7891 65.7034 101.151 57.3616 95.0119Z" fill="white"/>
<path d="M13.2728 29.8307C13.153 31.2236 13.1594 34.405 14.1438 35.9866C14.727 34.6334 14.3435 33.6649 16.0773 35.2173C17.0041 35.297 13.7844 40.1655 14.4715 43.0313C15.9816 41.7578 16.8285 42.7662 14.0721 47.6746C18.6422 43.39 19.3534 51.4032 22.5973 51.6822C21.6705 51.6025 15.023 52.9018 26.9359 60.943C24.8186 58.4221 24.5948 55.5962 30.3395 59.3647C31.0666 61.7661 27.4633 65.6661 35.2855 72.4198C32.8245 68.466 35.3013 66.808 37.8979 63.757C40.0153 66.2779 37.5385 67.936 40.8463 72.8982C41.1259 69.6478 42.2619 65.5744 45.8335 72.8982C49.4051 80.2219 52.006 72.8982 40.8463 78.8685C60.0778 83.1418 50.5359 83.9508 52.006 83.1418C53.4761 82.3327 45.3587 86.9533 54.8549 97.8608C54.6348 89.5639 52.9556 89.7891 57.3616 89.7891C63.2875 89.7891 65.7034 101.151 57.3616 95.012C60.7493 99.0455 57.3616 107.357 75.8021 100.697C74.7638 94.5398 48.6695 33.1766 13.2728 29.8307Z" stroke="black" stroke-width="2"/>
<path d="M136.087 50.8218C111.872 46.5485 99.5269 50.8218 87.6567 50.8218C77.6267 50.8218 41.1543 26.4135 16.9104 19.4186C11.6875 19.0097 7.41423 11.4128 5.04022 17.5853C4.56541 26.6066 8.36388 21.7619 12.7623 26.6066C20.7413 35.3952 31.6294 47.1462 31.6294 50.8218C43.0248 50.8218 33.5287 65.066 42.55 65.066C51.5714 65.066 50.1469 72.1882 50.1469 89.2812C59.1683 72.1882 59.1683 74.0874 67.24 89.2812C67.24 106.849 67.24 120.144 59.1683 130.115C69.9672 127.266 69.4924 123.942 75.7866 120.619C67.7148 130.115 66.0095 131.142 64.3912 141.51C63.7241 145.783 67.24 144.834 67.24 152.431C71.5133 155.279 69.1392 157.179 69.1392 161.927C102.376 166.2 69.1392 177.121 81.0094 182.344C69.1392 193.739 73.5595 193.377 87.6567 197.844C115.526 206.673 57.9928 209.511 140.495 229.083C140.495 201.231 173.992 204.618 173.992 186.552C170.781 197.844 160.819 189.187 169.798 182.344C197.812 151.956 191.64 124.417 175.971 106.849C196.863 115.87 203.985 112.547 195.913 112.547C187.841 112.547 175.496 93.5545 169.798 89.2812C169.798 84.5661 203.641 84.0913 195.913 64.6242C188.751 46.5815 237.696 22.3333 239.595 9.51356C242.128 -7.57955 232.473 5.71508 219.178 9.51356C186.892 6.66471 145.583 44.6493 136.087 50.8218Z" fill="#439BA8" stroke="#2E234A" stroke-width="2"/>
<path d="M79.0702 73.4958C110.882 65.4241 112.307 63.05 146.493 73.4958C153.14 97.711 157.413 101.984 166.91 108.157C155.039 116.703 158.838 120.977 166.91 120.977C166.91 131.422 165.01 130.473 175.931 130.473C171.658 137.12 157.888 143.293 165.01 161.335C138.896 179.378 130.824 197.895 129.875 210.715C100.437 196.146 127.026 180.477 82.8686 176.679C88.3246 168.285 85.2483 152.101 76.2628 152.391C75.3019 153.026 74.0382 153.413 72.4229 153.413C73.8008 152.752 75.0828 152.43 76.2628 152.391C82.3634 148.36 76.2664 134.331 70.5237 145.816C70.5237 130.473 88.0915 108.157 67.6748 120.977C72.4229 103.883 75.2717 103.883 70.5237 95.337C79.0702 85.8408 70.5237 85.366 67.6748 83.4668C75.7465 80.1431 77.171 78.7187 72.4229 73.4958H79.0702Z" fill="#C2E2E8"/>
<path d="M121.516 116.286C120.131 118.855 118.031 117.984 114.75 123.152C118.921 124.398 123.492 115.042 129.173 115.835C132.714 116.33 135.298 115.474 135.094 112.004C133.767 115.564 128.968 112.365 131.01 112.245C136.83 111.902 130.864 109.766 134.948 109.526C137.835 109.355 136.902 107.918 140.241 103.742C132.75 107.002 118.518 114.075 121.516 116.286Z" fill="#2E234A"/>
<path d="M137.223 113.371C140.932 113.153 140.563 109.195 138.915 107.302C137.529 109.871 139.881 109.332 139.629 110.742C138.784 113.777 136.538 110.427 137.223 113.371Z" fill="#2E234A"/>
<path d="M93.6356 87.7882C90.3948 90.2744 84.9141 91.4932 75.156 94.2517C78.3394 97.781 86.9114 98.5034 90.7994 98.4234C91.2999 96.5466 93.9391 93.9 96.4825 101.279C101.862 98.0231 101.675 103.557 103.804 105.242C104.572 104.777 106.749 99.9965 105.972 97.109C105.002 93.4996 101.457 89.8741 93.6356 87.7882Z" fill="#439BA8"/>
<path d="M92.8394 106.407C85.2423 106.407 88.0913 100.71 80.4942 103.084C84.2928 112.105 76.6959 108.307 96.163 126.824C95.2134 121.601 83.0383 112.58 85.2424 108.307C85.7429 106.43 87.922 107.575 90.4653 114.954C96.163 113.529 93.3138 116.853 94.2636 118.278C96.7963 122.076 96.6376 113.987 94.2636 113.529C88.5659 110.206 95.688 110.681 92.8394 106.407Z" fill="#2E234A"/>
<path d="M125.84 87.4926C128.925 87.4926 139.371 87.4926 146.968 95.4869C145.773 97.0484 139.846 93.8969 139.371 95.4869C138.421 93.4221 122.278 88.6818 123.221 99.9741C118.242 96.9683 118.421 102.087 116.454 103.647C115.743 103.218 116.454 99.9741 116.454 94.5373C116.454 90.523 118.607 89.4305 125.84 87.4926Z" fill="#439BA8"/>
<path d="M92.3649 150.564C95.2138 129.198 78.5956 134.896 83.8184 115.429C83.8184 127.384 90.9406 125.4 98.5375 140.593C114.206 130.622 103.76 150.564 125.601 144.867C147.443 139.169 151.716 140.593 160.263 144.867C146.493 144.867 134.75 142.595 125.601 159.586C112.307 184.276 83.8184 162.909 92.3649 150.564Z" fill="#439BA8"/>
<path d="M91.55 162.108C86.1403 156.005 88.169 147.868 96.9598 147.868C102.595 147.868 106.968 144.884 109.132 151.936C111.837 160.752 96.9598 168.211 91.55 162.108Z" fill="#2E234A"/>
<path d="M137.946 151.039C132.723 165.758 142.694 158.636 147.917 162.434C147.917 155.977 137.946 165.758 137.946 151.039Z" fill="#2E234A"/>
<path d="M93.3359 165.427C89.917 164.918 87.5219 169.045 87.0522 173.524C91.06 172.737 90.3121 169.79 93.3359 165.427Z" fill="#2E234A"/>
<path d="M198.721 76.9692C194.923 80.7676 185.427 90.7386 163.585 76.9692C164.479 73.5186 170.233 75.5447 183.053 76.9692C177.355 76.2534 163.585 66.9982 176.88 66.9982C166.434 53.7036 175.93 60.8257 183.053 55.6028C169.283 49.4303 191.124 45.1571 181.303 45.1571C198.721 26.1647 221.685 31.886 233.382 10.4961C233.382 11.9205 233.097 15.1492 231.958 16.6686C231.483 15.2442 231.958 14.2946 230.058 15.719C229.109 15.719 231.958 20.9419 231.008 23.7907C229.584 22.3663 228.634 23.3159 231.008 28.5388C226.735 23.7907 225.31 31.8624 221.987 31.8624C222.936 31.8624 229.584 33.7617 216.764 40.8838C219.138 38.5097 219.613 35.6609 213.44 38.9846C212.491 41.3586 215.814 45.6319 207.268 51.8044C210.117 48.0059 207.743 46.1067 205.369 42.783C202.994 45.1571 205.369 47.0563 201.57 51.8044C201.57 48.4807 198.721 40.409 194.448 47.5311C190.175 54.6532 201.57 57.502 205.369 60.3509C198.721 60.3509 197.297 64.6242 193.024 60.3509C191.599 59.4013 196.822 68.4226 193.024 73.6455C193.973 65.2429 187.326 66.0486 183.053 70.3219C178.779 74.5951 189.7 82.4724 198.721 76.9692Z" fill="white" stroke="black" stroke-width="2"/>
</g>
<defs>
<filter id="filter0_d_242_280" x="205" y="49" width="350" height="159" filterUnits="userSpaceOnUse" color-interpolation-filters="sRGB">
<feFlood flood-opacity="0" result="BackgroundImageFix"/>
<feColorMatrix in="SourceAlpha" type="matrix" values="0 0 0 0 0 0 0 0 0 0 0 0 0 0 0 0 0 0 127 0" result="hardAlpha"/>
<feOffset dy="4"/>
<feGaussianBlur stdDeviation="2"/>
<feComposite in2="hardAlpha" operator="out"/>
<feColorMatrix type="matrix" values="0 0 0 0 0 0 0 0 0 0 0 0 0 0 0 0 0 0 0.25 0"/>
<feBlend mode="normal" in2="BackgroundImageFix" result="effect1_dropShadow_242_280"/>
<feBlend mode="normal" in="SourceGraphic" in2="effect1_dropShadow_242_280" result="shape"/>
</filter>
<filter id="filter1_d_242_280" x="0" y="0" width="245" height="238.348" filterUnits="userSpaceOnUse" color-interpolation-filters="sRGB">
<feFlood flood-opacity="0" result="BackgroundImageFix"/>
<feColorMatrix in="SourceAlpha" type="matrix" values="0 0 0 0 0 0 0 0 0 0 0 0 0 0 0 0 0 0 127 0" result="hardAlpha"/>
<feOffset dy="4"/>
<feGaussianBlur stdDeviation="2"/>
<feComposite in2="hardAlpha" operator="out"/>
<feColorMatrix type="matrix" values="0 0 0 0 0 0 0 0 0 0 0 0 0 0 0 0 0 0 0.25 0"/>
<feBlend mode="normal" in2="BackgroundImageFix" result="effect1_dropShadow_242_280"/>
<feBlend mode="normal" in="SourceGraphic" in2="effect1_dropShadow_242_280" result="shape"/>
</filter>
</defs>
</svg>
