<svg xmlns="http://www.w3.org/2000/svg" viewBox="0 0 150.6 347.04"><g id="Layer_2" data-name="Layer 2"><g id="Layer_1-2" data-name="Layer 1"><path d="M150.32,91.3c2.88,32.51-16.86,61-41,80.87-5.42,4.42-5.43,10.57-6.85,16.21-5.67,23.7-6.48,48.29-12.11,72-1.53,13.38-3.19,26.71-6.84,39.75a402.68,402.68,0,0,1-6.26,44.52c-.16.88-1.26,1.6-1.91,2.39-.71-.76-1.93-1.45-2-2.3a231.83,231.83,0,0,0-6.19-36.35c-4.9-29.16-7.76-58.6-14.58-87.44-9.16-56.95,1.78-32.07-35.13-72.63C3.32,128.77-.95,104.44.17,80.85,14.43-35.34,150.78-21.4,150.32,91.3ZM74.78,91c22.16,0,44.32,0,66.47-.09,1.61,0,3.21-1.33,4.81-2-45.55-4.05-95.88-3.85-141.5-.07,1.58.73,3.16,2.09,4.74,2.1C31.13,91.07,53,91,74.78,91Zm.53-23H12.85c-1.92-.12-5.2-.3-5.88,1.74.79,2.53,3.05,2.73,5.37,2.45H138.75c2.78.76,7.84-1.78,3.49-4C120,67.73,97.6,68.21,75.31,68ZM12.15,134.3c82.56-34.15,43-38.42,124.49.55l.85-1.38C118.44,121.25,96.81,112.86,76.87,102a4.68,4.68,0,0,0-3.57.3C53.06,113.41,30.94,120.91,12.15,134.3Zm6.93,11.8.83.56c73.38-34.44,37.28-34.34,110.78.07l1-1.19C115.27,134,95.3,127,77.56,117.18a5.24,5.24,0,0,0-4-.39q-26.47,13-52.79,26.35C20,143.57,19.64,145.09,19.08,146.1Zm115.16-4.91c.77-.82,1.53-1.65,2.3-2.48-14.23-4.21-56.85-33.81-66.34-27.53-18.37,10.8-39.08,16.88-56.15,29.6,2.5-.13,3.51.1,4.23-.26,18.31-9.21,36.58-18.51,54.91-27.67a5.19,5.19,0,0,1,4-.14C96.25,122.16,115.06,132.05,134.24,141.19Zm-110.7,8.13c.19.57.39,1.14.59,1.72,70.94-29.48,30.13-32.33,102.22.35l.76-1.51c-14.06-9-29.77-15.33-44.42-23.35-4.62-2.37-8.91-3.12-13.9-.38C53.89,134.22,38.53,141.43,23.54,149.32ZM97,55.44c18,.86,17.89-27.42.26-27C79.08,28.15,79.13,55.9,97,55.44Zm-43.75,0c17.54,1.13,18-27.31.61-26.94C35.65,27.4,35.23,56.05,53.28,55.44Zm92,24.83.12-1.09H5.42v1.09Z"/><path d="M96.1,51.26c-4,0-10.69-6-10.52-9.52s7.16-9.41,10.84-9.33c3.5.07,10.09,6.14,10.17,9.37C106.7,45.51,100.32,51.27,96.1,51.26Zm0-14.54c-8.07-1-8.31,11.06-.25,10.53C104.22,48.18,104.62,35.86,96.14,36.72Z"/><path d="M54.65,51.27c-4.37,0-10.63-5.61-10.52-9.48.1-3.35,6.62-9.35,10.21-9.39,4,0,10.45,5.9,10.43,9.58S58.69,51.23,54.65,51.27Zm-.19-14.54c-8.5-.95-8,11.51.25,10.56C62.6,47.92,62.29,35.51,54.46,36.73Z"/></g></g></svg>