<svg xmlns="http://www.w3.org/2000/svg" viewBox="0 0 293.17 345.04"><g id="Layer_2" data-name="Layer 2"><g id="Layer_1-2" data-name="Layer 1"><path d="M238.47,73.3l6.39,3.4.92-.52-4.69-7.94,1.22-.91,6.29,5.54,1.34-.84c-1.55-3.52-4.31-6.69-3.53-10.75,3.88,1,4.67,4.12,6.35,7.53,2-3.85,2-8.21,6-10,1.54,3.26,0,6.22-1,9.35l1.46.7,6-5.6,1.4.46c-.38,5.66-6.42,8.86-2.85,14.44,5.38,10.49,10.32,21.21,15.54,31.79,2.63,5.32.39,9.73-5.16,11.41-10.18,3.09-20.19,6.75-30.3,10.11-3,1-2.5,2.09-1.33,4.72,13.15,29.1,15.68,38.06,13.28,69.84-1.29,15.57-14.68,28.86-17.81,43.71,9.23-1.15,17.13-8.55,25.77-12.15,28.48-6-5.14,52.59-7,64.43-2,13.66,32.42-2.52,36.46,12.9a33.67,33.67,0,0,0-23.79-1.7c7.36,0,22.73,2,22,11.78-6.63-6.86-13.75-8.2-21.86-5.67,7.95.69,15,2.9,19.87,11.27-7.18-1.58-12.12-9.38-20.52-5.12,6.13,3,12,5.83,14.66,11.86l-.92,1c-4.31-2.57-8-6.45-13.2-7.08-.73,6.93,5.48,11.88,2.11,13.71a3.49,3.49,0,0,1-2.47-1c-8.42-9.1-17-18.12-25.23-27.33-4.46-5.49-1.32-11,.37-16.34,3-9.41,6.35-18.72,9.78-28,1.41-5,5.71-9.26,5.4-14.62-16.47,3.44-32.38,11.88-49,15.86-20.92,5.86-40.86,15.92-62.41,18.9-23.41-2.46-44.86-13.34-67.22-20.16-7-2.42-14.07-4.7-21.09-7.07-7.23-1.77-14.15-6.75-21.75-5.45,13.49,55.68,27.93,36.78-15.79,80.35-4.08-6.38,3.48-5.34,2.06-13.74-5.25.28-8.92,4.37-13.25,6.89-.77-3.75-.48-4,12.92-12.76l-.13-1.49a34.84,34.84,0,0,0-18.57,6.73c-.37-.58-.75-1.16-1.12-1.75a34.07,34.07,0,0,1,19.74-9.56c-4.28-2.81-8.71-1.94-21.83,4.39.71-9.62,15-10,22-10.92-7.79-1.79-15.47-1.87-23.93,2.35,3.68-17,41.7,2.08,35.44-14.87-1.62-11-27.28-62.24-1.46-55.73C41.82,242.89,49,249,57.47,249.86c-4.32-14.2-13.41-26.76-17.35-41.28-1.89-10.23.23-21-.89-31.32.05-15.25,8.25-28.17,13.86-41.8,2.09-6.13-30-11.58-36.23-16.92-2.9-1.72-3.31-4.38-1.57-7.73C21,100,26.26,88.87,31.87,78c3.41-5.29-2.42-8.63-3.53-13.74l1.49-1,6.4,5.7,1.48-.78c-1.07-3-2.2-5.92-1.49-9.16,4.53,1.69,4.32,5.76,6.31,10.15,1.95-3.53,2.07-7.08,6.28-7.71,1.2,4-2.14,7.12-3.54,10.62l1.26,1,6.32-5.52,1.09.7q-2.09,4-4.18,8l.84.5,6.25-3.47c.38.65.77,1.3,1.16,2-3.8,2.49-8.83,4.22-11.95,7.38C44,89,30.92,103.45,41.9,106.76c10.45,1.68,22.88,11.71,31.75,2.06C83.78,98.75,96.52,92.76,109,86.29c20.62.15.11-35.38,16.66-52.7,6.76-6.77,15.36-45.19,27.9-30.11,7.28,15.28,18.37,29.47,23.28,45.58,1.39,43.35-8.14,27.84,29.25,48.49,22.71,17.16,20.88,19.7,49.17,8.57,8.28-3.46-4.14-17.88-5.84-23.44-2.76-3.75-8.06-4.76-12-6.91C237.71,75,238.09,74.12,238.47,73.3Zm-19.9,162.85c1.84-13.79-16.06-29.66-28.89-29.86-14-.21-29.51,16.45-30,28.59-.6,15.69,16.53,30.56,29.23,30.76C203.18,265.86,220.06,249.87,218.57,236.15Zm-54.26-79.51c.78,36.85,54.61,39.59,58.41,1.54C221.57,118.38,166.51,117.84,164.31,156.64Zm-62.48,29.41c14.18,1.55,28.52-15.6,29.5-27,1.39-16.29-15.81-33.14-31.54-31.77-11.22,1-28.77,14.46-27.43,31.79C73.24,170.4,87.67,187.63,101.83,186.05Zm4.6,20.63c-39.62,2.21-37.6,56.05-1.16,58.78C147.11,261.4,142,208.4,106.43,206.68ZM161.27,75c6.22-15.43-16.5-20-25.75-11.35-4.11,3-2.4,7.24-2,12.6C141.92,62.06,152.6,60.92,161.27,75Zm3.17-29.6c-3.18-3.49-11.08-5.33-10.33,1.92C156.24,53.44,164.63,54.75,164.44,45.43ZM142,48.49V46.07C127.52,31.71,127.57,62.73,142,48.49Z"/><path d="M189.27,254.91c-24.71-1.2-24.25-36.63-.2-37.68C214.12,217.71,213.65,254.34,189.27,254.91Zm0-29.41c-13.85.88-13.69,20.29.26,21C203.14,245.61,202.74,225.79,189.3,225.5Z"/><path d="M212.37,156.77c-.8,24.59-37.27,24.36-37.6-.06C175.69,131.72,211.52,132.71,212.37,156.77Zm-8.55.17c.27-13.65-20.17-13.8-20.87-.53C182.84,170.11,203.62,170.84,203.82,156.94Z"/><path d="M101.69,175.41c-23.82-.09-24.82-36.27-.15-37.4C126.3,138.57,126.83,174.78,101.69,175.41ZM112.44,157c-.65-13.81-20.16-13.91-21.27-.06C93.38,170.64,110.66,170.4,112.44,157Z"/><path d="M124.82,236.24c-1,24-37,25.21-37.49-.85C88.69,211.37,123.83,211.49,124.82,236.24ZM116.4,236c-.61-14-20.31-13.47-20.93.36C96.28,249.71,116.52,249.47,116.4,236Z"/></g></g></svg>