<svg xmlns="http://www.w3.org/2000/svg" viewBox="0 0 348.41 230.99"><g id="Layer_2" data-name="Layer 2"><g id="Layer_1-2" data-name="Layer 1"><path d="M6.72,135.9c9.47,10.3,48-15.56,60.16-21.38,18.37-5.21,33.4-16.78,51.86-22.65,20.49-11.82,42.8-19.56,63.39-30.26C232.23,29.45,273.5,41.17,291,100.08c8.11,18.6-.89,10.63-13.55,13.59,10,13.06,15.2,28.77,19.35,44.24C308,146.47,314.69,128.44,320.48,114c-3.1-3.4-12.74,2-13.6-3.38-3.46-17.32-10.51-32-18.78-47-.25-1.31-.49-2-2-2.51-3.93-1.13-3.17-6.34-7.39-7-27.24-34.87-74-19.44-106,.14C116.76,81,59.13,105.76,4.5,135.33c-10-6.81-.86-8.83,3.89-15,10-5.74,1.55-20.54,10.51-26.95C22.35,86.52,32,84,31.11,74.79c-.21-7.41,13.14-8.6,17-3.62C52,75.89,73.46,45.53,76.29,41.28c51.44-61.47,40.9-20.5,108.49-36.89,79.46-21.95,171.07,41.23,163.15,126.72-10.32,36.52-24.37,83.67-63.12,99.2-16.42-2-37.57,4.2-51.85-2.59-2.16-11.25,44.33-11.27,7-42.17-36.64-16.57-58.6,3.2-70.5,37.85-5.24,5.76-43.7,4.93-49.86,1.16-3.51-11.1,10.14-8.28,12-14.38,8.54-13.16-5.41-47.44-16.34-57.54-3.51-1.76-3.29-6-7.16-7a5.13,5.13,0,0,1-2.87-3.09c-1.54-3.79-6.4-.51-8.76-4.32-12.6-12.12-27.31,3.2-40.8,4.05a56.32,56.32,0,0,1-23.81-3.36C24,137.56,10.63,145.77,6.72,135.9Zm20.4-33.18c-.82,6,6,4.16,7,.39-3.41,1.59-4.23,1.56-5.93-2C27.72,101.81,27.26,102.52,27.12,102.72Zm5.4-4.14c-3,1.9-.27,3.73,1.74,1.68Z"/></g></g></svg>