<svg xmlns="http://www.w3.org/2000/svg" viewBox="0 0 264.48 246.82"><g id="Layer_2" data-name="Layer 2"><g id="Layer_1-2" data-name="Layer 1"><path d="M147.51,0c4,5.93,20.25,19.5,11.75,3.15-3.13-8.22,4.64,5.25,7.34,1,8.86-3.13-14.78,11.3,8.79,12.63,5.62.4-.24-9.84,9.42-10-11.61,9.84,6.95,20.58,12.61,6.35.66,2.08,1,3.59-.43,5-9.32,6.76,2.55,9.56,5.19,21.73,2.9-4.68,5.82-7.17,10-11.35-2.43-1.93-8-5.27-4.78-8.39,2.66,2.57,2.65,6.81,7.18,6.66a7.2,7.2,0,0,0,5.06-13.26c3.69-.42,6.5,2.58,6.66,6.32-1.15,6.77,10,3,12.62.27,4.81-4.31-4.46-7-3.43-10.13,5.38,3.07,6.49.69,9.79-3.84,1.46,2.18,1,3.15-.14,3.87-10.45,15,14.55,4.68,10-4.51,5,4.15,5.19-3.9,9.36-1.52-8.48,8.89-17.12,19-29.82,20.78-7.38,3.81-17,3.1-24,8.41-2,2.09-6.81,7.82-.78,6.92,5.74,2.21-7.7,6.94-8.31,10.43-1.59,1.76.77,3.72,2,4.06A245.11,245.11,0,0,0,234.14,77c-96.32-5.13-40.52,44.3-116.21,66-17.66,1.28,3.61-12.15-28.21,2.65,3.38,1,19.42,10.44,20.14,6.27,1-4.19,6.73.14,9.17-3.28,68.85-9.72,31.69-79.72,115.7-66.66-72.95,25-33.47,12.37-58.48,74.3-3,12.68-13.67,22.65-15.19,35.88.89,16.21-2.61,36,11,47.86,1.28,1.27.68,3.06-1.2,3C160,249.3,152,194.86,148.33,186.08c-7.55-17.2-5.06,52.64,6.12,54.39-17.29,6.24-12.32-32.09-20.72-41-5.46-36.66-24.19-11.85-48-19.71-6.65,3-8,22.76-8,29.88-.51,10.88-7,28,4.86,34.44,1.69,4.19-16.22,3.49-14.48-1.88,3.33-11.22-9-87.44-13.79-43.65C50.6,209.72,51.28,222,51.18,234c-.18,4.2,5.43,4.27,6.55,7.85.83,5.61-9.77,2.45-12.58.69-5.07-10.71-.41-25.77-2-37.88C40.34,189.44,23,153,7.39,149.75c-3.55,1.17-9.12,6.78-6.87-1.23,48-82.43,102.84,19.12,161.85-68.8,9.07-14,29.33-22.66,25.95-41.92,3.41-10.5,5.78,3,7.25,7C207.15,12,150.84,26.12,147.51,0ZM37,117.5c-14.29,4.71-25.78,16.17-32.52,29.1,0,1.35.84,1.65,2,.92,6.75-3.52,10.23,9.06,16.63,5C36,148.21,62.33,122.82,37,117.5ZM203.4,66c-1.83-3.4-5.93-4.3-6.88.27,5.35-1.29,5.73-.75,1.61,3C200,71.36,203.14,68.6,203.4,66Z"/></g></g></svg>