<svg xmlns="http://www.w3.org/2000/svg" viewBox="0 0 240.27 178.57"><g id="Layer_2" data-name="Layer 2"><g id="Layer_1-2" data-name="Layer 1"><path d="M225.45,178c-3.54-6.21,5.69-82.65-7-66.73-1.59,21.79,2.18,45.37-1.37,66.58-5.83-6.95,3.84-69.44-4.65-69.15-9,.72.74,59.3-4.87,68.94-5.05-10.79,4.29-67-4.53-68.93-5,0-2.71,6.55-3.2,9.75-.65,19.79,1.39,40-.84,59.55l-1.34-.11c-3.2-11.2,4.11-67.08-3.82-69-8,1.94-.47,57.86-3.87,69l-1.4.06c-3.82-6.06,5.87-84.13-7.12-66.52-1.81,21.65,2.56,45.7-1.52,66.42-5.39-7.75,4.1-68.73-4.76-69-8.41,2,.78,59.62-4.42,69-4.14-21,0-44.68-1.58-66.37-13.59-16.3-2.23,61.12-7.69,66.29a4.77,4.77,0,0,1-1.4-4.33c-1.3-21.09,2.67-44-1.61-64.29-11.29-6.77-.91,61-6.17,68.71-3.9-20.72-.33-43.15-1.49-64.45-11.26-27.22-4.68,60.06-7.08,64.47l-1.43.1c-3.57-5.17,5.19-86.3-7.28-66-1.43,21.72,2.32,44.67-1.47,65.8-5.31-5.62,5.7-82.55-7.69-66.4-1.56,21.69,2.43,45.62-1.43,66.49-4-20.13-.12-43.42-1.41-64.57,0-1.75.37-3.73-2-4.46-10.93-5,.06,62.49-6,68.94-3.47-21.25.21-44.79-1.34-66.59-12.93-15.81-3.07,60.67-7.12,66.85l-1.45,0c-3.58-6.34,5.82-82.36-6.91-67-1.85,21.86,2.32,45.33-1.59,66.74-4.56-3.89,4.51-92-8.12-63.74q0,30.11,0,60.21c.52,2.08-1.64,2.94-2.78,4.31-2.41-1.82-3.27-3.67-2.7-6.66q0-49.27,0-98.55c-3.27-9.75-9.72-18.29-12.36-28.67C67.81,36,36.77,62.59,29.22,62.22c-3.81-5.8-.69-15.06-1.62-22C27.55,35.44,19.32,28,17.51,36c-1.18,6.86-9.32,0-8.68-4.37-2.8-5-5.63-10.56-8-15.91-1.37-2.73-1.23-4.58,2-5.62,6.25-2.71,12.39-5.37,19-6.7C25.41,2,25.08-.8,30.13.22c2.74.14,4.37,3.18,2.36,4.84-4.21,4.76-3.82,13.88,1.31,17.3,7.91,5.12,3.76,13.41,6.7,20.52,8.38-5.39,17.87-9.11,26.55-14,3.71-5.43,12-1.39,12.3,4.35,3.2,7.63,7.48,15.1,10.44,22.92,4-1.57,6-5.78,9.1-8.57,3.5-1.48,7.36-3.88,10.9-5.06,3.43-6.38,14.88,2.1,13.39-7.74-.28-4.31,3.55-7.46,4.77-11.68.28-.54,1.08-1,1.09-1.48.83-6.4,8.15-12.94,13.73-15.3,4.11-.92,7.2-5.62,11.6-6.09,10.2-.27,20.5-1.44,28.37,6.18,8.82.88,18.55,20.62,19.95,28.6.05,4.42.51,5,4.87,4.92a5,5,0,0,1,5.32,2.5c9.48,2.84,15.85,9.69,22,17.11,1.36,1.45,1.66,4.17,2.48,5.78,3.16,2,2.44,5.08,2.44,8-1.56,5.64,4.71,129.75-5.47,100.39-1.66-4.7,5.2-82.72-6.74-61.94-.6,22,1.18,44.41-.65,66.3Zm-62.36-172C149.33,4,142.24,13.21,133.84,22.26c-3.91,3.1-.39,7.72-4,11-1,1-1.1,3.31-.82,4.89,5.61,4.23,14.54,7.06,19.66,11.62a31.21,31.21,0,0,1,10.9,21.31c2.16,4.06,4.31-.9,3.87-3.41,2.12-4.57,2.32-10.53,6.5-13.52,3.26-2.85,5-7.82,10.36-8,1.67-1.92,4.94-2.81,7-4,2.06-3.63,7.44-.94,9.62-4.12,2.35-3.15-2.77-5.54-2.66-8.59.87-4.18-1.63-6.69-4.05-9.32-4.54-3.65-6.91-10.3-13.44-11C173.66,4.33,167.94,6.53,163.09,6.07Zm36.82,80.37c6.35-1.61,36.21,4.22,34.4-4.31,1.42-9.92-1.34-18.61-9.57-24.71-3.48-3.08-5.28-8.34-11-8.71-3.09-3.93-24.57-4.87-27.1-.4-7.49,2-11.57,9.84-17.08,15-2,3.37.7,7.88-3.49,10.56-1,2.1-.26,5.41-.45,7.8C162.86,90.8,193.62,84.83,199.91,86.44Zm-77.32,0h25.65c9.68,0,8.91.89,8.83-8.83.59-4.16-3.91-6.06-3.08-10,.56-6.11-7.22-8.93-9.63-14-2.67-4-7.72-4.14-10.68-7.48-.37-.42-1.4-.34-2.13-.34-18.65-2.08-27.2,2.84-38.78,17.12-6.18,4.67-3.86,12.17-4.29,19C86.15,90.74,116.33,84.82,122.59,86.43Zm38.8,16.5H229.5c4.34,0,4.8-.47,4.82-5,0-5.24-.31-5.67-4.77-5.67H93.31c-4.46,0-4.87.51-4.84,5.65,0,4.51.51,5,4.8,5Z"/></g></g></svg>