<svg xmlns="http://www.w3.org/2000/svg" viewBox="0 0 150.16 55.44"><g id="Layer_2" data-name="Layer 2"><g id="Layer_1-2" data-name="Layer 1"><path d="M80.66,32.66c-1.4,14.64,6.2,25.52-13.26,22.17-6.67.66-2.05-9.71-8.65-8.62C36.29,47.47,50.1,39.33,40.66,36,6.54,38.64,33.49,22.39,14.2,23.22c-3.92-1-11.83,3.17-13.19-2C1.7,16.84-2.68,6.76,2.79,6,50.67,3.34,98.62,3.29,146.48,0c6.93,2,1.6,18.08,3.4,24.61.06,3.72-.44,4.55-4,4.7-6.72-1.57-34.76,6.08-33.72-3.86.62-3.5-2-10.44,2.82-10.92,4.09.23,35.89-6.09,23.54,3.55-5,1.91-19.52-1.06-21,4.5,2.55,5.82,17.81.05,23.71,1.25,5.66-.89,1.68-10,2.71-14.28-3.59-6.18-30.29.72-38.66-.62-23.89,2.42-26.13-6.1-24.58,23.73Z"/></g></g></svg>