<svg width="151" height="135" viewBox="0 0 151 135" fill="none" xmlns="http://www.w3.org/2000/svg">
<g filter="url(#filter0_d_134_66)">
<path d="M55.7777 104.459C14.5338 93.9887 9.32004 76.1811 10.0179 64.2989C49.2233 40.839 127.679 0.700834 127.857 27.8279C147.635 59.3936 119.739 81.9422 112.501 89.1819C119.151 96.3006 112.363 114 86.3978 118.905C60.4324 123.81 52.8926 110.805 55.7777 104.459Z" fill="#439BA8" stroke="#2E234A"/>
<path d="M17.8367 71.103C15.7896 69.7053 5.10513 63.1162 7.51565 53.9748C8.8197 49.0294 20.6983 27.4535 55.8744 17.9795C92.8698 8.01557 143.411 4.42684 120.909 40.2799C90.9064 68.9645 36.7039 77.5765 17.8367 71.103Z" fill="#CA9938" stroke="#2E234A"/>
<path d="M120.555 22.9041C121.337 25.465 120.677 28.4015 118.678 31.5654C116.679 34.7275 113.376 38.058 109 41.355C100.25 47.9466 87.2976 54.3372 72.2169 58.9443C57.1361 63.5513 42.8239 65.4897 31.8842 64.9132C26.4122 64.6248 21.8121 63.7085 18.3877 62.2031C14.9614 60.6968 12.7731 58.6304 11.9907 56.0694C11.2084 53.5085 11.8684 50.572 13.868 47.4081C15.8664 44.246 19.1692 40.9155 23.5459 37.6184C32.2958 31.0269 45.2478 24.6362 60.3286 20.0292C75.4094 15.4221 89.7216 13.4838 100.661 14.0603C106.133 14.3487 110.733 15.265 114.158 16.7704C117.584 18.2767 119.772 20.3431 120.555 22.9041Z" fill="#305D65" stroke="#2E234A"/>
<path d="M87.7311 118.685C66.5285 123.699 52.5388 114.659 55.3536 104.434C82.7177 108.341 103.674 96.2092 111.817 89.2269C121.174 98.1227 108.934 113.67 87.7311 118.685Z" fill="#CA9938" stroke="#2E234A"/>
</g>
<defs>
<filter id="filter0_d_134_66" x="2.66309" y="10.6923" width="136.657" height="117.918" filterUnits="userSpaceOnUse" color-interpolation-filters="sRGB">
<feFlood flood-opacity="0" result="BackgroundImageFix"/>
<feColorMatrix in="SourceAlpha" type="matrix" values="0 0 0 0 0 0 0 0 0 0 0 0 0 0 0 0 0 0 127 0" result="hardAlpha"/>
<feOffset dy="4"/>
<feGaussianBlur stdDeviation="2"/>
<feComposite in2="hardAlpha" operator="out"/>
<feColorMatrix type="matrix" values="0 0 0 0 0 0 0 0 0 0 0 0 0 0 0 0 0 0 0.25 0"/>
<feBlend mode="normal" in2="BackgroundImageFix" result="effect1_dropShadow_134_66"/>
<feBlend mode="normal" in="SourceGraphic" in2="effect1_dropShadow_134_66" result="shape"/>
</filter>
</defs>
</svg>
