<svg width="455" height="475" viewBox="0 0 455 475" fill="none" xmlns="http://www.w3.org/2000/svg">
<mask id="path-1-inside-1_281_68" fill="white">
<path fill-rule="evenodd" clip-rule="evenodd" d="M445 0C450.523 0 455 4.47715 455 10V226.945C455 232.468 450.523 236.945 445 236.945H392.459C376.063 240.661 367.758 249.162 360.702 256.383C355.298 261.915 350.626 266.696 343.614 268C351.521 264.44 355.338 245.273 347.011 236.945H121C115.477 236.945 111 232.468 111 226.945V10C111 4.47715 115.477 0 121 0H445Z"/>
</mask>
<path fill-rule="evenodd" clip-rule="evenodd" d="M445 0C450.523 0 455 4.47715 455 10V226.945C455 232.468 450.523 236.945 445 236.945H392.459C376.063 240.661 367.758 249.162 360.702 256.383C355.298 261.915 350.626 266.696 343.614 268C351.521 264.44 355.338 245.273 347.011 236.945H121C115.477 236.945 111 232.468 111 226.945V10C111 4.47715 115.477 0 121 0H445Z" fill="white"/>
<path d="M392.459 236.945L392.238 235.97L392.348 235.945H392.459V236.945ZM360.702 256.383L359.987 255.684L359.987 255.684L360.702 256.383ZM343.614 268L343.797 268.983L343.203 267.088L343.614 268ZM347.011 236.945V235.945H347.425L347.718 236.238L347.011 236.945ZM454 10C454 5.02944 449.971 1 445 1V-1C451.075 -1 456 3.92487 456 10H454ZM454 226.945V10H456V226.945H454ZM445 235.945C449.971 235.945 454 231.915 454 226.945H456C456 233.02 451.075 237.945 445 237.945V235.945ZM392.459 235.945H445V237.945H392.459V235.945ZM392.68 237.92C376.584 241.568 368.45 249.883 361.418 257.082L359.987 255.684C367.065 248.44 375.543 239.753 392.238 235.97L392.68 237.92ZM361.418 257.082C356.057 262.568 351.172 267.612 343.797 268.983L343.431 267.017C350.081 265.78 354.538 261.262 359.987 255.684L361.418 257.082ZM343.203 267.088C344.911 266.319 346.495 264.655 347.776 262.334C349.049 260.027 349.974 257.156 350.411 254.118C351.29 247.996 350.152 241.501 346.303 237.652L347.718 236.238C352.197 240.717 353.314 247.97 352.39 254.403C351.925 257.644 350.933 260.752 349.527 263.3C348.129 265.835 346.27 267.901 344.024 268.912L343.203 267.088ZM121 235.945H347.011V237.945H121V235.945ZM112 226.945C112 231.915 116.029 235.945 121 235.945V237.945C114.925 237.945 110 233.02 110 226.945H112ZM112 10V226.945H110V10H112ZM121 1C116.029 1 112 5.02944 112 10H110C110 3.92487 114.925 -1 121 -1V1ZM445 1H121V-1H445V1Z" fill="black" mask="url(#path-1-inside-1_281_68)"/>
<path d="M216.03 64.238V74.498C213.45 76.358 210.45 77.288 207.03 77.288C204.93 77.288 203.028 76.964 201.324 76.316C199.632 75.656 198.186 74.744 196.986 73.58C195.786 72.404 194.862 71.006 194.214 69.386C193.566 67.766 193.242 65.984 193.242 64.04C193.242 62.084 193.554 60.296 194.178 58.676C194.802 57.044 195.696 55.646 196.86 54.482C198.024 53.306 199.428 52.4 201.072 51.764C202.716 51.116 204.564 50.792 206.616 50.792C207.66 50.792 208.626 50.876 209.514 51.044C210.414 51.2 211.248 51.422 212.016 51.71C212.784 51.998 213.492 52.346 214.14 52.754C214.788 53.162 215.382 53.618 215.922 54.122L214.716 56.048C214.524 56.348 214.278 56.534 213.978 56.606C213.678 56.678 213.354 56.606 213.006 56.39C212.658 56.186 212.286 55.97 211.89 55.742C211.506 55.514 211.062 55.304 210.558 55.112C210.054 54.908 209.472 54.746 208.812 54.626C208.152 54.494 207.372 54.428 206.472 54.428C205.104 54.428 203.868 54.656 202.764 55.112C201.672 55.556 200.736 56.198 199.956 57.038C199.176 57.866 198.576 58.874 198.156 60.062C197.736 61.25 197.526 62.576 197.526 64.04C197.526 65.588 197.748 66.974 198.192 68.198C198.636 69.41 199.266 70.442 200.082 71.294C200.898 72.134 201.882 72.776 203.034 73.22C204.198 73.664 205.494 73.886 206.922 73.886C207.99 73.886 208.938 73.772 209.766 73.544C210.606 73.316 211.428 72.998 212.232 72.59V67.442H208.614C208.338 67.442 208.122 67.37 207.966 67.226C207.81 67.07 207.732 66.872 207.732 66.632V64.238H216.03ZM227.252 62.042C227.828 60.878 228.524 59.966 229.34 59.306C230.156 58.634 231.134 58.298 232.274 58.298C232.67 58.298 233.042 58.346 233.39 58.442C233.738 58.526 234.05 58.658 234.326 58.838L234.056 61.754C234.008 61.958 233.93 62.102 233.822 62.186C233.726 62.258 233.594 62.294 233.426 62.294C233.246 62.294 232.988 62.264 232.652 62.204C232.316 62.132 231.962 62.096 231.59 62.096C231.05 62.096 230.57 62.174 230.15 62.33C229.742 62.486 229.37 62.714 229.034 63.014C228.71 63.314 228.422 63.68 228.17 64.112C227.918 64.544 227.684 65.036 227.468 65.588V77H223.598V58.64H225.848C226.256 58.64 226.538 58.718 226.694 58.874C226.85 59.018 226.958 59.276 227.018 59.648L227.252 62.042ZM251.896 65.75C251.896 65.102 251.8 64.502 251.608 63.95C251.428 63.386 251.158 62.9 250.798 62.492C250.438 62.072 249.988 61.748 249.448 61.52C248.92 61.28 248.308 61.16 247.612 61.16C246.208 61.16 245.104 61.562 244.3 62.366C243.496 63.17 242.986 64.298 242.77 65.75H251.896ZM242.662 68.126C242.71 69.17 242.872 70.076 243.148 70.844C243.424 71.6 243.79 72.23 244.246 72.734C244.714 73.238 245.266 73.616 245.902 73.868C246.55 74.108 247.27 74.228 248.062 74.228C248.818 74.228 249.472 74.144 250.024 73.976C250.576 73.796 251.056 73.604 251.464 73.4C251.872 73.184 252.22 72.992 252.508 72.824C252.796 72.644 253.06 72.554 253.3 72.554C253.612 72.554 253.852 72.674 254.02 72.914L255.118 74.336C254.662 74.876 254.146 75.332 253.57 75.704C252.994 76.076 252.382 76.382 251.734 76.622C251.086 76.85 250.42 77.012 249.736 77.108C249.052 77.216 248.386 77.27 247.738 77.27C246.466 77.27 245.284 77.06 244.192 76.64C243.112 76.208 242.17 75.578 241.366 74.75C240.574 73.922 239.95 72.896 239.494 71.672C239.05 70.448 238.828 69.038 238.828 67.442C238.828 66.17 239.026 64.982 239.422 63.878C239.83 62.774 240.406 61.814 241.15 60.998C241.906 60.182 242.818 59.54 243.886 59.072C244.966 58.592 246.184 58.352 247.54 58.352C248.668 58.352 249.712 58.538 250.672 58.91C251.632 59.27 252.46 59.804 253.156 60.512C253.852 61.22 254.392 62.09 254.776 63.122C255.172 64.142 255.37 65.306 255.37 66.614C255.37 67.214 255.304 67.616 255.172 67.82C255.04 68.024 254.8 68.126 254.452 68.126H242.662ZM272.389 68.972C271.009 69.02 269.845 69.134 268.897 69.314C267.949 69.482 267.181 69.704 266.593 69.98C266.005 70.244 265.579 70.562 265.315 70.934C265.063 71.306 264.937 71.714 264.937 72.158C264.937 72.59 265.003 72.962 265.135 73.274C265.279 73.574 265.471 73.826 265.711 74.03C265.963 74.222 266.251 74.366 266.575 74.462C266.911 74.546 267.277 74.588 267.673 74.588C268.681 74.588 269.545 74.402 270.265 74.03C270.997 73.646 271.705 73.094 272.389 72.374V68.972ZM262.129 61.196C264.205 59.264 266.677 58.298 269.545 58.298C270.601 58.298 271.537 58.472 272.353 58.82C273.181 59.156 273.871 59.636 274.423 60.26C274.987 60.884 275.413 61.628 275.701 62.492C276.001 63.344 276.151 64.292 276.151 65.336V77H274.423C274.051 77 273.769 76.946 273.577 76.838C273.385 76.718 273.223 76.484 273.091 76.136L272.713 74.642C272.245 75.062 271.783 75.44 271.327 75.776C270.871 76.1 270.397 76.376 269.905 76.604C269.425 76.832 268.903 77 268.339 77.108C267.787 77.228 267.175 77.288 266.503 77.288C265.759 77.288 265.063 77.186 264.415 76.982C263.779 76.778 263.227 76.472 262.759 76.064C262.291 75.644 261.919 75.128 261.643 74.516C261.379 73.904 261.247 73.184 261.247 72.356C261.247 71.648 261.433 70.958 261.805 70.286C262.189 69.614 262.813 69.014 263.677 68.486C264.553 67.946 265.699 67.502 267.115 67.154C268.543 66.806 270.301 66.608 272.389 66.56V65.336C272.389 64.016 272.107 63.032 271.543 62.384C270.979 61.736 270.151 61.412 269.059 61.412C268.315 61.412 267.691 61.508 267.187 61.7C266.683 61.88 266.245 62.078 265.873 62.294C265.501 62.51 265.171 62.714 264.883 62.906C264.595 63.086 264.289 63.176 263.965 63.176C263.701 63.176 263.473 63.11 263.281 62.978C263.101 62.834 262.951 62.66 262.831 62.456L262.129 61.196ZM289.924 77.288C288.4 77.288 287.224 76.862 286.396 76.01C285.58 75.146 285.172 73.934 285.172 72.374V61.682H283.156C282.94 61.682 282.754 61.616 282.598 61.484C282.442 61.34 282.364 61.13 282.364 60.854V59.288L285.334 58.856L286.18 53.546C286.24 53.342 286.342 53.18 286.486 53.06C286.63 52.928 286.822 52.862 287.062 52.862H289.042V58.892H294.136V61.682H289.042V72.104C289.042 72.764 289.204 73.268 289.528 73.616C289.852 73.964 290.284 74.138 290.824 74.138C291.124 74.138 291.382 74.102 291.598 74.03C291.814 73.946 292 73.862 292.156 73.778C292.312 73.682 292.444 73.598 292.552 73.526C292.672 73.442 292.786 73.4 292.894 73.4C293.11 73.4 293.284 73.52 293.416 73.76L294.568 75.65C293.968 76.178 293.26 76.586 292.444 76.874C291.628 77.15 290.788 77.288 289.924 77.288ZM322.449 67.892C322.449 69.344 322.269 70.652 321.909 71.816C321.561 72.968 321.033 73.952 320.325 74.768C319.629 75.572 318.759 76.196 317.715 76.64C316.683 77.072 315.483 77.288 314.115 77.288C313.491 77.288 312.873 77.246 312.261 77.162C311.649 77.09 311.013 76.97 310.353 76.802L310.569 74.282C310.605 74.042 310.695 73.85 310.839 73.706C310.995 73.562 311.217 73.49 311.505 73.49C311.721 73.49 311.997 73.538 312.333 73.634C312.681 73.718 313.131 73.76 313.683 73.76C314.415 73.76 315.063 73.652 315.627 73.436C316.203 73.22 316.683 72.884 317.067 72.428C317.463 71.96 317.757 71.366 317.949 70.646C318.153 69.914 318.255 69.032 318.255 68V51.08H322.449V67.892ZM338.566 58.352C339.922 58.352 341.146 58.574 342.238 59.018C343.342 59.462 344.278 60.092 345.046 60.908C345.826 61.724 346.426 62.714 346.846 63.878C347.266 65.042 347.476 66.35 347.476 67.802C347.476 69.254 347.266 70.562 346.846 71.726C346.426 72.89 345.826 73.886 345.046 74.714C344.278 75.53 343.342 76.16 342.238 76.604C341.146 77.048 339.922 77.27 338.566 77.27C337.198 77.27 335.962 77.048 334.858 76.604C333.766 76.16 332.83 75.53 332.05 74.714C331.27 73.886 330.67 72.89 330.25 71.726C329.83 70.562 329.62 69.254 329.62 67.802C329.62 66.35 329.83 65.042 330.25 63.878C330.67 62.714 331.27 61.724 332.05 60.908C332.83 60.092 333.766 59.462 334.858 59.018C335.962 58.574 337.198 58.352 338.566 58.352ZM338.566 74.246C340.222 74.246 341.452 73.694 342.256 72.59C343.072 71.474 343.48 69.884 343.48 67.82C343.48 65.756 343.072 64.166 342.256 63.05C341.452 61.922 340.222 61.358 338.566 61.358C336.886 61.358 335.638 61.922 334.822 63.05C334.006 64.166 333.598 65.756 333.598 67.82C333.598 69.884 334.006 71.474 334.822 72.59C335.638 73.694 336.886 74.246 338.566 74.246ZM358.664 72.392C359.204 73.088 359.792 73.58 360.428 73.868C361.076 74.144 361.778 74.282 362.534 74.282C364.058 74.282 365.246 73.73 366.098 72.626C366.95 71.522 367.376 69.812 367.376 67.496C367.376 65.384 367.004 63.842 366.26 62.87C365.528 61.898 364.478 61.412 363.11 61.412C362.162 61.412 361.334 61.628 360.626 62.06C359.93 62.48 359.276 63.086 358.664 63.878V72.392ZM358.664 61.07C359.42 60.242 360.266 59.582 361.202 59.09C362.138 58.598 363.206 58.352 364.406 58.352C365.474 58.352 366.434 58.562 367.286 58.982C368.15 59.39 368.882 59.984 369.482 60.764C370.082 61.544 370.544 62.492 370.868 63.608C371.192 64.712 371.354 65.96 371.354 67.352C371.354 68.84 371.168 70.196 370.796 71.42C370.436 72.632 369.914 73.676 369.23 74.552C368.546 75.416 367.718 76.088 366.746 76.568C365.774 77.036 364.688 77.27 363.488 77.27C362.9 77.27 362.366 77.21 361.886 77.09C361.406 76.982 360.962 76.82 360.554 76.604C360.146 76.388 359.768 76.13 359.42 75.83C359.084 75.53 358.76 75.188 358.448 74.804L358.286 76.226C358.226 76.502 358.118 76.7 357.962 76.82C357.806 76.94 357.59 77 357.314 77H354.794V50.36H358.664V61.07ZM383.16 51.08V61.376C383.16 62.456 383.112 63.518 383.016 64.562C382.92 65.594 382.794 66.71 382.638 67.91H380.028C379.86 66.71 379.728 65.594 379.632 64.562C379.548 63.518 379.506 62.456 379.506 61.376V51.08H383.16ZM378.768 74.768C378.768 74.42 378.828 74.096 378.948 73.796C379.08 73.484 379.26 73.214 379.488 72.986C379.716 72.758 379.98 72.578 380.28 72.446C380.58 72.314 380.91 72.248 381.27 72.248C381.618 72.248 381.942 72.314 382.242 72.446C382.554 72.578 382.818 72.758 383.034 72.986C383.262 73.214 383.442 73.484 383.574 73.796C383.706 74.096 383.772 74.42 383.772 74.768C383.772 75.128 383.706 75.458 383.574 75.758C383.442 76.058 383.262 76.322 383.034 76.55C382.818 76.778 382.554 76.952 382.242 77.072C381.942 77.204 381.618 77.27 381.27 77.27C380.91 77.27 380.58 77.204 380.28 77.072C379.98 76.952 379.716 76.778 379.488 76.55C379.26 76.322 379.08 76.058 378.948 75.758C378.828 75.458 378.768 75.128 378.768 74.768ZM213.719 145H210.429V124.84H213.719V145ZM233.518 124.28V136.292H234.162C234.368 136.292 234.536 136.264 234.666 136.208C234.797 136.152 234.932 136.035 235.072 135.858L239.076 131.28C239.216 131.093 239.37 130.953 239.538 130.86C239.706 130.767 239.921 130.72 240.182 130.72H242.912L238.096 136.152C237.816 136.516 237.508 136.805 237.172 137.02C237.359 137.151 237.522 137.3 237.662 137.468C237.802 137.627 237.938 137.809 238.068 138.014L243.206 145H240.518C240.276 145 240.066 144.963 239.888 144.888C239.72 144.804 239.571 144.655 239.44 144.44L235.31 138.84C235.17 138.625 235.03 138.49 234.89 138.434C234.75 138.369 234.54 138.336 234.26 138.336H233.518V145H230.508V124.28H233.518ZM250.751 132.61C251.059 132.293 251.376 132.008 251.703 131.756C252.039 131.495 252.394 131.271 252.767 131.084C253.14 130.897 253.537 130.753 253.957 130.65C254.377 130.547 254.834 130.496 255.329 130.496C256.113 130.496 256.799 130.627 257.387 130.888C257.984 131.149 258.484 131.518 258.885 131.994C259.296 132.47 259.604 133.044 259.809 133.716C260.014 134.379 260.117 135.111 260.117 135.914V145H257.121V135.914C257.121 134.953 256.897 134.206 256.449 133.674C256.01 133.142 255.338 132.876 254.433 132.876C253.761 132.876 253.136 133.03 252.557 133.338C251.988 133.646 251.451 134.066 250.947 134.598V145H247.937V130.72H249.757C250.168 130.72 250.429 130.911 250.541 131.294L250.751 132.61ZM275.798 136.25C275.798 135.746 275.724 135.279 275.574 134.85C275.434 134.411 275.224 134.033 274.944 133.716C274.664 133.389 274.314 133.137 273.894 132.96C273.484 132.773 273.008 132.68 272.466 132.68C271.374 132.68 270.516 132.993 269.89 133.618C269.265 134.243 268.868 135.121 268.7 136.25H275.798ZM268.616 138.098C268.654 138.91 268.78 139.615 268.994 140.212C269.209 140.8 269.494 141.29 269.848 141.682C270.212 142.074 270.642 142.368 271.136 142.564C271.64 142.751 272.2 142.844 272.816 142.844C273.404 142.844 273.913 142.779 274.342 142.648C274.772 142.508 275.145 142.359 275.462 142.2C275.78 142.032 276.05 141.883 276.274 141.752C276.498 141.612 276.704 141.542 276.89 141.542C277.133 141.542 277.32 141.635 277.45 141.822L278.304 142.928C277.95 143.348 277.548 143.703 277.1 143.992C276.652 144.281 276.176 144.519 275.672 144.706C275.168 144.883 274.65 145.009 274.118 145.084C273.586 145.168 273.068 145.21 272.564 145.21C271.575 145.21 270.656 145.047 269.806 144.72C268.966 144.384 268.234 143.894 267.608 143.25C266.992 142.606 266.507 141.808 266.152 140.856C265.807 139.904 265.634 138.807 265.634 137.566C265.634 136.577 265.788 135.653 266.096 134.794C266.414 133.935 266.862 133.189 267.44 132.554C268.028 131.919 268.738 131.42 269.568 131.056C270.408 130.683 271.356 130.496 272.41 130.496C273.288 130.496 274.1 130.641 274.846 130.93C275.593 131.21 276.237 131.625 276.778 132.176C277.32 132.727 277.74 133.403 278.038 134.206C278.346 134.999 278.5 135.905 278.5 136.922C278.5 137.389 278.449 137.701 278.346 137.86C278.244 138.019 278.057 138.098 277.786 138.098H268.616ZM304.005 130.72L299.427 145H297.033C296.753 145 296.557 144.818 296.445 144.454L293.603 135.564C293.529 135.312 293.459 135.06 293.393 134.808C293.337 134.556 293.286 134.309 293.239 134.066C293.137 134.57 293.011 135.074 292.861 135.578L289.977 144.454C289.875 144.818 289.655 145 289.319 145H287.037L282.459 130.72H284.839C285.073 130.72 285.264 130.781 285.413 130.902C285.572 131.014 285.675 131.149 285.721 131.308L288.101 139.624C288.195 140.007 288.274 140.38 288.339 140.744C288.414 141.099 288.479 141.453 288.535 141.808C288.629 141.453 288.727 141.099 288.829 140.744C288.932 140.38 289.039 140.007 289.151 139.624L291.825 131.266C291.872 131.098 291.965 130.963 292.105 130.86C292.255 130.748 292.432 130.692 292.637 130.692H293.953C294.168 130.692 294.35 130.748 294.499 130.86C294.649 130.963 294.747 131.098 294.793 131.266L297.397 139.624C297.509 140.007 297.612 140.38 297.705 140.744C297.808 141.108 297.901 141.472 297.985 141.836C298.051 141.481 298.121 141.122 298.195 140.758C298.27 140.394 298.359 140.016 298.461 139.624L300.883 131.308C300.939 131.14 301.042 131 301.191 130.888C301.341 130.776 301.523 130.72 301.737 130.72H304.005ZM330.159 130.72L322.291 149.06C322.188 149.275 322.062 149.443 321.913 149.564C321.773 149.685 321.553 149.746 321.255 149.746H319.029L321.661 144.034L315.837 130.72H318.455C318.707 130.72 318.898 130.781 319.029 130.902C319.169 131.014 319.271 131.149 319.337 131.308L322.739 139.414C322.823 139.647 322.897 139.881 322.963 140.114C323.037 140.338 323.107 140.571 323.173 140.814C323.247 140.571 323.322 140.333 323.397 140.1C323.471 139.867 323.555 139.633 323.649 139.4L326.911 131.308C326.976 131.14 327.083 131 327.233 130.888C327.391 130.776 327.564 130.72 327.751 130.72H330.159ZM340.681 130.496C341.736 130.496 342.688 130.669 343.537 131.014C344.396 131.359 345.124 131.849 345.721 132.484C346.328 133.119 346.795 133.889 347.121 134.794C347.448 135.699 347.611 136.717 347.611 137.846C347.611 138.975 347.448 139.993 347.121 140.898C346.795 141.803 346.328 142.578 345.721 143.222C345.124 143.857 344.396 144.347 343.537 144.692C342.688 145.037 341.736 145.21 340.681 145.21C339.617 145.21 338.656 145.037 337.797 144.692C336.948 144.347 336.22 143.857 335.613 143.222C335.007 142.578 334.54 141.803 334.213 140.898C333.887 139.993 333.723 138.975 333.723 137.846C333.723 136.717 333.887 135.699 334.213 134.794C334.54 133.889 335.007 133.119 335.613 132.484C336.22 131.849 336.948 131.359 337.797 131.014C338.656 130.669 339.617 130.496 340.681 130.496ZM340.681 142.858C341.969 142.858 342.926 142.429 343.551 141.57C344.186 140.702 344.503 139.465 344.503 137.86C344.503 136.255 344.186 135.018 343.551 134.15C342.926 133.273 341.969 132.834 340.681 132.834C339.375 132.834 338.404 133.273 337.769 134.15C337.135 135.018 336.817 136.255 336.817 137.86C336.817 139.465 337.135 140.702 337.769 141.57C338.404 142.429 339.375 142.858 340.681 142.858ZM365.344 130.72V145H363.524C363.122 145 362.866 144.809 362.754 144.426L362.53 143.096C362.231 143.413 361.914 143.703 361.578 143.964C361.251 144.225 360.901 144.449 360.528 144.636C360.154 144.823 359.753 144.967 359.324 145.07C358.904 145.173 358.451 145.224 357.966 145.224C357.182 145.224 356.491 145.093 355.894 144.832C355.296 144.571 354.792 144.202 354.382 143.726C353.98 143.25 353.677 142.681 353.472 142.018C353.266 141.346 353.164 140.609 353.164 139.806V130.72H356.174V139.806C356.174 140.767 356.393 141.514 356.832 142.046C357.28 142.578 357.956 142.844 358.862 142.844C359.524 142.844 360.14 142.695 360.71 142.396C361.288 142.088 361.83 141.668 362.334 141.136V130.72H365.344ZM216.485 167.52C216.392 167.641 216.303 167.735 216.219 167.8C216.135 167.865 216.014 167.898 215.855 167.898C215.696 167.898 215.528 167.842 215.351 167.73C215.183 167.618 214.978 167.497 214.735 167.366C214.502 167.226 214.217 167.1 213.881 166.988C213.545 166.876 213.125 166.82 212.621 166.82C211.968 166.82 211.394 166.937 210.899 167.17C210.414 167.403 210.003 167.739 209.667 168.178C209.34 168.607 209.093 169.135 208.925 169.76C208.766 170.376 208.687 171.071 208.687 171.846C208.687 172.649 208.776 173.363 208.953 173.988C209.13 174.613 209.382 175.141 209.709 175.57C210.045 175.999 210.446 176.326 210.913 176.55C211.389 176.774 211.921 176.886 212.509 176.886C213.088 176.886 213.559 176.816 213.923 176.676C214.287 176.536 214.59 176.382 214.833 176.214C215.076 176.046 215.281 175.892 215.449 175.752C215.626 175.612 215.813 175.542 216.009 175.542C216.252 175.542 216.438 175.635 216.569 175.822L217.423 176.928C217.078 177.348 216.695 177.703 216.275 177.992C215.855 178.281 215.412 178.519 214.945 178.706C214.478 178.883 213.993 179.009 213.489 179.084C212.985 179.168 212.476 179.21 211.963 179.21C211.076 179.21 210.246 179.047 209.471 178.72C208.706 178.384 208.034 177.903 207.455 177.278C206.886 176.643 206.433 175.873 206.097 174.968C205.77 174.053 205.607 173.013 205.607 171.846C205.607 170.791 205.756 169.816 206.055 168.92C206.354 168.015 206.788 167.235 207.357 166.582C207.936 165.929 208.65 165.42 209.499 165.056C210.348 164.683 211.328 164.496 212.439 164.496C213.475 164.496 214.385 164.664 215.169 165C215.962 165.336 216.667 165.812 217.283 166.428L216.485 167.52ZM228.572 164.496C229.627 164.496 230.579 164.669 231.428 165.014C232.287 165.359 233.015 165.849 233.612 166.484C234.219 167.119 234.685 167.889 235.012 168.794C235.339 169.699 235.502 170.717 235.502 171.846C235.502 172.975 235.339 173.993 235.012 174.898C234.685 175.803 234.219 176.578 233.612 177.222C233.015 177.857 232.287 178.347 231.428 178.692C230.579 179.037 229.627 179.21 228.572 179.21C227.508 179.21 226.547 179.037 225.688 178.692C224.839 178.347 224.111 177.857 223.504 177.222C222.897 176.578 222.431 175.803 222.104 174.898C221.777 173.993 221.614 172.975 221.614 171.846C221.614 170.717 221.777 169.699 222.104 168.794C222.431 167.889 222.897 167.119 223.504 166.484C224.111 165.849 224.839 165.359 225.688 165.014C226.547 164.669 227.508 164.496 228.572 164.496ZM228.572 176.858C229.86 176.858 230.817 176.429 231.442 175.57C232.077 174.702 232.394 173.465 232.394 171.86C232.394 170.255 232.077 169.018 231.442 168.15C230.817 167.273 229.86 166.834 228.572 166.834C227.265 166.834 226.295 167.273 225.66 168.15C225.025 169.018 224.708 170.255 224.708 171.86C224.708 173.465 225.025 174.702 225.66 175.57C226.295 176.429 227.265 176.858 228.572 176.858ZM253.234 164.72V179H251.414C251.013 179 250.756 178.809 250.644 178.426L250.42 177.096C250.121 177.413 249.804 177.703 249.468 177.964C249.141 178.225 248.791 178.449 248.418 178.636C248.045 178.823 247.643 178.967 247.214 179.07C246.794 179.173 246.341 179.224 245.856 179.224C245.072 179.224 244.381 179.093 243.784 178.832C243.187 178.571 242.683 178.202 242.272 177.726C241.871 177.25 241.567 176.681 241.362 176.018C241.157 175.346 241.054 174.609 241.054 173.806V164.72H244.064V173.806C244.064 174.767 244.283 175.514 244.722 176.046C245.17 176.578 245.847 176.844 246.752 176.844C247.415 176.844 248.031 176.695 248.6 176.396C249.179 176.088 249.72 175.668 250.224 175.136V164.72H253.234ZM262.755 158.28V179H259.745V158.28H262.755ZM278.385 168.234C277.965 167.693 277.503 167.315 276.999 167.1C276.495 166.885 275.949 166.778 275.361 166.778C274.185 166.778 273.265 167.212 272.603 168.08C271.94 168.939 271.609 170.213 271.609 171.902C271.609 172.779 271.683 173.531 271.833 174.156C271.982 174.772 272.197 175.276 272.477 175.668C272.757 176.06 273.097 176.345 273.499 176.522C273.9 176.699 274.353 176.788 274.857 176.788C275.622 176.788 276.28 176.625 276.831 176.298C277.391 175.962 277.909 175.491 278.385 174.884V168.234ZM281.395 158.28V179H279.575C279.173 179 278.917 178.809 278.805 178.426L278.539 176.872C277.941 177.572 277.26 178.137 276.495 178.566C275.739 178.995 274.857 179.21 273.849 179.21C273.046 179.21 272.318 179.051 271.665 178.734C271.011 178.407 270.451 177.936 269.985 177.32C269.518 176.704 269.154 175.943 268.893 175.038C268.641 174.123 268.515 173.078 268.515 171.902C268.515 170.838 268.655 169.853 268.935 168.948C269.224 168.043 269.635 167.259 270.167 166.596C270.699 165.924 271.343 165.401 272.099 165.028C272.864 164.645 273.718 164.454 274.661 164.454C275.501 164.454 276.215 164.589 276.803 164.86C277.391 165.121 277.918 165.49 278.385 165.966V158.28H281.395ZM306.762 168.234C306.342 167.693 305.88 167.315 305.376 167.1C304.872 166.885 304.326 166.778 303.738 166.778C302.562 166.778 301.643 167.212 300.98 168.08C300.317 168.939 299.986 170.213 299.986 171.902C299.986 172.779 300.061 173.531 300.21 174.156C300.359 174.772 300.574 175.276 300.854 175.668C301.134 176.06 301.475 176.345 301.876 176.522C302.277 176.699 302.73 176.788 303.234 176.788C303.999 176.788 304.657 176.625 305.208 176.298C305.768 175.962 306.286 175.491 306.762 174.884V168.234ZM309.772 158.28V179H307.952C307.551 179 307.294 178.809 307.182 178.426L306.916 176.872C306.319 177.572 305.637 178.137 304.872 178.566C304.116 178.995 303.234 179.21 302.226 179.21C301.423 179.21 300.695 179.051 300.042 178.734C299.389 178.407 298.829 177.936 298.362 177.32C297.895 176.704 297.531 175.943 297.27 175.038C297.018 174.123 296.892 173.078 296.892 171.902C296.892 170.838 297.032 169.853 297.312 168.948C297.601 168.043 298.012 167.259 298.544 166.596C299.076 165.924 299.72 165.401 300.476 165.028C301.241 164.645 302.095 164.454 303.038 164.454C303.878 164.454 304.592 164.589 305.18 164.86C305.768 165.121 306.295 165.49 306.762 165.966V158.28H309.772ZM322.427 164.496C323.481 164.496 324.433 164.669 325.283 165.014C326.141 165.359 326.869 165.849 327.467 166.484C328.073 167.119 328.54 167.889 328.867 168.794C329.193 169.699 329.357 170.717 329.357 171.846C329.357 172.975 329.193 173.993 328.867 174.898C328.54 175.803 328.073 176.578 327.467 177.222C326.869 177.857 326.141 178.347 325.283 178.692C324.433 179.037 323.481 179.21 322.427 179.21C321.363 179.21 320.401 179.037 319.543 178.692C318.693 178.347 317.965 177.857 317.359 177.222C316.752 176.578 316.285 175.803 315.959 174.898C315.632 173.993 315.469 172.975 315.469 171.846C315.469 170.717 315.632 169.699 315.959 168.794C316.285 167.889 316.752 167.119 317.359 166.484C317.965 165.849 318.693 165.359 319.543 165.014C320.401 164.669 321.363 164.496 322.427 164.496ZM322.427 176.858C323.715 176.858 324.671 176.429 325.297 175.57C325.931 174.702 326.249 173.465 326.249 171.86C326.249 170.255 325.931 169.018 325.297 168.15C324.671 167.273 323.715 166.834 322.427 166.834C321.12 166.834 320.149 167.273 319.515 168.15C318.88 169.018 318.563 170.255 318.563 171.86C318.563 173.465 318.88 174.702 319.515 175.57C320.149 176.429 321.12 176.858 322.427 176.858ZM347.957 164.72V179H344.947V164.72H347.957ZM348.461 160.408C348.461 160.679 348.405 160.935 348.293 161.178C348.191 161.421 348.046 161.635 347.859 161.822C347.673 161.999 347.453 162.144 347.201 162.256C346.959 162.359 346.697 162.41 346.417 162.41C346.147 162.41 345.89 162.359 345.647 162.256C345.414 162.144 345.209 161.999 345.031 161.822C344.854 161.635 344.709 161.421 344.597 161.178C344.495 160.935 344.443 160.679 344.443 160.408C344.443 160.128 344.495 159.867 344.597 159.624C344.709 159.381 344.854 159.171 345.031 158.994C345.209 158.807 345.414 158.663 345.647 158.56C345.89 158.448 346.147 158.392 346.417 158.392C346.697 158.392 346.959 158.448 347.201 158.56C347.453 158.663 347.673 158.807 347.859 158.994C348.046 159.171 348.191 159.381 348.293 159.624C348.405 159.867 348.461 160.128 348.461 160.408ZM359.117 179.224C357.932 179.224 357.017 178.893 356.373 178.23C355.739 177.558 355.421 176.615 355.421 175.402V167.086H353.853C353.685 167.086 353.541 167.035 353.419 166.932C353.298 166.82 353.237 166.657 353.237 166.442V165.224L355.547 164.888L356.205 160.758C356.252 160.599 356.331 160.473 356.443 160.38C356.555 160.277 356.705 160.226 356.891 160.226H358.431V164.916H362.393V167.086H358.431V175.192C358.431 175.705 358.557 176.097 358.809 176.368C359.061 176.639 359.397 176.774 359.817 176.774C360.051 176.774 360.251 176.746 360.419 176.69C360.587 176.625 360.732 176.559 360.853 176.494C360.975 176.419 361.077 176.354 361.161 176.298C361.255 176.233 361.343 176.2 361.427 176.2C361.595 176.2 361.731 176.293 361.833 176.48L362.729 177.95C362.263 178.361 361.712 178.678 361.077 178.902C360.443 179.117 359.789 179.224 359.117 179.224ZM371.024 158.84V166.848C371.024 167.688 370.987 168.514 370.912 169.326C370.837 170.129 370.739 170.997 370.618 171.93H368.588C368.457 170.997 368.355 170.129 368.28 169.326C368.215 168.514 368.182 167.688 368.182 166.848V158.84H371.024ZM367.608 177.264C367.608 176.993 367.655 176.741 367.748 176.508C367.851 176.265 367.991 176.055 368.168 175.878C368.345 175.701 368.551 175.561 368.784 175.458C369.017 175.355 369.274 175.304 369.554 175.304C369.825 175.304 370.077 175.355 370.31 175.458C370.553 175.561 370.758 175.701 370.926 175.878C371.103 176.055 371.243 176.265 371.346 176.508C371.449 176.741 371.5 176.993 371.5 177.264C371.5 177.544 371.449 177.801 371.346 178.034C371.243 178.267 371.103 178.473 370.926 178.65C370.758 178.827 370.553 178.963 370.31 179.056C370.077 179.159 369.825 179.21 369.554 179.21C369.274 179.21 369.017 179.159 368.784 179.056C368.551 178.963 368.345 178.827 368.168 178.65C367.991 178.473 367.851 178.267 367.748 178.034C367.655 177.801 367.608 177.544 367.608 177.264Z" fill="black"/>
<path d="M41.4458 92.6176C44.0626 95.7332 41.4458 102.153 55.6898 97.0085C54.8878 92.2529 34.7318 44.8543 7.39041 42.2698C7.29786 43.3458 7.30285 45.8032 8.06321 47.0248C8.5137 45.9796 8.21745 45.2314 9.5567 46.4306C10.2726 46.4922 7.78556 50.2527 8.31635 52.4663C9.48275 51.4827 10.1369 52.2616 8.00786 56.0529C11.5379 52.7434 12.0873 58.933 14.5929 59.1485C13.877 59.087 8.74233 60.0906 17.9442 66.3018C16.3087 64.3546 16.1358 62.1718 20.5732 65.0827C21.1349 66.9376 18.3516 69.95 24.3936 75.1669C22.4927 72.1128 24.4059 70.8321 26.4115 68.4754C28.047 70.4227 26.1339 71.7034 28.689 75.5363C28.9049 73.0257 29.7824 69.8793 32.5412 75.5363C33.3762 77.2484 34.1424 77.9241 34.5661 78.1619C33.8891 78.1011 32.1417 78.3008 28.689 80.148C41.6102 83.0191 37.7157 83.8657 37.2302 83.6261C37.4569 83.3727 37.5507 83.3157 37.309 83.4488C37.1612 83.5301 37.1575 83.5903 37.2302 83.6261C36.3918 84.5632 33.7358 88.1863 39.5096 94.8181C39.3396 88.4094 38.0426 88.5833 41.4458 88.5833C46.0232 88.5833 47.8893 97.3597 41.4458 92.6176Z" fill="white"/>
<path d="M7.39041 42.2698C7.29786 43.3458 7.30285 45.8032 8.06321 47.0248C8.5137 45.9796 8.21745 45.2314 9.5567 46.4306C10.2726 46.4922 7.78556 50.2527 8.31636 52.4663C9.48275 51.4827 10.1369 52.2616 8.00786 56.0529C11.5379 52.7434 12.0873 58.933 14.5929 59.1486C13.877 59.087 8.74233 60.0906 17.9442 66.3018C16.3087 64.3546 16.1358 62.1718 20.5732 65.0827C21.1349 66.9376 18.3516 69.95 24.3936 75.1669C22.4927 72.1128 24.4059 70.8321 26.4115 68.4754C28.047 70.4227 26.1339 71.7034 28.689 75.5363C28.9049 73.0257 29.7824 69.8793 32.5412 75.5363C35.3 81.1934 37.309 75.5363 28.689 80.148C43.5439 83.4488 36.1735 84.0737 37.309 83.4488C38.4446 82.8238 32.1745 86.3929 39.5096 94.8181C39.3396 88.4094 38.0426 88.5833 41.4458 88.5833C46.0232 88.5833 47.8893 97.3597 41.4458 92.6176C44.0626 95.7332 41.4458 102.153 55.6898 97.0085C54.8878 92.2529 34.7318 44.8543 7.39041 42.2698Z" stroke="black" stroke-width="2"/>
<path d="M65.5488 384.316C192.026 327.032 243.243 343.037 250.813 355.219C251.17 355.738 251.313 356.154 251.313 356.154C251.175 355.846 251.008 355.534 250.813 355.219C249.75 353.676 246.791 351.23 240.044 356.154C248.537 356.154 249.703 358.272 261.615 363.241C248.093 363.241 269.664 369.039 269.664 384.316C248.093 370.328 228.776 402.863 279 386.756C247.127 432.177 190.786 381.876 156.982 384.316C167.606 392.047 171.47 395.904 182.738 395.044C158.27 405.675 148.611 386.756 113.519 395.044C76.1731 386.756 69.2767 402.966 65.5488 384.316Z" fill="#C2E2E8"/>
<path d="M65.5488 384.316C195.294 325.551 245.839 343.913 251.313 356.154C251.313 356.154 249.059 349.575 240.044 356.154C248.537 356.154 249.703 358.272 261.615 363.241C248.093 363.241 269.664 369.039 269.664 384.316C248.093 370.328 228.776 402.863 279 386.756C247.127 432.177 190.786 381.876 156.982 384.316C167.606 392.047 171.47 395.904 182.738 395.044C158.27 405.675 148.611 386.756 113.519 395.044C76.1731 386.756 69.2767 402.966 65.5488 384.316Z" stroke="#2E234A" stroke-width="2"/>
<path d="M56.6147 428.832C56.6656 429.393 56.5919 429.998 56.2337 430.733C54.7278 431.875 53.5624 432.613 52.6548 433.064C51.7033 433.535 51.1053 433.654 50.7377 433.644C50.1656 433.629 49.9056 433.307 49.3426 432.355L49.3034 432.289C48.9985 431.772 48.5616 431.031 47.8492 430.558L46.8762 429.911L46.3876 430.972C44.9136 434.173 43.2594 435.837 42.0063 436.314C41.4216 436.537 40.9658 436.492 40.5985 436.29C40.2057 436.075 39.7692 435.6 39.421 434.695L38.409 432.063L37.5367 434.744C37.5385 434.739 37.5299 434.766 37.4925 434.826C37.4565 434.885 37.403 434.96 37.3281 435.051C37.1777 435.232 36.9652 435.447 36.6968 435.678C36.1594 436.139 35.4505 436.62 34.6923 436.994C33.9265 437.371 33.1688 437.611 32.524 437.652C32.0774 437.68 31.7281 437.613 31.4556 437.465C31.5002 436.115 31.7346 435.439 32.0087 435.029C32.3202 434.564 32.7667 434.294 33.6271 433.815L33.6413 433.807C34.3586 433.408 35.2628 432.905 36.2462 432.043C37.2379 431.174 38.2828 429.968 39.3483 428.166L39.3803 428.112L39.4052 428.055C39.9797 426.729 40.8637 425.549 41.9033 424.171L41.9265 424.141C43.5015 422.053 45.3326 419.626 46.2897 415.974C47.2419 412.34 47.3087 407.592 45.6173 400.83C46.285 396.806 45.1859 392.377 43.0861 387.86L43.0147 387.706L42.8968 387.585C36.3088 380.797 29.5864 371.992 23.5398 361.819C23.4221 361.555 23.3042 361.294 23.186 361.035L23.1214 360.894L23.017 360.779C21.2611 358.843 19.523 356.96 17.8561 355.154L17.8558 355.153C16.3305 353.501 14.8658 351.914 13.4978 350.406C14.298 350.506 15.1683 350.747 16.112 351.121L18.6808 352.138L17.3583 349.712C12.9088 341.55 9.32257 334.633 9.29465 323.258C10.4439 318.983 9.34836 315.251 8.43274 312.131L8.41144 312.059C7.71192 309.675 7.17186 307.769 7.44148 306.022C7.69282 304.394 8.69222 302.733 11.5882 301.013C13.4565 299.904 15.8289 299.651 18.6644 300.289C21.5067 300.929 24.7456 302.453 28.2379 304.795L29.2607 305.481L29.7221 304.339C35.6681 289.626 46.3672 272.652 58.7942 259.369C65.0056 252.729 71.6256 247.037 78.2722 243.01C84.77 239.073 91.239 236.761 97.3473 236.656C111.449 251.977 122.148 262.991 130.223 271.304L130.223 271.304C137.064 278.347 141.995 283.425 145.529 287.546C148.311 290.791 150.189 293.4 151.434 295.857C150.461 295.635 149.642 295.579 148.966 295.689C148.379 295.785 147.855 296.014 147.456 296.413C147.054 296.813 146.853 297.308 146.782 297.8C146.647 298.734 146.96 299.756 147.362 300.605C147.778 301.483 148.365 302.335 148.973 302.977C154.932 309.272 155.991 318.061 153.544 327.935C151.097 337.811 145.17 348.607 137.428 358.633C129.692 368.651 120.19 377.84 110.66 384.516C101.158 391.174 91.7588 395.241 84.1198 395.29C81.7036 394.593 79.3168 393.758 76.9684 392.798L75.8194 392.328L75.6049 393.55C74.9363 397.359 73.4173 399.965 71.1533 401.309C69.55 402.262 67.5802 402.582 65.2641 402.252L64.2677 402.111L64.1324 403.108C63.58 407.18 62.2836 410.425 60.2447 412.751C57.0864 416.353 55.6978 419.08 55.2946 421.354C54.8894 423.638 55.5112 425.327 56.0119 426.686L56.0256 426.723C56.3281 427.545 56.5555 428.179 56.6147 428.832Z" fill="#C2E2E8" stroke="#2E234A" stroke-width="2"/>
<path d="M139.711 383.696L139.637 383.735L139.57 383.785C137.772 385.133 135.99 386.39 134.235 387.552L134.103 387.64L134.004 387.764C133.382 388.549 132.963 389.433 132.902 390.424L132.9 390.463L132.9 390.502C132.97 394.665 133.941 398.031 135.577 400.765C137.211 403.496 139.476 405.544 142.058 407.12C147.153 410.23 153.59 411.559 159.065 412.689L159.152 412.707C161.421 413.176 163.518 413.609 165.34 414.118C167.171 414.631 168.638 415.197 169.679 415.895C170.697 416.577 171.238 417.335 171.382 418.25C171.523 419.143 171.314 420.356 170.467 422.027C169.544 422.24 168.997 422.182 168.629 422.05C168.195 421.896 167.847 421.589 167.349 421.043L166.764 420.403L166.048 420.891C165.199 421.469 164.366 421.906 163.585 422.026C162.877 422.134 162.166 421.992 161.428 421.269L161.014 420.863L160.456 421.021C159.563 421.275 155.997 421.982 151.653 422.38C147.493 422.762 142.752 422.845 139.032 422.032C137.439 418.186 133.091 416.342 128.164 415.382C122.95 414.366 116.597 414.248 110.807 414.141L110.749 414.139C104.974 414.033 99.8515 413.93 96.6728 413.059C95.0594 412.616 94.249 412.052 93.9521 411.48C93.6948 410.984 93.6554 410.118 94.6291 408.544C95.9329 406.435 97.7642 404.633 99.7216 402.714C99.9374 402.503 100.155 402.29 100.371 402.076L102.299 400.175L99.5986 400.366C99.0483 400.405 98.5068 400.425 97.9746 400.425H97.9351L97.8957 400.428C88.531 401.169 82.0457 399.982 77.6344 397.52C73.2644 395.08 70.8151 391.323 69.6367 386.632C68.4488 381.903 68.5602 376.244 69.3484 370.106C70.1356 363.976 71.584 357.46 73.0146 351.027L73.0346 350.937C75.0031 342.085 76.9463 333.348 76.9463 326.24C76.9463 312.677 77.688 291.425 82.5002 273.591C84.907 264.672 88.3103 256.692 93.0793 250.96C97.7342 245.364 103.679 241.916 111.341 241.79C125.442 257.11 136.141 268.125 144.216 276.438L144.217 276.439C151.058 283.482 155.989 288.559 159.523 292.68C162.305 295.925 164.183 298.534 165.428 300.992C164.455 300.769 163.636 300.713 162.96 300.824C162.373 300.92 161.849 301.149 161.449 301.547C161.048 301.947 160.847 302.443 160.776 302.935C160.641 303.869 160.954 304.891 161.356 305.74C161.772 306.617 162.359 307.47 162.967 308.111C164.123 309.333 165.091 310.643 165.884 312.03L166.305 312.767L167.1 312.471C170.788 311.102 173.915 310.528 176.301 310.787C178.627 311.04 180.195 312.067 181.023 313.945C183.382 319.297 182.915 324.405 180.671 329.906C178.405 335.461 174.369 341.318 169.672 348.124L169.664 348.135C166.167 353.202 162.33 358.762 158.689 365.018L157.329 367.354L159.882 366.465C162.704 365.483 165.854 364.237 169.446 362.666C167.696 366.828 164.458 370.15 160.539 372.939C155.969 376.189 150.576 378.645 145.74 380.844L145.725 380.851C143.561 381.834 141.502 382.771 139.711 383.696Z" fill="#439BA8" stroke="#2E234A" stroke-width="2"/>
<path d="M110.578 469.977C109.161 470.054 107.65 469.165 106.325 467.496C105.624 455.105 109.078 448.435 111.728 443.318L111.735 443.304L111.806 443.168C113.287 440.309 114.639 437.699 114.639 434.808C114.639 428.96 112.875 418.466 110.878 406.583L110.855 406.444C109.272 397.028 107.535 386.687 106.359 376.913C108.127 369.381 108.88 360.254 108.911 351.075L108.915 349.605L107.546 350.141C99.5336 353.278 92.5569 353.013 86.2641 350.444L84.902 349.888L84.8862 351.359C84.7851 360.779 85.4395 369.93 86.9178 376.908C85.6336 388.826 83.4438 401.648 81.6284 412.276L81.6263 412.288C80.6868 417.788 79.8464 422.708 79.2882 426.595C79.0089 428.539 78.7982 430.238 78.6813 431.63C78.5662 433 78.5348 434.146 78.6451 434.945C80.8188 450.697 78.2044 460.739 75.4664 465.193C74.8871 466.135 73.7405 467.02 72.222 467.702C70.7216 468.376 68.9614 468.804 67.2912 468.904C65.6045 469.005 64.1141 468.767 63.0874 468.216C62.1218 467.698 61.5608 466.915 61.5608 465.717H60.5608H59.5608C59.5608 466.167 59.2194 466.764 58.3044 467.302C57.4231 467.821 56.2063 468.15 54.9779 468.131C53.7525 468.113 52.6097 467.752 51.7851 467.006C50.9817 466.278 50.3647 465.081 50.3647 463.141V460.813L48.6763 462.416C47.6029 463.434 46.5227 463.813 45.5024 463.841C44.4565 463.87 43.3916 463.531 42.3898 462.973C41.3902 462.416 40.5022 461.667 39.833 460.955C39.1319 460.21 38.7752 459.616 38.7058 459.4C38.6524 459.234 38.654 459.02 38.8657 458.682C39.0927 458.32 39.5217 457.891 40.191 457.414C41.5242 456.465 43.5562 455.503 45.9574 454.588C50.7386 452.768 56.7167 451.235 60.7669 450.383L61.5608 450.215V449.404V343.801V343.648L61.5149 343.501C59.6968 337.71 53.8298 322.66 44.8177 308.492C42.7558 305.251 41.4709 301.849 40.7591 298.452L40.7074 298.205L40.5446 298.012C34.2694 290.576 28.2983 282.079 28.2019 272.931C29.2939 270.644 30.2187 268.51 30.9027 266.685C31.5984 264.829 32.074 263.217 32.1902 262.075C32.2444 261.543 32.2473 260.901 31.9691 260.387C31.809 260.091 31.5465 259.823 31.168 259.688C30.81 259.56 30.4582 259.59 30.1737 259.665C29.635 259.806 29.0737 260.175 28.5143 260.636C28.275 260.833 28.0195 261.061 27.7472 261.32C27.7056 260.93 27.6796 260.482 27.6744 259.977C27.6596 258.574 27.8049 256.841 28.1405 254.915C28.8121 251.059 30.233 246.501 32.5787 242.341C33.9841 239.849 35.4643 237.122 37.0244 234.248L37.0268 234.244C43.5617 222.207 51.52 207.557 61.6022 195.908C71.6792 184.266 83.7431 175.779 98.4687 175.771C110.43 176.33 121.411 182.989 131.003 191.623C140.593 200.253 148.671 210.742 154.843 218.757L154.887 218.814C157.787 222.581 160.293 225.836 162.322 228.049C160.55 230.404 159.815 232.23 159.967 233.868C160.126 235.591 161.265 236.831 162.269 237.924C162.302 237.96 162.334 237.996 162.367 238.031C163.475 239.24 164.605 240.486 165.26 242.392C165.912 244.289 166.127 246.953 165.125 251.001L165.044 251.326L165.175 251.633C166.696 255.198 166.472 258.548 165.272 261.956C164.057 265.41 161.864 268.86 159.479 272.603L159.468 272.619C157.923 275.044 156.307 277.578 154.898 280.247L154.623 280.768L154.946 281.262C155.089 281.481 155.239 281.705 155.395 281.933C156.343 288.299 156.439 292.646 155.944 296.035C155.446 299.437 154.344 301.929 152.812 304.585L152.572 305L152.747 305.448C152.931 305.921 153.13 306.399 153.342 306.88C150.716 310.487 148.161 313.846 145.673 316.969L145.604 317.056L145.556 317.155C143.347 321.701 141.025 327.593 138.798 335.812C129.231 371.123 125.494 425.735 125.494 433.091V433.13L125.497 433.169C126.107 441.003 127.994 446.615 130.283 450.835C132.564 455.041 135.223 457.821 137.289 459.981L137.303 459.995C138.846 461.609 139.929 462.759 140.454 463.892C140.701 464.425 140.808 464.928 140.775 465.456C140.743 465.966 140.577 466.557 140.191 467.272C139.318 468.203 138.493 469.013 137.69 469.628C136.858 470.266 136.112 470.643 135.423 470.762C134.205 470.973 132.654 470.43 130.652 467.322L128.811 464.463V467.863C128.811 470.812 126.693 472.906 124.365 473.036C122.139 473.159 119.106 471.457 117.508 465.459L116.837 462.942L115.651 465.261C113.849 468.785 112.02 469.898 110.578 469.977Z" fill="#C2E2E8" stroke="#2E234A" stroke-width="2"/>
<path d="M64.8464 58.4837C74.0152 58.4837 83.5509 55.183 102.255 58.4837C109.59 53.716 141.498 24.3756 166.437 26.5761C176.707 23.6421 184.164 13.3729 182.208 26.5761C180.741 36.4785 142.934 55.2084 148.466 69.1451C154.436 84.1821 128.295 84.5488 128.295 88.1909C132.696 91.4917 142.232 106.162 148.466 106.162C154.701 106.162 149.2 108.729 133.063 101.761C145.166 115.331 149.933 128.534 128.295 152.006C138.197 159.341 142.965 147.605 148.466 152.006C142.598 154.207 144.799 157.874 142.598 160.075C155.068 170.344 151.4 186.481 145.166 189.048C152.501 194.55 148.466 194.916 152.867 200.051C147.517 209.477 143.229 211.471 142.093 211.809C142.219 211.797 142.387 211.787 142.598 211.787C148.466 217.655 149.933 220.223 150.3 222.79C148.466 242.228 85.0179 246.262 87.2184 285.138C45.4084 269.734 49.0759 216.188 59.7118 211.787C45.4084 200.051 46.1419 209.587 42.8411 211.787C49.8094 193.449 68.1472 182.814 59.7118 175.112C51.2764 167.41 50.5429 168.877 59.7118 160.075C50.5429 156.04 76.2158 147.605 50.5429 144.304C50.5429 140.637 52.3767 139.17 49.0759 136.969C49.0759 131.101 46.3601 131.835 46.8754 128.534C48.1255 120.526 49.4427 119.732 55.6775 112.397C50.8157 114.964 51.1825 117.531 42.8411 119.732C49.0759 112.03 49.0759 101.761 49.0759 88.1909C42.8411 76.4547 42.8411 74.9877 35.8728 88.1909C35.8728 74.9877 36.973 69.4864 30.0047 69.4864C23.0363 69.4864 30.3714 58.4837 21.5693 58.4837C21.5693 55.6446 13.1591 46.5678 6.99583 39.7793C3.59835 36.037 0.664313 39.7793 1.03107 32.8109C2.86482 28.0431 6.16561 33.9112 10.1999 34.227C28.9266 39.6301 57.0989 58.4837 64.8464 58.4837Z" fill="#439BA8"/>
<path d="M1.03107 32.8109C0.664313 39.7793 3.59835 36.037 6.99583 39.7793C13.1591 46.5678 21.5693 55.6446 21.5693 58.4837C30.3714 58.4837 23.0363 69.4864 30.0047 69.4864C36.973 69.4864 35.8728 74.9877 35.8728 88.1909C42.8411 74.9877 42.8411 76.4547 49.0759 88.1909C49.0759 101.761 49.0759 112.03 42.8411 119.732C51.1825 117.531 50.8157 114.964 55.6775 112.397C49.4427 119.732 48.1255 120.526 46.8754 128.534C46.3601 131.835 49.0759 131.101 49.0759 136.969C52.3767 139.17 50.5429 140.637 50.5429 144.304C76.2158 147.605 50.5429 156.04 59.7118 160.075C50.5429 168.877 51.2764 167.41 59.7118 175.112C68.1472 182.814 49.8094 193.449 42.8411 211.787C46.1419 209.587 45.4084 200.051 59.7118 211.787C49.0759 216.188 45.4084 269.734 87.2184 285.138C85.0179 246.262 148.466 242.228 150.3 222.79C149.933 220.223 148.466 217.655 142.598 211.787C139.664 211.787 145.166 213.621 152.867 200.051C148.466 194.916 152.501 194.55 145.166 189.048C151.4 186.481 155.068 170.344 142.598 160.075C144.799 157.874 142.598 154.207 148.466 152.006C142.965 147.605 138.197 159.341 128.295 152.006C149.933 128.534 145.166 115.331 133.063 101.761C149.2 108.729 154.701 106.162 148.466 106.162C142.232 106.162 132.696 91.4917 128.295 88.1909C128.295 84.5488 154.436 84.1821 148.466 69.1451C142.934 55.2084 180.741 36.4785 182.208 26.5761C184.164 13.3729 176.707 23.6421 166.437 26.5761C141.498 24.3756 109.59 53.7159 102.255 58.4837C83.5509 55.183 74.0152 58.4837 64.8464 58.4837C57.0989 58.4837 28.9266 39.6301 10.1999 34.227C6.16561 33.9112 2.86482 28.0431 1.03107 32.8109Z" stroke="#2E234A" stroke-width="2"/>
<path d="M58.2137 75.998C82.7863 69.7631 83.8865 67.9294 110.293 75.998C115.427 94.7024 118.728 98.0032 126.063 102.771C116.894 109.373 119.828 112.673 126.063 112.673C126.063 120.742 124.596 120.009 133.032 120.009C129.731 125.143 119.095 129.911 124.596 143.848C104.425 157.784 98.19 172.088 97.4565 181.99C74.7177 170.736 95.2559 158.633 61.1478 155.699C65.3621 149.216 62.9858 136.715 56.0453 136.939C55.303 137.43 54.3269 137.728 53.0792 137.728C54.1435 137.218 55.1337 136.969 56.0453 136.939C60.7575 133.825 56.048 122.989 51.6121 131.86C51.6121 120.009 65.1821 102.771 49.4116 112.673C53.0792 99.4702 55.2797 99.4702 51.6121 92.8687C58.2137 85.5336 51.6122 85.1668 49.4116 83.6998C55.6464 81.1325 56.7467 80.0323 53.0792 75.998H58.2137Z" fill="#C2E2E8"/>
<path d="M91.0002 109.05C89.9302 111.034 88.3079 110.361 85.7735 114.353C88.9955 115.316 92.5262 108.089 96.9145 108.701C99.6495 109.083 101.646 108.423 101.488 105.742C100.463 108.492 96.7566 106.021 98.3337 105.928C102.829 105.663 98.2209 104.014 101.375 103.828C103.606 103.696 102.885 102.586 105.464 99.3602C99.6777 101.878 88.684 107.342 91.0002 109.05Z" fill="#2E234A"/>
<path d="M103.133 106.798C105.998 106.629 105.712 103.572 104.439 102.11C103.369 104.095 105.186 103.679 104.991 104.767C104.338 107.111 102.603 104.524 103.133 106.798Z" fill="#2E234A"/>
<path d="M69.4648 87.0378C66.9614 88.9582 62.728 89.8996 55.1906 92.0304C57.6495 94.7565 64.2708 95.3145 67.274 95.2527C67.6606 93.803 69.6992 91.7587 71.6637 97.4586C75.819 94.9435 75.6746 99.2183 77.3188 100.519C77.9125 100.16 79.594 96.4678 78.9941 94.2374C78.2442 91.4495 75.5065 88.649 69.4648 87.0378Z" fill="#439BA8"/>
<path d="M68.8499 101.42C62.9817 101.42 65.1823 97.0185 59.3142 98.8523C62.2483 105.821 56.3802 102.887 71.4172 117.19C70.6837 113.156 61.2793 106.187 62.9818 102.887C63.3684 101.437 65.0516 102.321 67.0161 108.021C71.4172 106.921 69.2164 109.488 69.95 110.588C71.9064 113.523 71.7838 107.274 69.95 106.921C65.549 104.354 71.0503 104.72 68.8499 101.42Z" fill="#2E234A"/>
<path d="M94.3401 86.8091C96.7232 86.8091 104.792 86.8091 110.66 92.9842C109.737 94.1903 105.159 91.756 104.792 92.9842C104.058 91.3892 91.5887 87.7277 92.3176 96.4502C88.4714 94.1285 88.6097 98.0823 87.0903 99.2876C86.5408 98.9559 87.0903 96.4502 87.0903 92.2507C87.0903 89.1499 88.7536 88.306 94.3401 86.8091Z" fill="#439BA8"/>
<path d="M68.4826 135.528C70.6831 119.024 57.8468 123.425 61.881 108.388C61.881 117.622 67.3824 116.09 73.2505 127.826C85.3534 120.124 77.2848 135.528 94.1554 131.126C111.026 126.725 114.327 127.826 120.929 131.126C110.293 131.126 101.222 129.372 94.1554 142.496C83.8864 161.567 61.881 145.063 68.4826 135.528Z" fill="#439BA8"/>
<path d="M67.8538 144.444C63.6752 139.73 65.2422 133.445 72.0325 133.445C76.3853 133.445 79.763 131.14 81.4345 136.587C83.5238 143.397 72.0325 149.159 67.8538 144.444Z" fill="#2E234A"/>
<path d="M103.692 135.894C99.6575 147.264 107.359 141.762 111.394 144.696C111.394 139.709 103.692 147.264 103.692 135.894Z" fill="#2E234A"/>
<path d="M69.233 147.008C66.5921 146.615 64.7421 149.803 64.3793 153.263C67.475 152.655 66.8973 150.378 69.233 147.008Z" fill="#2E234A"/>
<path d="M150.636 78.6806C147.702 81.6146 140.367 89.3165 123.496 78.6806C124.186 76.0153 128.631 77.5803 138.533 78.6806C134.132 78.1277 123.496 70.9788 133.765 70.9788C125.697 60.7096 133.032 66.2109 138.533 62.1766C127.897 57.4088 144.768 54.108 137.182 54.108C150.636 39.4379 168.373 43.8571 177.409 27.335C177.409 28.4352 177.189 30.9292 176.309 32.1028C175.942 31.0025 176.309 30.269 174.842 31.3693C174.108 31.3693 176.309 35.4036 175.575 37.6041C174.475 36.5038 173.741 37.2373 175.575 41.2716C172.274 37.6041 171.174 43.8389 168.607 43.8389C169.34 43.8389 174.475 45.3059 164.573 50.8073C166.406 48.9735 166.773 46.773 162.005 49.3402C161.272 51.174 163.839 54.4748 157.238 59.2426C159.438 56.3086 157.604 54.8416 155.77 52.2743C153.937 54.108 155.77 55.5751 152.836 59.2426C152.836 56.6753 150.636 50.4405 147.335 55.9418C144.034 61.4431 152.836 63.6437 155.77 65.8442C150.636 65.8442 149.536 69.145 146.235 65.8442C145.135 65.1107 149.169 72.079 146.235 76.1133C146.968 69.6229 141.834 70.2452 138.533 73.546C135.232 76.8468 143.668 82.9315 150.636 78.6806Z" fill="white" stroke="black" stroke-width="2"/>
<path d="M95.6223 284.43C108.87 252.838 115.794 286.264 140 257.291C140 260.836 137.946 269.613 129.73 276.362C122.395 278.196 137.799 278.196 142.2 271.227C142.2 271.227 142.934 279.296 133.398 286.998C100.023 291.765 100.757 317.072 100.757 332.842C84.9864 318.172 90.8546 295.8 95.6223 284.43Z" fill="#439BA8"/>
<path d="M65.3692 240.142C71.4172 218.414 62.2484 205.578 62.2484 205.578C62.2484 205.578 85.8885 214.985 82.4198 220.981C72.8843 220.981 75.4514 234.918 85.7206 225.016C88.9478 221.904 95.2563 219.465 105.892 217.681C98.5571 220.981 71.2373 243.169 142.201 217.681C140 240.142 67.7497 240.142 79.5985 268.434C66.6091 263.127 63.2178 247.871 65.3692 240.142Z" fill="#C2E2E8"/>
</svg>
