<svg width="386" height="413" viewBox="0 0 386 413" fill="none" xmlns="http://www.w3.org/2000/svg">
<g filter="url(#filter0_d_281_69)">
<mask id="path-1-inside-1_281_69" fill="white">
<path fill-rule="evenodd" clip-rule="evenodd" d="M178.382 113.39C170.223 100.699 136.213 104.905 131 109.187C135.028 103.395 143.259 99.467 151.8 95.391C163.171 89.9653 175.091 84.2767 178.382 73.5784L178.382 10C178.382 4.47717 182.86 1.29919e-05 188.382 1.27505e-05L372 4.72435e-06C377.523 4.48294e-06 382 4.47716 382 10L382 193C382 198.523 377.523 203 372 203L188.382 203C182.86 203 178.382 198.523 178.382 193L178.382 113.39Z"/>
</mask>
<path fill-rule="evenodd" clip-rule="evenodd" d="M178.382 113.39C170.223 100.699 136.213 104.905 131 109.187C135.028 103.395 143.259 99.467 151.8 95.391C163.171 89.9653 175.091 84.2767 178.382 73.5784L178.382 10C178.382 4.47717 182.86 1.29919e-05 188.382 1.27505e-05L372 4.72435e-06C377.523 4.48294e-06 382 4.47716 382 10L382 193C382 198.523 377.523 203 372 203L188.382 203C182.86 203 178.382 198.523 178.382 193L178.382 113.39Z" fill="white"/>
<path d="M131 109.187L130.179 108.616L131.635 109.96L131 109.187ZM178.382 113.39L179.382 113.39L179.382 113.096L179.224 112.849L178.382 113.39ZM151.8 95.391L151.37 94.4885L151.37 94.4885L151.8 95.391ZM178.382 73.5784L179.338 73.8724L179.382 73.7287L179.382 73.5784L178.382 73.5784ZM372 203L372 202L372 203ZM188.382 203L188.382 204L188.382 203ZM131.635 109.96C132.146 109.54 133.11 109.052 134.525 108.563C135.915 108.082 137.656 107.626 139.649 107.234C143.633 106.448 148.564 105.924 153.586 105.924C158.614 105.923 163.689 106.449 167.983 107.735C172.292 109.026 175.685 111.044 177.541 113.931L179.224 112.849C177 109.39 173.082 107.175 168.557 105.819C164.016 104.459 158.732 103.923 153.586 103.924C148.435 103.924 143.375 104.461 139.262 105.271C137.205 105.677 135.371 106.154 133.871 106.673C132.396 107.183 131.157 107.763 130.365 108.414L131.635 109.96ZM151.37 94.4885C147.11 96.5212 142.868 98.5446 139.186 100.792C135.508 103.037 132.308 105.554 130.179 108.616L131.821 109.758C133.72 107.027 136.649 104.684 140.229 102.499C143.805 100.315 147.949 98.3368 152.231 96.2935L151.37 94.4885ZM177.427 73.2844C175.871 78.3425 172.259 82.2776 167.54 85.6482C162.812 89.0254 157.073 91.767 151.37 94.4885L152.231 96.2935C157.898 93.5893 163.805 90.7738 168.702 87.2757C173.609 83.771 177.603 79.5126 179.338 73.8724L177.427 73.2844ZM179.382 73.5784L179.382 10L177.382 10L177.382 73.5784L179.382 73.5784ZM179.382 10C179.382 5.02946 183.412 1.00001 188.382 1.00001L188.382 -0.999987C182.307 -0.999987 177.382 3.92489 177.382 10L179.382 10ZM188.382 1.00001L372 1L372 -0.999995L188.382 -0.999987L188.382 1.00001ZM372 1C376.97 1 381 5.02945 381 10L383 10C383 3.92488 378.075 -0.999996 372 -0.999995L372 1ZM381 10L381 193L383 193L383 10L381 10ZM381 193C381 197.971 376.97 202 372 202L372 204C378.075 204 383 199.075 383 193L381 193ZM372 202L188.382 202L188.382 204L372 204L372 202ZM188.382 202C183.412 202 179.382 197.971 179.382 193L177.382 193C177.382 199.075 182.307 204 188.382 204L188.382 202ZM179.382 193L179.382 113.39L177.382 113.39L177.382 193L179.382 193Z" fill="black" mask="url(#path-1-inside-1_281_69)"/>
</g>
<path d="M220.689 58H217.399V37.84H220.689V58ZM231.9 58.224C230.715 58.224 229.8 57.8927 229.156 57.23C228.522 56.558 228.204 55.6153 228.204 54.402V46.086H226.636C226.468 46.086 226.324 46.0347 226.202 45.932C226.081 45.82 226.02 45.6567 226.02 45.442V44.224L228.33 43.888L228.988 39.758C229.035 39.5993 229.114 39.4733 229.226 39.38C229.338 39.2773 229.488 39.226 229.674 39.226H231.214V43.916H235.176V46.086H231.214V54.192C231.214 54.7053 231.34 55.0973 231.592 55.368C231.844 55.6387 232.18 55.774 232.6 55.774C232.834 55.774 233.034 55.746 233.202 55.69C233.37 55.6247 233.515 55.5593 233.636 55.494C233.758 55.4193 233.86 55.354 233.944 55.298C234.038 55.2327 234.126 55.2 234.21 55.2C234.378 55.2 234.514 55.2933 234.616 55.48L235.512 56.95C235.046 57.3607 234.495 57.678 233.86 57.902C233.226 58.1167 232.572 58.224 231.9 58.224ZM248.875 46.31C248.8 46.4407 248.716 46.534 248.623 46.59C248.53 46.646 248.413 46.674 248.273 46.674C248.114 46.674 247.942 46.6273 247.755 46.534C247.568 46.4313 247.349 46.3193 247.097 46.198C246.845 46.0767 246.546 45.9693 246.201 45.876C245.865 45.7733 245.468 45.722 245.011 45.722C244.638 45.722 244.297 45.7687 243.989 45.862C243.69 45.946 243.434 46.072 243.219 46.24C243.014 46.3987 242.855 46.59 242.743 46.814C242.631 47.0287 242.575 47.262 242.575 47.514C242.575 47.85 242.678 48.13 242.883 48.354C243.088 48.578 243.359 48.774 243.695 48.942C244.031 49.1007 244.414 49.2453 244.843 49.376C245.272 49.5067 245.711 49.6467 246.159 49.796C246.607 49.9453 247.046 50.118 247.475 50.314C247.904 50.51 248.287 50.7527 248.623 51.042C248.959 51.322 249.23 51.6673 249.435 52.078C249.64 52.4793 249.743 52.9693 249.743 53.548C249.743 54.22 249.622 54.8407 249.379 55.41C249.136 55.9793 248.782 56.474 248.315 56.894C247.848 57.314 247.265 57.6407 246.565 57.874C245.874 58.1073 245.081 58.224 244.185 58.224C243.69 58.224 243.21 58.1773 242.743 58.084C242.286 58 241.847 57.8833 241.427 57.734C241.016 57.5753 240.629 57.3887 240.265 57.174C239.91 56.9593 239.593 56.726 239.313 56.474L240.013 55.326C240.097 55.186 240.2 55.0787 240.321 55.004C240.452 54.92 240.61 54.878 240.797 54.878C240.993 54.878 241.184 54.9433 241.371 55.074C241.567 55.1953 241.791 55.3307 242.043 55.48C242.304 55.6293 242.617 55.7693 242.981 55.9C243.345 56.0213 243.798 56.082 244.339 56.082C244.787 56.082 245.174 56.0307 245.501 55.928C245.828 55.816 246.098 55.6667 246.313 55.48C246.528 55.2933 246.686 55.0833 246.789 54.85C246.892 54.6073 246.943 54.3507 246.943 54.08C246.943 53.716 246.84 53.4173 246.635 53.184C246.43 52.9507 246.154 52.75 245.809 52.582C245.473 52.414 245.086 52.2647 244.647 52.134C244.218 52.0033 243.779 51.8633 243.331 51.714C242.883 51.5647 242.44 51.392 242.001 51.196C241.572 51 241.184 50.7527 240.839 50.454C240.503 50.146 240.232 49.7773 240.027 49.348C239.822 48.9093 239.719 48.3773 239.719 47.752C239.719 47.1827 239.831 46.6413 240.055 46.128C240.288 45.6147 240.624 45.162 241.063 44.77C241.511 44.378 242.057 44.07 242.701 43.846C243.354 43.6127 244.106 43.496 244.955 43.496C245.916 43.496 246.789 43.65 247.573 43.958C248.357 44.266 249.015 44.686 249.547 45.218L248.875 46.31ZM271.318 43.496C272.373 43.496 273.325 43.6687 274.174 44.014C275.033 44.3593 275.761 44.8493 276.358 45.484C276.965 46.1187 277.432 46.8887 277.758 47.794C278.085 48.6993 278.248 49.7167 278.248 50.846C278.248 51.9753 278.085 52.9927 277.758 53.898C277.432 54.8033 276.965 55.578 276.358 56.222C275.761 56.8567 275.033 57.3467 274.174 57.692C273.325 58.0373 272.373 58.21 271.318 58.21C270.254 58.21 269.293 58.0373 268.434 57.692C267.585 57.3467 266.857 56.8567 266.25 56.222C265.644 55.578 265.177 54.8033 264.85 53.898C264.524 52.9927 264.36 51.9753 264.36 50.846C264.36 49.7167 264.524 48.6993 264.85 47.794C265.177 46.8887 265.644 46.1187 266.25 45.484C266.857 44.8493 267.585 44.3593 268.434 44.014C269.293 43.6687 270.254 43.496 271.318 43.496ZM271.318 55.858C272.606 55.858 273.563 55.4287 274.188 54.57C274.823 53.702 275.14 52.4653 275.14 50.86C275.14 49.2547 274.823 48.018 274.188 47.15C273.563 46.2727 272.606 45.834 271.318 45.834C270.012 45.834 269.041 46.2727 268.406 47.15C267.772 48.018 267.454 49.2547 267.454 50.86C267.454 52.4653 267.772 53.702 268.406 54.57C269.041 55.4287 270.012 55.858 271.318 55.858ZM286.95 37.28V49.292H287.594C287.8 49.292 287.968 49.264 288.098 49.208C288.229 49.152 288.364 49.0353 288.504 48.858L292.508 44.28C292.648 44.0933 292.802 43.9533 292.97 43.86C293.138 43.7667 293.353 43.72 293.614 43.72H296.344L291.528 49.152C291.248 49.516 290.94 49.8053 290.604 50.02C290.791 50.1507 290.954 50.3 291.094 50.468C291.234 50.6267 291.37 50.8087 291.5 51.014L296.638 58H293.95C293.708 58 293.498 57.9627 293.32 57.888C293.152 57.804 293.003 57.6547 292.872 57.44L288.742 51.84C288.602 51.6253 288.462 51.49 288.322 51.434C288.182 51.3687 287.972 51.336 287.692 51.336H286.95V58H283.94V37.28H286.95ZM308.999 51.756C307.926 51.7933 307.021 51.882 306.283 52.022C305.546 52.1527 304.949 52.3253 304.491 52.54C304.034 52.7453 303.703 52.9927 303.497 53.282C303.301 53.5713 303.203 53.8887 303.203 54.234C303.203 54.57 303.255 54.8593 303.357 55.102C303.469 55.3353 303.619 55.5313 303.805 55.69C304.001 55.8393 304.225 55.9513 304.477 56.026C304.739 56.0913 305.023 56.124 305.331 56.124C306.115 56.124 306.787 55.9793 307.347 55.69C307.917 55.3913 308.467 54.962 308.999 54.402V51.756ZM301.019 45.708C302.634 44.2053 304.557 43.454 306.787 43.454C307.609 43.454 308.337 43.5893 308.971 43.86C309.615 44.1213 310.152 44.4947 310.581 44.98C311.02 45.4653 311.351 46.044 311.575 46.716C311.809 47.3787 311.925 48.116 311.925 48.928V58H310.581C310.292 58 310.073 57.958 309.923 57.874C309.774 57.7807 309.648 57.5987 309.545 57.328L309.251 56.166C308.887 56.4927 308.528 56.7867 308.173 57.048C307.819 57.3 307.45 57.5147 307.067 57.692C306.694 57.8693 306.288 58 305.849 58.084C305.42 58.1773 304.944 58.224 304.421 58.224C303.843 58.224 303.301 58.1447 302.797 57.986C302.303 57.8273 301.873 57.5893 301.509 57.272C301.145 56.9453 300.856 56.544 300.641 56.068C300.436 55.592 300.333 55.032 300.333 54.388C300.333 53.8373 300.478 53.3007 300.767 52.778C301.066 52.2553 301.551 51.7887 302.223 51.378C302.905 50.958 303.796 50.6127 304.897 50.342C306.008 50.0713 307.375 49.9173 308.999 49.88V48.928C308.999 47.9013 308.78 47.136 308.341 46.632C307.903 46.128 307.259 45.876 306.409 45.876C305.831 45.876 305.345 45.9507 304.953 46.1C304.561 46.24 304.221 46.394 303.931 46.562C303.642 46.73 303.385 46.8887 303.161 47.038C302.937 47.178 302.699 47.248 302.447 47.248C302.242 47.248 302.065 47.1967 301.915 47.094C301.775 46.982 301.659 46.8467 301.565 46.688L301.019 45.708ZM330.539 43.72L322.671 62.06C322.568 62.2747 322.442 62.4427 322.293 62.564C322.153 62.6853 321.933 62.746 321.635 62.746H319.409L322.041 57.034L316.217 43.72H318.835C319.087 43.72 319.278 43.7807 319.409 43.902C319.549 44.014 319.651 44.1493 319.717 44.308L323.119 52.414C323.203 52.6473 323.277 52.8807 323.343 53.114C323.417 53.338 323.487 53.5713 323.553 53.814C323.627 53.5713 323.702 53.3333 323.777 53.1C323.851 52.8667 323.935 52.6333 324.029 52.4L327.291 44.308C327.356 44.14 327.463 44 327.613 43.888C327.771 43.776 327.944 43.72 328.131 43.72H330.539ZM335.602 57.986C335.332 57.986 335.084 57.9393 334.86 57.846C334.636 57.7433 334.44 57.608 334.272 57.44C334.114 57.2627 333.988 57.0573 333.894 56.824C333.81 56.5907 333.768 56.334 333.768 56.054C333.768 55.8113 333.81 55.5827 333.894 55.368C333.988 55.1533 334.114 54.9667 334.272 54.808C334.44 54.6493 334.636 54.528 334.86 54.444C335.094 54.3507 335.346 54.304 335.616 54.304C335.934 54.304 336.214 54.3647 336.456 54.486C336.699 54.598 336.9 54.7567 337.058 54.962C337.226 55.158 337.348 55.3913 337.422 55.662C337.506 55.9233 337.548 56.2033 337.548 56.502C337.548 56.9313 337.483 57.384 337.352 57.86C337.231 58.336 337.044 58.8073 336.792 59.274C336.55 59.75 336.246 60.212 335.882 60.66C335.528 61.108 335.122 61.5187 334.664 61.892L334.146 61.416C334.072 61.3413 334.016 61.2713 333.978 61.206C333.95 61.1407 333.936 61.0567 333.936 60.954C333.936 60.7953 334.016 60.646 334.174 60.506C334.268 60.4033 334.389 60.268 334.538 60.1C334.688 59.932 334.837 59.7407 334.986 59.526C335.136 59.3113 335.271 59.0733 335.392 58.812C335.523 58.5507 335.616 58.2753 335.672 57.986H335.602ZM229.509 77.72L221.641 96.06C221.538 96.2747 221.412 96.4427 221.263 96.564C221.123 96.6853 220.904 96.746 220.605 96.746H218.379L221.011 91.034L215.187 77.72H217.805C218.057 77.72 218.248 77.7807 218.379 77.902C218.519 78.014 218.622 78.1493 218.687 78.308L222.089 86.414C222.173 86.6473 222.248 86.8807 222.313 87.114C222.388 87.338 222.458 87.5713 222.523 87.814C222.598 87.5713 222.672 87.3333 222.747 87.1C222.822 86.8667 222.906 86.6333 222.999 86.4L226.261 78.308C226.326 78.14 226.434 78 226.583 77.888C226.742 77.776 226.914 77.72 227.101 77.72H229.509ZM240.032 77.496C241.086 77.496 242.038 77.6687 242.888 78.014C243.746 78.3593 244.474 78.8493 245.072 79.484C245.678 80.1187 246.145 80.8887 246.472 81.794C246.798 82.6993 246.962 83.7167 246.962 84.846C246.962 85.9753 246.798 86.9927 246.472 87.898C246.145 88.8033 245.678 89.578 245.072 90.222C244.474 90.8567 243.746 91.3467 242.888 91.692C242.038 92.0373 241.086 92.21 240.032 92.21C238.968 92.21 238.006 92.0373 237.148 91.692C236.298 91.3467 235.57 90.8567 234.964 90.222C234.357 89.578 233.89 88.8033 233.564 87.898C233.237 86.9927 233.074 85.9753 233.074 84.846C233.074 83.7167 233.237 82.6993 233.564 81.794C233.89 80.8887 234.357 80.1187 234.964 79.484C235.57 78.8493 236.298 78.3593 237.148 78.014C238.006 77.6687 238.968 77.496 240.032 77.496ZM240.032 89.858C241.32 89.858 242.276 89.4287 242.902 88.57C243.536 87.702 243.854 86.4653 243.854 84.86C243.854 83.2547 243.536 82.018 242.902 81.15C242.276 80.2727 241.32 79.834 240.032 79.834C238.725 79.834 237.754 80.2727 237.12 81.15C236.485 82.018 236.168 83.2547 236.168 84.86C236.168 86.4653 236.485 87.702 237.12 88.57C237.754 89.4287 238.725 89.858 240.032 89.858ZM264.694 77.72V92H262.874C262.472 92 262.216 91.8087 262.104 91.426L261.88 90.096C261.581 90.4133 261.264 90.7027 260.928 90.964C260.601 91.2253 260.251 91.4493 259.878 91.636C259.504 91.8227 259.103 91.9673 258.674 92.07C258.254 92.1727 257.801 92.224 257.316 92.224C256.532 92.224 255.841 92.0933 255.244 91.832C254.646 91.5707 254.142 91.202 253.732 90.726C253.33 90.25 253.027 89.6807 252.822 89.018C252.616 88.346 252.514 87.6087 252.514 86.806V77.72H255.524V86.806C255.524 87.7673 255.743 88.514 256.182 89.046C256.63 89.578 257.306 89.844 258.212 89.844C258.874 89.844 259.49 89.6947 260.06 89.396C260.638 89.088 261.18 88.668 261.684 88.136V77.72H264.694ZM273.207 70.496C273.627 71.2053 273.912 71.9473 274.061 72.722C274.21 73.4873 274.224 74.248 274.103 75.004C273.982 75.7507 273.725 76.4693 273.333 77.16C272.95 77.8507 272.437 78.4667 271.793 79.008L270.855 78.434C270.696 78.3313 270.622 78.2007 270.631 78.042C270.65 77.874 270.706 77.7433 270.799 77.65C271.014 77.3887 271.21 77.0573 271.387 76.656C271.564 76.2547 271.681 75.816 271.737 75.34C271.802 74.8547 271.788 74.346 271.695 73.814C271.611 73.282 271.41 72.7547 271.093 72.232C270.944 71.9893 270.902 71.7793 270.967 71.602C271.032 71.4247 271.168 71.2987 271.373 71.224L273.207 70.496ZM292.591 77.72L286.851 92H284.135L278.395 77.72H280.873C281.107 77.72 281.298 77.7807 281.447 77.902C281.606 78.014 281.709 78.1493 281.755 78.308L284.919 86.624C285.05 87.016 285.167 87.4033 285.269 87.786C285.372 88.1687 285.461 88.556 285.535 88.948C285.61 88.556 285.699 88.1733 285.801 87.8C285.913 87.4173 286.035 87.0253 286.165 86.624L289.385 78.308C289.441 78.14 289.544 78 289.693 77.888C289.843 77.776 290.025 77.72 290.239 77.72H292.591ZM306.404 83.25C306.404 82.746 306.329 82.2793 306.18 81.85C306.04 81.4113 305.83 81.0333 305.55 80.716C305.27 80.3893 304.92 80.1373 304.5 79.96C304.089 79.7733 303.613 79.68 303.072 79.68C301.98 79.68 301.121 79.9927 300.496 80.618C299.871 81.2433 299.474 82.1207 299.306 83.25H306.404ZM299.222 85.098C299.259 85.91 299.385 86.6147 299.6 87.212C299.815 87.8 300.099 88.29 300.454 88.682C300.818 89.074 301.247 89.368 301.742 89.564C302.246 89.7507 302.806 89.844 303.422 89.844C304.01 89.844 304.519 89.7787 304.948 89.648C305.377 89.508 305.751 89.3587 306.068 89.2C306.385 89.032 306.656 88.8827 306.88 88.752C307.104 88.612 307.309 88.542 307.496 88.542C307.739 88.542 307.925 88.6353 308.056 88.822L308.91 89.928C308.555 90.348 308.154 90.7027 307.706 90.992C307.258 91.2813 306.782 91.5193 306.278 91.706C305.774 91.8833 305.256 92.0093 304.724 92.084C304.192 92.168 303.674 92.21 303.17 92.21C302.181 92.21 301.261 92.0467 300.412 91.72C299.572 91.384 298.839 90.894 298.214 90.25C297.598 89.606 297.113 88.808 296.758 87.856C296.413 86.904 296.24 85.8073 296.24 84.566C296.24 83.5767 296.394 82.6527 296.702 81.794C297.019 80.9353 297.467 80.1887 298.046 79.554C298.634 78.9193 299.343 78.42 300.174 78.056C301.014 77.6827 301.961 77.496 303.016 77.496C303.893 77.496 304.705 77.6407 305.452 77.93C306.199 78.21 306.843 78.6253 307.384 79.176C307.925 79.7267 308.345 80.4033 308.644 81.206C308.952 81.9993 309.106 82.9047 309.106 83.922C309.106 84.3887 309.055 84.7013 308.952 84.86C308.849 85.0187 308.663 85.098 308.392 85.098H299.222ZM221.935 118.734C222.868 118.734 223.568 118.496 224.035 118.02C224.502 117.544 224.735 116.923 224.735 116.158C224.735 115.374 224.502 114.753 224.035 114.296C223.568 113.839 222.868 113.61 221.935 113.61C221.011 113.61 220.311 113.839 219.835 114.296C219.368 114.753 219.135 115.374 219.135 116.158C219.135 116.531 219.196 116.877 219.317 117.194C219.438 117.511 219.616 117.787 219.849 118.02C220.082 118.244 220.372 118.421 220.717 118.552C221.072 118.673 221.478 118.734 221.935 118.734ZM226.121 126.7C226.121 126.383 226.028 126.131 225.841 125.944C225.664 125.748 225.421 125.599 225.113 125.496C224.805 125.384 224.446 125.305 224.035 125.258C223.624 125.202 223.186 125.165 222.719 125.146C222.262 125.118 221.79 125.095 221.305 125.076C220.829 125.048 220.367 125.001 219.919 124.936C219.471 125.169 219.102 125.449 218.813 125.776C218.533 126.103 218.393 126.481 218.393 126.91C218.393 127.19 218.463 127.451 218.603 127.694C218.752 127.937 218.976 128.147 219.275 128.324C219.583 128.501 219.97 128.641 220.437 128.744C220.913 128.847 221.482 128.898 222.145 128.898C223.47 128.898 224.464 128.693 225.127 128.282C225.79 127.871 226.121 127.344 226.121 126.7ZM229.145 112.238V113.358C229.145 113.731 228.921 113.96 228.473 114.044L227.045 114.282C227.288 114.823 227.409 115.425 227.409 116.088C227.409 116.788 227.269 117.423 226.989 117.992C226.718 118.561 226.34 119.047 225.855 119.448C225.37 119.849 224.791 120.157 224.119 120.372C223.447 120.587 222.719 120.694 221.935 120.694C221.636 120.694 221.342 120.68 221.053 120.652C220.773 120.615 220.498 120.568 220.227 120.512C219.956 120.671 219.756 120.839 219.625 121.016C219.494 121.193 219.429 121.375 219.429 121.562C219.429 121.87 219.564 122.099 219.835 122.248C220.106 122.397 220.46 122.505 220.899 122.57C221.347 122.635 221.856 122.677 222.425 122.696C222.994 122.715 223.573 122.747 224.161 122.794C224.749 122.841 225.328 122.92 225.897 123.032C226.466 123.135 226.97 123.312 227.409 123.564C227.857 123.807 228.216 124.138 228.487 124.558C228.758 124.978 228.893 125.524 228.893 126.196C228.893 126.812 228.739 127.414 228.431 128.002C228.123 128.59 227.675 129.113 227.087 129.57C226.508 130.027 225.799 130.391 224.959 130.662C224.119 130.942 223.162 131.082 222.089 131.082C221.025 131.082 220.096 130.979 219.303 130.774C218.519 130.569 217.861 130.289 217.329 129.934C216.806 129.589 216.414 129.187 216.153 128.73C215.901 128.273 215.775 127.797 215.775 127.302C215.775 126.63 215.985 126.056 216.405 125.58C216.834 125.104 217.413 124.731 218.141 124.46C217.749 124.273 217.432 124.017 217.189 123.69C216.956 123.363 216.839 122.934 216.839 122.402C216.839 121.982 216.993 121.543 217.301 121.086C217.609 120.629 218.071 120.241 218.687 119.924C217.978 119.532 217.418 119.014 217.007 118.37C216.596 117.717 216.391 116.956 216.391 116.088C216.391 115.379 216.526 114.739 216.797 114.17C217.077 113.601 217.464 113.115 217.959 112.714C218.454 112.313 219.037 112.005 219.709 111.79C220.39 111.575 221.132 111.468 221.935 111.468C223.167 111.468 224.24 111.725 225.155 112.238H229.145ZM240.25 111.496C241.305 111.496 242.257 111.669 243.106 112.014C243.965 112.359 244.693 112.849 245.29 113.484C245.897 114.119 246.364 114.889 246.69 115.794C247.017 116.699 247.18 117.717 247.18 118.846C247.18 119.975 247.017 120.993 246.69 121.898C246.364 122.803 245.897 123.578 245.29 124.222C244.693 124.857 243.965 125.347 243.106 125.692C242.257 126.037 241.305 126.21 240.25 126.21C239.186 126.21 238.225 126.037 237.366 125.692C236.517 125.347 235.789 124.857 235.182 124.222C234.576 123.578 234.109 122.803 233.782 121.898C233.456 120.993 233.292 119.975 233.292 118.846C233.292 117.717 233.456 116.699 233.782 115.794C234.109 114.889 234.576 114.119 235.182 113.484C235.789 112.849 236.517 112.359 237.366 112.014C238.225 111.669 239.186 111.496 240.25 111.496ZM240.25 123.858C241.538 123.858 242.495 123.429 243.12 122.57C243.755 121.702 244.072 120.465 244.072 118.86C244.072 117.255 243.755 116.018 243.12 115.15C242.495 114.273 241.538 113.834 240.25 113.834C238.944 113.834 237.973 114.273 237.338 115.15C236.704 116.018 236.386 117.255 236.386 118.86C236.386 120.465 236.704 121.702 237.338 122.57C237.973 123.429 238.944 123.858 240.25 123.858ZM257.177 126.224C255.992 126.224 255.077 125.893 254.433 125.23C253.798 124.558 253.481 123.615 253.481 122.402V114.086H251.913C251.745 114.086 251.6 114.035 251.479 113.932C251.358 113.82 251.297 113.657 251.297 113.442V112.224L253.607 111.888L254.265 107.758C254.312 107.599 254.391 107.473 254.503 107.38C254.615 107.277 254.764 107.226 254.951 107.226H256.491V111.916H260.453V114.086H256.491V122.192C256.491 122.705 256.617 123.097 256.869 123.368C257.121 123.639 257.457 123.774 257.877 123.774C258.11 123.774 258.311 123.746 258.479 123.69C258.647 123.625 258.792 123.559 258.913 123.494C259.034 123.419 259.137 123.354 259.221 123.298C259.314 123.233 259.403 123.2 259.487 123.2C259.655 123.2 259.79 123.293 259.893 123.48L260.789 124.95C260.322 125.361 259.772 125.678 259.137 125.902C258.502 126.117 257.849 126.224 257.177 126.224ZM278.534 111.72V126H275.524V111.72H278.534ZM279.038 107.408C279.038 107.679 278.982 107.935 278.87 108.178C278.768 108.421 278.623 108.635 278.436 108.822C278.25 108.999 278.03 109.144 277.778 109.256C277.536 109.359 277.274 109.41 276.994 109.41C276.724 109.41 276.467 109.359 276.224 109.256C275.991 109.144 275.786 108.999 275.608 108.822C275.431 108.635 275.286 108.421 275.174 108.178C275.072 107.935 275.02 107.679 275.02 107.408C275.02 107.128 275.072 106.867 275.174 106.624C275.286 106.381 275.431 106.171 275.608 105.994C275.786 105.807 275.991 105.663 276.224 105.56C276.467 105.448 276.724 105.392 276.994 105.392C277.274 105.392 277.536 105.448 277.778 105.56C278.03 105.663 278.25 105.807 278.436 105.994C278.623 106.171 278.768 106.381 278.87 106.624C278.982 106.867 279.038 107.128 279.038 107.408ZM289.694 126.224C288.509 126.224 287.594 125.893 286.95 125.23C286.316 124.558 285.998 123.615 285.998 122.402V114.086H284.43C284.262 114.086 284.118 114.035 283.996 113.932C283.875 113.82 283.814 113.657 283.814 113.442V112.224L286.124 111.888L286.782 107.758C286.829 107.599 286.908 107.473 287.02 107.38C287.132 107.277 287.282 107.226 287.468 107.226H289.008V111.916H292.97V114.086H289.008V122.192C289.008 122.705 289.134 123.097 289.386 123.368C289.638 123.639 289.974 123.774 290.394 123.774C290.628 123.774 290.828 123.746 290.996 123.69C291.164 123.625 291.309 123.559 291.43 123.494C291.552 123.419 291.654 123.354 291.738 123.298C291.832 123.233 291.92 123.2 292.004 123.2C292.172 123.2 292.308 123.293 292.41 123.48L293.306 124.95C292.84 125.361 292.289 125.678 291.654 125.902C291.02 126.117 290.366 126.224 289.694 126.224ZM221.417 160.224C220.232 160.224 219.317 159.893 218.673 159.23C218.038 158.558 217.721 157.615 217.721 156.402V148.086H216.153C215.985 148.086 215.84 148.035 215.719 147.932C215.598 147.82 215.537 147.657 215.537 147.442V146.224L217.847 145.888L218.505 141.758C218.552 141.599 218.631 141.473 218.743 141.38C218.855 141.277 219.004 141.226 219.191 141.226H220.731V145.916H224.693V148.086H220.731V156.192C220.731 156.705 220.857 157.097 221.109 157.368C221.361 157.639 221.697 157.774 222.117 157.774C222.35 157.774 222.551 157.746 222.719 157.69C222.887 157.625 223.032 157.559 223.153 157.494C223.274 157.419 223.377 157.354 223.461 157.298C223.554 157.233 223.643 157.2 223.727 157.2C223.895 157.2 224.03 157.293 224.133 157.48L225.029 158.95C224.562 159.361 224.012 159.678 223.377 159.902C222.742 160.117 222.089 160.224 221.417 160.224ZM232.875 147.414C233.463 146.835 234.107 146.373 234.807 146.028C235.507 145.673 236.324 145.496 237.257 145.496C238.041 145.496 238.727 145.627 239.315 145.888C239.913 146.149 240.412 146.518 240.813 146.994C241.224 147.47 241.532 148.044 241.737 148.716C241.943 149.379 242.045 150.111 242.045 150.914V160H239.049V150.914C239.049 149.953 238.825 149.206 238.377 148.674C237.939 148.142 237.267 147.876 236.361 147.876C235.689 147.876 235.064 148.03 234.485 148.338C233.916 148.646 233.379 149.066 232.875 149.598V160H229.865V139.28H232.875V147.414ZM251.497 145.72V160H248.487V145.72H251.497ZM252.001 141.408C252.001 141.679 251.945 141.935 251.833 142.178C251.73 142.421 251.585 142.635 251.399 142.822C251.212 142.999 250.993 143.144 250.741 143.256C250.498 143.359 250.237 143.41 249.957 143.41C249.686 143.41 249.429 143.359 249.187 143.256C248.953 143.144 248.748 142.999 248.571 142.822C248.393 142.635 248.249 142.421 248.137 142.178C248.034 141.935 247.983 141.679 247.983 141.408C247.983 141.128 248.034 140.867 248.137 140.624C248.249 140.381 248.393 140.171 248.571 139.994C248.748 139.807 248.953 139.663 249.187 139.56C249.429 139.448 249.686 139.392 249.957 139.392C250.237 139.392 250.498 139.448 250.741 139.56C250.993 139.663 251.212 139.807 251.399 139.994C251.585 140.171 251.73 140.381 251.833 140.624C251.945 140.867 252.001 141.128 252.001 141.408ZM266.605 148.31C266.53 148.441 266.446 148.534 266.353 148.59C266.259 148.646 266.143 148.674 266.003 148.674C265.844 148.674 265.671 148.627 265.485 148.534C265.298 148.431 265.079 148.319 264.827 148.198C264.575 148.077 264.276 147.969 263.931 147.876C263.595 147.773 263.198 147.722 262.741 147.722C262.367 147.722 262.027 147.769 261.719 147.862C261.42 147.946 261.163 148.072 260.949 148.24C260.743 148.399 260.585 148.59 260.473 148.814C260.361 149.029 260.305 149.262 260.305 149.514C260.305 149.85 260.407 150.13 260.613 150.354C260.818 150.578 261.089 150.774 261.425 150.942C261.761 151.101 262.143 151.245 262.573 151.376C263.002 151.507 263.441 151.647 263.889 151.796C264.337 151.945 264.775 152.118 265.205 152.314C265.634 152.51 266.017 152.753 266.353 153.042C266.689 153.322 266.959 153.667 267.165 154.078C267.37 154.479 267.473 154.969 267.473 155.548C267.473 156.22 267.351 156.841 267.109 157.41C266.866 157.979 266.511 158.474 266.045 158.894C265.578 159.314 264.995 159.641 264.295 159.874C263.604 160.107 262.811 160.224 261.915 160.224C261.42 160.224 260.939 160.177 260.473 160.084C260.015 160 259.577 159.883 259.157 159.734C258.746 159.575 258.359 159.389 257.995 159.174C257.64 158.959 257.323 158.726 257.043 158.474L257.743 157.326C257.827 157.186 257.929 157.079 258.051 157.004C258.181 156.92 258.34 156.878 258.527 156.878C258.723 156.878 258.914 156.943 259.101 157.074C259.297 157.195 259.521 157.331 259.773 157.48C260.034 157.629 260.347 157.769 260.711 157.9C261.075 158.021 261.527 158.082 262.069 158.082C262.517 158.082 262.904 158.031 263.231 157.928C263.557 157.816 263.828 157.667 264.043 157.48C264.257 157.293 264.416 157.083 264.519 156.85C264.621 156.607 264.673 156.351 264.673 156.08C264.673 155.716 264.57 155.417 264.365 155.184C264.159 154.951 263.884 154.75 263.539 154.582C263.203 154.414 262.815 154.265 262.377 154.134C261.947 154.003 261.509 153.863 261.061 153.714C260.613 153.565 260.169 153.392 259.731 153.196C259.301 153 258.914 152.753 258.569 152.454C258.233 152.146 257.962 151.777 257.757 151.348C257.551 150.909 257.449 150.377 257.449 149.752C257.449 149.183 257.561 148.641 257.785 148.128C258.018 147.615 258.354 147.162 258.793 146.77C259.241 146.378 259.787 146.07 260.431 145.846C261.084 145.613 261.835 145.496 262.685 145.496C263.646 145.496 264.519 145.65 265.303 145.958C266.087 146.266 266.745 146.686 267.277 147.218L266.605 148.31ZM296.734 160H293.724V148.086H286.766V156.192C286.766 156.705 286.892 157.097 287.144 157.368C287.396 157.639 287.732 157.774 288.152 157.774C288.385 157.774 288.586 157.746 288.754 157.69C288.922 157.625 289.067 157.559 289.188 157.494C289.309 157.419 289.412 157.354 289.496 157.298C289.589 157.233 289.678 157.2 289.762 157.2C289.93 157.2 290.065 157.293 290.168 157.48L291.064 158.95C290.597 159.361 290.047 159.678 289.412 159.902C288.777 160.117 288.124 160.224 287.452 160.224C286.267 160.224 285.352 159.893 284.708 159.23C284.073 158.558 283.756 157.615 283.756 156.402V148.086H282.188C282.02 148.086 281.875 148.035 281.754 147.932C281.633 147.82 281.572 147.657 281.572 147.442V146.224L283.882 145.888L284.54 141.758C284.587 141.599 284.666 141.473 284.778 141.38C284.89 141.277 285.039 141.226 285.226 141.226H286.766V145.916H296.734V160ZM297.35 141.338C297.35 141.609 297.294 141.865 297.182 142.108C297.079 142.341 296.935 142.551 296.748 142.738C296.561 142.915 296.342 143.06 296.09 143.172C295.847 143.275 295.591 143.326 295.32 143.326C295.049 143.326 294.793 143.275 294.55 143.172C294.317 143.06 294.107 142.915 293.92 142.738C293.743 142.551 293.598 142.341 293.486 142.108C293.383 141.865 293.332 141.609 293.332 141.338C293.332 141.058 293.383 140.797 293.486 140.554C293.598 140.302 293.743 140.087 293.92 139.91C294.107 139.723 294.317 139.579 294.55 139.476C294.793 139.364 295.049 139.308 295.32 139.308C295.591 139.308 295.847 139.364 296.09 139.476C296.342 139.579 296.561 139.723 296.748 139.91C296.935 140.087 297.079 140.302 297.182 140.554C297.294 140.797 297.35 141.058 297.35 141.338ZM303.338 160V145.72H305.158C305.569 145.72 305.83 145.911 305.942 146.294L306.138 147.54C306.399 147.241 306.67 146.971 306.95 146.728C307.23 146.476 307.529 146.261 307.846 146.084C308.173 145.897 308.518 145.753 308.882 145.65C309.255 145.547 309.657 145.496 310.086 145.496C310.543 145.496 310.963 145.561 311.346 145.692C311.729 145.823 312.065 146.009 312.354 146.252C312.653 146.495 312.909 146.789 313.124 147.134C313.339 147.479 313.516 147.867 313.656 148.296C313.871 147.801 314.141 147.377 314.468 147.022C314.795 146.667 315.159 146.378 315.56 146.154C315.961 145.93 316.386 145.767 316.834 145.664C317.291 145.552 317.753 145.496 318.22 145.496C318.985 145.496 319.667 145.617 320.264 145.86C320.871 146.103 321.379 146.457 321.79 146.924C322.21 147.381 322.527 147.946 322.742 148.618C322.957 149.29 323.064 150.055 323.064 150.914V160H320.054V150.914C320.054 149.906 319.835 149.15 319.396 148.646C318.967 148.133 318.327 147.876 317.478 147.876C317.095 147.876 316.736 147.941 316.4 148.072C316.064 148.203 315.77 148.394 315.518 148.646C315.266 148.898 315.065 149.215 314.916 149.598C314.776 149.971 314.706 150.41 314.706 150.914V160H311.696V150.914C311.696 149.869 311.486 149.103 311.066 148.618C310.646 148.123 310.03 147.876 309.218 147.876C308.658 147.876 308.14 148.021 307.664 148.31C307.188 148.59 306.749 148.977 306.348 149.472V160H303.338ZM338.746 151.25C338.746 150.746 338.672 150.279 338.522 149.85C338.382 149.411 338.172 149.033 337.892 148.716C337.612 148.389 337.262 148.137 336.842 147.96C336.432 147.773 335.956 147.68 335.414 147.68C334.322 147.68 333.464 147.993 332.838 148.618C332.213 149.243 331.816 150.121 331.648 151.25H338.746ZM331.564 153.098C331.602 153.91 331.728 154.615 331.942 155.212C332.157 155.8 332.442 156.29 332.796 156.682C333.16 157.074 333.59 157.368 334.084 157.564C334.588 157.751 335.148 157.844 335.764 157.844C336.352 157.844 336.861 157.779 337.29 157.648C337.72 157.508 338.093 157.359 338.41 157.2C338.728 157.032 338.998 156.883 339.222 156.752C339.446 156.612 339.652 156.542 339.838 156.542C340.081 156.542 340.268 156.635 340.398 156.822L341.252 157.928C340.898 158.348 340.496 158.703 340.048 158.992C339.6 159.281 339.124 159.519 338.62 159.706C338.116 159.883 337.598 160.009 337.066 160.084C336.534 160.168 336.016 160.21 335.512 160.21C334.523 160.21 333.604 160.047 332.754 159.72C331.914 159.384 331.182 158.894 330.556 158.25C329.94 157.606 329.455 156.808 329.1 155.856C328.755 154.904 328.582 153.807 328.582 152.566C328.582 151.577 328.736 150.653 329.044 149.794C329.362 148.935 329.81 148.189 330.388 147.554C330.976 146.919 331.686 146.42 332.516 146.056C333.356 145.683 334.304 145.496 335.358 145.496C336.236 145.496 337.048 145.641 337.794 145.93C338.541 146.21 339.185 146.625 339.726 147.176C340.268 147.727 340.688 148.403 340.986 149.206C341.294 149.999 341.448 150.905 341.448 151.922C341.448 152.389 341.397 152.701 341.294 152.86C341.192 153.019 341.005 153.098 340.734 153.098H331.564ZM350.513 139.84V147.848C350.513 148.688 350.476 149.514 350.401 150.326C350.327 151.129 350.229 151.997 350.107 152.93H348.077C347.947 151.997 347.844 151.129 347.769 150.326C347.704 149.514 347.671 148.688 347.671 147.848V139.84H350.513ZM347.097 158.264C347.097 157.993 347.144 157.741 347.237 157.508C347.34 157.265 347.48 157.055 347.657 156.878C347.835 156.701 348.04 156.561 348.273 156.458C348.507 156.355 348.763 156.304 349.043 156.304C349.314 156.304 349.566 156.355 349.799 156.458C350.042 156.561 350.247 156.701 350.415 156.878C350.593 157.055 350.733 157.265 350.835 157.508C350.938 157.741 350.989 157.993 350.989 158.264C350.989 158.544 350.938 158.801 350.835 159.034C350.733 159.267 350.593 159.473 350.415 159.65C350.247 159.827 350.042 159.963 349.799 160.056C349.566 160.159 349.314 160.21 349.043 160.21C348.763 160.21 348.507 160.159 348.273 160.056C348.04 159.963 347.835 159.827 347.657 159.65C347.48 159.473 347.34 159.267 347.237 159.034C347.144 158.801 347.097 158.544 347.097 158.264Z" fill="black"/>
<g filter="url(#filter1_d_281_69)">
<path d="M38.8989 84.863C41.0921 87.4743 38.8989 92.8551 50.8372 88.5432C50.1649 84.5573 33.2716 44.8311 10.356 42.665C10.2784 43.5668 10.2826 45.6264 10.9199 46.6503C11.2975 45.7743 11.0492 45.1472 12.1716 46.1523C12.7717 46.2039 10.6872 49.3557 11.1321 51.211C12.1097 50.3866 12.658 51.0394 10.8735 54.217C13.8321 51.4432 14.2926 56.6309 16.3926 56.8116C15.7926 56.76 11.4891 57.6011 19.2014 62.8069C17.8307 61.1749 17.6858 59.3455 21.4049 61.7852C21.8757 63.3398 19.5429 65.8646 24.6069 70.237C23.0137 67.6773 24.6172 66.6039 26.2982 64.6287C27.6689 66.2607 26.0655 67.3341 28.207 70.5466C28.388 68.4424 29.1234 65.8053 31.4357 70.5466C32.1354 71.9816 32.7777 72.548 33.1328 72.7472C32.5654 72.6963 31.1008 72.8636 28.207 74.4118C39.0366 76.8182 35.7726 77.5277 35.3656 77.3269C35.5556 77.1146 35.6343 77.0668 35.4317 77.1783C35.3078 77.2465 35.3047 77.2969 35.3656 77.3269C34.6629 78.1123 32.4368 81.1489 37.276 86.7073C37.1336 81.3359 36.0465 81.4817 38.8989 81.4817C42.7353 81.4817 44.2993 88.8374 38.8989 84.863Z" fill="white"/>
<path d="M10.356 42.665C10.2784 43.5668 10.2826 45.6264 10.9199 46.6503C11.2975 45.7743 11.0492 45.1472 12.1716 46.1523C12.7717 46.2039 10.6872 49.3557 11.1321 51.211C12.1097 50.3866 12.658 51.0394 10.8735 54.217C13.8321 51.4432 14.2926 56.6309 16.3926 56.8116C15.7926 56.76 11.4891 57.6011 19.2014 62.8069C17.8307 61.1749 17.6858 59.3455 21.4049 61.7852C21.8757 63.3398 19.5429 65.8646 24.6069 70.237C23.0137 67.6773 24.6172 66.6039 26.2982 64.6287C27.6689 66.2607 26.0655 67.3341 28.207 70.5466C28.388 68.4424 29.1234 65.8053 31.4357 70.5466C33.7479 75.288 35.4317 70.5466 28.207 74.4118C40.6573 77.1783 34.48 77.7021 35.4317 77.1783C36.3834 76.6545 31.1283 79.6459 37.276 86.7073C37.1336 81.3359 36.0465 81.4817 38.8989 81.4817C42.7353 81.4817 44.2993 88.8374 38.8989 84.863C41.0921 87.4743 38.8989 92.8551 50.8372 88.5432C50.1649 84.5573 33.2716 44.8311 10.356 42.665Z" stroke="black" stroke-width="2"/>
<path d="M59.1001 329.344C165.104 281.332 208.031 294.747 214.375 304.957C214.675 305.391 214.794 305.741 214.794 305.741C214.679 305.482 214.539 305.221 214.375 304.957C213.485 303.664 211.004 301.614 205.35 305.741C212.467 305.741 213.445 307.516 223.429 311.68C212.096 311.68 230.175 316.54 230.175 329.344C212.096 317.62 195.906 344.889 238 331.389C211.286 369.458 164.065 327.299 135.733 329.344C144.637 335.824 147.875 339.056 157.32 338.336C136.812 347.245 128.717 331.389 99.3053 338.336C68.0046 331.389 62.2246 344.975 59.1001 329.344Z" fill="#C2E2E8"/>
<path d="M59.1001 329.344C167.843 280.092 210.207 295.481 214.794 305.741C214.794 305.741 212.905 300.226 205.35 305.741C212.467 305.741 213.445 307.516 223.429 311.68C212.096 311.68 230.175 316.54 230.175 329.344C212.096 317.62 195.906 344.889 238 331.389C211.286 369.458 164.065 327.299 135.733 329.344C144.637 335.824 147.875 339.056 157.32 338.336C136.812 347.245 128.717 331.389 99.3053 338.336C68.0046 331.389 62.2246 344.975 59.1001 329.344Z" stroke="#2E234A" stroke-width="2"/>
<path d="M51.451 366.669C51.4902 367.101 51.437 367.568 51.1639 368.142C49.9214 369.082 48.9634 369.688 48.2213 370.056C47.4355 370.445 46.9617 370.533 46.6909 370.526C46.3124 370.515 46.1358 370.335 45.6566 369.525C45.6449 369.505 45.6329 369.485 45.6206 369.464C45.3674 369.034 44.9842 368.383 44.3551 367.966L43.3821 367.319L42.8935 368.38C41.6639 371.051 40.3011 372.397 39.3108 372.774C38.8575 372.947 38.526 372.906 38.2664 372.763C37.9812 372.607 37.6359 372.246 37.3527 371.51L36.3407 368.878L35.4696 371.555C35.4688 371.555 35.4378 371.624 35.3228 371.763C35.204 371.907 35.0328 372.08 34.8129 372.269C34.3727 372.647 33.7899 373.042 33.1668 373.349C32.5361 373.66 31.9225 373.852 31.4108 373.885C31.1098 373.904 30.8757 373.868 30.6914 373.79C30.7367 372.744 30.9242 372.236 31.1237 371.938C31.3595 371.586 31.6971 371.377 32.4243 370.972L32.4383 370.964C33.04 370.629 33.8102 370.201 34.6474 369.467C35.4928 368.727 36.3792 367.701 37.2801 366.179L37.312 366.125L37.3369 366.067C37.8094 364.977 38.5378 364.003 39.4114 362.845L39.4343 362.815C40.754 361.066 42.3048 359.011 43.1151 355.918C43.9204 352.845 43.9739 348.847 42.5601 343.178C43.1159 339.769 42.1806 336.033 40.4202 332.246L40.3489 332.092L40.231 331.971C34.721 326.294 29.096 318.927 24.0351 310.414C23.9376 310.195 23.8398 309.979 23.7419 309.764L23.6773 309.623L23.5729 309.508C22.1006 307.885 20.6433 306.306 19.2462 304.792C18.0826 303.531 16.9615 302.317 15.9056 301.157C16.4334 301.26 16.9996 301.432 17.6061 301.672L20.1749 302.69L18.8524 300.264C15.1283 293.432 12.1415 287.668 12.1138 278.19C13.0796 274.572 12.1525 271.413 11.3879 268.809L11.3669 268.737C10.7778 266.73 10.3393 265.17 10.5586 263.748C10.7598 262.445 11.5572 261.09 13.9568 259.665C15.477 258.762 17.42 258.548 19.7694 259.077C22.1255 259.607 24.8215 260.873 27.7386 262.83L28.7614 263.516L29.2228 262.374C34.1986 250.061 43.1548 235.852 53.5571 224.732C58.7561 219.175 64.2932 214.415 69.8479 211.05C75.2532 207.775 80.6214 205.853 85.6816 205.749C97.4777 218.564 106.43 227.78 113.189 234.738L113.189 234.738C118.924 240.643 123.053 244.894 126.011 248.343C128.225 250.926 129.748 253.02 130.783 254.976C130.096 254.845 129.499 254.82 128.988 254.903C128.471 254.988 127.998 255.192 127.634 255.555C127.268 255.92 127.087 256.369 127.024 256.81C126.904 257.639 127.182 258.531 127.524 259.253C127.879 260.003 128.382 260.732 128.903 261.283C133.845 266.504 134.738 273.804 132.695 282.05C130.651 290.299 125.697 299.326 119.216 307.719C112.741 316.104 104.789 323.794 96.8166 329.379C88.8716 334.946 81.0365 338.331 74.6873 338.379C72.6758 337.799 70.6884 337.103 68.7325 336.303L67.5836 335.833L67.369 337.055C66.8132 340.222 65.5565 342.354 63.7148 343.447C62.4098 344.222 60.7981 344.489 58.8842 344.217L57.8879 344.075L57.7526 345.072C57.2925 348.464 56.2146 351.151 54.5329 353.069C51.8766 356.099 50.6916 358.411 50.3464 360.358C49.9991 362.316 50.5332 363.766 50.9532 364.906L50.9665 364.943C51.2215 365.635 51.4036 366.147 51.451 366.669Z" fill="#C2E2E8" stroke="#2E234A" stroke-width="2"/>
<path d="M121.183 328.681L121.11 328.719L121.043 328.769C119.538 329.897 118.047 330.949 116.579 331.921L116.447 332.009L116.348 332.133C115.812 332.81 115.443 333.582 115.39 334.454L115.387 334.493L115.388 334.532C115.447 338.045 116.267 340.895 117.654 343.213C119.04 345.53 120.959 347.263 123.14 348.595C127.435 351.216 132.853 352.335 137.434 353.28L137.519 353.298C139.423 353.691 141.174 354.053 142.695 354.478C144.225 354.906 145.434 355.376 146.285 355.946C147.112 356.501 147.531 357.1 147.643 357.81C147.752 358.501 147.598 359.461 146.926 360.81C146.218 360.964 145.811 360.911 145.549 360.818C145.226 360.703 144.958 360.472 144.542 360.017L143.957 359.377L143.24 359.865C142.534 360.346 141.86 360.695 141.243 360.79C140.698 360.873 140.153 360.769 139.573 360.2L139.159 359.794L138.6 359.952C137.865 360.161 134.887 360.753 131.252 361.086C127.8 361.402 123.886 361.472 120.806 360.815C119.41 357.562 115.711 356.021 111.611 355.222C107.227 354.368 101.891 354.269 97.0443 354.179L96.9869 354.178C92.137 354.088 87.8688 354.001 85.2292 353.278C83.8853 352.91 83.2655 352.452 83.0498 352.036C82.8736 351.696 82.8059 351.037 83.6112 349.735C84.6918 347.988 86.2117 346.491 87.855 344.88C88.0358 344.702 88.218 344.524 88.3999 344.344L90.3278 342.443L87.6272 342.635C87.1695 342.667 86.7195 342.683 86.2774 342.683H86.2379L86.1986 342.687C78.3659 343.306 72.9668 342.311 69.3086 340.269C65.6917 338.25 63.6624 335.142 62.6836 331.245C61.6953 327.311 61.7859 322.592 62.4455 317.455C63.1042 312.326 64.3163 306.872 65.5158 301.478L65.5356 301.389C67.1831 293.981 68.8149 286.644 68.8149 280.669C68.8149 269.304 69.4368 251.51 73.4642 236.584C75.4785 229.119 78.3231 222.457 82.299 217.678C86.1606 213.036 91.0779 210.177 97.4104 210.052C109.206 222.866 118.159 232.083 124.917 239.041L124.918 239.042C130.653 244.946 134.782 249.198 137.74 252.647C139.954 255.229 141.477 257.323 142.512 259.279C141.825 259.149 141.228 259.123 140.717 259.207C140.2 259.291 139.728 259.496 139.363 259.858C138.997 260.223 138.816 260.673 138.753 261.113C138.633 261.943 138.911 262.834 139.253 263.556C139.608 264.307 140.111 265.036 140.632 265.586C141.592 266.6 142.395 267.688 143.054 268.839L143.475 269.576L144.27 269.281C147.351 268.137 149.944 267.665 151.907 267.878C153.811 268.085 155.068 268.918 155.735 270.429C157.689 274.864 157.307 279.098 155.438 283.68C153.547 288.316 150.176 293.21 146.236 298.919L146.228 298.93C143.298 303.176 140.079 307.84 137.024 313.088L135.664 315.424L138.217 314.536C140.487 313.746 143.009 312.752 145.866 311.512C144.382 314.788 141.772 317.434 138.62 319.676C134.806 322.39 130.299 324.443 126.244 326.286L126.229 326.293C124.417 327.117 122.688 327.903 121.183 328.681Z" fill="#439BA8" stroke="#2E234A" stroke-width="2"/>
<path d="M96.8318 400.977C95.7306 401.037 94.5216 400.352 93.4351 398.999C92.8621 388.691 95.7353 383.143 97.9467 378.873L97.9543 378.858L98.0225 378.726C99.2561 376.345 100.406 374.125 100.406 371.663C100.406 366.748 98.9263 357.944 97.2554 348.002L97.2322 347.863C95.9073 339.98 94.4535 331.327 93.4689 323.148C94.9495 316.825 95.5797 309.173 95.6049 301.485L95.6097 300.014L94.2403 300.55C87.5617 303.165 81.7574 302.942 76.5235 300.805L75.1615 300.249L75.1457 301.72C75.0609 309.611 75.6079 317.282 76.8465 323.143C75.7704 333.119 73.9379 343.85 72.4175 352.751L72.4154 352.763C71.6283 357.371 70.9236 361.497 70.4554 364.756C70.2211 366.387 70.044 367.815 69.9456 368.986C69.8491 370.135 69.8212 371.111 69.9163 371.8C71.7352 384.981 69.5427 393.355 67.2746 397.045C66.8127 397.796 65.8843 398.52 64.627 399.085C63.3877 399.641 61.9317 399.995 60.5509 400.078C59.1536 400.162 57.938 399.963 57.1138 399.52C56.3506 399.111 55.9197 398.506 55.9197 397.568H54.9197H53.9197C53.9197 397.862 53.6915 398.32 52.9464 398.758C52.2351 399.176 51.2447 399.445 50.2429 399.43C49.2441 399.415 48.3278 399.121 47.6731 398.529C47.0396 397.955 46.5359 396.999 46.5359 395.41V393.082L44.8475 394.684C43.9755 395.512 43.1077 395.812 42.2943 395.835C41.4553 395.858 40.5916 395.586 39.7687 395.127C38.9481 394.67 38.2167 394.054 37.665 393.467C37.0815 392.846 36.8032 392.37 36.7564 392.225C36.7299 392.142 36.7146 392.012 36.8735 391.759C37.0477 391.481 37.3882 391.136 37.9411 390.742C39.0413 389.958 40.7289 389.158 42.7377 388.393C46.7342 386.871 51.7356 385.589 55.1257 384.875L55.9197 384.708V383.896V295.387V295.234L55.8738 295.088C54.3465 290.223 49.4237 277.595 41.8615 265.707C40.1448 263.009 39.0746 260.176 38.4817 257.346L38.43 257.099L38.2672 256.906C33.0151 250.682 28.057 243.613 27.961 236.025C28.8706 234.118 29.642 232.337 30.2139 230.811C30.7977 229.253 31.2028 227.886 31.3025 226.907C31.3484 226.456 31.3565 225.875 31.0985 225.398C30.9485 225.121 30.6998 224.866 30.3392 224.737C29.9989 224.616 29.6689 224.646 29.4103 224.714C28.9234 224.841 28.4305 225.17 27.9576 225.559C27.8271 225.667 27.6911 225.785 27.5495 225.914C27.5323 225.675 27.5214 225.414 27.5184 225.13C27.5062 223.966 27.6268 222.524 27.9067 220.917C28.467 217.701 29.6525 213.899 31.6081 210.43C32.7865 208.34 34.0275 206.054 35.3346 203.647L35.3374 203.641C40.816 193.55 47.4781 181.287 55.9149 171.54C64.3464 161.799 74.4156 154.727 86.6876 154.718C96.6562 155.185 105.823 160.737 113.851 167.963C121.876 175.185 128.638 183.964 133.812 190.683L133.856 190.74C136.238 193.834 138.309 196.524 139.999 198.382C138.563 200.316 137.944 201.857 138.074 203.264C138.213 204.764 139.202 205.84 140.035 206.747C140.066 206.781 140.096 206.814 140.127 206.848C141.056 207.862 141.981 208.883 142.518 210.446C143.052 211.999 143.235 214.198 142.4 217.57L142.32 217.895L142.451 218.202C143.706 221.144 143.524 223.909 142.529 226.737C141.517 229.611 139.691 232.486 137.689 235.627L137.679 235.643C136.385 237.674 135.028 239.803 133.843 242.045L133.568 242.567L133.891 243.06C134.005 243.235 134.125 243.413 134.249 243.594C135.037 248.902 135.114 252.518 134.703 255.329C134.289 258.155 133.376 260.223 132.098 262.438L131.858 262.854L132.033 263.301C132.177 263.672 132.332 264.046 132.497 264.422C130.316 267.415 128.194 270.204 126.128 272.798L126.059 272.884L126.011 272.984C124.155 276.804 122.205 281.751 120.336 288.649C112.313 318.262 109.18 364.049 109.18 370.224V370.263L109.183 370.302C109.696 376.888 111.284 381.614 113.214 385.173C115.136 388.717 117.377 391.06 119.109 392.87L119.122 392.885C120.423 394.245 121.308 395.187 121.734 396.107C121.931 396.534 122.014 396.929 121.988 397.34C121.964 397.734 121.835 398.201 121.528 398.776C120.803 399.548 120.124 400.214 119.466 400.718C118.779 401.244 118.177 401.544 117.636 401.638C116.714 401.797 115.467 401.413 113.801 398.826L111.96 395.967V399.367C111.96 401.76 110.245 403.438 108.387 403.541C106.631 403.638 104.135 402.301 102.805 397.311L102.134 394.794L100.948 397.113C99.4484 400.046 97.9547 400.916 96.8318 400.977Z" fill="#C2E2E8" stroke="#2E234A" stroke-width="2"/>
<path d="M58.5115 56.2544C66.1962 56.2544 74.1883 53.4879 89.8651 56.2544C96.0129 52.2583 122.756 27.6673 143.658 29.5116C152.265 27.0525 158.515 18.4456 156.876 29.5116C155.646 37.8111 123.959 53.5092 128.596 65.19C133.599 77.7929 111.69 78.1003 111.69 81.1528C115.378 83.9193 123.37 96.2148 128.596 96.2148C133.822 96.2148 129.211 98.3665 115.686 92.5261C125.829 103.899 129.826 114.965 111.69 134.638C119.989 140.786 123.985 130.95 128.596 134.638C123.678 136.483 125.522 139.556 123.678 141.401C134.129 150.008 131.055 163.533 125.829 165.684C131.977 170.295 128.596 170.603 132.285 174.906C127.801 182.807 124.206 184.477 123.254 184.761C123.36 184.75 123.5 184.742 123.678 184.742C128.596 189.661 129.826 191.812 130.133 193.964C128.596 210.256 75.4179 213.637 77.2622 246.22C42.22 233.31 45.2938 188.431 54.2081 184.742C42.22 174.906 42.8347 182.898 40.0683 184.742C45.9086 169.373 61.278 160.459 54.2081 154.004C47.1382 147.549 46.5234 148.778 54.2081 141.401C46.5234 138.02 68.0405 130.95 46.5234 128.183C46.5234 125.109 48.0603 123.88 45.2938 122.035C45.2938 117.117 43.0177 117.732 43.4495 114.965C44.4972 108.253 45.6012 107.588 50.8268 101.44C46.752 103.592 47.0594 105.744 40.0683 107.588C45.2938 101.133 45.2938 92.5261 45.2938 81.1528C40.0683 71.3164 40.0683 70.0868 34.2279 81.1528C34.2279 70.0868 35.15 65.476 29.3097 65.476C23.4693 65.476 29.6171 56.2544 22.2398 56.2544C22.2398 53.8748 15.1909 46.2673 10.0253 40.5776C7.17776 37.4411 4.71865 40.5776 5.02604 34.7372C6.56296 30.7412 9.32945 35.6594 12.7107 35.9241C28.4061 40.4525 52.0181 56.2544 58.5115 56.2544Z" fill="#439BA8"/>
<path d="M5.02604 34.7372C4.71865 40.5776 7.17776 37.4411 10.0253 40.5776C15.1909 46.2673 22.2398 53.8748 22.2398 56.2544C29.6171 56.2544 23.4693 65.476 29.3097 65.476C35.15 65.476 34.2279 70.0868 34.2279 81.1528C40.0683 70.0868 40.0683 71.3164 45.2938 81.1528C45.2938 92.5261 45.2938 101.133 40.0683 107.588C47.0594 105.744 46.752 103.592 50.8268 101.44C45.6012 107.588 44.4972 108.253 43.4495 114.965C43.0177 117.732 45.2938 117.117 45.2938 122.035C48.0603 123.88 46.5234 125.109 46.5234 128.183C68.0405 130.95 46.5234 138.02 54.2081 141.401C46.5234 148.778 47.1382 147.549 54.2081 154.004C61.278 160.459 45.9086 169.373 40.0683 184.742C42.8347 182.898 42.22 174.906 54.2081 184.742C45.2938 188.431 42.22 233.31 77.2622 246.22C75.4179 213.637 128.596 210.256 130.133 193.964C129.826 191.812 128.596 189.661 123.678 184.742C121.219 184.742 125.829 186.279 132.285 174.906C128.596 170.603 131.977 170.295 125.829 165.684C131.055 163.533 134.129 150.008 123.678 141.401C125.522 139.556 123.678 136.483 128.596 134.638C123.985 130.95 119.989 140.786 111.69 134.638C129.826 114.965 125.829 103.899 115.686 92.5261C129.211 98.3665 133.822 96.2148 128.596 96.2148C123.37 96.2148 115.378 83.9193 111.69 81.1528C111.69 78.1003 133.599 77.7929 128.596 65.19C123.959 53.5092 155.646 37.8111 156.876 29.5116C158.515 18.4456 152.265 27.0525 143.658 29.5116C122.756 27.6673 96.0129 52.2583 89.8651 56.2544C74.1883 53.4879 66.1962 56.2544 58.5115 56.2544C52.0181 56.2544 28.4061 40.4525 12.7107 35.9241C9.32945 35.6594 6.56296 30.7412 5.02604 34.7372Z" stroke="#2E234A" stroke-width="2"/>
<path d="M52.9525 70.9336C73.5475 65.7079 74.4697 64.171 96.6016 70.9336C100.905 86.6103 103.671 89.3768 109.819 93.3729C102.135 98.9058 104.594 101.672 109.819 101.672C109.819 108.435 108.59 107.82 115.66 107.82C112.893 112.124 103.979 116.12 108.59 127.8C91.6834 139.481 86.4578 151.469 85.843 159.769C66.785 150.337 83.9987 140.193 55.4116 137.734C58.9438 132.3 56.9522 121.822 51.135 122.01C50.5129 122.421 49.6948 122.672 48.6491 122.672C49.5411 122.243 50.3711 122.035 51.135 122.01C55.0845 119.4 51.1373 110.318 47.4195 117.753C47.4195 107.82 58.7929 93.3729 45.5752 101.672C48.6491 90.6064 50.4934 90.6064 47.4195 85.0734C52.9525 78.9256 47.4195 78.6182 45.5752 77.3887C50.8008 75.237 51.723 74.3148 48.6491 70.9336H52.9525Z" fill="#C2E2E8"/>
<path d="M80.4319 98.6354C79.5351 100.298 78.1754 99.7344 76.0512 103.08C78.7516 103.887 81.7109 97.8298 85.3888 98.3434C87.6811 98.6635 89.3543 98.1097 89.222 95.8633C88.3629 98.1681 85.2565 96.0969 86.5783 96.019C90.3461 95.797 86.4838 94.4144 89.1274 94.2586C90.9968 94.1485 90.3926 93.218 92.5545 90.5143C87.7048 92.6249 78.4906 97.204 80.4319 98.6354Z" fill="#2E234A"/>
<path d="M90.6005 96.7482C93.0019 96.6067 92.7625 94.0445 91.6955 92.8192C90.7987 94.4822 92.3211 94.1336 92.1583 95.0462C91.6108 97.0107 90.1566 94.8421 90.6005 96.7482Z" fill="#2E234A"/>
<path d="M62.3823 80.1864C60.2842 81.7959 56.7361 82.5849 50.4188 84.3708C52.4796 86.6556 58.0291 87.1233 60.5462 87.0715C60.8702 85.8565 62.5788 84.1431 64.2254 88.9203C67.7081 86.8124 67.587 90.3952 68.9651 91.4857C69.4626 91.1846 70.872 88.0899 70.3692 86.2206C69.7407 83.8839 67.4461 81.5367 62.3823 80.1864Z" fill="#439BA8"/>
<path d="M61.867 92.2401C56.9487 92.2401 58.7931 88.5515 53.8748 90.0884C56.334 95.9288 51.4158 93.4697 64.0187 105.458C63.4039 102.077 55.5218 96.2362 56.9487 93.4697C57.2728 92.2547 58.6835 92.9959 60.33 97.7731C64.0187 96.8509 62.1741 99.0027 62.789 99.9248C64.4287 102.384 64.3259 97.147 62.789 96.8509C59.1003 94.6992 63.7112 95.0066 61.867 92.2401Z" fill="#2E234A"/>
<path d="M83.2312 79.9947C85.2286 79.9947 91.9912 79.9947 96.9094 85.1702C96.136 86.1811 92.2986 84.1408 91.9912 85.1702C91.3764 83.8334 80.9252 80.7646 81.5361 88.0752C78.3125 86.1293 78.4284 89.4431 77.1549 90.4533C76.6944 90.1753 77.1549 88.0752 77.1549 84.5554C77.1549 81.9566 78.549 81.2493 83.2312 79.9947Z" fill="#439BA8"/>
<path d="M61.559 120.827C63.4034 106.995 52.6448 110.683 56.0261 98.0803C56.0261 105.82 60.6369 104.535 65.5551 114.372C75.6989 107.917 68.9364 120.827 83.0762 117.138C97.216 113.45 99.9826 114.372 105.516 117.138C96.6013 117.138 88.999 115.668 83.0762 126.667C74.4694 142.652 56.0261 128.819 61.559 120.827Z" fill="#439BA8"/>
<path d="M61.032 128.301C57.5297 124.35 58.8431 119.081 64.5343 119.081C68.1824 119.081 71.0134 117.15 72.4143 121.715C74.1655 127.423 64.5343 132.252 61.032 128.301Z" fill="#2E234A"/>
<path d="M91.069 121.135C87.6877 130.664 94.1428 126.053 97.5241 128.512C97.5241 124.331 91.069 130.664 91.069 121.135Z" fill="#2E234A"/>
<path d="M62.188 130.449C59.9746 130.12 58.4241 132.791 58.12 135.692C60.7146 135.182 60.2304 133.274 62.188 130.449Z" fill="#2E234A"/>
<path d="M130.414 73.182C127.955 75.6411 121.807 82.0963 107.667 73.182C108.246 70.9482 111.971 72.2598 120.27 73.182C116.582 72.7186 107.667 66.7269 116.274 66.7269C109.512 58.12 115.66 62.7308 120.27 59.3496C111.356 55.3535 125.496 52.587 119.138 52.587C130.414 40.2915 145.281 43.9954 152.853 30.1477C152.853 31.0699 152.669 33.1601 151.931 34.1437C151.624 33.2216 151.931 32.6068 150.702 33.529C150.087 33.529 151.931 36.9102 151.317 38.7546C150.394 37.8324 149.78 38.4472 151.317 41.8284C148.55 38.7546 147.628 43.9802 145.476 43.9802C146.091 43.9802 150.394 45.2097 142.095 49.8205C143.632 48.2836 143.939 46.4393 139.943 48.591C139.328 50.1279 141.48 52.8944 135.947 56.8904C137.791 54.4313 136.255 53.2018 134.718 51.0501C133.181 52.587 134.718 53.8166 132.259 56.8904C132.259 54.7387 130.414 49.5131 127.648 54.124C124.881 58.7348 132.259 60.5791 134.718 62.4234C130.414 62.4234 129.492 65.1899 126.726 62.4234C125.803 61.8087 129.185 67.649 126.726 71.0303C127.34 65.5905 123.037 66.1121 120.27 68.8786C117.504 71.6451 124.574 76.7448 130.414 73.182Z" fill="white" stroke="black" stroke-width="2"/>
<path d="M84.3059 245.627C95.4095 219.148 101.212 247.164 121.5 222.88C121.5 225.852 119.778 233.208 112.893 238.864C106.745 240.401 119.655 240.401 123.344 234.561C123.344 234.561 123.959 241.323 115.967 247.779C87.9945 251.775 88.6094 272.984 88.6094 286.202C75.3917 273.907 80.31 255.156 84.3059 245.627Z" fill="#439BA8"/>
<path d="M58.9496 208.508C64.0185 190.297 56.3339 179.538 56.3339 179.538C56.3339 179.538 76.1473 187.423 73.2402 192.448C65.2482 192.448 67.3997 204.129 76.0067 195.83C78.7115 193.222 83.9988 191.177 92.9131 189.682C86.7653 192.448 63.8678 211.045 123.344 189.682C121.5 208.508 60.9447 208.508 70.8755 232.22C59.9887 227.772 57.1464 214.985 58.9496 208.508Z" fill="#C2E2E8"/>
</g>
<defs>
<filter id="filter0_d_281_69" x="127" y="0" width="259" height="211" filterUnits="userSpaceOnUse" color-interpolation-filters="sRGB">
<feFlood flood-opacity="0" result="BackgroundImageFix"/>
<feColorMatrix in="SourceAlpha" type="matrix" values="0 0 0 0 0 0 0 0 0 0 0 0 0 0 0 0 0 0 127 0" result="hardAlpha"/>
<feOffset dy="4"/>
<feGaussianBlur stdDeviation="2"/>
<feComposite in2="hardAlpha" operator="out"/>
<feColorMatrix type="matrix" values="0 0 0 0 0 0 0 0 0 0 0 0 0 0 0 0 0 0 0.25 0"/>
<feBlend mode="normal" in2="BackgroundImageFix" result="effect1_dropShadow_281_69"/>
<feBlend mode="normal" in="SourceGraphic" in2="effect1_dropShadow_281_69" result="shape"/>
</filter>
<filter id="filter1_d_281_69" x="0" y="23" width="244.527" height="389.546" filterUnits="userSpaceOnUse" color-interpolation-filters="sRGB">
<feFlood flood-opacity="0" result="BackgroundImageFix"/>
<feColorMatrix in="SourceAlpha" type="matrix" values="0 0 0 0 0 0 0 0 0 0 0 0 0 0 0 0 0 0 127 0" result="hardAlpha"/>
<feOffset dy="4"/>
<feGaussianBlur stdDeviation="2"/>
<feComposite in2="hardAlpha" operator="out"/>
<feColorMatrix type="matrix" values="0 0 0 0 0 0 0 0 0 0 0 0 0 0 0 0 0 0 0.25 0"/>
<feBlend mode="normal" in2="BackgroundImageFix" result="effect1_dropShadow_281_69"/>
<feBlend mode="normal" in="SourceGraphic" in2="effect1_dropShadow_281_69" result="shape"/>
</filter>
</defs>
</svg>
