<svg width="315" height="306" viewBox="0 0 315 306" fill="none" xmlns="http://www.w3.org/2000/svg">
<path d="M70.5607 125.892C75.0612 131.25 70.5607 142.292 95.0583 133.444C93.6789 125.265 59.0135 43.7456 11.9902 39.3006C11.831 41.1512 11.8396 45.3775 13.1473 47.4785C13.9221 45.6809 13.4126 44.3943 15.7159 46.4566C16.9471 46.5625 12.6698 53.0302 13.5827 56.8372C15.5887 55.1455 16.7138 56.4851 13.0521 63.0057C19.1232 57.3137 20.0681 67.959 24.3774 68.3297C23.1462 68.2238 14.3153 69.9499 30.1412 80.6323C27.3284 77.2833 27.0311 73.5293 34.6627 78.5356C35.6287 81.7257 30.8418 86.9067 41.2333 95.8789C37.964 90.6264 41.2543 88.4238 44.7038 84.3706C47.5166 87.7196 44.2263 89.9222 48.6207 96.5143C48.9921 92.1964 50.5013 86.785 55.246 96.5143C56.682 99.4588 57.9998 100.621 58.7285 101.03C57.5642 100.925 54.5588 101.269 48.6207 104.446C70.8433 109.384 64.1454 110.84 63.3104 110.428C63.7003 109.992 63.8617 109.894 63.446 110.123C63.1918 110.263 63.1854 110.366 63.3104 110.428C61.8684 112.039 57.3005 118.27 67.2306 129.676C66.9383 118.654 64.7075 118.953 70.5607 118.953C78.433 118.953 81.6425 134.047 70.5607 125.892Z" fill="white" stroke="black" stroke-width="2"/>
<path d="M175.145 67.1866C142.976 61.5097 126.576 67.1866 110.807 67.1866C97.4822 67.1866 49.0298 34.7609 16.8226 25.4684C9.88412 24.9253 4.20723 14.833 1.05343 23.033C0.422666 35.0175 5.4688 28.5814 11.312 35.0175C21.9118 46.6929 36.3763 62.3036 36.3763 67.1866C51.5147 67.1866 38.8994 86.1096 50.8839 86.1096C62.8685 86.1096 60.9762 95.5711 60.9762 118.279C72.9608 95.5711 72.9608 98.0941 83.6838 118.279C83.6838 141.617 83.6838 159.278 72.9608 172.525C87.3068 168.74 86.676 164.325 95.0376 159.909C84.3145 172.525 82.0491 173.89 79.8992 187.663C79.013 193.34 83.6838 192.078 83.6838 202.171C89.3607 205.955 86.2068 208.478 86.2068 214.786C130.36 220.463 86.2068 234.97 101.976 241.909C86.2068 257.047 92.079 256.567 110.807 262.5C147.831 274.23 71.3992 278 181 304C181 267 225.5 271.5 225.5 247.5C221.234 262.5 208 251 219.929 241.909C257.144 201.54 248.945 164.955 228.129 141.617C255.883 153.602 265.344 149.186 254.621 149.186C243.898 149.186 227.498 123.956 219.929 118.279C219.929 112.015 264.888 111.384 254.621 85.5227C245.106 61.5535 310.129 29.3406 312.652 12.31C316.016 -10.3977 303.19 7.26383 285.529 12.31C242.637 8.52538 187.76 58.9867 175.145 67.1866Z" fill="#439BA8" stroke="#2E234A" stroke-width="2"/>
<path d="M99.3996 97.3085C141.661 86.5854 143.553 83.4316 188.968 97.3085C197.799 129.478 203.476 135.154 216.091 143.354C200.322 154.708 205.368 160.385 216.091 160.385C216.091 174.262 213.568 173 228.076 173C222.399 181.831 204.107 190.031 213.568 214C178.876 237.969 168.153 262.569 166.892 279.6C127.784 260.245 163.107 239.43 104.446 234.384C111.694 223.233 107.607 201.733 95.6701 202.119C94.3935 202.962 92.7148 203.476 90.5689 203.476C92.3994 202.597 94.1025 202.169 95.6701 202.119C103.775 196.763 95.6748 178.126 88.0458 193.384C88.0458 173 111.384 143.354 84.2612 160.385C90.5689 137.677 94.3535 137.677 88.0458 126.324C99.3996 113.708 88.0459 113.078 84.2612 110.555C94.9843 106.139 96.8766 104.247 90.5689 97.3085H99.3996Z" fill="#C2E2E8"/>
<path d="M155.788 154.154C153.947 157.566 151.157 156.409 146.799 163.274C152.34 164.93 158.412 152.501 165.959 153.555C170.663 154.211 174.097 153.075 173.825 148.465C172.062 153.195 165.688 148.945 168.4 148.785C176.132 148.329 168.206 145.492 173.631 145.173C177.467 144.947 176.227 143.037 180.664 137.489C170.712 141.82 151.804 151.216 155.788 154.154Z" fill="#2E234A"/>
<path d="M176.654 150.281C181.582 149.991 181.09 144.733 178.901 142.219C177.061 145.631 180.185 144.916 179.851 146.789C178.727 150.82 175.743 146.37 176.654 150.281Z" fill="#2E234A"/>
<path d="M118.75 116.295C114.444 119.598 107.163 121.217 94.2 124.882C98.429 129.571 109.817 130.53 114.982 130.424C115.647 127.931 119.153 124.415 122.531 134.218C129.678 129.892 129.43 137.244 132.257 139.482C133.278 138.864 136.17 132.514 135.139 128.678C133.849 123.883 129.14 119.066 118.75 116.295Z" fill="#439BA8"/>
<path d="M117.692 141.03C107.599 141.03 111.384 133.461 101.292 136.615C106.338 148.599 96.2456 143.553 122.107 168.153C120.846 161.215 104.671 149.23 107.599 143.553C108.264 141.06 111.159 142.581 114.538 152.384C122.107 150.492 118.322 154.907 119.584 156.799C122.948 161.846 122.738 151.099 119.584 150.492C112.015 146.076 121.476 146.707 117.692 141.03Z" fill="#2E234A"/>
<path d="M161.531 115.902C165.63 115.902 179.507 115.902 189.599 126.522C188.012 128.597 180.138 124.41 179.507 126.522C178.246 123.779 156.799 117.482 158.053 132.484C151.438 128.49 151.676 135.29 149.063 137.363C148.118 136.793 149.063 132.484 149.063 125.261C149.063 119.928 151.923 118.477 161.531 115.902Z" fill="#439BA8"/>
<path d="M117.061 199.691C120.846 171.307 98.7688 178.876 105.707 153.015C105.707 168.897 115.169 166.261 125.261 186.445C146.076 173.199 132.199 199.691 161.215 192.122C190.23 184.553 195.907 186.445 207.261 192.122C188.968 192.122 173.368 189.104 161.215 211.676C143.553 244.476 105.707 216.091 117.061 199.691Z" fill="#439BA8"/>
<path d="M115.979 215.027C108.792 206.919 111.487 196.109 123.166 196.109C130.652 196.109 136.461 192.145 139.336 201.514C142.929 213.225 123.166 223.135 115.979 215.027Z" fill="#2E234A"/>
<path d="M177.615 200.322C170.676 219.876 183.922 210.415 190.861 215.461C190.861 206.882 177.615 219.876 177.615 200.322Z" fill="#2E234A"/>
<path d="M118.351 219.436C113.81 218.759 110.628 224.242 110.004 230.193C115.328 229.147 114.334 225.232 118.351 219.436Z" fill="#2E234A"/>
<path d="M258.352 101.922C253.306 106.969 240.691 120.215 211.676 101.922C212.863 97.3386 220.507 100.03 237.537 101.922C229.968 100.972 211.676 88.6764 229.337 88.6764C215.461 71.0149 228.076 80.4764 237.537 73.538C219.245 65.3381 248.26 59.6612 235.214 59.6612C258.352 34.4305 288.858 42.031 304.398 13.6152C304.398 15.5075 304.02 19.7967 302.506 21.8152C301.875 19.9229 302.506 18.6614 299.983 20.5537C298.721 20.5537 302.506 27.4921 301.245 31.2767C299.352 29.3844 298.091 30.6459 301.245 37.5843C295.568 31.2767 293.675 41.9997 289.26 41.9997C290.522 41.9997 299.352 44.5228 282.322 53.9843C285.475 50.8304 286.106 47.0458 277.906 51.4612C276.645 54.615 281.06 60.2919 269.706 68.4919C273.491 63.4458 270.337 60.9227 267.183 56.5073C264.029 59.6612 267.183 62.1842 262.137 68.4919C262.137 64.0765 258.352 53.3535 252.676 62.815C246.999 72.2765 262.137 76.0611 267.183 79.8457C258.352 79.8457 256.46 85.5226 250.783 79.8457C248.891 78.5841 255.829 90.5687 250.783 97.5071C252.045 86.3446 243.214 87.4149 237.537 93.0918C231.86 98.7686 246.368 109.233 258.352 101.922Z" fill="white" stroke="black" stroke-width="2"/>
</svg>
