<svg width="395" height="632" viewBox="0 0 395 632" fill="none" xmlns="http://www.w3.org/2000/svg">
<g filter="url(#filter0_d_209_36)">
<path d="M64.1397 104C67.7072 108.247 64.1397 117 83.5587 109.986C82.4652 103.503 54.9864 38.8836 17.7116 35.3601C17.5855 36.827 17.5923 40.1772 18.6289 41.8426C19.2431 40.4177 18.8392 39.3978 20.665 41.0326C21.641 41.1165 18.2504 46.2433 18.974 49.2611C20.5642 47.9201 21.456 48.982 18.5534 54.1508C23.3659 49.6389 24.1149 58.0773 27.5309 58.3711C26.5549 58.2871 19.5547 59.6554 32.0997 68.1232C29.87 65.4685 29.6344 62.4927 35.6839 66.4612C36.4496 68.99 32.6551 73.0969 40.8923 80.209C38.3008 76.0454 40.909 74.2994 43.6433 71.0865C45.873 73.7412 43.2648 75.4872 46.7482 80.7127C47.0426 77.2899 48.2389 73.0004 52 80.7127C53.1383 83.0467 54.1829 83.968 54.7606 84.2922C53.8376 84.2093 51.4553 84.4815 46.7482 86.9998C64.3638 90.914 59.0545 92.0682 58.3925 91.7416C58.7016 91.3961 58.8295 91.3184 58.5 91.4998C58.2985 91.6107 58.2935 91.6927 58.3925 91.7416C57.2495 93.0191 53.6285 97.9585 61.5 107C61.2683 98.2626 59.5 98.4998 64.1397 98.4998C70.38 98.4998 72.9241 110.465 64.1397 104Z" fill="white"/>
<path d="M17.7116 35.3601C17.5855 36.827 17.5923 40.1772 18.6289 41.8426C19.243 40.4177 18.8392 39.3978 20.665 41.0326C21.641 41.1165 18.2504 46.2433 18.974 49.2611C20.5642 47.9201 21.456 48.982 18.5534 54.1508C23.3659 49.6389 24.1149 58.0773 27.5309 58.3711C26.5549 58.2871 19.5547 59.6554 32.0997 68.1232C29.87 65.4685 29.6344 62.4927 35.6839 66.4612C36.4496 68.99 32.6551 73.0969 40.8923 80.209C38.3008 76.0454 40.909 74.2994 43.6433 71.0865C45.873 73.7412 43.2648 75.4872 46.7482 80.7127C47.0426 77.2899 48.2389 73.0004 52 80.7127C55.7611 88.425 58.5 80.7127 46.7482 86.9998C67 91.4998 56.9519 92.3518 58.5 91.4998C60.0481 90.6478 51.5 95.5136 61.5 107C61.2683 98.2626 59.5 98.4998 64.1397 98.4998C70.38 98.4998 72.9241 110.465 64.1397 104C67.7072 108.247 64.1397 117 83.5587 109.986C82.4652 103.503 54.9864 38.8836 17.7116 35.3601Z" stroke="black" stroke-width="2"/>
<path d="M97 501.676C269.427 423.579 339.252 445.399 349.572 462.007C350.059 462.714 350.253 463.282 350.253 463.282C350.065 462.862 349.839 462.436 349.572 462.007C348.124 459.904 344.089 456.569 334.891 463.282C346.469 463.282 348.059 466.17 364.299 472.944C345.864 472.944 375.271 480.848 375.271 501.676C345.864 482.605 319.529 526.961 388 505.003C344.548 566.925 267.738 498.349 221.652 501.676C236.136 512.215 241.403 517.474 256.765 516.302C223.407 530.794 210.24 505.003 162.398 516.302C111.484 505.003 102.082 527.102 97 501.676Z" fill="#C2E2E8"/>
<path d="M97 501.676C273.882 421.561 342.792 446.594 350.253 463.282C350.253 463.282 347.181 454.312 334.891 463.282C346.469 463.282 348.059 466.17 364.299 472.944C345.864 472.944 375.271 480.848 375.271 501.676C345.864 482.605 319.529 526.961 388 505.003C344.548 566.925 267.738 498.349 221.652 501.676C236.136 512.215 241.403 517.474 256.765 516.302C223.407 530.794 210.24 505.003 162.398 516.302C111.484 505.003 102.082 527.102 97 501.676Z" stroke="#2E234A" stroke-width="2"/>
<path d="M85.1812 562.331C85.2586 563.184 85.1378 564.097 84.5876 565.193C82.4918 566.786 80.8613 567.824 79.5822 568.458C78.2589 569.115 77.382 569.304 76.7972 569.288C75.7908 569.26 75.3436 568.622 74.5925 567.352L74.5481 567.277C74.1257 566.562 73.568 565.617 72.6683 565.019L71.6953 564.373L71.2067 565.434C69.1841 569.826 66.8759 572.202 65.033 572.904C64.1533 573.24 63.4186 573.185 62.8096 572.851C62.1751 572.503 61.5342 571.772 61.0399 570.487L60.0279 567.856L59.1557 570.537C59.1318 570.61 59.039 570.791 58.8057 571.073C58.5845 571.341 58.2792 571.648 57.9018 571.972C57.1464 572.621 56.1544 573.293 55.0929 573.817C54.0239 574.344 52.9428 574.691 51.9992 574.751C51.2391 574.799 50.6253 574.661 50.1508 574.333C50.1945 572.321 50.5294 571.272 50.9718 570.611C51.4532 569.891 52.1443 569.486 53.3034 568.84L53.3177 568.832C54.2946 568.289 55.4996 567.618 56.8114 566.469C58.1313 565.312 59.532 563.698 60.9673 561.271L60.9992 561.217L61.0241 561.16C61.8276 559.306 63.0609 557.663 64.4732 555.791L64.4969 555.76C66.6452 552.913 69.1051 549.652 70.3918 544.742C71.6736 539.85 71.7704 533.421 69.4557 524.203C70.3746 518.802 68.9081 512.817 66.0467 506.66L65.9753 506.506L65.8574 506.385C56.8497 497.105 47.6638 485.07 39.4046 471.172C39.2417 470.807 39.0783 470.445 38.9145 470.086L38.85 469.945L38.7455 469.83C36.353 467.192 33.9846 464.626 31.7121 462.164C29.4034 459.662 27.195 457.269 25.1555 455.012C26.5402 455.051 28.0662 455.42 29.7351 456.081L32.3038 457.099L30.9813 454.673C24.9037 443.524 19.9721 434.018 19.9439 418.386C21.5046 412.638 20.0313 407.618 18.7764 403.343L18.7546 403.268C17.8073 400.041 17.0395 397.359 17.4218 394.881C17.7859 392.522 19.2385 390.177 23.2486 387.795C25.8983 386.222 29.2345 385.882 33.1613 386.766C37.0949 387.652 41.5524 389.754 46.3359 392.963L47.3587 393.649L47.8201 392.507C55.9434 372.406 70.5543 349.227 87.5259 331.085C96.0096 322.017 105.06 314.232 114.158 308.721C123.107 303.299 132.047 300.109 140.508 300.003C159.784 320.949 174.402 335.998 185.431 347.352C194.754 356.95 201.487 363.882 206.314 369.511C210.38 374.254 213.05 378.023 214.761 381.623C213.122 381.171 211.808 381.04 210.782 381.208C210.039 381.329 209.4 381.615 208.921 382.093C208.439 382.573 208.193 383.171 208.105 383.78C207.937 384.948 208.327 386.262 208.865 387.396C209.416 388.559 210.195 389.689 210.997 390.535C219.238 399.241 220.67 411.37 217.318 424.898C213.965 438.428 205.855 453.191 195.281 466.883C184.714 480.567 171.733 493.122 158.709 502.246C145.712 511.352 132.802 516.951 122.268 517C118.943 516.043 115.66 514.895 112.43 513.574L111.281 513.104L111.067 514.327C110.145 519.577 108.037 523.247 104.825 525.155C102.552 526.505 99.7791 526.945 96.5599 526.488L95.5636 526.346L95.4283 527.343C94.6689 532.941 92.8819 537.44 90.0414 540.68C85.7563 545.568 83.9106 549.226 83.3774 552.232C82.8422 555.25 83.6611 557.474 84.3429 559.325L84.3571 559.364C84.7665 560.476 85.0954 561.386 85.1812 562.331Z" fill="#C2E2E8" stroke="#2E234A" stroke-width="2"/>
<path d="M198.271 501.154L198.197 501.192L198.13 501.242C195.673 503.083 193.239 504.802 190.841 506.39L190.709 506.477L190.61 506.602C189.794 507.63 189.262 508.767 189.185 510.025L189.182 510.064L189.183 510.103C189.278 515.723 190.588 520.248 192.781 523.914C194.972 527.577 198.014 530.329 201.494 532.454C208.386 536.661 217.11 538.462 224.595 540.007L224.682 540.025C227.773 540.663 230.645 541.257 233.143 541.955C235.651 542.657 237.696 543.442 239.163 544.426C240.608 545.394 241.425 546.505 241.642 547.881C241.854 549.231 241.519 551.011 240.283 553.402C238.883 553.748 238.018 553.679 237.407 553.461C236.724 553.218 236.199 552.739 235.516 551.991L234.931 551.35L234.214 551.839C233.046 552.635 231.854 553.269 230.708 553.445C229.633 553.609 228.548 553.382 227.458 552.314L227.044 551.908L226.485 552.066C225.239 552.419 220.354 553.387 214.419 553.931C208.67 554.458 202.071 554.573 196.914 553.407C194.878 548.233 189.078 545.706 182.294 544.384C175.216 543.005 166.58 542.845 158.672 542.698L158.614 542.697C150.763 542.552 143.723 542.414 139.335 541.211C137.116 540.603 135.878 539.799 135.399 538.875C134.959 538.028 134.984 536.7 136.335 534.514C138.14 531.596 140.67 529.108 143.332 526.498L143.335 526.496C143.629 526.208 143.923 525.919 144.218 525.629L146.146 523.728L143.445 523.919C142.687 523.973 141.94 524 141.205 524H141.166L141.127 524.003C128.323 525.016 119.4 523.4 113.298 519.993C107.238 516.61 103.846 511.395 102.22 504.921C100.584 498.409 100.742 490.641 101.819 482.256C102.894 473.88 104.873 464.979 106.823 456.213L106.843 456.122C109.532 444.031 112.174 432.15 112.174 422.5C112.174 404.005 113.185 374.991 119.758 350.628C123.046 338.445 127.703 327.509 134.252 319.637C140.688 311.902 148.938 307.129 159.585 307.003C178.861 327.949 193.479 342.997 204.508 354.352L204.509 354.352C213.831 363.95 220.564 370.882 225.391 376.511C229.458 381.254 232.127 385.023 233.838 388.623C232.199 388.171 230.885 388.04 229.859 388.208C229.116 388.329 228.477 388.615 227.998 389.093C227.516 389.573 227.271 390.171 227.182 390.78C227.014 391.948 227.405 393.262 227.942 394.396C228.493 395.559 229.273 396.689 230.074 397.535C231.67 399.221 233.007 401.03 234.102 402.947L234.523 403.683L235.318 403.388C240.369 401.513 244.694 400.709 248.027 401.071C251.302 401.427 253.567 402.889 254.758 405.591C258.025 413.001 257.368 420.071 254.283 427.634C251.175 435.252 245.646 443.273 239.25 452.541L239.242 452.552C234.474 459.462 229.249 467.032 224.292 475.549L222.932 477.885L225.484 476.996C229.533 475.588 234.08 473.778 239.309 471.47C236.98 477.622 232.341 482.455 226.71 486.46C220.448 490.916 213.062 494.278 206.475 497.272L206.459 497.279C203.505 498.623 200.704 499.896 198.271 501.154Z" fill="#439BA8" stroke="#2E234A" stroke-width="2"/>
<path d="M158.408 618.821C156.28 618.937 154.091 617.586 152.234 615.211C151.244 598.145 156.003 588.957 159.635 581.942L159.643 581.927L159.716 581.786C161.754 577.852 163.561 574.363 163.561 570.513C163.561 562.57 161.159 548.282 158.431 532.044L158.407 531.903C156.246 519.047 153.872 504.916 152.268 491.562C154.68 481.319 155.71 468.881 155.751 456.357L155.756 454.886L154.387 455.422C143.381 459.731 133.773 459.373 125.103 455.834L123.741 455.278L123.725 456.749C123.587 469.602 124.483 482.073 126.499 491.557C124.748 507.835 121.756 525.35 119.279 539.855L119.277 539.867C117.995 547.369 116.85 554.073 116.09 559.366C115.709 562.014 115.423 564.323 115.265 566.21C115.108 568.076 115.069 569.602 115.213 570.649C118.183 592.172 114.622 605.957 110.829 612.126C109.986 613.498 108.35 614.743 106.246 615.688C104.159 616.625 101.716 617.219 99.3962 617.358C97.0598 617.498 94.9527 617.172 93.4718 616.378C92.0518 615.616 91.1989 614.433 91.1989 612.65H90.1989H89.1989C89.1989 613.451 88.6032 614.362 87.3069 615.125C86.0443 615.868 84.319 616.332 82.5822 616.305C80.8483 616.279 79.197 615.768 77.9911 614.677C76.8064 613.604 75.9351 611.867 75.9351 609.139V606.811L74.2468 608.413C72.7214 609.861 71.1643 610.416 69.6796 610.456C68.1694 610.498 66.6527 610.008 65.2493 609.226C63.8482 608.446 62.6087 607.4 61.6758 606.408C60.711 605.381 60.1782 604.524 60.0579 604.15C59.9443 603.797 59.9839 603.394 60.314 602.867C60.6593 602.316 61.2871 601.698 62.2178 601.035C64.0737 599.713 66.8788 598.389 70.1607 597.139C76.7033 594.648 84.8734 592.554 90.405 591.389L91.1989 591.222V590.411V446.441V446.288L91.153 446.142C88.6821 438.271 80.6959 417.783 68.4296 398.5C65.5929 394.04 63.8257 389.36 62.8473 384.691L62.7956 384.444L62.6328 384.251C54.0615 374.093 45.8167 362.389 45.7198 349.742C47.2212 346.602 48.4904 343.676 49.4257 341.18C50.3726 338.654 51.0063 336.494 51.1598 334.986C51.2326 334.271 51.2239 333.492 50.9003 332.894C50.7175 332.557 50.4239 332.26 50.0055 332.111C49.6074 331.969 49.2068 331.999 48.8642 332.089C48.2091 332.26 47.4944 332.721 46.7407 333.342C46.2769 333.723 45.7641 334.195 45.2002 334.76C45.0842 334.057 45.0121 333.189 45.0014 332.166C44.9811 330.227 45.1817 327.843 45.6422 325.199C46.5638 319.909 48.5131 313.655 51.7344 307.941L50.8633 307.45L51.7344 307.941C53.6489 304.546 55.6657 300.831 57.7933 296.912L57.7957 296.907C66.7014 280.504 77.5688 260.495 91.3442 244.58C105.114 228.671 121.655 217.009 141.888 217C158.321 217.766 173.372 226.91 186.477 238.705C199.579 250.497 210.611 264.821 219.023 275.746L219.067 275.804C223.133 281.084 226.615 285.606 229.405 288.612C226.872 291.919 225.883 294.385 226.082 296.535C226.288 298.759 227.764 300.368 229.153 301.881L229.26 301.998C230.771 303.646 232.36 305.393 233.281 308.072C234.198 310.74 234.483 314.445 233.104 320.013L233.024 320.338L233.155 320.645C235.272 325.607 234.953 330.271 233.296 334.981C231.622 339.737 228.607 344.478 225.361 349.571L225.351 349.587C223.241 352.897 221.046 356.342 219.131 359.967L218.856 360.489L219.179 360.982C219.387 361.301 219.606 361.626 219.835 361.959C221.141 370.7 221.28 376.689 220.595 381.373C219.908 386.072 218.384 389.513 216.281 393.158L216.041 393.574L216.215 394.021C216.49 394.724 216.786 395.434 217.106 396.15C213.48 401.136 209.952 405.776 206.517 410.087L206.448 410.174L206.4 410.273C203.4 416.449 200.242 424.459 197.211 435.645C184.179 483.745 179.086 558.164 179.086 568.172V568.21L179.089 568.249C179.917 578.882 182.477 586.483 185.572 592.189C188.658 597.879 192.255 601.64 195.07 604.584L195.085 604.599C197.173 606.782 198.701 608.398 199.448 610.01C199.806 610.783 199.968 611.529 199.919 612.317C199.871 613.087 199.617 613.956 199.057 614.984C197.851 616.273 196.7 617.407 195.571 618.271C194.413 619.158 193.341 619.711 192.321 619.887C190.441 620.211 188.204 619.313 185.449 615.035L183.608 612.176V615.576C183.608 619.773 180.587 622.803 177.204 622.991C173.923 623.173 169.685 620.652 167.484 612.393L166.814 609.876L165.628 612.195C163.148 617.044 160.565 618.703 158.408 618.821Z" fill="#C2E2E8" stroke="#2E234A" stroke-width="2"/>
<path d="M96.0424 57.4653C108.542 57.4653 121.542 52.9653 147.042 57.4653C157.042 50.9653 200.542 10.9653 234.542 13.9653C248.542 9.96525 258.709 -4.03477 256.042 13.9653C254.042 27.4653 202.5 53 210.042 72C218.18 92.5 182.542 93 182.542 97.9653C188.542 102.465 201.542 122.465 210.042 122.465C218.542 122.465 211.042 125.965 189.042 116.465C205.542 134.965 212.042 152.965 182.542 184.965C196.042 194.965 202.542 178.965 210.042 184.965C202.042 187.965 205.042 192.965 202.042 195.965C219.042 209.965 214.042 231.965 205.542 235.465C215.542 242.965 210.042 243.465 216.042 250.465C208.749 263.316 202.902 266.034 201.353 266.495C201.525 266.478 201.754 266.465 202.042 266.465C210.042 274.465 212.042 277.965 212.542 281.465C210.042 307.965 123.542 313.465 126.542 366.465C69.5424 345.465 74.5424 272.465 89.0424 266.465C69.5424 250.465 70.5424 263.465 66.0424 266.465C75.5424 241.465 100.542 226.965 89.0424 216.465C77.5424 205.965 76.5424 207.965 89.0424 195.965C76.5424 190.465 111.542 178.965 76.5424 174.465C76.5424 169.465 79.0424 167.465 74.5424 164.465C74.5424 156.465 70.8399 157.465 71.5424 152.965C73.2466 142.048 75.0424 140.965 83.5424 130.965C76.9142 134.465 77.4143 137.965 66.0424 140.965C74.5424 130.465 74.5424 116.465 74.5424 97.9653C66.0424 81.9653 66.0424 79.9653 56.5424 97.9653C56.5424 79.9653 58.0424 72.4653 48.5424 72.4653C39.0424 72.4653 49.0424 57.4653 37.0424 57.4653C37.0424 53.5946 25.5765 41.2201 17.1742 31.9652C12.5424 26.8634 8.54236 31.9652 9.04236 22.4652C11.5423 15.9652 16.0423 23.9652 21.5424 24.3958C47.0726 31.7618 85.4802 57.4653 96.0424 57.4653Z" fill="#439BA8"/>
<path d="M9.04236 22.4652C8.54236 31.9652 12.5424 26.8635 17.1742 31.9652C25.5766 41.2201 37.0424 53.5946 37.0424 57.4653C49.0424 57.4653 39.0424 72.4653 48.5424 72.4653C58.0424 72.4653 56.5424 79.9653 56.5424 97.9653C66.0424 79.9653 66.0424 81.9653 74.5424 97.9653C74.5424 116.465 74.5424 130.465 66.0424 140.965C77.4143 137.965 76.9142 134.465 83.5424 130.965C75.0424 140.965 73.2466 142.048 71.5424 152.965C70.8399 157.465 74.5424 156.465 74.5424 164.465C79.0424 167.465 76.5424 169.465 76.5424 174.465C111.542 178.965 76.5424 190.465 89.0424 195.965C76.5424 207.965 77.5424 205.965 89.0424 216.465C100.542 226.965 75.5424 241.465 66.0424 266.465C70.5424 263.465 69.5424 250.465 89.0424 266.465C74.5424 272.465 69.5424 345.465 126.542 366.465C123.542 313.465 210.042 307.965 212.542 281.465C212.042 277.965 210.042 274.465 202.042 266.465C198.042 266.465 205.542 268.965 216.042 250.465C210.042 243.465 215.542 242.965 205.542 235.465C214.042 231.965 219.042 209.965 202.042 195.965C205.042 192.965 202.042 187.965 210.042 184.965C202.542 178.965 196.042 194.965 182.542 184.965C212.042 152.965 205.542 134.965 189.042 116.465C211.042 125.965 218.542 122.465 210.042 122.465C201.542 122.465 188.542 102.465 182.542 97.9653C182.542 93 218.18 92.5 210.042 72C202.5 53 254.042 27.4653 256.042 13.9653C258.709 -4.03477 248.542 9.96525 234.542 13.9653C200.542 10.9653 157.042 50.9653 147.042 57.4653C121.542 52.9653 108.542 57.4653 96.0424 57.4653C85.4802 57.4653 47.0726 31.7618 21.5424 24.3958C16.0423 23.9652 11.5423 15.9652 9.04236 22.4652Z" stroke="#2E234A" stroke-width="2"/>
<path d="M87 81.3423C120.5 72.8423 122 70.3423 158 81.3423C165 106.842 169.5 111.342 179.5 117.842C167 126.842 171 131.342 179.5 131.342C179.5 142.342 177.5 141.342 189 141.342C184.5 148.342 170 154.842 177.5 173.842C150 192.842 141.5 212.342 140.5 225.842C109.5 210.5 137.5 194 91 190C96.7455 181.161 93.5059 164.118 84.0437 164.424C83.0317 165.093 81.7011 165.5 80 165.5C81.451 164.803 82.801 164.464 84.0437 164.424C90.468 160.179 84.0474 145.405 78 157.5C78 141.342 96.5 117.842 75 131.342C80 113.342 83 113.342 78 104.342C87 94.3423 78 93.8423 75 91.8423C83.5 88.3423 85 86.8423 80 81.3423H87Z" fill="#C2E2E8"/>
<path d="M131.699 126.403C130.24 129.108 128.028 128.191 124.573 133.633C128.965 134.945 133.779 125.093 139.762 125.928C143.49 126.449 146.212 125.548 145.997 121.894C144.599 125.643 139.546 122.274 141.696 122.147C147.825 121.786 141.543 119.537 145.843 119.284C148.884 119.105 147.901 117.591 151.417 113.193C143.529 116.626 128.541 124.075 131.699 126.403Z" fill="#2E234A"/>
<path d="M148.239 123.333C152.145 123.103 151.756 118.935 150.02 116.942C148.561 119.647 151.038 119.08 150.773 120.565C149.882 123.76 147.517 120.233 148.239 123.333Z" fill="#2E234A"/>
<path d="M102.339 96.3931C98.9259 99.0112 93.1544 100.295 82.8786 103.2C86.2308 106.916 95.2576 107.677 99.352 107.593C99.8791 105.616 102.658 102.829 105.337 110.6C111.002 107.171 110.805 112.999 113.046 114.773C113.855 114.283 116.148 109.249 115.33 106.208C114.308 102.408 110.575 98.5896 102.339 96.3931Z" fill="#439BA8"/>
<path d="M101.5 116C93.4999 116 96.5 110 88.4999 112.5C92.5 122 84.5 118 105 137.5C104 132 91.1789 122.5 93.5 118C94.027 116.024 96.3217 117.229 99 125C105 123.5 102 127 103 128.5C105.667 132.5 105.5 123.982 103 123.5C96.9998 120 104.5 120.5 101.5 116Z" fill="#2E234A"/>
<path d="M136.251 96.0813C139.5 96.0813 150.5 96.0813 158.5 104.5C157.242 106.144 151 102.825 150.5 104.5C149.5 102.325 132.5 97.3336 133.494 109.225C128.25 106.06 128.439 111.45 126.368 113.093C125.618 112.641 126.368 109.225 126.368 103.5C126.368 99.2726 128.635 98.1221 136.251 96.0813Z" fill="#439BA8"/>
<path d="M101 162.5C104 140 86.5002 146 92.0001 125.5C92.0001 138.09 99.5002 136 107.5 152C124 141.5 113 162.5 136 156.5C159 150.5 163.5 152 172.5 156.5C158 156.5 145.634 154.108 136 172C122 198 92.0001 175.5 101 162.5Z" fill="#439BA8"/>
<path d="M100.142 174.656C94.4456 168.229 96.582 159.66 105.839 159.66C111.773 159.66 116.378 156.518 118.657 163.945C121.505 173.228 105.839 181.083 100.142 174.656Z" fill="#2E234A"/>
<path d="M149 163C143.5 178.5 154 171 159.5 175C159.5 168.2 149 178.5 149 163Z" fill="#2E234A"/>
<path d="M102.023 178.151C98.4225 177.615 95.9003 181.961 95.4057 186.678C99.6262 185.849 98.8386 182.746 102.023 178.151Z" fill="#2E234A"/>
<path d="M213 85C209 89 199 99.5 176 85C176.941 81.3664 183 83.5 196.5 85C190.5 84.2463 176 74.5 190 74.5C179 60.5 189 68 196.5 62.5C182 56 205 51.5 194.658 51.5C213 31.5 237.182 37.5248 249.5 15C249.5 16.5 249.2 19.9 248 21.5C247.5 20 248 19 246 20.5C245 20.5 248 26 247 29C245.5 27.5 244.5 28.5 247 34C242.5 29 241 37.5 237.5 37.5C238.5 37.5 245.5 39.5 232 47C234.5 44.5 235 41.5 228.5 45C227.5 47.5 231 52 222 58.5C225 54.5 222.5 52.5 220 49C217.5 51.5 220 53.5 216 58.5C216 55 213 46.5 208.5 54C204 61.5 216 64.5 220 67.5C213 67.5 211.5 72 207 67.5C205.5 66.5 211 76 207 81.5C208 72.6516 201 73.5 196.5 78C192 82.5 203.5 90.7952 213 85Z" fill="white" stroke="black" stroke-width="2"/>
<path d="M138 365.5C156.061 322.43 165.5 368 198.5 328.5C198.5 333.333 195.7 345.3 184.5 354.5C174.5 357 195.5 357 201.5 347.5C201.5 347.5 202.5 358.5 189.5 369C144 375.5 145 410 145 431.5C123.5 411.5 131.5 381 138 365.5Z" fill="#439BA8"/>
<path d="M96.7544 305.122C105 275.5 92.4997 258 92.4997 258C92.4997 258 124.728 270.825 120 279C107 279 110.499 298 124.5 284.5C128.899 280.257 137.5 276.932 152 274.5C142 279 104.754 309.249 201.5 274.5C198.5 305.122 99.9998 305.122 116.153 343.692C98.4447 336.458 93.8213 315.659 96.7544 305.122Z" fill="#C2E2E8"/>
</g>
<defs>
<filter id="filter0_d_209_36" x="0" y="0" width="394.527" height="632" filterUnits="userSpaceOnUse" color-interpolation-filters="sRGB">
<feFlood flood-opacity="0" result="BackgroundImageFix"/>
<feColorMatrix in="SourceAlpha" type="matrix" values="0 0 0 0 0 0 0 0 0 0 0 0 0 0 0 0 0 0 127 0" result="hardAlpha"/>
<feOffset dx="-2" dy="2"/>
<feGaussianBlur stdDeviation="3"/>
<feComposite in2="hardAlpha" operator="out"/>
<feColorMatrix type="matrix" values="0 0 0 0 0 0 0 0 0 0 0 0 0 0 0 0 0 0 0.5 0"/>
<feBlend mode="normal" in2="BackgroundImageFix" result="effect1_dropShadow_209_36"/>
<feBlend mode="normal" in="SourceGraphic" in2="effect1_dropShadow_209_36" result="shape"/>
</filter>
</defs>
</svg>
