<svg xmlns="http://www.w3.org/2000/svg" viewBox="0 0 287.72 295.45"><g id="Layer_2" data-name="Layer 2"><g id="Layer_1-2" data-name="Layer 1"><path d="M267.19,113.94c-1.77,10.66-6.57,18.49-18.22,19.42a4.16,4.16,0,0,0-2.92,2.49c-1.89,13.51-9.33,18.12-22.66,18.67-.74,12.72-7.2,20.11-20.75,20.61-.25,15-7.28,23.33-22.34,22.9-7.9,36.05-31.31,9.47-30.38,25.09,0,18,.2,36-.08,54-.36,7.61,3.56,11.94,7.82,17.67-11.66-.65-9.43-17.26-9.79-25.37l-1.24,0v22.95c-4.89-1.88-4.88-1.88-4.86-7.67,0-5.09,0-10.19,0-15.29l-2.13-.06c-.15,9.38,2.07,22.88-9.53,26.09l-.62-1c14.17-9.57,5.9-53.57,8-71.05,0-6-1.62-7.17-7.33-5.08-5.14,1.88-16-2.07-18.23-7.4-2.2-4-2-11.37-7-12.95-12-.67-19.4-7.56-19.37-19.37,0-2.33-.55-3.57-3.31-3.79-20.69-2.38-13.69-18.29-21.34-20.58C47,152.1,44.2,148.24,41.55,136.29c-3.68-7.16-17.6.17-20.78-20.71C18.59,109.26.86,115.16,0,93.43,1.85,75,29.08,74.69,43.58,70.87c22.2-2.42,43.7-10.39,66.19-8.47,7.59.24,9.56-1,9-9.12-1-14.51-2.07-29-4-43.42-.32-3.6-2.09-5.58-5.6-5.61C101.43,5.4,72.73.52,71.26,8.73c-3,28.84,2.24,25,27.06,24.81,3.73,0,5.88-1.91,6-5.81.35-16.28.44-15.38-15.61-15.06C79.39,13,82,31.43,95.74,22.89a40.08,40.08,0,0,1-8-3.95c5.34-4.46,14.71-1.59,12.15,5.42-2,8.55-9.3,3.76-14.21,4.74-8.66,1.73-6.19-9.7-6.47-15-.4-9.32,17.56-4.26,23.65-5.43,9.63-.24,4.35,16.68,5.63,23,0,4-2,5.77-5.88,5.77h-30c-3.82,0-5.9-1.64-5.87-5.69.06-8.5,0-17,0-25.5,0-4.1,1.9-6.16,6-6.15q20,0,40,0c4.21,0,5.77,2.28,6,6.23q.93,14.27,2.19,28.5c1.26,7.88,0,16.71,4.92,23.47,2.77,4.51,6.8,14,13.13,9.28,1.62-5.24-1.49-9-5.39-12.06-4.07-3.85-3.27-7.6.5-11.45,10.65-11.92,12.79-6.76,21.13,2.35,6.48,8.15-9.61,11.23-7.28,19.36,1.11,4.14,6.29,2.83,7.88,1.47-.29-4.95,4.17-6.54,6.36-9.67.83-1.19,2.17-2.35,2.32-3.64,2.12-16.26,2.53-32.71,4.41-49,.24-1.81,3.35-4.57,5.19-4.62,13.83-.4,27.67-.43,41.49,0,8.93,1.43,4.33,24.41,5.28,31.77,0,3.37-1.94,5.25-5.34,5.26q-15.51.07-31,0c-3.42,0-5.28-1.75-5.29-5.22C180.5,26,175.38,8,184.79,8.6c6.51,1.27,24.19-4.12,23.71,6,.87,15.36-1,15.2-15.58,14.6-9.78-.69-6.78-18.22,6.82-10.34a30.14,30.14,0,0,0-8,4.42c12.05,8.34,18.4-10.47,5.83-10.63-14.46-.41-14.51-.36-14.16,14.06.12,5.2,1.73,6.84,6.91,6.87,25.72-.72,27.74,6.07,26.4-23.36,0-4.19-2.12-6-6.2-6-45.12,2.24-34.4-11.41-40,32.4-1.55,6.44-1.74,12.65-1.82,19-1.12,9.63,9.82,5.93,15.85,6.77,21.44,2.8,127.5,6.12,98,44.9C278.65,110.7,272.63,111.7,267.19,113.94ZM158.67,182.86c5-.38,6-1.76,3.88-5.54,3.45,2.93,5.1-.31,6.75-2.27.81-1,1.28-3.22.71-4.17-5.58-11.49-13.67-2.57-18.12,4.57l1.06,1.27c2.87-1.83,5.79-7.15,8.55-.44-4.73-2.26-8.76.59-8.51,4.57L158.8,183c-6.2.95-7.38,2.64-4.73,9Zm-24.94.07c4.36-3-1.41-4.61-.92-7.07,6.64,1.58-1.16-6.5-2.4-8.22,2,.53,3.88,4.08,5.92.1.81,1.79,1.51,5.66,2.74,6.69a31.23,31.23,0,0,0,9.36-.06c.78-.15.92-3.37,1.42-5.16,1.27-3.5,3.42-10.82,1.84-12.81-3.63-2.64-11.6-3.19-16.1-.41-.15,3.8.58,7.93.72,11.77l-6.25-6.66,4.39.5-3.89-5.66c4.63-.6,3.06-2.53,1.07-4.7-4.36-4.76-8.66-9.58-13-14.37,3.81,3.49,7.61,7,12.15,11.18.1-6.21-5.16-7.82-7-11.53l4.65,2.21.93-.85q-2.53-3.9-5.09-7.8l3.93,2.51,1.22-1q-2.56-3.69-5.11-7.39l2.65-.1c-.69-5.08-5.55-8.22-8.3-12.31l7.9,6.72c2-13.72-1.66-10-7.92-16.47l-.13.14c6-.4,6-.39,4.59-6-1.7-4.09,3.58-26.45-5.25-19.87,8.38-11.67-2.11-9.48-10.49-9.59-9.79-.06-19.7-.93-28.71,4.27-1.14-.73-3.07-2.28-3.29-2.07-2.23,2.19-7,0-7.8,4.46-9.09-5.16-33.47,4.27-45.12,6.19,6.8,6.79,12.63,12.91,18.87,18.58,1.16,1.06,4,.29,6.05.37-2.67,2.86-1,5.07,1.11,7.17,6.63,4.82,16.88,21.63,24.85,19-.09,1.88-1,4.54-.13,5.52C78.91,135,87,148.2,94.62,146.8c-.9,7.23,6.31,10.65,10.22,15.69L115.33,153,107,163.28c11.24,20.21,14.14-12.19,23.61,4.55-7.45-5.94-8.68-.33-13.85,4.43l6.44,6.46c1,3.3,2.29,5.79,6.47,3.17.84-.53,2.8.73,4.23,1.17l-6.26,1.08,6.61,7.06,1.52-.83Zm35.14-80.78-.13-.12c-.45.64-.77,1.64-1.38,1.87-6.66,2.47-8.47,6.66-5.78,14.09,8.11-6.09,14.75-14.18,22-21.31,1.22-1.3,1.09-3.85,1.58-5.82,4.53,3.13.91,5.3-1.07,7.29-6.94,7-14.1,13.77-21,20.77-1.76,1.77-4,3.83-1.61,6.78l-3.12,6.2,1.29.72,7.71-6.57c-3.12,3.86-6.13,7.8-9.11,11.77l1.2,1,4.72-3.22a121.31,121.31,0,0,0-8,10.89l1.55,1.05c12.54-12.55,25.22-25,37.76-37.54,1.69-1.7,2.89-2.31,4.83-.17,3.66,4,7.6,7.76,11.43,11.62-5.13-2.78-11.76-14.92-17.59-8.59-13.17,15-29.94,26.5-40.7,43.32l5.44-2.3-5.07,7,1.42,1.19,7.49-6.48c-2.85,6.11-9.39,8-10.36,14.86,4.18-1.79,6.6-7.33,10.26-7.63,3.68.1,7.62,9.36,12.63,6.29,5.4-6.36,18.48-13.8,17.66-22.45,1.62.11,3.93,1,4.76.22,6.48-5.91,12.66-12.13,18.73-18.05-.92-2.08-1.53-3.43-2.13-4.79,3.27,1.78,5.87.9,8.37-1.7,6.14-7.72,16.58-12.87,18.8-23,6.48,1.3,17.29-14.44,23.17-18.74l-.63-1.55c-12.63-2.07-25-5.49-37.64-7.61-5.05.18-8.14,5.49-12,8.23l6.15-8.18-10.84-2.82L209,69.91l1.75,3.28c-12.28-8.37-26.18-6.8-40.24-6.42-6.42,0-3.74,6.25-.54,8.88-9.32-3.81-3.05,14.43-5.9,19C162.12,101.62,161.69,101.74,168.87,102.15ZM162.16,73c-11.81,0-22.77-.11-33.72.16-1.17,0-3.17,2.17-3.29,3.47.28,5.05-2.63,14.61,3.37,16.86C165.46,92.45,162.43,100.89,162.16,73ZM144.08,98c-4.56,1.18-18-3.3-16.76,4.24,1.78,4.57-.63,19.73,5.84,18.68,27.39-1.6,23.1,6.3,27.21-13.84C164.46,95.48,151.19,98.23,144.08,98Zm-10.14,51.84c24.87,0,19,3.26,22.2-20.54.36-3.17-.89-4.5-4.22-4.37C122.9,124.41,131.71,124.07,133.94,149.79Zm18,58.92.83.51L278,83.57C234.23,122.51,192.47,166.23,152,208.71Zm-16.89-8.11C103.18,157.25,55.26,120.37,16.86,78.21,48.83,121.81,96.76,158.49,135.09,200.6ZM9.14,82.74,134.89,209.35c-.11-5.15-5.67-7.74-8.6-11.38C86.83,160.07,50.17,118.8,9.14,82.74ZM152.06,198.6l1.06.75c39.23-39.33,81-77.6,117.79-118.88l-1.06-.74C230.48,118.93,188.86,157.25,152.06,198.6Zm-2.21-10.2c0-10.3,1.13-9.13-7.63-9.46-7.73-.52-3.49,8.42-4.72,13-.48,4.49,1,6.27,5.79,6C151.66,198.25,149.62,194.89,149.85,188.4Zm.91,20.4c-1-2.28-1.5-5.56-3.27-6.58-2.55-1-9.11-1.46-9.84,2.61C133.67,218.74,151,226,150.76,208.8Zm-2.94,20.14c-.47-2.34,1.73-6.27-3.92-6.28-4.93,0-4.29,3.08-4.15,6s-1.38,6.59,4,6.66C148.8,235.39,147.77,232.12,147.82,228.94Zm.47,13.6-1.44-1.47c-7.14.87-8.68,3.09-6.23,9.74C148,254.68,147.08,247.57,148.29,242.54Z"/><path d="M60.82,110.45,73.56,96.33l1.23.34C75.08,112,76.3,110.71,60.82,110.45Z"/><path d="M118.8,137c-9.49-7.41-17.47-16.36-25.66-25.12C102.53,119.39,110.34,128.56,118.8,137Z"/><path d="M64.61,81c1.24-3,2.74-2,4.4-.35C74.08,85.82,79.2,90.91,84.29,96,78,90.6,72.08,84.79,64.61,81Z"/><path d="M49.65,96.55q7.58-7.83,15.13-15.67Q57.22,88.73,49.65,96.55Z"/><path d="M225,110.43c-14.62.72-12.49-.09-12.46-14.56Z"/><path d="M168.65,131.55c9.58-11.32,20.52-21.33,31.12-31.66C190.41,111.39,179.14,121.1,168.65,131.55Z"/><path d="M199.6,100.06c6.29-6.48,12.56-13,18.88-19.42,1.49-1.51,3.18-3,4.31.4C212.92,84.28,208.69,95.49,199.6,100.06Z"/><path d="M222.62,80.88,240.28,98C233.29,93.49,228.19,87,222.62,80.88Z"/><path d="M36.87,89.5,52.06,75.73C52.39,92.44,53.44,89.32,36.87,89.5Z"/><path d="M248.39,89.5c-13.84.48-14.43.78-11.81-14.09Z"/><path d="M193.66,100.55c6.17-6.91,12-14.17,19.1-20.15C207.88,88.38,200.1,93.9,193.66,100.55Z"/><path d="M172.66,121.54c4.87-6.88,11.17-12.29,17.62-17.62Z"/><path d="M83.83,134.85l11.39-10.48C98.71,133.65,96,136.52,83.83,134.85Z"/><path d="M116.78,142.08c-8.31-7.57-9.31-8-17.12.47C109.26,131.25,106.91,130.14,116.78,142.08Z"/><path d="M130.76,156.05l-14.14-14.14Z"/><path d="M191.5,122.35l11.39,13.08C190.37,136.28,191.44,134.48,191.5,122.35Z"/><path d="M189.74,144.55c-9.33-8.42-8.48-13.09-19.13-2.48C182,127.67,179.35,134.09,189.74,144.55Z"/><path d="M170.79,141.9l-12.16,12.16Z"/><path d="M106,68.41c.06,17.5,2.35,15-14.92,15C96.38,78.11,100.62,73.86,106,68.41Z"/><path d="M115.28,78.92C95.15,99.26,101.34,91.28,118.8,112c-7.66-5.25-12.94-11.42-20.46-18.15Z"/><path d="M91.74,92.55,73.8,75.2c2.09-1.82,3.53-3.07,5-4.33C74.14,77.83,88.39,86.11,91.74,92.55Z"/><path d="M181.12,68.74,196.39,83.4C180,83.54,180.71,85.51,181.12,68.74Z"/><path d="M208.75,78.41,195.66,92.56Z"/><path d="M176.86,142,187,150.48l-.35,1.07C176.72,153,177.5,151.12,176.86,142Z"/><path d="M169.53,157.48l5,6C169.32,165.25,168.39,164.45,169.53,157.48Z"/><path d="M168.87,102.15V85.68l8.46,9.89c-9.72.48-3.52,2.4-8.59,6.46Z"/><path d="M118.63,102.07c-.31-.11-.88-.18-.9-.33-.67-4.94-3.53-7.09-9.14-5.81l.22-1.4,9.7-7.44c0,4.41,0,9.76,0,15.11Z"/><path d="M100.36,152.2,109,141.67l1.49.62C111,152,110.18,152.05,100.36,152.2Z"/></g></g></svg>