<svg width="154" height="154" viewBox="0 0 154 154" fill="none" xmlns="http://www.w3.org/2000/svg">
<g filter="url(#filter0_d_242_286)">
<circle cx="77" cy="73" r="72.5" fill="url(#paint0_linear_242_286)" stroke="#182952"/>
<path d="M69.6203 73.6594V83.9194C67.0403 85.7794 64.0403 86.7094 60.6203 86.7094C58.5203 86.7094 56.6183 86.3854 54.9143 85.7374C53.2223 85.0774 51.7763 84.1654 50.5763 83.0014C49.3763 81.8254 48.4523 80.4274 47.8043 78.8074C47.1563 77.1874 46.8323 75.4054 46.8323 73.4614C46.8323 71.5054 47.1443 69.7174 47.7683 68.0974C48.3923 66.4654 49.2863 65.0674 50.4503 63.9034C51.6143 62.7274 53.0183 61.8214 54.6623 61.1854C56.3063 60.5374 58.1543 60.2134 60.2063 60.2134C61.2503 60.2134 62.2163 60.2974 63.1043 60.4654C64.0043 60.6214 64.8383 60.8434 65.6063 61.1314C66.3743 61.4194 67.0823 61.7674 67.7303 62.1754C68.3783 62.5834 68.9723 63.0394 69.5123 63.5434L68.3063 65.4694C68.1143 65.7694 67.8683 65.9554 67.5683 66.0274C67.2683 66.0994 66.9443 66.0274 66.5963 65.8114C66.2483 65.6074 65.8763 65.3914 65.4803 65.1634C65.0963 64.9354 64.6523 64.7254 64.1483 64.5334C63.6443 64.3294 63.0623 64.1674 62.4023 64.0474C61.7423 63.9154 60.9623 63.8494 60.0623 63.8494C58.6943 63.8494 57.4583 64.0774 56.3543 64.5334C55.2623 64.9774 54.3263 65.6194 53.5463 66.4594C52.7663 67.2874 52.1663 68.2954 51.7463 69.4834C51.3263 70.6714 51.1163 71.9974 51.1163 73.4614C51.1163 75.0094 51.3383 76.3954 51.7823 77.6194C52.2263 78.8314 52.8563 79.8634 53.6723 80.7154C54.4883 81.5554 55.4723 82.1974 56.6243 82.6414C57.7883 83.0854 59.0843 83.3074 60.5123 83.3074C61.5803 83.3074 62.5283 83.1934 63.3563 82.9654C64.1963 82.7374 65.0183 82.4194 65.8223 82.0114V76.8634H62.2043C61.9283 76.8634 61.7123 76.7914 61.5563 76.6474C61.4003 76.4914 61.3223 76.2934 61.3223 76.0534V73.6594H69.6203ZM102.544 73.4614C102.544 75.3814 102.232 77.1514 101.608 78.7714C100.984 80.3914 100.102 81.7894 98.9617 82.9654C97.8337 84.1294 96.4717 85.0414 94.8757 85.7014C93.2917 86.3614 91.5277 86.6914 89.5837 86.6914C87.6517 86.6914 85.8877 86.3614 84.2917 85.7014C82.7077 85.0414 81.3457 84.1294 80.2057 82.9654C79.0657 81.7894 78.1837 80.3914 77.5597 78.7714C76.9357 77.1514 76.6237 75.3814 76.6237 73.4614C76.6237 71.5414 76.9357 69.7714 77.5597 68.1514C78.1837 66.5314 79.0657 65.1334 80.2057 63.9574C81.3457 62.7814 82.7077 61.8634 84.2917 61.2034C85.8877 60.5434 87.6517 60.2134 89.5837 60.2134C91.5277 60.2134 93.2917 60.5434 94.8757 61.2034C96.4717 61.8634 97.8337 62.7814 98.9617 63.9574C100.102 65.1334 100.984 66.5314 101.608 68.1514C102.232 69.7714 102.544 71.5414 102.544 73.4614ZM98.2417 73.4614C98.2417 71.9734 98.0377 70.6354 97.6297 69.4474C97.2337 68.2594 96.6577 67.2514 95.9017 66.4234C95.1577 65.5954 94.2517 64.9594 93.1837 64.5154C92.1157 64.0714 90.9157 63.8494 89.5837 63.8494C88.2637 63.8494 87.0697 64.0714 86.0017 64.5154C84.9337 64.9594 84.0217 65.5954 83.2657 66.4234C82.5097 67.2514 81.9277 68.2594 81.5197 69.4474C81.1117 70.6354 80.9077 71.9734 80.9077 73.4614C80.9077 74.9614 81.1117 76.3054 81.5197 77.4934C81.9277 78.6814 82.5097 79.6894 83.2657 80.5174C84.0217 81.3334 84.9337 81.9634 86.0017 82.4074C87.0697 82.8394 88.2637 83.0554 89.5837 83.0554C90.9157 83.0554 92.1157 82.8394 93.1837 82.4074C94.2517 81.9634 95.1577 81.3334 95.9017 80.5174C96.6577 79.6894 97.2337 78.6814 97.6297 77.4934C98.0377 76.3054 98.2417 74.9614 98.2417 73.4614ZM114.484 60.5014V70.7974C114.484 71.8774 114.436 72.9394 114.34 73.9834C114.244 75.0154 114.118 76.1314 113.962 77.3314H111.352C111.184 76.1314 111.052 75.0154 110.956 73.9834C110.872 72.9394 110.83 71.8774 110.83 70.7974V60.5014H114.484ZM110.092 84.1894C110.092 83.8414 110.152 83.5174 110.272 83.2174C110.404 82.9054 110.584 82.6354 110.812 82.4074C111.04 82.1794 111.304 81.9994 111.604 81.8674C111.904 81.7354 112.234 81.6694 112.594 81.6694C112.942 81.6694 113.266 81.7354 113.566 81.8674C113.878 81.9994 114.142 82.1794 114.358 82.4074C114.586 82.6354 114.766 82.9054 114.898 83.2174C115.03 83.5174 115.096 83.8414 115.096 84.1894C115.096 84.5494 115.03 84.8794 114.898 85.1794C114.766 85.4794 114.586 85.7434 114.358 85.9714C114.142 86.1994 113.878 86.3734 113.566 86.4934C113.266 86.6254 112.942 86.6914 112.594 86.6914C112.234 86.6914 111.904 86.6254 111.604 86.4934C111.304 86.3734 111.04 86.1994 110.812 85.9714C110.584 85.7434 110.404 85.4794 110.272 85.1794C110.152 84.8794 110.092 84.5494 110.092 84.1894Z" fill="#182952"/>
</g>
<defs>
<filter id="filter0_d_242_286" x="0" y="0" width="154" height="154" filterUnits="userSpaceOnUse" color-interpolation-filters="sRGB">
<feFlood flood-opacity="0" result="BackgroundImageFix"/>
<feColorMatrix in="SourceAlpha" type="matrix" values="0 0 0 0 0 0 0 0 0 0 0 0 0 0 0 0 0 0 127 0" result="hardAlpha"/>
<feOffset dy="4"/>
<feGaussianBlur stdDeviation="2"/>
<feComposite in2="hardAlpha" operator="out"/>
<feColorMatrix type="matrix" values="0 0 0 0 0 0 0 0 0 0 0 0 0 0 0 0 0 0 0.25 0"/>
<feBlend mode="normal" in2="BackgroundImageFix" result="effect1_dropShadow_242_286"/>
<feBlend mode="normal" in="SourceGraphic" in2="effect1_dropShadow_242_286" result="shape"/>
</filter>
<linearGradient id="paint0_linear_242_286" x1="21.1765" y1="134.549" x2="129.484" y2="16.2222" gradientUnits="userSpaceOnUse">
<stop stop-color="#CA9938"/>
<stop offset="1" stop-color="white"/>
</linearGradient>
</defs>
</svg>
