<svg width="714" height="351" viewBox="0 0 714 351" fill="none" xmlns="http://www.w3.org/2000/svg">
<g filter="url(#filter0_d_271_56)">
<mask id="path-1-inside-1_271_56" fill="white">
<path fill-rule="evenodd" clip-rule="evenodd" d="M700 39C705.523 39 710 43.4772 710 49V195.215C710 200.738 705.523 205.215 700 205.215H385.825C360.087 207.822 347.05 213.785 335.974 218.851C327.49 222.731 320.158 226.085 309.15 227C321.562 224.503 327.554 211.057 314.482 205.215H180C174.477 205.215 170 200.738 170 195.215V49C170 43.4772 174.477 39 180 39H700Z"/>
</mask>
<path fill-rule="evenodd" clip-rule="evenodd" d="M700 39C705.523 39 710 43.4772 710 49V195.215C710 200.738 705.523 205.215 700 205.215H385.825C360.087 207.822 347.05 213.785 335.974 218.851C327.49 222.731 320.158 226.085 309.15 227C321.562 224.503 327.554 211.057 314.482 205.215H180C174.477 205.215 170 200.738 170 195.215V49C170 43.4772 174.477 39 180 39H700Z" fill="white"/>
<path d="M385.825 205.215L385.775 204.718L385.8 204.715H385.825V205.215ZM335.974 218.851L336.182 219.306L335.974 218.851ZM309.15 227L309.191 227.498L309.051 226.51L309.15 227ZM314.482 205.215V204.715H314.588L314.686 204.759L314.482 205.215ZM709.5 49C709.5 43.7533 705.247 39.5 700 39.5V38.5C705.799 38.5 710.5 43.201 710.5 49H709.5ZM709.5 195.215V49H710.5V195.215H709.5ZM700 204.715C705.247 204.715 709.5 200.462 709.5 195.215H710.5C710.5 201.014 705.799 205.715 700 205.715V204.715ZM385.825 204.715H700V205.715H385.825V204.715ZM385.876 205.713C360.215 208.311 347.233 214.251 336.182 219.306L335.766 218.396C346.866 213.319 359.96 207.332 385.775 204.718L385.876 205.713ZM336.182 219.306C327.696 223.187 320.294 226.576 309.191 227.498L309.108 226.502C320.021 225.595 327.284 222.276 335.766 218.396L336.182 219.306ZM309.051 226.51C315.118 225.289 319.548 221.406 320.897 217.209C321.568 215.12 321.48 212.951 320.464 210.96C319.445 208.964 317.469 207.098 314.278 205.672L314.686 204.759C318.031 206.254 320.208 208.259 321.354 210.505C322.503 212.756 322.593 215.2 321.849 217.515C320.367 222.125 315.594 226.214 309.248 227.49L309.051 226.51ZM180 204.715H314.482V205.715H180V204.715ZM170.5 195.215C170.5 200.462 174.753 204.715 180 204.715V205.715C174.201 205.715 169.5 201.014 169.5 195.215H170.5ZM170.5 49V195.215H169.5V49H170.5ZM180 39.5C174.753 39.5 170.5 43.7533 170.5 49H169.5C169.5 43.201 174.201 38.5 180 38.5V39.5ZM700 39.5H180V38.5H700V39.5Z" fill="black" mask="url(#path-1-inside-1_271_56)"/>
</g>
<path d="M356.394 89.506C356.571 89.506 356.725 89.576 356.856 89.716L358.158 91.13C357.337 92.1193 356.329 92.8847 355.134 93.426C353.939 93.958 352.511 94.224 350.85 94.224C349.375 94.224 348.041 93.972 346.846 93.468C345.661 92.9547 344.648 92.2453 343.808 91.34C342.968 90.4253 342.319 89.338 341.862 88.078C341.414 86.818 341.19 85.432 341.19 83.92C341.19 82.408 341.428 81.022 341.904 79.762C342.389 78.4927 343.066 77.4053 343.934 76.5C344.811 75.5853 345.857 74.876 347.07 74.372C348.293 73.868 349.637 73.616 351.102 73.616C352.558 73.616 353.841 73.854 354.952 74.33C356.072 74.7967 357.043 75.422 357.864 76.206L356.786 77.732C356.711 77.8347 356.623 77.9233 356.52 77.998C356.417 78.0727 356.277 78.11 356.1 78.11C355.913 78.11 355.699 78.026 355.456 77.858C355.223 77.6807 354.919 77.4893 354.546 77.284C354.182 77.0693 353.72 76.878 353.16 76.71C352.609 76.5327 351.919 76.444 351.088 76.444C350.127 76.444 349.245 76.612 348.442 76.948C347.639 77.284 346.949 77.774 346.37 78.418C345.791 79.062 345.339 79.846 345.012 80.77C344.695 81.694 344.536 82.744 344.536 83.92C344.536 85.1053 344.704 86.1647 345.04 87.098C345.376 88.022 345.838 88.806 346.426 89.45C347.014 90.0847 347.705 90.57 348.498 90.906C349.291 91.242 350.145 91.41 351.06 91.41C351.62 91.41 352.119 91.382 352.558 91.326C353.006 91.2607 353.417 91.1627 353.79 91.032C354.163 90.892 354.513 90.7193 354.84 90.514C355.176 90.3087 355.507 90.0567 355.834 89.758C356.021 89.59 356.207 89.506 356.394 89.506ZM366.294 73.28V94H363.284V73.28H366.294ZM375.945 79.72V94H372.935V79.72H375.945ZM376.449 75.408C376.449 75.6787 376.393 75.9353 376.281 76.178C376.178 76.4207 376.034 76.6353 375.847 76.822C375.66 76.9993 375.441 77.144 375.189 77.256C374.946 77.3587 374.685 77.41 374.405 77.41C374.134 77.41 373.878 77.3587 373.635 77.256C373.402 77.144 373.196 76.9993 373.019 76.822C372.842 76.6353 372.697 76.4207 372.585 76.178C372.482 75.9353 372.431 75.6787 372.431 75.408C372.431 75.128 372.482 74.8667 372.585 74.624C372.697 74.3813 372.842 74.1713 373.019 73.994C373.196 73.8073 373.402 73.6627 373.635 73.56C373.878 73.448 374.134 73.392 374.405 73.392C374.685 73.392 374.946 73.448 375.189 73.56C375.441 73.6627 375.66 73.8073 375.847 73.994C376.034 74.1713 376.178 74.3813 376.281 74.624C376.393 74.8667 376.449 75.128 376.449 75.408ZM392.621 82.52C392.528 82.6413 392.439 82.7347 392.355 82.8C392.271 82.8653 392.15 82.898 391.991 82.898C391.832 82.898 391.664 82.842 391.487 82.73C391.319 82.618 391.114 82.4967 390.871 82.366C390.638 82.226 390.353 82.1 390.017 81.988C389.681 81.876 389.261 81.82 388.757 81.82C388.104 81.82 387.53 81.9367 387.035 82.17C386.55 82.4033 386.139 82.7393 385.803 83.178C385.476 83.6073 385.229 84.1347 385.061 84.76C384.902 85.376 384.823 86.0713 384.823 86.846C384.823 87.6487 384.912 88.3627 385.089 88.988C385.266 89.6133 385.518 90.1407 385.845 90.57C386.181 90.9993 386.582 91.326 387.049 91.55C387.525 91.774 388.057 91.886 388.645 91.886C389.224 91.886 389.695 91.816 390.059 91.676C390.423 91.536 390.726 91.382 390.969 91.214C391.212 91.046 391.417 90.892 391.585 90.752C391.762 90.612 391.949 90.542 392.145 90.542C392.388 90.542 392.574 90.6353 392.705 90.822L393.559 91.928C393.214 92.348 392.831 92.7027 392.411 92.992C391.991 93.2813 391.548 93.5193 391.081 93.706C390.614 93.8833 390.129 94.0093 389.625 94.084C389.121 94.168 388.612 94.21 388.099 94.21C387.212 94.21 386.382 94.0467 385.607 93.72C384.842 93.384 384.17 92.9033 383.591 92.278C383.022 91.6433 382.569 90.8733 382.233 89.968C381.906 89.0533 381.743 88.0127 381.743 86.846C381.743 85.7913 381.892 84.816 382.191 83.92C382.49 83.0147 382.924 82.2353 383.493 81.582C384.072 80.9287 384.786 80.42 385.635 80.056C386.484 79.6827 387.464 79.496 388.575 79.496C389.611 79.496 390.521 79.664 391.305 80C392.098 80.336 392.803 80.812 393.419 81.428L392.621 82.52ZM401.79 73.28V85.292H402.434C402.639 85.292 402.807 85.264 402.938 85.208C403.069 85.152 403.204 85.0353 403.344 84.858L407.348 80.28C407.488 80.0933 407.642 79.9533 407.81 79.86C407.978 79.7667 408.193 79.72 408.454 79.72H411.184L406.368 85.152C406.088 85.516 405.78 85.8053 405.444 86.02C405.631 86.1507 405.794 86.3 405.934 86.468C406.074 86.6267 406.209 86.8087 406.34 87.014L411.478 94H408.79C408.547 94 408.337 93.9627 408.16 93.888C407.992 93.804 407.843 93.6547 407.712 93.44L403.582 87.84C403.442 87.6253 403.302 87.49 403.162 87.434C403.022 87.3687 402.812 87.336 402.532 87.336H401.79V94H398.78V73.28H401.79ZM432.156 79.496C433.21 79.496 434.162 79.6687 435.012 80.014C435.87 80.3593 436.598 80.8493 437.196 81.484C437.802 82.1187 438.269 82.8887 438.596 83.794C438.922 84.6993 439.086 85.7167 439.086 86.846C439.086 87.9753 438.922 88.9927 438.596 89.898C438.269 90.8033 437.802 91.578 437.196 92.222C436.598 92.8567 435.87 93.3467 435.012 93.692C434.162 94.0373 433.21 94.21 432.156 94.21C431.092 94.21 430.13 94.0373 429.272 93.692C428.422 93.3467 427.694 92.8567 427.088 92.222C426.481 91.578 426.014 90.8033 425.688 89.898C425.361 88.9927 425.198 87.9753 425.198 86.846C425.198 85.7167 425.361 84.6993 425.688 83.794C426.014 82.8887 426.481 82.1187 427.088 81.484C427.694 80.8493 428.422 80.3593 429.272 80.014C430.13 79.6687 431.092 79.496 432.156 79.496ZM432.156 91.858C433.444 91.858 434.4 91.4287 435.026 90.57C435.66 89.702 435.978 88.4653 435.978 86.86C435.978 85.2547 435.66 84.018 435.026 83.15C434.4 82.2727 433.444 81.834 432.156 81.834C430.849 81.834 429.878 82.2727 429.244 83.15C428.609 84.018 428.292 85.2547 428.292 86.86C428.292 88.4653 428.609 89.702 429.244 90.57C429.878 91.4287 430.849 91.858 432.156 91.858ZM447.592 81.61C447.9 81.2927 448.217 81.008 448.544 80.756C448.88 80.4947 449.234 80.2707 449.608 80.084C449.981 79.8973 450.378 79.7527 450.798 79.65C451.218 79.5473 451.675 79.496 452.17 79.496C452.954 79.496 453.64 79.6267 454.228 79.888C454.825 80.1493 455.324 80.518 455.726 80.994C456.136 81.47 456.444 82.044 456.65 82.716C456.855 83.3787 456.958 84.1113 456.958 84.914V94H453.962V84.914C453.962 83.9527 453.738 83.206 453.29 82.674C452.851 82.142 452.179 81.876 451.274 81.876C450.602 81.876 449.976 82.03 449.398 82.338C448.828 82.646 448.292 83.066 447.788 83.598V94H444.778V79.72H446.598C447.008 79.72 447.27 79.9113 447.382 80.294L447.592 81.61ZM473.046 94V79.72H474.866C475.276 79.72 475.538 79.9113 475.65 80.294L475.846 81.54C476.107 81.2413 476.378 80.9707 476.658 80.728C476.938 80.476 477.236 80.2613 477.554 80.084C477.88 79.8973 478.226 79.7527 478.59 79.65C478.963 79.5473 479.364 79.496 479.794 79.496C480.251 79.496 480.671 79.5613 481.054 79.692C481.436 79.8227 481.772 80.0093 482.062 80.252C482.36 80.4947 482.617 80.7887 482.832 81.134C483.046 81.4793 483.224 81.8667 483.364 82.296C483.578 81.8013 483.849 81.3767 484.176 81.022C484.502 80.6673 484.866 80.378 485.268 80.154C485.669 79.93 486.094 79.7667 486.542 79.664C486.999 79.552 487.461 79.496 487.928 79.496C488.693 79.496 489.374 79.6173 489.972 79.86C490.578 80.1027 491.087 80.4573 491.498 80.924C491.918 81.3813 492.235 81.946 492.45 82.618C492.664 83.29 492.772 84.0553 492.772 84.914V94H489.762V84.914C489.762 83.906 489.542 83.15 489.104 82.646C488.674 82.1327 488.035 81.876 487.186 81.876C486.803 81.876 486.444 81.9413 486.108 82.072C485.772 82.2027 485.478 82.394 485.226 82.646C484.974 82.898 484.773 83.2153 484.624 83.598C484.484 83.9713 484.414 84.41 484.414 84.914V94H481.404V84.914C481.404 83.8687 481.194 83.1033 480.774 82.618C480.354 82.1233 479.738 81.876 478.926 81.876C478.366 81.876 477.848 82.0207 477.372 82.31C476.896 82.59 476.457 82.9773 476.056 83.472V94H473.046ZM508.454 85.25C508.454 84.746 508.379 84.2793 508.23 83.85C508.09 83.4113 507.88 83.0333 507.6 82.716C507.32 82.3893 506.97 82.1373 506.55 81.96C506.139 81.7733 505.663 81.68 505.122 81.68C504.03 81.68 503.171 81.9927 502.546 82.618C501.921 83.2433 501.524 84.1207 501.356 85.25H508.454ZM501.272 87.098C501.309 87.91 501.435 88.6147 501.65 89.212C501.865 89.8 502.149 90.29 502.504 90.682C502.868 91.074 503.297 91.368 503.792 91.564C504.296 91.7507 504.856 91.844 505.472 91.844C506.06 91.844 506.569 91.7787 506.998 91.648C507.427 91.508 507.801 91.3587 508.118 91.2C508.435 91.032 508.706 90.8827 508.93 90.752C509.154 90.612 509.359 90.542 509.546 90.542C509.789 90.542 509.975 90.6353 510.106 90.822L510.96 91.928C510.605 92.348 510.204 92.7027 509.756 92.992C509.308 93.2813 508.832 93.5193 508.328 93.706C507.824 93.8833 507.306 94.0093 506.774 94.084C506.242 94.168 505.724 94.21 505.22 94.21C504.231 94.21 503.311 94.0467 502.462 93.72C501.622 93.384 500.889 92.894 500.264 92.25C499.648 91.606 499.163 90.808 498.808 89.856C498.463 88.904 498.29 87.8073 498.29 86.566C498.29 85.5767 498.444 84.6527 498.752 83.794C499.069 82.9353 499.517 82.1887 500.096 81.554C500.684 80.9193 501.393 80.42 502.224 80.056C503.064 79.6827 504.011 79.496 505.066 79.496C505.943 79.496 506.755 79.6407 507.502 79.93C508.249 80.21 508.893 80.6253 509.434 81.176C509.975 81.7267 510.395 82.4033 510.694 83.206C511.002 83.9993 511.156 84.9047 511.156 85.922C511.156 86.3887 511.105 86.7013 511.002 86.86C510.899 87.0187 510.713 87.098 510.442 87.098H501.272ZM531.114 94.224C529.928 94.224 529.014 93.8927 528.37 93.23C527.735 92.558 527.418 91.6153 527.418 90.402V82.086H525.85C525.682 82.086 525.537 82.0347 525.416 81.932C525.294 81.82 525.234 81.6567 525.234 81.442V80.224L527.544 79.888L528.202 75.758C528.248 75.5993 528.328 75.4733 528.44 75.38C528.552 75.2773 528.701 75.226 528.888 75.226H530.428V79.916H534.39V82.086H530.428V90.192C530.428 90.7053 530.554 91.0973 530.806 91.368C531.058 91.6387 531.394 91.774 531.814 91.774C532.047 91.774 532.248 91.746 532.416 91.69C532.584 91.6247 532.728 91.5593 532.85 91.494C532.971 91.4193 533.074 91.354 533.158 91.298C533.251 91.2327 533.34 91.2 533.424 91.2C533.592 91.2 533.727 91.2933 533.83 91.48L534.726 92.95C534.259 93.3607 533.708 93.678 533.074 93.902C532.439 94.1167 531.786 94.224 531.114 94.224ZM545.627 79.496C546.681 79.496 547.633 79.6687 548.483 80.014C549.341 80.3593 550.069 80.8493 550.667 81.484C551.273 82.1187 551.74 82.8887 552.067 83.794C552.393 84.6993 552.557 85.7167 552.557 86.846C552.557 87.9753 552.393 88.9927 552.067 89.898C551.74 90.8033 551.273 91.578 550.667 92.222C550.069 92.8567 549.341 93.3467 548.483 93.692C547.633 94.0373 546.681 94.21 545.627 94.21C544.563 94.21 543.601 94.0373 542.743 93.692C541.893 93.3467 541.165 92.8567 540.559 92.222C539.952 91.578 539.485 90.8033 539.159 89.898C538.832 88.9927 538.669 87.9753 538.669 86.846C538.669 85.7167 538.832 84.6993 539.159 83.794C539.485 82.8887 539.952 82.1187 540.559 81.484C541.165 80.8493 541.893 80.3593 542.743 80.014C543.601 79.6687 544.563 79.496 545.627 79.496ZM545.627 91.858C546.915 91.858 547.871 91.4287 548.497 90.57C549.131 89.702 549.449 88.4653 549.449 86.86C549.449 85.2547 549.131 84.018 548.497 83.15C547.871 82.2727 546.915 81.834 545.627 81.834C544.32 81.834 543.349 82.2727 542.715 83.15C542.08 84.018 541.763 85.2547 541.763 86.86C541.763 88.4653 542.08 89.702 542.715 90.57C543.349 91.4287 544.32 91.858 545.627 91.858ZM576.548 82.31C576.473 82.4407 576.389 82.534 576.296 82.59C576.202 82.646 576.086 82.674 575.946 82.674C575.787 82.674 575.614 82.6273 575.428 82.534C575.241 82.4313 575.022 82.3193 574.77 82.198C574.518 82.0767 574.219 81.9693 573.874 81.876C573.538 81.7733 573.141 81.722 572.684 81.722C572.31 81.722 571.97 81.7687 571.662 81.862C571.363 81.946 571.106 82.072 570.892 82.24C570.686 82.3987 570.528 82.59 570.416 82.814C570.304 83.0287 570.248 83.262 570.248 83.514C570.248 83.85 570.35 84.13 570.556 84.354C570.761 84.578 571.032 84.774 571.368 84.942C571.704 85.1007 572.086 85.2453 572.516 85.376C572.945 85.5067 573.384 85.6467 573.832 85.796C574.28 85.9453 574.718 86.118 575.148 86.314C575.577 86.51 575.96 86.7527 576.296 87.042C576.632 87.322 576.902 87.6673 577.108 88.078C577.313 88.4793 577.416 88.9693 577.416 89.548C577.416 90.22 577.294 90.8407 577.052 91.41C576.809 91.9793 576.454 92.474 575.988 92.894C575.521 93.314 574.938 93.6407 574.238 93.874C573.547 94.1073 572.754 94.224 571.858 94.224C571.363 94.224 570.882 94.1773 570.416 94.084C569.958 94 569.52 93.8833 569.1 93.734C568.689 93.5753 568.302 93.3887 567.938 93.174C567.583 92.9593 567.266 92.726 566.986 92.474L567.686 91.326C567.77 91.186 567.872 91.0787 567.994 91.004C568.124 90.92 568.283 90.878 568.47 90.878C568.666 90.878 568.857 90.9433 569.044 91.074C569.24 91.1953 569.464 91.3307 569.716 91.48C569.977 91.6293 570.29 91.7693 570.654 91.9C571.018 92.0213 571.47 92.082 572.012 92.082C572.46 92.082 572.847 92.0307 573.174 91.928C573.5 91.816 573.771 91.6667 573.986 91.48C574.2 91.2933 574.359 91.0833 574.462 90.85C574.564 90.6073 574.616 90.3507 574.616 90.08C574.616 89.716 574.513 89.4173 574.308 89.184C574.102 88.9507 573.827 88.75 573.482 88.582C573.146 88.414 572.758 88.2647 572.32 88.134C571.89 88.0033 571.452 87.8633 571.004 87.714C570.556 87.5647 570.112 87.392 569.674 87.196C569.244 87 568.857 86.7527 568.512 86.454C568.176 86.146 567.905 85.7773 567.7 85.348C567.494 84.9093 567.392 84.3773 567.392 83.752C567.392 83.1827 567.504 82.6413 567.728 82.128C567.961 81.6147 568.297 81.162 568.736 80.77C569.184 80.378 569.73 80.07 570.374 79.846C571.027 79.6127 571.778 79.496 572.628 79.496C573.589 79.496 574.462 79.65 575.246 79.958C576.03 80.266 576.688 80.686 577.22 81.218L576.548 82.31ZM592.41 85.25C592.41 84.746 592.335 84.2793 592.186 83.85C592.046 83.4113 591.836 83.0333 591.556 82.716C591.276 82.3893 590.926 82.1373 590.506 81.96C590.095 81.7733 589.619 81.68 589.078 81.68C587.986 81.68 587.127 81.9927 586.502 82.618C585.877 83.2433 585.48 84.1207 585.312 85.25H592.41ZM585.228 87.098C585.265 87.91 585.391 88.6147 585.606 89.212C585.821 89.8 586.105 90.29 586.46 90.682C586.824 91.074 587.253 91.368 587.748 91.564C588.252 91.7507 588.812 91.844 589.428 91.844C590.016 91.844 590.525 91.7787 590.954 91.648C591.383 91.508 591.757 91.3587 592.074 91.2C592.391 91.032 592.662 90.8827 592.886 90.752C593.11 90.612 593.315 90.542 593.502 90.542C593.745 90.542 593.931 90.6353 594.062 90.822L594.916 91.928C594.561 92.348 594.16 92.7027 593.712 92.992C593.264 93.2813 592.788 93.5193 592.284 93.706C591.78 93.8833 591.262 94.0093 590.73 94.084C590.198 94.168 589.68 94.21 589.176 94.21C588.187 94.21 587.267 94.0467 586.418 93.72C585.578 93.384 584.845 92.894 584.22 92.25C583.604 91.606 583.119 90.808 582.764 89.856C582.419 88.904 582.246 87.8073 582.246 86.566C582.246 85.5767 582.4 84.6527 582.708 83.794C583.025 82.9353 583.473 82.1887 584.052 81.554C584.64 80.9193 585.349 80.42 586.18 80.056C587.02 79.6827 587.967 79.496 589.022 79.496C589.899 79.496 590.711 79.6407 591.458 79.93C592.205 80.21 592.849 80.6253 593.39 81.176C593.931 81.7267 594.351 82.4033 594.65 83.206C594.958 83.9993 595.112 84.9047 595.112 85.922C595.112 86.3887 595.061 86.7013 594.958 86.86C594.855 87.0187 594.669 87.098 594.398 87.098H585.228ZM610.085 85.25C610.085 84.746 610.01 84.2793 609.861 83.85C609.721 83.4113 609.511 83.0333 609.231 82.716C608.951 82.3893 608.601 82.1373 608.181 81.96C607.77 81.7733 607.294 81.68 606.753 81.68C605.661 81.68 604.802 81.9927 604.177 82.618C603.552 83.2433 603.155 84.1207 602.987 85.25H610.085ZM602.903 87.098C602.94 87.91 603.066 88.6147 603.281 89.212C603.496 89.8 603.78 90.29 604.135 90.682C604.499 91.074 604.928 91.368 605.423 91.564C605.927 91.7507 606.487 91.844 607.103 91.844C607.691 91.844 608.2 91.7787 608.629 91.648C609.058 91.508 609.432 91.3587 609.749 91.2C610.066 91.032 610.337 90.8827 610.561 90.752C610.785 90.612 610.99 90.542 611.177 90.542C611.42 90.542 611.606 90.6353 611.737 90.822L612.591 91.928C612.236 92.348 611.835 92.7027 611.387 92.992C610.939 93.2813 610.463 93.5193 609.959 93.706C609.455 93.8833 608.937 94.0093 608.405 94.084C607.873 94.168 607.355 94.21 606.851 94.21C605.862 94.21 604.942 94.0467 604.093 93.72C603.253 93.384 602.52 92.894 601.895 92.25C601.279 91.606 600.794 90.808 600.439 89.856C600.094 88.904 599.921 87.8073 599.921 86.566C599.921 85.5767 600.075 84.6527 600.383 83.794C600.7 82.9353 601.148 82.1887 601.727 81.554C602.315 80.9193 603.024 80.42 603.855 80.056C604.695 79.6827 605.642 79.496 606.697 79.496C607.574 79.496 608.386 79.6407 609.133 79.93C609.88 80.21 610.524 80.6253 611.065 81.176C611.606 81.7267 612.026 82.4033 612.325 83.206C612.633 83.9993 612.787 84.9047 612.787 85.922C612.787 86.3887 612.736 86.7013 612.633 86.86C612.53 87.0187 612.344 87.098 612.073 87.098H602.903ZM632.745 94.224C631.559 94.224 630.645 93.8927 630.001 93.23C629.366 92.558 629.049 91.6153 629.049 90.402V82.086H627.481C627.313 82.086 627.168 82.0347 627.047 81.932C626.925 81.82 626.865 81.6567 626.865 81.442V80.224L629.175 79.888L629.833 75.758C629.879 75.5993 629.959 75.4733 630.071 75.38C630.183 75.2773 630.332 75.226 630.519 75.226H632.059V79.916H636.021V82.086H632.059V90.192C632.059 90.7053 632.185 91.0973 632.437 91.368C632.689 91.6387 633.025 91.774 633.445 91.774C633.678 91.774 633.879 91.746 634.047 91.69C634.215 91.6247 634.359 91.5593 634.481 91.494C634.602 91.4193 634.705 91.354 634.789 91.298C634.882 91.2327 634.971 91.2 635.055 91.2C635.223 91.2 635.358 91.2933 635.461 91.48L636.357 92.95C635.89 93.3607 635.339 93.678 634.705 93.902C634.07 94.1167 633.417 94.224 632.745 94.224ZM644.203 81.414C644.791 80.8353 645.435 80.3733 646.135 80.028C646.835 79.6733 647.652 79.496 648.585 79.496C649.369 79.496 650.055 79.6267 650.643 79.888C651.241 80.1493 651.74 80.518 652.141 80.994C652.552 81.47 652.86 82.044 653.065 82.716C653.271 83.3787 653.373 84.1113 653.373 84.914V94H650.377V84.914C650.377 83.9527 650.153 83.206 649.705 82.674C649.267 82.142 648.595 81.876 647.689 81.876C647.017 81.876 646.392 82.03 645.813 82.338C645.244 82.646 644.707 83.066 644.203 83.598V94H641.193V73.28H644.203V81.414ZM669.055 85.25C669.055 84.746 668.98 84.2793 668.831 83.85C668.691 83.4113 668.481 83.0333 668.201 82.716C667.921 82.3893 667.571 82.1373 667.151 81.96C666.74 81.7733 666.264 81.68 665.723 81.68C664.631 81.68 663.772 81.9927 663.147 82.618C662.521 83.2433 662.125 84.1207 661.957 85.25H669.055ZM661.873 87.098C661.91 87.91 662.036 88.6147 662.251 89.212C662.465 89.8 662.75 90.29 663.105 90.682C663.469 91.074 663.898 91.368 664.393 91.564C664.897 91.7507 665.457 91.844 666.073 91.844C666.661 91.844 667.169 91.7787 667.599 91.648C668.028 91.508 668.401 91.3587 668.719 91.2C669.036 91.032 669.307 90.8827 669.531 90.752C669.755 90.612 669.96 90.542 670.147 90.542C670.389 90.542 670.576 90.6353 670.707 90.822L671.561 91.928C671.206 92.348 670.805 92.7027 670.357 92.992C669.909 93.2813 669.433 93.5193 668.929 93.706C668.425 93.8833 667.907 94.0093 667.375 94.084C666.843 94.168 666.325 94.21 665.821 94.21C664.831 94.21 663.912 94.0467 663.063 93.72C662.223 93.384 661.49 92.894 660.865 92.25C660.249 91.606 659.763 90.808 659.409 89.856C659.063 88.904 658.891 87.8073 658.891 86.566C658.891 85.5767 659.045 84.6527 659.353 83.794C659.67 82.9353 660.118 82.1887 660.697 81.554C661.285 80.9193 661.994 80.42 662.825 80.056C663.665 79.6827 664.612 79.496 665.667 79.496C666.544 79.496 667.356 79.6407 668.103 79.93C668.849 80.21 669.493 80.6253 670.035 81.176C670.576 81.7267 670.996 82.4033 671.295 83.206C671.603 83.9993 671.757 84.9047 671.757 85.922C671.757 86.3887 671.705 86.7013 671.603 86.86C671.5 87.0187 671.313 87.098 671.043 87.098H661.873ZM344.97 113.72V128H341.96V113.72H344.97ZM345.474 109.408C345.474 109.679 345.418 109.935 345.306 110.178C345.203 110.421 345.059 110.635 344.872 110.822C344.685 110.999 344.466 111.144 344.214 111.256C343.971 111.359 343.71 111.41 343.43 111.41C343.159 111.41 342.903 111.359 342.66 111.256C342.427 111.144 342.221 110.999 342.044 110.822C341.867 110.635 341.722 110.421 341.61 110.178C341.507 109.935 341.456 109.679 341.456 109.408C341.456 109.128 341.507 108.867 341.61 108.624C341.722 108.381 341.867 108.171 342.044 107.994C342.221 107.807 342.427 107.663 342.66 107.56C342.903 107.448 343.159 107.392 343.43 107.392C343.71 107.392 343.971 107.448 344.214 107.56C344.466 107.663 344.685 107.807 344.872 107.994C345.059 108.171 345.203 108.381 345.306 108.624C345.418 108.867 345.474 109.128 345.474 109.408ZM354.366 115.61C354.674 115.293 354.991 115.008 355.318 114.756C355.654 114.495 356.009 114.271 356.382 114.084C356.755 113.897 357.152 113.753 357.572 113.65C357.992 113.547 358.449 113.496 358.944 113.496C359.728 113.496 360.414 113.627 361.002 113.888C361.599 114.149 362.099 114.518 362.5 114.994C362.911 115.47 363.219 116.044 363.424 116.716C363.629 117.379 363.732 118.111 363.732 118.914V128H360.736V118.914C360.736 117.953 360.512 117.206 360.064 116.674C359.625 116.142 358.953 115.876 358.048 115.876C357.376 115.876 356.751 116.03 356.172 116.338C355.603 116.646 355.066 117.066 354.562 117.598V128H351.552V113.72H353.372C353.783 113.72 354.044 113.911 354.156 114.294L354.366 115.61ZM378.573 116.31C378.499 116.441 378.415 116.534 378.321 116.59C378.228 116.646 378.111 116.674 377.971 116.674C377.813 116.674 377.64 116.627 377.453 116.534C377.267 116.431 377.047 116.319 376.795 116.198C376.543 116.077 376.245 115.969 375.899 115.876C375.563 115.773 375.167 115.722 374.709 115.722C374.336 115.722 373.995 115.769 373.687 115.862C373.389 115.946 373.132 116.072 372.917 116.24C372.712 116.399 372.553 116.59 372.441 116.814C372.329 117.029 372.273 117.262 372.273 117.514C372.273 117.85 372.376 118.13 372.581 118.354C372.787 118.578 373.057 118.774 373.393 118.942C373.729 119.101 374.112 119.245 374.541 119.376C374.971 119.507 375.409 119.647 375.857 119.796C376.305 119.945 376.744 120.118 377.173 120.314C377.603 120.51 377.985 120.753 378.321 121.042C378.657 121.322 378.928 121.667 379.133 122.078C379.339 122.479 379.441 122.969 379.441 123.548C379.441 124.22 379.32 124.841 379.077 125.41C378.835 125.979 378.48 126.474 378.013 126.894C377.547 127.314 376.963 127.641 376.263 127.874C375.573 128.107 374.779 128.224 373.883 128.224C373.389 128.224 372.908 128.177 372.441 128.084C371.984 128 371.545 127.883 371.125 127.734C370.715 127.575 370.327 127.389 369.963 127.174C369.609 126.959 369.291 126.726 369.011 126.474L369.711 125.326C369.795 125.186 369.898 125.079 370.019 125.004C370.15 124.92 370.309 124.878 370.495 124.878C370.691 124.878 370.883 124.943 371.069 125.074C371.265 125.195 371.489 125.331 371.741 125.48C372.003 125.629 372.315 125.769 372.679 125.9C373.043 126.021 373.496 126.082 374.037 126.082C374.485 126.082 374.873 126.031 375.199 125.928C375.526 125.816 375.797 125.667 376.011 125.48C376.226 125.293 376.385 125.083 376.487 124.85C376.59 124.607 376.641 124.351 376.641 124.08C376.641 123.716 376.539 123.417 376.333 123.184C376.128 122.951 375.853 122.75 375.507 122.582C375.171 122.414 374.784 122.265 374.345 122.134C373.916 122.003 373.477 121.863 373.029 121.714C372.581 121.565 372.138 121.392 371.699 121.196C371.27 121 370.883 120.753 370.537 120.454C370.201 120.146 369.931 119.777 369.725 119.348C369.52 118.909 369.417 118.377 369.417 117.752C369.417 117.183 369.529 116.641 369.753 116.128C369.987 115.615 370.323 115.162 370.761 114.77C371.209 114.378 371.755 114.07 372.399 113.846C373.053 113.613 373.804 113.496 374.653 113.496C375.615 113.496 376.487 113.65 377.271 113.958C378.055 114.266 378.713 114.686 379.245 115.218L378.573 116.31ZM389.648 128.224C388.463 128.224 387.548 127.893 386.904 127.23C386.269 126.558 385.952 125.615 385.952 124.402V116.086H384.384C384.216 116.086 384.071 116.035 383.95 115.932C383.829 115.82 383.768 115.657 383.768 115.442V114.224L386.078 113.888L386.736 109.758C386.783 109.599 386.862 109.473 386.974 109.38C387.086 109.277 387.235 109.226 387.422 109.226H388.962V113.916H392.924V116.086H388.962V124.192C388.962 124.705 389.088 125.097 389.34 125.368C389.592 125.639 389.928 125.774 390.348 125.774C390.581 125.774 390.782 125.746 390.95 125.69C391.118 125.625 391.263 125.559 391.384 125.494C391.505 125.419 391.608 125.354 391.692 125.298C391.785 125.233 391.874 125.2 391.958 125.2C392.126 125.2 392.261 125.293 392.364 125.48L393.26 126.95C392.793 127.361 392.243 127.678 391.608 127.902C390.973 128.117 390.32 128.224 389.648 128.224ZM400.939 116.366C401.387 115.461 401.928 114.751 402.563 114.238C403.197 113.715 403.958 113.454 404.845 113.454C405.153 113.454 405.442 113.491 405.713 113.566C405.983 113.631 406.226 113.734 406.441 113.874L406.231 116.142C406.193 116.301 406.133 116.413 406.049 116.478C405.974 116.534 405.871 116.562 405.741 116.562C405.601 116.562 405.4 116.539 405.139 116.492C404.877 116.436 404.602 116.408 404.313 116.408C403.893 116.408 403.519 116.469 403.193 116.59C402.875 116.711 402.586 116.889 402.325 117.122C402.073 117.355 401.849 117.64 401.653 117.976C401.457 118.312 401.275 118.695 401.107 119.124V128H398.097V113.72H399.847C400.164 113.72 400.383 113.781 400.505 113.902C400.626 114.014 400.71 114.215 400.757 114.504L400.939 116.366ZM423.272 113.72V128H421.452C421.051 128 420.794 127.809 420.682 127.426L420.458 126.096C420.16 126.413 419.842 126.703 419.506 126.964C419.18 127.225 418.83 127.449 418.456 127.636C418.083 127.823 417.682 127.967 417.252 128.07C416.832 128.173 416.38 128.224 415.894 128.224C415.11 128.224 414.42 128.093 413.822 127.832C413.225 127.571 412.721 127.202 412.31 126.726C411.909 126.25 411.606 125.681 411.4 125.018C411.195 124.346 411.092 123.609 411.092 122.806V113.72H414.102V122.806C414.102 123.767 414.322 124.514 414.76 125.046C415.208 125.578 415.885 125.844 416.79 125.844C417.453 125.844 418.069 125.695 418.638 125.396C419.217 125.088 419.758 124.668 420.262 124.136V113.72H423.272ZM439.822 116.52C439.728 116.641 439.64 116.735 439.556 116.8C439.472 116.865 439.35 116.898 439.192 116.898C439.033 116.898 438.865 116.842 438.688 116.73C438.52 116.618 438.314 116.497 438.072 116.366C437.838 116.226 437.554 116.1 437.218 115.988C436.882 115.876 436.462 115.82 435.958 115.82C435.304 115.82 434.73 115.937 434.236 116.17C433.75 116.403 433.34 116.739 433.004 117.178C432.677 117.607 432.43 118.135 432.262 118.76C432.103 119.376 432.024 120.071 432.024 120.846C432.024 121.649 432.112 122.363 432.29 122.988C432.467 123.613 432.719 124.141 433.046 124.57C433.382 124.999 433.783 125.326 434.25 125.55C434.726 125.774 435.258 125.886 435.846 125.886C436.424 125.886 436.896 125.816 437.26 125.676C437.624 125.536 437.927 125.382 438.17 125.214C438.412 125.046 438.618 124.892 438.786 124.752C438.963 124.612 439.15 124.542 439.346 124.542C439.588 124.542 439.775 124.635 439.906 124.822L440.76 125.928C440.414 126.348 440.032 126.703 439.612 126.992C439.192 127.281 438.748 127.519 438.282 127.706C437.815 127.883 437.33 128.009 436.826 128.084C436.322 128.168 435.813 128.21 435.3 128.21C434.413 128.21 433.582 128.047 432.808 127.72C432.042 127.384 431.37 126.903 430.792 126.278C430.222 125.643 429.77 124.873 429.434 123.968C429.107 123.053 428.944 122.013 428.944 120.846C428.944 119.791 429.093 118.816 429.392 117.92C429.69 117.015 430.124 116.235 430.694 115.582C431.272 114.929 431.986 114.42 432.836 114.056C433.685 113.683 434.665 113.496 435.776 113.496C436.812 113.496 437.722 113.664 438.506 114C439.299 114.336 440.004 114.812 440.62 115.428L439.822 116.52ZM459.841 128H456.831V116.086H449.873V124.192C449.873 124.705 449.999 125.097 450.251 125.368C450.503 125.639 450.839 125.774 451.259 125.774C451.492 125.774 451.693 125.746 451.861 125.69C452.029 125.625 452.174 125.559 452.295 125.494C452.416 125.419 452.519 125.354 452.603 125.298C452.696 125.233 452.785 125.2 452.869 125.2C453.037 125.2 453.172 125.293 453.275 125.48L454.171 126.95C453.704 127.361 453.154 127.678 452.519 127.902C451.884 128.117 451.231 128.224 450.559 128.224C449.374 128.224 448.459 127.893 447.815 127.23C447.18 126.558 446.863 125.615 446.863 124.402V116.086H445.295C445.127 116.086 444.982 116.035 444.861 115.932C444.74 115.82 444.679 115.657 444.679 115.442V114.224L446.989 113.888L447.647 109.758C447.694 109.599 447.773 109.473 447.885 109.38C447.997 109.277 448.146 109.226 448.333 109.226H449.873V113.916H459.841V128ZM460.457 109.338C460.457 109.609 460.401 109.865 460.289 110.108C460.186 110.341 460.042 110.551 459.855 110.738C459.668 110.915 459.449 111.06 459.197 111.172C458.954 111.275 458.698 111.326 458.427 111.326C458.156 111.326 457.9 111.275 457.657 111.172C457.424 111.06 457.214 110.915 457.027 110.738C456.85 110.551 456.705 110.341 456.593 110.108C456.49 109.865 456.439 109.609 456.439 109.338C456.439 109.058 456.49 108.797 456.593 108.554C456.705 108.302 456.85 108.087 457.027 107.91C457.214 107.723 457.424 107.579 457.657 107.476C457.9 107.364 458.156 107.308 458.427 107.308C458.698 107.308 458.954 107.364 459.197 107.476C459.449 107.579 459.668 107.723 459.855 107.91C460.042 108.087 460.186 108.302 460.289 108.554C460.401 108.797 460.457 109.058 460.457 109.338ZM472.619 113.496C473.674 113.496 474.626 113.669 475.475 114.014C476.334 114.359 477.062 114.849 477.659 115.484C478.266 116.119 478.732 116.889 479.059 117.794C479.386 118.699 479.549 119.717 479.549 120.846C479.549 121.975 479.386 122.993 479.059 123.898C478.732 124.803 478.266 125.578 477.659 126.222C477.062 126.857 476.334 127.347 475.475 127.692C474.626 128.037 473.674 128.21 472.619 128.21C471.555 128.21 470.594 128.037 469.735 127.692C468.886 127.347 468.158 126.857 467.551 126.222C466.944 125.578 466.478 124.803 466.151 123.898C465.824 122.993 465.661 121.975 465.661 120.846C465.661 119.717 465.824 118.699 466.151 117.794C466.478 116.889 466.944 116.119 467.551 115.484C468.158 114.849 468.886 114.359 469.735 114.014C470.594 113.669 471.555 113.496 472.619 113.496ZM472.619 125.858C473.907 125.858 474.864 125.429 475.489 124.57C476.124 123.702 476.441 122.465 476.441 120.86C476.441 119.255 476.124 118.018 475.489 117.15C474.864 116.273 473.907 115.834 472.619 115.834C471.312 115.834 470.342 116.273 469.707 117.15C469.072 118.018 468.755 119.255 468.755 120.86C468.755 122.465 469.072 123.702 469.707 124.57C470.342 125.429 471.312 125.858 472.619 125.858ZM488.055 115.61C488.363 115.293 488.68 115.008 489.007 114.756C489.343 114.495 489.698 114.271 490.071 114.084C490.444 113.897 490.841 113.753 491.261 113.65C491.681 113.547 492.138 113.496 492.633 113.496C493.417 113.496 494.103 113.627 494.691 113.888C495.288 114.149 495.788 114.518 496.189 114.994C496.6 115.47 496.908 116.044 497.113 116.716C497.318 117.379 497.421 118.111 497.421 118.914V128H494.425V118.914C494.425 117.953 494.201 117.206 493.753 116.674C493.314 116.142 492.642 115.876 491.737 115.876C491.065 115.876 490.44 116.03 489.861 116.338C489.292 116.646 488.755 117.066 488.251 117.598V128H485.241V113.72H487.061C487.472 113.72 487.733 113.911 487.845 114.294L488.055 115.61ZM512.262 116.31C512.188 116.441 512.104 116.534 512.01 116.59C511.917 116.646 511.8 116.674 511.66 116.674C511.502 116.674 511.329 116.627 511.142 116.534C510.956 116.431 510.736 116.319 510.484 116.198C510.232 116.077 509.934 115.969 509.588 115.876C509.252 115.773 508.856 115.722 508.398 115.722C508.025 115.722 507.684 115.769 507.376 115.862C507.078 115.946 506.821 116.072 506.606 116.24C506.401 116.399 506.242 116.59 506.13 116.814C506.018 117.029 505.962 117.262 505.962 117.514C505.962 117.85 506.065 118.13 506.27 118.354C506.476 118.578 506.746 118.774 507.082 118.942C507.418 119.101 507.801 119.245 508.23 119.376C508.66 119.507 509.098 119.647 509.546 119.796C509.994 119.945 510.433 120.118 510.862 120.314C511.292 120.51 511.674 120.753 512.01 121.042C512.346 121.322 512.617 121.667 512.822 122.078C513.028 122.479 513.13 122.969 513.13 123.548C513.13 124.22 513.009 124.841 512.766 125.41C512.524 125.979 512.169 126.474 511.702 126.894C511.236 127.314 510.652 127.641 509.952 127.874C509.262 128.107 508.468 128.224 507.572 128.224C507.078 128.224 506.597 128.177 506.13 128.084C505.673 128 505.234 127.883 504.814 127.734C504.404 127.575 504.016 127.389 503.652 127.174C503.298 126.959 502.98 126.726 502.7 126.474L503.4 125.326C503.484 125.186 503.587 125.079 503.708 125.004C503.839 124.92 503.998 124.878 504.184 124.878C504.38 124.878 504.572 124.943 504.758 125.074C504.954 125.195 505.178 125.331 505.43 125.48C505.692 125.629 506.004 125.769 506.368 125.9C506.732 126.021 507.185 126.082 507.726 126.082C508.174 126.082 508.562 126.031 508.888 125.928C509.215 125.816 509.486 125.667 509.7 125.48C509.915 125.293 510.074 125.083 510.176 124.85C510.279 124.607 510.33 124.351 510.33 124.08C510.33 123.716 510.228 123.417 510.022 123.184C509.817 122.951 509.542 122.75 509.196 122.582C508.86 122.414 508.473 122.265 508.034 122.134C507.605 122.003 507.166 121.863 506.718 121.714C506.27 121.565 505.827 121.392 505.388 121.196C504.959 121 504.572 120.753 504.226 120.454C503.89 120.146 503.62 119.777 503.414 119.348C503.209 118.909 503.106 118.377 503.106 117.752C503.106 117.183 503.218 116.641 503.442 116.128C503.676 115.615 504.012 115.162 504.45 114.77C504.898 114.378 505.444 114.07 506.088 113.846C506.742 113.613 507.493 113.496 508.342 113.496C509.304 113.496 510.176 113.65 510.96 113.958C511.744 114.266 512.402 114.686 512.934 115.218L512.262 116.31ZM536.162 121.756C535.088 121.793 534.183 121.882 533.446 122.022C532.708 122.153 532.111 122.325 531.654 122.54C531.196 122.745 530.865 122.993 530.66 123.282C530.464 123.571 530.366 123.889 530.366 124.234C530.366 124.57 530.417 124.859 530.52 125.102C530.632 125.335 530.781 125.531 530.968 125.69C531.164 125.839 531.388 125.951 531.64 126.026C531.901 126.091 532.186 126.124 532.494 126.124C533.278 126.124 533.95 125.979 534.51 125.69C535.079 125.391 535.63 124.962 536.162 124.402V121.756ZM528.182 115.708C529.796 114.205 531.719 113.454 533.95 113.454C534.771 113.454 535.499 113.589 536.134 113.86C536.778 114.121 537.314 114.495 537.744 114.98C538.182 115.465 538.514 116.044 538.738 116.716C538.971 117.379 539.088 118.116 539.088 118.928V128H537.744C537.454 128 537.235 127.958 537.086 127.874C536.936 127.781 536.81 127.599 536.708 127.328L536.414 126.166C536.05 126.493 535.69 126.787 535.336 127.048C534.981 127.3 534.612 127.515 534.23 127.692C533.856 127.869 533.45 128 533.012 128.084C532.582 128.177 532.106 128.224 531.584 128.224C531.005 128.224 530.464 128.145 529.96 127.986C529.465 127.827 529.036 127.589 528.672 127.272C528.308 126.945 528.018 126.544 527.804 126.068C527.598 125.592 527.496 125.032 527.496 124.388C527.496 123.837 527.64 123.301 527.93 122.778C528.228 122.255 528.714 121.789 529.386 121.378C530.067 120.958 530.958 120.613 532.06 120.342C533.17 120.071 534.538 119.917 536.162 119.88V118.928C536.162 117.901 535.942 117.136 535.504 116.632C535.065 116.128 534.421 115.876 533.572 115.876C532.993 115.876 532.508 115.951 532.116 116.1C531.724 116.24 531.383 116.394 531.094 116.562C530.804 116.73 530.548 116.889 530.324 117.038C530.1 117.178 529.862 117.248 529.61 117.248C529.404 117.248 529.227 117.197 529.078 117.094C528.938 116.982 528.821 116.847 528.728 116.688L528.182 115.708ZM550.51 120.734C551.443 120.734 552.143 120.496 552.61 120.02C553.076 119.544 553.31 118.923 553.31 118.158C553.31 117.374 553.076 116.753 552.61 116.296C552.143 115.839 551.443 115.61 550.51 115.61C549.586 115.61 548.886 115.839 548.41 116.296C547.943 116.753 547.71 117.374 547.71 118.158C547.71 118.531 547.77 118.877 547.892 119.194C548.013 119.511 548.19 119.787 548.424 120.02C548.657 120.244 548.946 120.421 549.292 120.552C549.646 120.673 550.052 120.734 550.51 120.734ZM554.696 128.7C554.696 128.383 554.602 128.131 554.416 127.944C554.238 127.748 553.996 127.599 553.688 127.496C553.38 127.384 553.02 127.305 552.61 127.258C552.199 127.202 551.76 127.165 551.294 127.146C550.836 127.118 550.365 127.095 549.88 127.076C549.404 127.048 548.942 127.001 548.494 126.936C548.046 127.169 547.677 127.449 547.388 127.776C547.108 128.103 546.968 128.481 546.968 128.91C546.968 129.19 547.038 129.451 547.178 129.694C547.327 129.937 547.551 130.147 547.85 130.324C548.158 130.501 548.545 130.641 549.012 130.744C549.488 130.847 550.057 130.898 550.72 130.898C552.045 130.898 553.039 130.693 553.702 130.282C554.364 129.871 554.696 129.344 554.696 128.7ZM557.72 114.238V115.358C557.72 115.731 557.496 115.96 557.048 116.044L555.62 116.282C555.862 116.823 555.984 117.425 555.984 118.088C555.984 118.788 555.844 119.423 555.564 119.992C555.293 120.561 554.915 121.047 554.43 121.448C553.944 121.849 553.366 122.157 552.694 122.372C552.022 122.587 551.294 122.694 550.51 122.694C550.211 122.694 549.917 122.68 549.628 122.652C549.348 122.615 549.072 122.568 548.802 122.512C548.531 122.671 548.33 122.839 548.2 123.016C548.069 123.193 548.004 123.375 548.004 123.562C548.004 123.87 548.139 124.099 548.41 124.248C548.68 124.397 549.035 124.505 549.474 124.57C549.922 124.635 550.43 124.677 551 124.696C551.569 124.715 552.148 124.747 552.736 124.794C553.324 124.841 553.902 124.92 554.472 125.032C555.041 125.135 555.545 125.312 555.984 125.564C556.432 125.807 556.791 126.138 557.062 126.558C557.332 126.978 557.468 127.524 557.468 128.196C557.468 128.812 557.314 129.414 557.006 130.002C556.698 130.59 556.25 131.113 555.662 131.57C555.083 132.027 554.374 132.391 553.534 132.662C552.694 132.942 551.737 133.082 550.664 133.082C549.6 133.082 548.671 132.979 547.878 132.774C547.094 132.569 546.436 132.289 545.904 131.934C545.381 131.589 544.989 131.187 544.728 130.73C544.476 130.273 544.35 129.797 544.35 129.302C544.35 128.63 544.56 128.056 544.98 127.58C545.409 127.104 545.988 126.731 546.716 126.46C546.324 126.273 546.006 126.017 545.764 125.69C545.53 125.363 545.414 124.934 545.414 124.402C545.414 123.982 545.568 123.543 545.876 123.086C546.184 122.629 546.646 122.241 547.262 121.924C546.552 121.532 545.992 121.014 545.582 120.37C545.171 119.717 544.966 118.956 544.966 118.088C544.966 117.379 545.101 116.739 545.372 116.17C545.652 115.601 546.039 115.115 546.534 114.714C547.028 114.313 547.612 114.005 548.284 113.79C548.965 113.575 549.707 113.468 550.51 113.468C551.742 113.468 552.815 113.725 553.73 114.238H557.72ZM570.527 121.756C569.454 121.793 568.549 121.882 567.811 122.022C567.074 122.153 566.477 122.325 566.019 122.54C565.562 122.745 565.231 122.993 565.025 123.282C564.829 123.571 564.731 123.889 564.731 124.234C564.731 124.57 564.783 124.859 564.885 125.102C564.997 125.335 565.147 125.531 565.333 125.69C565.529 125.839 565.753 125.951 566.005 126.026C566.267 126.091 566.551 126.124 566.859 126.124C567.643 126.124 568.315 125.979 568.875 125.69C569.445 125.391 569.995 124.962 570.527 124.402V121.756ZM562.547 115.708C564.162 114.205 566.085 113.454 568.315 113.454C569.137 113.454 569.865 113.589 570.499 113.86C571.143 114.121 571.68 114.495 572.109 114.98C572.548 115.465 572.879 116.044 573.103 116.716C573.337 117.379 573.453 118.116 573.453 118.928V128H572.109C571.82 128 571.601 127.958 571.451 127.874C571.302 127.781 571.176 127.599 571.073 127.328L570.779 126.166C570.415 126.493 570.056 126.787 569.701 127.048C569.347 127.3 568.978 127.515 568.595 127.692C568.222 127.869 567.816 128 567.377 128.084C566.948 128.177 566.472 128.224 565.949 128.224C565.371 128.224 564.829 128.145 564.325 127.986C563.831 127.827 563.401 127.589 563.037 127.272C562.673 126.945 562.384 126.544 562.169 126.068C561.964 125.592 561.861 125.032 561.861 124.388C561.861 123.837 562.006 123.301 562.295 122.778C562.594 122.255 563.079 121.789 563.751 121.378C564.433 120.958 565.324 120.613 566.425 120.342C567.536 120.071 568.903 119.917 570.527 119.88V118.928C570.527 117.901 570.308 117.136 569.869 116.632C569.431 116.128 568.787 115.876 567.937 115.876C567.359 115.876 566.873 115.951 566.481 116.1C566.089 116.24 565.749 116.394 565.459 116.562C565.17 116.73 564.913 116.889 564.689 117.038C564.465 117.178 564.227 117.248 563.975 117.248C563.77 117.248 563.593 117.197 563.443 117.094C563.303 116.982 563.187 116.847 563.093 116.688L562.547 115.708ZM582.915 113.72V128H579.905V113.72H582.915ZM583.419 109.408C583.419 109.679 583.363 109.935 583.251 110.178C583.149 110.421 583.004 110.635 582.817 110.822C582.631 110.999 582.411 111.144 582.159 111.256C581.917 111.359 581.655 111.41 581.375 111.41C581.105 111.41 580.848 111.359 580.605 111.256C580.372 111.144 580.167 110.999 579.989 110.822C579.812 110.635 579.667 110.421 579.555 110.178C579.453 109.935 579.401 109.679 579.401 109.408C579.401 109.128 579.453 108.867 579.555 108.624C579.667 108.381 579.812 108.171 579.989 107.994C580.167 107.807 580.372 107.663 580.605 107.56C580.848 107.448 581.105 107.392 581.375 107.392C581.655 107.392 581.917 107.448 582.159 107.56C582.411 107.663 582.631 107.807 582.817 107.994C583.004 108.171 583.149 108.381 583.251 108.624C583.363 108.867 583.419 109.128 583.419 109.408ZM592.311 115.61C592.619 115.293 592.937 115.008 593.263 114.756C593.599 114.495 593.954 114.271 594.327 114.084C594.701 113.897 595.097 113.753 595.517 113.65C595.937 113.547 596.395 113.496 596.889 113.496C597.673 113.496 598.359 113.627 598.947 113.888C599.545 114.149 600.044 114.518 600.445 114.994C600.856 115.47 601.164 116.044 601.369 116.716C601.575 117.379 601.677 118.111 601.677 118.914V128H598.681V118.914C598.681 117.953 598.457 117.206 598.009 116.674C597.571 116.142 596.899 115.876 595.993 115.876C595.321 115.876 594.696 116.03 594.117 116.338C593.548 116.646 593.011 117.066 592.507 117.598V128H589.497V113.72H591.317C591.728 113.72 591.989 113.911 592.101 114.294L592.311 115.61ZM620.901 113.72V128H617.891V113.72H620.901ZM621.405 109.408C621.405 109.679 621.349 109.935 621.237 110.178C621.135 110.421 620.99 110.635 620.803 110.822C620.617 110.999 620.397 111.144 620.145 111.256C619.903 111.359 619.641 111.41 619.361 111.41C619.091 111.41 618.834 111.359 618.591 111.256C618.358 111.144 618.153 110.999 617.975 110.822C617.798 110.635 617.653 110.421 617.541 110.178C617.439 109.935 617.387 109.679 617.387 109.408C617.387 109.128 617.439 108.867 617.541 108.624C617.653 108.381 617.798 108.171 617.975 107.994C618.153 107.807 618.358 107.663 618.591 107.56C618.834 107.448 619.091 107.392 619.361 107.392C619.641 107.392 619.903 107.448 620.145 107.56C620.397 107.663 620.617 107.807 620.803 107.994C620.99 108.171 621.135 108.381 621.237 108.624C621.349 108.867 621.405 109.128 621.405 109.408ZM628.449 128V116.114L627.049 115.918C626.816 115.871 626.625 115.787 626.475 115.666C626.335 115.545 626.265 115.372 626.265 115.148V113.916H628.449V112.712C628.449 111.9 628.566 111.172 628.799 110.528C629.042 109.884 629.383 109.338 629.821 108.89C630.269 108.442 630.811 108.101 631.445 107.868C632.08 107.625 632.794 107.504 633.587 107.504C633.914 107.504 634.222 107.527 634.511 107.574C634.81 107.621 635.099 107.691 635.379 107.784L635.323 109.296C635.305 109.548 635.179 109.697 634.945 109.744C634.721 109.791 634.437 109.814 634.091 109.814C633.671 109.814 633.293 109.865 632.957 109.968C632.621 110.061 632.332 110.225 632.089 110.458C631.856 110.691 631.674 110.999 631.543 111.382C631.422 111.765 631.361 112.241 631.361 112.81V113.916H635.267V116.086H631.459V128H628.449ZM354.504 147.72L346.636 166.06C346.533 166.275 346.407 166.443 346.258 166.564C346.118 166.685 345.899 166.746 345.6 166.746H343.374L346.006 161.034L340.182 147.72H342.8C343.052 147.72 343.243 147.781 343.374 147.902C343.514 148.014 343.617 148.149 343.682 148.308L347.084 156.414C347.168 156.647 347.243 156.881 347.308 157.114C347.383 157.338 347.453 157.571 347.518 157.814C347.593 157.571 347.667 157.333 347.742 157.1C347.817 156.867 347.901 156.633 347.994 156.4L351.256 148.308C351.321 148.14 351.429 148 351.578 147.888C351.737 147.776 351.909 147.72 352.096 147.72H354.504ZM365.027 147.496C366.081 147.496 367.033 147.669 367.883 148.014C368.741 148.359 369.469 148.849 370.067 149.484C370.673 150.119 371.14 150.889 371.467 151.794C371.793 152.699 371.957 153.717 371.957 154.846C371.957 155.975 371.793 156.993 371.467 157.898C371.14 158.803 370.673 159.578 370.067 160.222C369.469 160.857 368.741 161.347 367.883 161.692C367.033 162.037 366.081 162.21 365.027 162.21C363.963 162.21 363.001 162.037 362.143 161.692C361.293 161.347 360.565 160.857 359.959 160.222C359.352 159.578 358.885 158.803 358.559 157.898C358.232 156.993 358.069 155.975 358.069 154.846C358.069 153.717 358.232 152.699 358.559 151.794C358.885 150.889 359.352 150.119 359.959 149.484C360.565 148.849 361.293 148.359 362.143 148.014C363.001 147.669 363.963 147.496 365.027 147.496ZM365.027 159.858C366.315 159.858 367.271 159.429 367.897 158.57C368.531 157.702 368.849 156.465 368.849 154.86C368.849 153.255 368.531 152.018 367.897 151.15C367.271 150.273 366.315 149.834 365.027 149.834C363.72 149.834 362.749 150.273 362.115 151.15C361.48 152.018 361.163 153.255 361.163 154.86C361.163 156.465 361.48 157.702 362.115 158.57C362.749 159.429 363.72 159.858 365.027 159.858ZM389.689 147.72V162H387.869C387.468 162 387.211 161.809 387.099 161.426L386.875 160.096C386.576 160.413 386.259 160.703 385.923 160.964C385.596 161.225 385.246 161.449 384.873 161.636C384.5 161.823 384.098 161.967 383.669 162.07C383.249 162.173 382.796 162.224 382.311 162.224C381.527 162.224 380.836 162.093 380.239 161.832C379.642 161.571 379.138 161.202 378.727 160.726C378.326 160.25 378.022 159.681 377.817 159.018C377.612 158.346 377.509 157.609 377.509 156.806V147.72H380.519V156.806C380.519 157.767 380.738 158.514 381.177 159.046C381.625 159.578 382.302 159.844 383.207 159.844C383.87 159.844 384.486 159.695 385.055 159.396C385.634 159.088 386.175 158.668 386.679 158.136V147.72H389.689ZM408.731 149.61C409.039 149.293 409.356 149.008 409.683 148.756C410.019 148.495 410.373 148.271 410.747 148.084C411.12 147.897 411.517 147.753 411.937 147.65C412.357 147.547 412.814 147.496 413.309 147.496C414.093 147.496 414.779 147.627 415.367 147.888C415.964 148.149 416.463 148.518 416.865 148.994C417.275 149.47 417.583 150.044 417.789 150.716C417.994 151.379 418.097 152.111 418.097 152.914V162H415.101V152.914C415.101 151.953 414.877 151.206 414.429 150.674C413.99 150.142 413.318 149.876 412.413 149.876C411.741 149.876 411.115 150.03 410.537 150.338C409.967 150.646 409.431 151.066 408.927 151.598V162H405.917V147.72H407.737C408.147 147.72 408.409 147.911 408.521 148.294L408.731 149.61ZM433.778 153.25C433.778 152.746 433.703 152.279 433.554 151.85C433.414 151.411 433.204 151.033 432.924 150.716C432.644 150.389 432.294 150.137 431.874 149.96C431.463 149.773 430.987 149.68 430.446 149.68C429.354 149.68 428.495 149.993 427.87 150.618C427.245 151.243 426.848 152.121 426.68 153.25H433.778ZM426.596 155.098C426.633 155.91 426.759 156.615 426.974 157.212C427.189 157.8 427.473 158.29 427.828 158.682C428.192 159.074 428.621 159.368 429.116 159.564C429.62 159.751 430.18 159.844 430.796 159.844C431.384 159.844 431.893 159.779 432.322 159.648C432.751 159.508 433.125 159.359 433.442 159.2C433.759 159.032 434.03 158.883 434.254 158.752C434.478 158.612 434.683 158.542 434.87 158.542C435.113 158.542 435.299 158.635 435.43 158.822L436.284 159.928C435.929 160.348 435.528 160.703 435.08 160.992C434.632 161.281 434.156 161.519 433.652 161.706C433.148 161.883 432.63 162.009 432.098 162.084C431.566 162.168 431.048 162.21 430.544 162.21C429.555 162.21 428.635 162.047 427.786 161.72C426.946 161.384 426.213 160.894 425.588 160.25C424.972 159.606 424.487 158.808 424.132 157.856C423.787 156.904 423.614 155.807 423.614 154.566C423.614 153.577 423.768 152.653 424.076 151.794C424.393 150.935 424.841 150.189 425.42 149.554C426.008 148.919 426.717 148.42 427.548 148.056C428.388 147.683 429.335 147.496 430.39 147.496C431.267 147.496 432.079 147.641 432.826 147.93C433.573 148.21 434.217 148.625 434.758 149.176C435.299 149.727 435.719 150.403 436.018 151.206C436.326 151.999 436.48 152.905 436.48 153.922C436.48 154.389 436.429 154.701 436.326 154.86C436.223 155.019 436.037 155.098 435.766 155.098H426.596ZM451.453 153.25C451.453 152.746 451.378 152.279 451.229 151.85C451.089 151.411 450.879 151.033 450.599 150.716C450.319 150.389 449.969 150.137 449.549 149.96C449.138 149.773 448.662 149.68 448.121 149.68C447.029 149.68 446.17 149.993 445.545 150.618C444.92 151.243 444.523 152.121 444.355 153.25H451.453ZM444.271 155.098C444.308 155.91 444.434 156.615 444.649 157.212C444.864 157.8 445.148 158.29 445.503 158.682C445.867 159.074 446.296 159.368 446.791 159.564C447.295 159.751 447.855 159.844 448.471 159.844C449.059 159.844 449.568 159.779 449.997 159.648C450.426 159.508 450.8 159.359 451.117 159.2C451.434 159.032 451.705 158.883 451.929 158.752C452.153 158.612 452.358 158.542 452.545 158.542C452.788 158.542 452.974 158.635 453.105 158.822L453.959 159.928C453.604 160.348 453.203 160.703 452.755 160.992C452.307 161.281 451.831 161.519 451.327 161.706C450.823 161.883 450.305 162.009 449.773 162.084C449.241 162.168 448.723 162.21 448.219 162.21C447.23 162.21 446.31 162.047 445.461 161.72C444.621 161.384 443.888 160.894 443.263 160.25C442.647 159.606 442.162 158.808 441.807 157.856C441.462 156.904 441.289 155.807 441.289 154.566C441.289 153.577 441.443 152.653 441.751 151.794C442.068 150.935 442.516 150.189 443.095 149.554C443.683 148.919 444.392 148.42 445.223 148.056C446.063 147.683 447.01 147.496 448.065 147.496C448.942 147.496 449.754 147.641 450.501 147.93C451.248 148.21 451.892 148.625 452.433 149.176C452.974 149.727 453.394 150.403 453.693 151.206C454.001 151.999 454.155 152.905 454.155 153.922C454.155 154.389 454.104 154.701 454.001 154.86C453.898 155.019 453.712 155.098 453.441 155.098H444.271ZM468.876 151.234C468.456 150.693 467.994 150.315 467.49 150.1C466.986 149.885 466.44 149.778 465.852 149.778C464.676 149.778 463.757 150.212 463.094 151.08C462.431 151.939 462.1 153.213 462.1 154.902C462.1 155.779 462.175 156.531 462.324 157.156C462.473 157.772 462.688 158.276 462.968 158.668C463.248 159.06 463.589 159.345 463.99 159.522C464.391 159.699 464.844 159.788 465.348 159.788C466.113 159.788 466.771 159.625 467.322 159.298C467.882 158.962 468.4 158.491 468.876 157.884V151.234ZM471.886 141.28V162H470.066C469.665 162 469.408 161.809 469.296 161.426L469.03 159.872C468.433 160.572 467.751 161.137 466.986 161.566C466.23 161.995 465.348 162.21 464.34 162.21C463.537 162.21 462.809 162.051 462.156 161.734C461.503 161.407 460.943 160.936 460.476 160.32C460.009 159.704 459.645 158.943 459.384 158.038C459.132 157.123 459.006 156.078 459.006 154.902C459.006 153.838 459.146 152.853 459.426 151.948C459.715 151.043 460.126 150.259 460.658 149.596C461.19 148.924 461.834 148.401 462.59 148.028C463.355 147.645 464.209 147.454 465.152 147.454C465.992 147.454 466.706 147.589 467.294 147.86C467.882 148.121 468.409 148.49 468.876 148.966V141.28H471.886ZM491.149 149.414C491.737 148.835 492.381 148.373 493.081 148.028C493.781 147.673 494.598 147.496 495.531 147.496C496.315 147.496 497.001 147.627 497.589 147.888C498.187 148.149 498.686 148.518 499.087 148.994C499.498 149.47 499.806 150.044 500.011 150.716C500.217 151.379 500.319 152.111 500.319 152.914V162H497.323V152.914C497.323 151.953 497.099 151.206 496.651 150.674C496.213 150.142 495.541 149.876 494.635 149.876C493.963 149.876 493.338 150.03 492.759 150.338C492.19 150.646 491.653 151.066 491.149 151.598V162H488.139V141.28H491.149V149.414ZM516.001 153.25C516.001 152.746 515.926 152.279 515.777 151.85C515.637 151.411 515.427 151.033 515.147 150.716C514.867 150.389 514.517 150.137 514.097 149.96C513.686 149.773 513.21 149.68 512.669 149.68C511.577 149.68 510.718 149.993 510.093 150.618C509.467 151.243 509.071 152.121 508.903 153.25H516.001ZM508.819 155.098C508.856 155.91 508.982 156.615 509.197 157.212C509.411 157.8 509.696 158.29 510.051 158.682C510.415 159.074 510.844 159.368 511.339 159.564C511.843 159.751 512.403 159.844 513.019 159.844C513.607 159.844 514.115 159.779 514.545 159.648C514.974 159.508 515.347 159.359 515.665 159.2C515.982 159.032 516.253 158.883 516.477 158.752C516.701 158.612 516.906 158.542 517.093 158.542C517.335 158.542 517.522 158.635 517.653 158.822L518.507 159.928C518.152 160.348 517.751 160.703 517.303 160.992C516.855 161.281 516.379 161.519 515.875 161.706C515.371 161.883 514.853 162.009 514.321 162.084C513.789 162.168 513.271 162.21 512.767 162.21C511.777 162.21 510.858 162.047 510.009 161.72C509.169 161.384 508.436 160.894 507.811 160.25C507.195 159.606 506.709 158.808 506.355 157.856C506.009 156.904 505.837 155.807 505.837 154.566C505.837 153.577 505.991 152.653 506.299 151.794C506.616 150.935 507.064 150.189 507.643 149.554C508.231 148.919 508.94 148.42 509.771 148.056C510.611 147.683 511.558 147.496 512.613 147.496C513.49 147.496 514.302 147.641 515.049 147.93C515.795 148.21 516.439 148.625 516.981 149.176C517.522 149.727 517.942 150.403 518.241 151.206C518.549 151.999 518.703 152.905 518.703 153.922C518.703 154.389 518.651 154.701 518.549 154.86C518.446 155.019 518.259 155.098 517.989 155.098H508.819ZM527.376 141.28V162H524.366V141.28H527.376ZM536.901 158.416C537.321 158.957 537.778 159.34 538.273 159.564C538.777 159.779 539.332 159.886 539.939 159.886C541.115 159.886 542.03 159.457 542.683 158.598C543.346 157.739 543.677 156.461 543.677 154.762C543.677 153.885 543.602 153.138 543.453 152.522C543.304 151.897 543.089 151.388 542.809 150.996C542.529 150.604 542.188 150.319 541.787 150.142C541.386 149.965 540.933 149.876 540.429 149.876C539.664 149.876 539.001 150.044 538.441 150.38C537.89 150.707 537.377 151.178 536.901 151.794V158.416ZM536.747 149.792C537.344 149.092 538.021 148.527 538.777 148.098C539.542 147.669 540.429 147.454 541.437 147.454C542.24 147.454 542.968 147.617 543.621 147.944C544.274 148.261 544.834 148.728 545.301 149.344C545.768 149.96 546.127 150.725 546.379 151.64C546.64 152.545 546.771 153.586 546.771 154.762C546.771 155.817 546.626 156.801 546.337 157.716C546.057 158.621 545.651 159.41 545.119 160.082C544.587 160.745 543.943 161.267 543.187 161.65C542.431 162.023 541.577 162.21 540.625 162.21C539.785 162.21 539.071 162.075 538.483 161.804C537.904 161.533 537.377 161.16 536.901 160.684V166.746H533.891V147.72H535.711C536.122 147.72 536.383 147.911 536.495 148.294L536.747 149.792ZM555.954 141.84V149.848C555.954 150.688 555.916 151.514 555.842 152.326C555.767 153.129 555.669 153.997 555.548 154.93H553.518C553.387 153.997 553.284 153.129 553.21 152.326C553.144 151.514 553.112 150.688 553.112 149.848V141.84H555.954ZM552.538 160.264C552.538 159.993 552.584 159.741 552.678 159.508C552.78 159.265 552.92 159.055 553.098 158.878C553.275 158.701 553.48 158.561 553.714 158.458C553.947 158.355 554.204 158.304 554.484 158.304C554.754 158.304 555.006 158.355 555.24 158.458C555.482 158.561 555.688 158.701 555.856 158.878C556.033 159.055 556.173 159.265 556.276 159.508C556.378 159.741 556.43 159.993 556.43 160.264C556.43 160.544 556.378 160.801 556.276 161.034C556.173 161.267 556.033 161.473 555.856 161.65C555.688 161.827 555.482 161.963 555.24 162.056C555.006 162.159 554.754 162.21 554.484 162.21C554.204 162.21 553.947 162.159 553.714 162.056C553.48 161.963 553.275 161.827 553.098 161.65C552.92 161.473 552.78 161.267 552.678 161.034C552.584 160.801 552.538 160.544 552.538 160.264Z" fill="black"/>
<g filter="url(#filter1_d_271_56)">
<path d="M83.1487 141.312C88.2049 147.332 83.1487 159.737 110.671 149.796C109.121 140.607 70.1758 49.0233 17.3467 44.0295C17.1679 46.1085 17.1775 50.8567 18.6467 53.2171C19.5171 51.1976 18.9447 49.752 21.5324 52.069C22.9157 52.188 18.1102 59.4542 19.1358 63.7312C21.3895 61.8307 22.6536 63.3357 18.5397 70.6614C25.3605 64.2667 26.422 76.2263 31.2634 76.6427C29.8801 76.5237 19.9589 78.4629 37.7387 90.4643C34.5786 86.7018 34.2447 82.4843 42.8186 88.1087C43.9038 91.6927 38.5259 97.5134 50.2003 107.593C46.5274 101.692 50.224 99.2177 54.0994 94.6641C57.2595 98.4266 53.5629 100.901 58.4999 108.307C58.9171 103.456 60.6127 97.3767 65.9432 108.307C67.5564 111.615 69.037 112.921 69.8557 113.38C68.5476 113.263 65.1712 113.649 58.4999 117.218C83.4663 122.765 75.9414 124.401 75.0032 123.938C75.4413 123.449 75.6226 123.339 75.1556 123.596C74.87 123.753 74.8628 123.869 75.0032 123.938C73.3832 125.749 68.2513 132.75 79.4074 145.564C79.0791 133.181 76.5729 133.517 83.1487 133.517C91.993 133.517 95.5988 150.474 83.1487 141.312Z" fill="white" stroke="black" stroke-width="2"/>
<path d="M200.646 75.3584C164.505 68.9807 146.08 75.3584 128.364 75.3584C113.395 75.3584 58.9599 38.9293 22.7761 28.4895C14.981 27.8792 8.60322 16.5409 5.06003 25.7533C4.35138 39.2175 10.0205 31.9868 16.5852 39.2175C28.4938 52.3344 44.7441 69.8726 44.7441 75.3584C61.7516 75.3584 47.5787 96.6178 61.0429 96.6178C74.5072 96.6178 72.3813 107.247 72.3813 132.759C85.8455 107.247 85.8455 110.082 97.8925 132.759C97.8925 158.979 97.8925 178.821 85.8455 193.702C101.963 189.45 101.254 184.49 110.648 179.529C98.6011 193.702 96.056 195.236 93.6406 210.71C92.645 217.087 97.8925 215.67 97.8925 227.008C104.27 231.26 100.727 234.095 100.727 241.181C150.332 247.559 100.727 263.858 118.443 271.653C100.727 288.66 107.324 288.121 128.364 294.787C169.959 307.965 84.0911 312.2 207.224 341.41C207.224 299.842 257.218 304.898 257.218 277.935C252.426 294.787 237.558 281.867 250.96 271.653C292.77 226.3 283.557 185.198 260.172 158.978C291.352 172.443 301.982 167.482 289.935 167.482C277.888 167.482 259.463 139.136 250.96 132.759C250.96 125.721 301.469 125.013 289.935 95.9584C279.245 69.0299 352.296 32.8398 355.13 13.7064C358.91 -11.8049 344.501 8.0372 324.659 13.7064C276.471 9.45451 214.819 66.1461 200.646 75.3584Z" fill="#439BA8" stroke="#2E234A" stroke-width="2"/>
<path d="M115.549 109.199C163.028 97.1524 165.154 93.6092 216.176 109.199C226.098 145.34 232.475 151.718 246.648 160.93C228.932 173.686 234.601 180.064 246.648 180.064C246.648 195.654 243.814 194.237 260.112 194.237C253.735 204.158 233.184 213.37 243.814 240.299C204.838 267.227 192.791 294.864 191.374 313.998C147.438 292.253 187.122 268.868 121.218 263.199C129.361 250.671 124.77 226.516 111.359 226.95C109.925 227.898 108.039 228.475 105.628 228.475C107.685 227.488 109.598 227.007 111.359 226.95C120.464 220.934 111.364 199.995 102.793 217.137C102.793 194.237 129.013 160.93 98.5415 180.064C105.628 154.553 109.88 154.553 102.793 141.797C115.549 127.624 102.793 126.915 98.5415 124.081C110.588 119.12 112.714 116.994 105.628 109.199H115.549Z" fill="#C2E2E8"/>
<path d="M178.899 173.063C176.832 176.897 173.697 175.597 168.8 183.31C175.026 185.17 181.848 171.206 190.327 172.39C195.611 173.128 199.469 171.852 199.164 166.673C197.183 171.986 190.022 167.211 193.069 167.032C201.755 166.52 192.851 163.332 198.946 162.973C203.255 162.719 201.862 160.574 206.846 154.341C195.666 159.207 174.424 169.763 178.899 173.063Z" fill="#2E234A"/>
<path d="M202.342 168.713C207.878 168.387 207.326 162.48 204.866 159.655C202.798 163.489 206.308 162.685 205.933 164.789C204.671 169.318 201.318 164.318 202.342 168.713Z" fill="#2E234A"/>
<path d="M137.288 130.53C132.451 134.241 124.271 136.06 109.707 140.177C114.458 145.445 127.252 146.523 133.055 146.403C133.802 143.602 137.741 139.652 141.536 150.666C149.565 145.806 149.286 154.066 152.463 156.58C153.61 155.886 156.859 148.751 155.7 144.442C154.251 139.055 148.961 133.644 137.288 130.53Z" fill="#439BA8"/>
<path d="M136.099 158.319C124.761 158.319 129.013 149.815 117.674 153.359C123.344 166.823 112.005 161.154 141.06 188.791C139.642 180.996 121.471 167.531 124.761 161.154C125.508 158.353 128.76 160.061 132.556 171.075C141.06 168.949 136.807 173.909 138.225 176.035C142.005 181.704 141.768 169.631 138.225 168.949C129.721 163.988 140.351 164.697 136.099 158.319Z" fill="#2E234A"/>
<path d="M185.352 130.089C189.957 130.089 205.547 130.089 216.886 142.02C215.103 144.351 206.256 139.647 205.547 142.02C204.13 138.939 180.036 131.864 181.445 148.717C174.013 144.231 174.28 151.871 171.344 154.2C170.283 153.559 171.344 148.717 171.344 140.603C171.344 134.612 174.558 132.981 185.352 130.089Z" fill="#439BA8"/>
<path d="M135.39 224.223C139.642 192.334 114.84 200.838 122.635 171.783C122.635 189.626 133.265 186.665 144.603 209.341C167.988 194.46 152.398 224.223 184.995 215.719C217.593 207.215 223.971 209.341 236.727 215.719C216.176 215.719 198.65 212.329 184.995 237.687C165.154 274.537 122.635 242.648 135.39 224.223Z" fill="#439BA8"/>
<path d="M134.175 241.452C126.101 232.343 129.129 220.198 142.249 220.198C150.66 220.198 157.186 215.745 160.416 226.271C164.453 239.428 142.249 250.561 134.175 241.452Z" fill="#2E234A"/>
<path d="M203.421 224.932C195.626 246.9 210.507 236.27 218.302 241.939C218.302 232.302 203.421 246.9 203.421 224.932Z" fill="#2E234A"/>
<path d="M136.841 246.405C131.738 245.645 128.163 251.804 127.462 258.49C133.444 257.315 132.328 252.917 136.841 246.405Z" fill="#2E234A"/>
<path d="M294.127 114.383C288.458 120.052 274.285 134.934 241.687 114.383C243.02 109.233 251.608 112.257 270.741 114.383C262.238 113.315 241.687 99.5013 261.529 99.5013C245.939 79.6593 260.112 90.2889 270.741 82.4939C250.191 73.2815 282.789 66.9037 268.131 66.9037C294.127 38.5579 328.399 47.0968 345.858 15.1726C345.858 17.2985 345.433 22.1173 343.732 24.385C343.023 22.2591 343.732 20.8418 340.897 22.9677C339.48 22.9677 343.732 30.7628 342.314 35.0147C340.189 32.8887 338.771 34.306 342.314 42.1011C335.937 35.0147 333.811 47.0616 328.85 47.0616C330.268 47.0616 340.189 49.8962 321.055 60.5259C324.598 56.9826 325.307 52.7308 316.095 57.6913C314.677 61.2345 319.638 67.6123 306.882 76.8247C311.134 71.1555 307.591 68.321 304.048 63.3604C300.505 66.9037 304.048 69.7382 298.379 76.8247C298.379 71.8642 294.127 59.8172 287.749 70.4469C281.371 81.0766 298.379 85.3284 304.048 89.5803C294.127 89.5803 292.001 95.9581 285.623 89.5803C283.497 88.163 291.292 101.627 285.623 109.422C287.04 96.8816 277.119 98.084 270.741 104.462C264.364 110.84 280.662 122.596 294.127 114.383Z" fill="white" stroke="black" stroke-width="2"/>
</g>
<defs>
<filter id="filter0_d_271_56" x="166" y="39" width="548" height="196" filterUnits="userSpaceOnUse" color-interpolation-filters="sRGB">
<feFlood flood-opacity="0" result="BackgroundImageFix"/>
<feColorMatrix in="SourceAlpha" type="matrix" values="0 0 0 0 0 0 0 0 0 0 0 0 0 0 0 0 0 0 127 0" result="hardAlpha"/>
<feOffset dy="4"/>
<feGaussianBlur stdDeviation="2"/>
<feComposite in2="hardAlpha" operator="out"/>
<feColorMatrix type="matrix" values="0 0 0 0 0 0 0 0 0 0 0 0 0 0 0 0 0 0 0.25 0"/>
<feBlend mode="normal" in2="BackgroundImageFix" result="effect1_dropShadow_271_56"/>
<feBlend mode="normal" in="SourceGraphic" in2="effect1_dropShadow_271_56" result="shape"/>
</filter>
<filter id="filter1_d_271_56" x="0" y="0" width="360.735" height="350.675" filterUnits="userSpaceOnUse" color-interpolation-filters="sRGB">
<feFlood flood-opacity="0" result="BackgroundImageFix"/>
<feColorMatrix in="SourceAlpha" type="matrix" values="0 0 0 0 0 0 0 0 0 0 0 0 0 0 0 0 0 0 127 0" result="hardAlpha"/>
<feOffset dy="4"/>
<feGaussianBlur stdDeviation="2"/>
<feComposite in2="hardAlpha" operator="out"/>
<feColorMatrix type="matrix" values="0 0 0 0 0 0 0 0 0 0 0 0 0 0 0 0 0 0 0.25 0"/>
<feBlend mode="normal" in2="BackgroundImageFix" result="effect1_dropShadow_271_56"/>
<feBlend mode="normal" in="SourceGraphic" in2="effect1_dropShadow_271_56" result="shape"/>
</filter>
</defs>
</svg>
