<svg xmlns="http://www.w3.org/2000/svg" viewBox="0 0 122.96 166.14"><g id="Layer_2" data-name="Layer 2"><g id="Layer_1-2" data-name="Layer 1"><path d="M77.91,80.3C69,75.13,58.23,79.58,50,84.16c-2.85,1.15-7,4.53-10,2.53,3.7-11.6,14.88-20.92,24.83-28-9.08-4.65-21.6,4.07-29.74,9.05-5.14,2.86-9.65,9.7-15.51,10-3.24-9.89,14-26.87,16-36C21.67,47,12.51,61.43,0,67.94c12.5-41.23,58.31-94.58,101.16-52.7C135.49,57.09,126,122.45,95.44,163.76c-.84,2.48-5.17,3.81-4.63,0a11.13,11.13,0,0,0,1-8.78c12.19-14,11.94-36.35,2.73-52.31C85.82,87,68.3,92.83,54.7,91.57,59.21,84.18,71,85.18,77.91,80.3Z"/></g></g></svg>