<svg width="503" height="355" viewBox="0 0 503 355" fill="none" xmlns="http://www.w3.org/2000/svg">
<g filter="url(#filter0_d_271_57)">
<mask id="path-1-inside-1_271_57" fill="white">
<path fill-rule="evenodd" clip-rule="evenodd" d="M489 0C494.523 0 499 4.47716 499 10V266.73C499 272.253 494.523 276.73 489 276.73H201.158C195.635 276.73 191.158 272.253 191.158 266.73V112.327C178.809 102.222 145.996 106.329 140 115.027C142.162 107.593 149.868 102.626 158.785 96.8791C171.041 88.9795 185.585 79.606 191.158 60.3255V10C191.158 4.47715 195.635 0 201.158 0H489Z"/>
</mask>
<path fill-rule="evenodd" clip-rule="evenodd" d="M489 0C494.523 0 499 4.47716 499 10V266.73C499 272.253 494.523 276.73 489 276.73H201.158C195.635 276.73 191.158 272.253 191.158 266.73V112.327C178.809 102.222 145.996 106.329 140 115.027C142.162 107.593 149.868 102.626 158.785 96.8791C171.041 88.9795 185.585 79.606 191.158 60.3255V10C191.158 4.47715 195.635 0 201.158 0H489Z" fill="white"/>
<path d="M191.158 112.327L191.475 111.94L191.658 112.09V112.327H191.158ZM140 115.027L140.411 115.31L139.52 114.887L140 115.027ZM158.785 96.8791L158.514 96.4588L158.514 96.4588L158.785 96.8791ZM191.158 60.3255H191.658V60.3963L191.638 60.4643L191.158 60.3255ZM498.5 10C498.5 4.7533 494.247 0.5 489 0.5V-0.5C494.799 -0.5 499.5 4.20101 499.5 10H498.5ZM498.5 266.73V10H499.5V266.73H498.5ZM489 276.23C494.247 276.23 498.5 271.977 498.5 266.73H499.5C499.5 272.529 494.799 277.23 489 277.23V276.23ZM201.158 276.23H489V277.23H201.158V276.23ZM191.658 266.73C191.658 271.977 195.911 276.23 201.158 276.23V277.23C195.359 277.23 190.658 272.529 190.658 266.73H191.658ZM191.658 112.327V266.73H190.658V112.327H191.658ZM139.588 114.743C141.18 112.433 144.483 110.502 148.62 109.043C152.78 107.576 157.873 106.556 163.156 106.128C168.439 105.699 173.931 105.862 178.888 106.771C183.839 107.679 188.297 109.34 191.475 111.94L190.841 112.714C187.845 110.262 183.57 108.647 178.708 107.755C173.852 106.864 168.45 106.702 163.237 107.124C158.023 107.547 153.017 108.553 148.952 109.986C144.864 111.428 141.817 113.271 140.411 115.31L139.588 114.743ZM159.056 97.2994C154.589 100.178 150.466 102.836 147.188 105.697C143.913 108.554 141.523 111.578 140.48 115.166L139.52 114.887C140.638 111.042 143.182 107.865 146.53 104.944C149.875 102.026 154.064 99.3269 158.514 96.4588L159.056 97.2994ZM191.638 60.4643C186.008 79.945 171.301 89.4069 159.056 97.2994L158.514 96.4588C170.782 88.5521 185.163 79.2669 190.678 60.1866L191.638 60.4643ZM191.658 10V60.3255H190.658V10H191.658ZM201.158 0.5C195.911 0.5 191.658 4.7533 191.658 10H190.658C190.658 4.20101 195.359 -0.5 201.158 -0.5V0.5ZM489 0.5H201.158V-0.5H489V0.5Z" fill="black" mask="url(#path-1-inside-1_271_57)"/>
</g>
<g filter="url(#filter1_d_271_57)">
<path d="M62.8523 196.87C66.5952 201.327 62.8523 210.51 83.2265 203.151C82.0793 196.349 53.2487 128.551 14.1402 124.854C14.0078 126.393 14.0149 129.908 15.1025 131.655C15.7469 130.16 15.3232 129.09 17.2388 130.805C18.2628 130.894 14.7054 136.273 15.4646 139.439C17.133 138.032 18.0688 139.146 15.0234 144.569C20.0726 139.835 20.8584 148.689 24.4425 148.997C23.4185 148.909 16.0739 150.344 29.236 159.229C26.8967 156.444 26.6494 153.321 32.9966 157.485C33.7999 160.138 29.8188 164.447 38.4612 171.909C35.7422 167.541 38.4787 165.709 41.3476 162.338C43.6869 165.123 40.9504 166.955 44.6052 172.438C44.9141 168.846 46.1692 164.346 50.1153 172.438C51.3096 174.886 52.4056 175.853 53.0117 176.193C52.0433 176.106 49.5438 176.392 44.6052 179.034C63.0874 183.141 57.5168 184.352 56.8223 184.009C57.1466 183.647 57.2808 183.565 56.9351 183.755C56.7237 183.872 56.7184 183.958 56.8223 184.009C55.623 185.349 51.824 190.532 60.0827 200.018C59.8396 190.851 57.9843 191.1 62.8523 191.1C69.3996 191.1 72.0688 203.653 62.8523 196.87Z" fill="white"/>
<path d="M14.1402 124.854C14.0078 126.393 14.0149 129.908 15.1025 131.655C15.7469 130.16 15.3232 129.09 17.2388 130.805C18.2628 130.894 14.7054 136.273 15.4646 139.439C17.133 138.032 18.0687 139.146 15.0233 144.569C20.0726 139.835 20.8584 148.689 24.4425 148.997C23.4185 148.909 16.0739 150.344 29.236 159.229C26.8967 156.444 26.6494 153.321 32.9966 157.485C33.7999 160.138 29.8188 164.447 38.4612 171.909C35.7422 167.541 38.4787 165.709 41.3476 162.338C43.6869 165.123 40.9504 166.955 44.6052 172.438C44.9141 168.846 46.1692 164.346 50.1153 172.438C54.0614 180.529 56.9351 172.438 44.6052 179.034C65.8533 183.755 55.3108 184.649 56.9351 183.755C58.5594 182.861 49.5907 187.967 60.0827 200.018C59.8396 190.851 57.9843 191.1 62.8523 191.1C69.3996 191.1 72.0688 203.653 62.8523 196.87C66.5952 201.327 62.8523 210.51 83.2265 203.151C82.0793 196.349 53.2487 128.551 14.1402 124.854Z" stroke="black" stroke-width="2"/>
<path d="M149.833 148.046C123.079 143.325 109.439 148.046 96.3244 148.046C85.2426 148.046 44.9456 121.078 18.1594 113.35C12.3888 112.898 7.6674 104.505 5.04444 111.324C4.51984 121.292 8.71662 115.939 13.5763 121.292C22.392 131.002 34.4219 143.985 34.4219 148.046C47.0122 148.046 36.5203 163.784 46.4876 163.784C56.455 163.784 54.8812 171.653 54.8812 190.539C64.8485 171.653 64.8485 173.752 73.7667 190.539C73.7667 209.949 73.7667 224.637 64.8485 235.654C76.7799 232.506 76.2553 228.834 83.2095 225.162C74.2913 235.654 72.4072 236.79 70.6191 248.244C69.8821 252.966 73.7667 251.917 73.7667 260.31C78.4881 263.458 75.8651 265.556 75.8651 270.802C112.587 275.523 75.8651 287.589 88.98 293.36C75.8651 305.95 80.7489 305.551 96.3244 310.485C127.117 320.241 63.5498 323.376 154.703 345C154.703 314.228 191.713 317.97 191.713 298.01C188.165 310.485 177.158 300.921 187.08 293.36C218.031 259.786 211.211 229.359 193.9 209.949C216.982 219.916 224.851 216.244 215.933 216.244C207.014 216.244 193.375 195.26 187.08 190.539C187.08 185.329 224.471 184.805 215.933 163.296C208.019 143.361 262.097 116.57 264.196 102.406C266.993 83.5208 256.327 98.2095 241.638 102.406C205.965 99.2587 160.325 141.227 149.833 148.046Z" fill="#439BA8" stroke="#2E234A" stroke-width="2"/>
<path d="M86.8374 173.098C121.985 164.18 123.559 161.557 161.33 173.098C168.675 199.853 173.396 204.574 183.888 211.394C170.773 220.836 174.97 225.558 183.888 225.558C183.888 237.099 181.79 236.05 193.855 236.05C189.134 243.394 173.921 250.214 181.79 270.149C152.937 290.083 144.019 310.543 142.969 324.707C110.444 308.61 139.822 291.298 91.0342 287.101C97.0623 277.827 93.6633 259.946 83.7357 260.267C82.6739 260.968 81.2778 261.396 79.493 261.396C81.0155 260.665 82.4319 260.309 83.7357 260.267C90.476 255.813 83.7396 240.312 77.3947 253.002C77.3947 236.05 96.8048 211.394 74.2471 225.558C79.493 206.672 82.6406 206.672 77.3947 197.23C86.8374 186.738 77.3947 186.213 74.2471 184.115C83.1652 180.442 84.739 178.869 79.493 173.098H86.8374Z" fill="#C2E2E8"/>
<path d="M133.734 220.375C132.204 223.214 129.883 222.251 126.258 227.961C130.867 229.338 135.917 219.001 142.194 219.877C146.106 220.423 148.962 219.478 148.736 215.644C147.27 219.578 141.968 216.043 144.224 215.91C150.654 215.531 144.063 213.172 148.575 212.906C151.765 212.718 150.734 211.13 154.423 206.516C146.147 210.118 130.421 217.933 133.734 220.375Z" fill="#2E234A"/>
<path d="M151.089 217.155C155.187 216.913 154.778 212.54 152.957 210.449C151.427 213.288 154.025 212.693 153.747 214.25C152.813 217.603 150.331 213.902 151.089 217.155Z" fill="#2E234A"/>
<path d="M102.93 188.889C99.3496 191.636 93.2942 192.982 82.5129 196.03C86.0301 199.93 95.5009 200.728 99.7967 200.639C100.35 198.566 103.266 195.642 106.076 203.795C112.019 200.197 111.813 206.312 114.165 208.173C115.014 207.659 117.419 202.377 116.561 199.187C115.488 195.199 111.572 191.194 102.93 188.889Z" fill="#439BA8"/>
<path d="M102.05 209.461C93.6568 209.461 96.8044 203.165 88.4108 205.788C92.6077 215.756 84.2141 211.559 105.723 232.018C104.673 226.248 91.2216 216.28 93.6568 211.559C94.2098 209.485 96.6174 210.75 99.4274 218.903C105.723 217.33 102.575 221.002 103.624 222.576C106.422 226.772 106.247 217.835 103.624 217.33C97.3289 213.657 105.198 214.182 102.05 209.461Z" fill="#2E234A"/>
<path d="M138.511 188.562C141.92 188.562 153.461 188.562 161.855 197.395C160.535 199.12 153.986 195.638 153.461 197.395C152.412 195.114 134.576 189.876 135.618 202.353C130.117 199.032 130.315 204.687 128.141 206.411C127.355 205.937 128.141 202.353 128.141 196.346C128.141 191.911 130.521 190.703 138.511 188.562Z" fill="#439BA8"/>
<path d="M101.526 258.248C104.674 234.641 86.3129 240.936 92.0834 219.428C92.0834 232.637 99.9525 230.445 108.346 247.232C125.658 236.215 114.117 258.248 138.248 251.953C162.379 245.658 167.101 247.232 176.544 251.953C161.33 251.953 148.356 249.443 138.248 268.216C123.559 295.495 92.0834 271.888 101.526 258.248Z" fill="#439BA8"/>
<path d="M100.626 271.002C94.6491 264.259 96.8905 255.268 106.603 255.268C112.829 255.268 117.661 251.972 120.052 259.764C123.04 269.504 106.603 277.746 100.626 271.002Z" fill="#2E234A"/>
<path d="M151.888 258.773C146.117 275.035 157.133 267.166 162.904 271.363C162.904 264.229 151.888 275.035 151.888 258.773Z" fill="#2E234A"/>
<path d="M102.599 274.669C98.8218 274.106 96.1755 278.666 95.6566 283.616C100.085 282.746 99.2583 279.49 102.599 274.669Z" fill="#2E234A"/>
<path d="M219.036 176.936C214.839 181.132 204.347 192.149 180.215 176.936C181.202 173.123 187.56 175.362 201.724 176.936C195.429 176.145 180.215 165.919 194.904 165.919C183.363 151.23 193.855 159.099 201.724 153.329C186.511 146.509 210.642 141.788 199.791 141.788C219.036 120.804 244.407 127.125 257.331 103.492C257.331 105.066 257.016 108.633 255.757 110.312C255.233 108.738 255.757 107.689 253.659 109.263C252.61 109.263 255.757 115.033 254.708 118.181C253.134 116.607 252.085 117.656 254.708 123.427C249.987 118.181 248.413 127.099 244.741 127.099C245.79 127.099 253.134 129.197 238.97 137.066C241.593 134.443 242.118 131.296 235.298 134.968C234.249 137.591 237.921 142.312 228.478 149.132C231.626 144.935 229.003 142.837 226.38 139.165C223.757 141.788 226.38 143.886 222.183 149.132C222.183 145.46 219.036 136.542 214.314 144.411C209.593 152.28 222.183 155.427 226.38 158.575C219.036 158.575 217.462 163.296 212.74 158.575C211.167 157.525 216.937 167.493 212.74 173.263C213.79 163.98 206.445 164.87 201.724 169.591C197.002 174.313 209.068 183.016 219.036 176.936Z" fill="white" stroke="black" stroke-width="2"/>
</g>
<path d="M285.079 55.104V63H281.817V55.104L274.453 42.84H277.323C277.612 42.84 277.841 42.91 278.009 43.05C278.177 43.19 278.317 43.3673 278.429 43.582L282.559 50.806C282.746 51.17 282.914 51.5153 283.063 51.842C283.222 52.1687 283.362 52.4907 283.483 52.808C283.586 52.4813 283.712 52.1593 283.861 51.842C284.01 51.5153 284.178 51.17 284.365 50.806L288.467 43.582C288.56 43.3953 288.696 43.2273 288.873 43.078C289.05 42.9193 289.279 42.84 289.559 42.84H292.443L285.079 55.104ZM300.056 48.496C301.111 48.496 302.063 48.6687 302.912 49.014C303.771 49.3593 304.499 49.8493 305.096 50.484C305.703 51.1187 306.169 51.8887 306.496 52.794C306.823 53.6993 306.986 54.7167 306.986 55.846C306.986 56.9753 306.823 57.9927 306.496 58.898C306.169 59.8033 305.703 60.578 305.096 61.222C304.499 61.8567 303.771 62.3467 302.912 62.692C302.063 63.0373 301.111 63.21 300.056 63.21C298.992 63.21 298.031 63.0373 297.172 62.692C296.323 62.3467 295.595 61.8567 294.988 61.222C294.381 60.578 293.915 59.8033 293.588 58.898C293.261 57.9927 293.098 56.9753 293.098 55.846C293.098 54.7167 293.261 53.6993 293.588 52.794C293.915 51.8887 294.381 51.1187 294.988 50.484C295.595 49.8493 296.323 49.3593 297.172 49.014C298.031 48.6687 298.992 48.496 300.056 48.496ZM300.056 60.858C301.344 60.858 302.301 60.4287 302.926 59.57C303.561 58.702 303.878 57.4653 303.878 55.86C303.878 54.2547 303.561 53.018 302.926 52.15C302.301 51.2727 301.344 50.834 300.056 50.834C298.749 50.834 297.779 51.2727 297.144 52.15C296.509 53.018 296.192 54.2547 296.192 55.86C296.192 57.4653 296.509 58.702 297.144 59.57C297.779 60.4287 298.749 60.858 300.056 60.858ZM324.718 48.72V63H322.898C322.497 63 322.24 62.8087 322.128 62.426L321.904 61.096C321.605 61.4133 321.288 61.7027 320.952 61.964C320.625 62.2253 320.275 62.4493 319.902 62.636C319.529 62.8227 319.127 62.9673 318.698 63.07C318.278 63.1727 317.825 63.224 317.34 63.224C316.556 63.224 315.865 63.0933 315.268 62.832C314.671 62.5707 314.167 62.202 313.756 61.726C313.355 61.25 313.051 60.6807 312.846 60.018C312.641 59.346 312.538 58.6087 312.538 57.806V48.72H315.548V57.806C315.548 58.7673 315.767 59.514 316.206 60.046C316.654 60.578 317.331 60.844 318.236 60.844C318.899 60.844 319.515 60.6947 320.084 60.396C320.663 60.088 321.204 59.668 321.708 59.136V48.72H324.718ZM333.231 41.496C333.651 42.2053 333.936 42.9473 334.085 43.722C334.235 44.4873 334.249 45.248 334.127 46.004C334.006 46.7507 333.749 47.4693 333.357 48.16C332.975 48.8507 332.461 49.4667 331.817 50.008L330.879 49.434C330.721 49.3313 330.646 49.2007 330.655 49.042C330.674 48.874 330.73 48.7433 330.823 48.65C331.038 48.3887 331.234 48.0573 331.411 47.656C331.589 47.2547 331.705 46.816 331.761 46.34C331.827 45.8547 331.813 45.346 331.719 44.814C331.635 44.282 331.435 43.7547 331.117 43.232C330.968 42.9893 330.926 42.7793 330.991 42.602C331.057 42.4247 331.192 42.2987 331.397 42.224L333.231 41.496ZM352.616 48.72L346.876 63H344.16L338.42 48.72H340.898C341.131 48.72 341.322 48.7807 341.472 48.902C341.63 49.014 341.733 49.1493 341.78 49.308L344.944 57.624C345.074 58.016 345.191 58.4033 345.294 58.786C345.396 59.1687 345.485 59.556 345.56 59.948C345.634 59.556 345.723 59.1733 345.826 58.8C345.938 58.4173 346.059 58.0253 346.19 57.624L349.41 49.308C349.466 49.14 349.568 49 349.718 48.888C349.867 48.776 350.049 48.72 350.264 48.72H352.616ZM366.429 54.25C366.429 53.746 366.354 53.2793 366.205 52.85C366.065 52.4113 365.855 52.0333 365.575 51.716C365.295 51.3893 364.945 51.1373 364.525 50.96C364.114 50.7733 363.638 50.68 363.097 50.68C362.005 50.68 361.146 50.9927 360.521 51.618C359.895 52.2433 359.499 53.1207 359.331 54.25H366.429ZM359.247 56.098C359.284 56.91 359.41 57.6147 359.625 58.212C359.839 58.8 360.124 59.29 360.479 59.682C360.843 60.074 361.272 60.368 361.767 60.564C362.271 60.7507 362.831 60.844 363.447 60.844C364.035 60.844 364.543 60.7787 364.973 60.648C365.402 60.508 365.775 60.3587 366.093 60.2C366.41 60.032 366.681 59.8827 366.905 59.752C367.129 59.612 367.334 59.542 367.521 59.542C367.763 59.542 367.95 59.6353 368.081 59.822L368.935 60.928C368.58 61.348 368.179 61.7027 367.731 61.992C367.283 62.2813 366.807 62.5193 366.303 62.706C365.799 62.8833 365.281 63.0093 364.749 63.084C364.217 63.168 363.699 63.21 363.195 63.21C362.205 63.21 361.286 63.0467 360.437 62.72C359.597 62.384 358.864 61.894 358.239 61.25C357.623 60.606 357.137 59.808 356.783 58.856C356.437 57.904 356.265 56.8073 356.265 55.566C356.265 54.5767 356.419 53.6527 356.727 52.794C357.044 51.9353 357.492 51.1887 358.071 50.554C358.659 49.9193 359.368 49.42 360.199 49.056C361.039 48.6827 361.986 48.496 363.041 48.496C363.918 48.496 364.73 48.6407 365.477 48.93C366.223 49.21 366.867 49.6253 367.409 50.176C367.95 50.7267 368.37 51.4033 368.669 52.206C368.977 52.9993 369.131 53.9047 369.131 54.922C369.131 55.3887 369.079 55.7013 368.977 55.86C368.874 56.0187 368.687 56.098 368.417 56.098H359.247ZM389.606 55.734C390.54 55.734 391.24 55.496 391.706 55.02C392.173 54.544 392.406 53.9233 392.406 53.158C392.406 52.374 392.173 51.7533 391.706 51.296C391.24 50.8387 390.54 50.61 389.606 50.61C388.682 50.61 387.982 50.8387 387.506 51.296C387.04 51.7533 386.806 52.374 386.806 53.158C386.806 53.5313 386.867 53.8767 386.988 54.194C387.11 54.5113 387.287 54.7867 387.52 55.02C387.754 55.244 388.043 55.4213 388.388 55.552C388.743 55.6733 389.149 55.734 389.606 55.734ZM393.792 63.7C393.792 63.3827 393.699 63.1307 393.512 62.944C393.335 62.748 393.092 62.5987 392.784 62.496C392.476 62.384 392.117 62.3047 391.706 62.258C391.296 62.202 390.857 62.1647 390.39 62.146C389.933 62.118 389.462 62.0947 388.976 62.076C388.5 62.048 388.038 62.0013 387.59 61.936C387.142 62.1693 386.774 62.4493 386.484 62.776C386.204 63.1027 386.064 63.4807 386.064 63.91C386.064 64.19 386.134 64.4513 386.274 64.694C386.424 64.9367 386.648 65.1467 386.946 65.324C387.254 65.5013 387.642 65.6413 388.108 65.744C388.584 65.8467 389.154 65.898 389.816 65.898C391.142 65.898 392.136 65.6927 392.798 65.282C393.461 64.8713 393.792 64.344 393.792 63.7ZM396.816 49.238V50.358C396.816 50.7313 396.592 50.96 396.144 51.044L394.716 51.282C394.959 51.8233 395.08 52.4253 395.08 53.088C395.08 53.788 394.94 54.4227 394.66 54.992C394.39 55.5613 394.012 56.0467 393.526 56.448C393.041 56.8493 392.462 57.1573 391.79 57.372C391.118 57.5867 390.39 57.694 389.606 57.694C389.308 57.694 389.014 57.68 388.724 57.652C388.444 57.6147 388.169 57.568 387.898 57.512C387.628 57.6707 387.427 57.8387 387.296 58.016C387.166 58.1933 387.1 58.3753 387.1 58.562C387.1 58.87 387.236 59.0987 387.506 59.248C387.777 59.3973 388.132 59.5047 388.57 59.57C389.018 59.6353 389.527 59.6773 390.096 59.696C390.666 59.7147 391.244 59.7473 391.832 59.794C392.42 59.8407 392.999 59.92 393.568 60.032C394.138 60.1347 394.642 60.312 395.08 60.564C395.528 60.8067 395.888 61.138 396.158 61.558C396.429 61.978 396.564 62.524 396.564 63.196C396.564 63.812 396.41 64.414 396.102 65.002C395.794 65.59 395.346 66.1127 394.758 66.57C394.18 67.0273 393.47 67.3913 392.63 67.662C391.79 67.942 390.834 68.082 389.76 68.082C388.696 68.082 387.768 67.9793 386.974 67.774C386.19 67.5687 385.532 67.2887 385 66.934C384.478 66.5887 384.086 66.1873 383.824 65.73C383.572 65.2727 383.446 64.7967 383.446 64.302C383.446 63.63 383.656 63.056 384.076 62.58C384.506 62.104 385.084 61.7307 385.812 61.46C385.42 61.2733 385.103 61.0167 384.86 60.69C384.627 60.3633 384.51 59.934 384.51 59.402C384.51 58.982 384.664 58.5433 384.972 58.086C385.28 57.6287 385.742 57.2413 386.358 56.924C385.649 56.532 385.089 56.014 384.678 55.37C384.268 54.7167 384.062 53.956 384.062 53.088C384.062 52.3787 384.198 51.7393 384.468 51.17C384.748 50.6007 385.136 50.1153 385.63 49.714C386.125 49.3127 386.708 49.0047 387.38 48.79C388.062 48.5753 388.804 48.468 389.606 48.468C390.838 48.468 391.912 48.7247 392.826 49.238H396.816ZM407.922 48.496C408.976 48.496 409.928 48.6687 410.778 49.014C411.636 49.3593 412.364 49.8493 412.962 50.484C413.568 51.1187 414.035 51.8887 414.362 52.794C414.688 53.6993 414.852 54.7167 414.852 55.846C414.852 56.9753 414.688 57.9927 414.362 58.898C414.035 59.8033 413.568 60.578 412.962 61.222C412.364 61.8567 411.636 62.3467 410.778 62.692C409.928 63.0373 408.976 63.21 407.922 63.21C406.858 63.21 405.896 63.0373 405.038 62.692C404.188 62.3467 403.46 61.8567 402.854 61.222C402.247 60.578 401.78 59.8033 401.454 58.898C401.127 57.9927 400.964 56.9753 400.964 55.846C400.964 54.7167 401.127 53.6993 401.454 52.794C401.78 51.8887 402.247 51.1187 402.854 50.484C403.46 49.8493 404.188 49.3593 405.038 49.014C405.896 48.6687 406.858 48.496 407.922 48.496ZM407.922 60.858C409.21 60.858 410.166 60.4287 410.792 59.57C411.426 58.702 411.744 57.4653 411.744 55.86C411.744 54.2547 411.426 53.018 410.792 52.15C410.166 51.2727 409.21 50.834 407.922 50.834C406.615 50.834 405.644 51.2727 405.01 52.15C404.375 53.018 404.058 54.2547 404.058 55.86C404.058 57.4653 404.375 58.702 405.01 59.57C405.644 60.4287 406.615 60.858 407.922 60.858ZM424.848 63.224C423.663 63.224 422.748 62.8927 422.104 62.23C421.47 61.558 421.152 60.6153 421.152 59.402V51.086H419.584C419.416 51.086 419.272 51.0347 419.15 50.932C419.029 50.82 418.968 50.6567 418.968 50.442V49.224L421.278 48.888L421.936 44.758C421.983 44.5993 422.062 44.4733 422.174 44.38C422.286 44.2773 422.436 44.226 422.622 44.226H424.162V48.916H428.124V51.086H424.162V59.192C424.162 59.7053 424.288 60.0973 424.54 60.368C424.792 60.6387 425.128 60.774 425.548 60.774C425.782 60.774 425.982 60.746 426.15 60.69C426.318 60.6247 426.463 60.5593 426.584 60.494C426.706 60.4193 426.808 60.354 426.892 60.298C426.986 60.2327 427.074 60.2 427.158 60.2C427.326 60.2 427.462 60.2933 427.564 60.48L428.46 61.95C427.994 62.3607 427.443 62.678 426.808 62.902C426.174 63.1167 425.52 63.224 424.848 63.224ZM327.425 97.224C326.24 97.224 325.325 96.8927 324.681 96.23C324.047 95.558 323.729 94.6153 323.729 93.402V85.086H322.161C321.993 85.086 321.849 85.0347 321.727 84.932C321.606 84.82 321.545 84.6567 321.545 84.442V83.224L323.855 82.888L324.513 78.758C324.56 78.5993 324.639 78.4733 324.751 78.38C324.863 78.2773 325.013 78.226 325.199 78.226H326.739V82.916H330.701V85.086H326.739V93.192C326.739 93.7053 326.865 94.0973 327.117 94.368C327.369 94.6387 327.705 94.774 328.125 94.774C328.359 94.774 328.559 94.746 328.727 94.69C328.895 94.6247 329.04 94.5593 329.161 94.494C329.283 94.4193 329.385 94.354 329.469 94.298C329.563 94.2327 329.651 94.2 329.735 94.2C329.903 94.2 330.039 94.2933 330.141 94.48L331.037 95.95C330.571 96.3607 330.02 96.678 329.385 96.902C328.751 97.1167 328.097 97.224 327.425 97.224ZM338.884 84.414C339.472 83.8353 340.116 83.3733 340.816 83.028C341.516 82.6733 342.333 82.496 343.266 82.496C344.05 82.496 344.736 82.6267 345.324 82.888C345.921 83.1493 346.421 83.518 346.822 83.994C347.233 84.47 347.541 85.044 347.746 85.716C347.951 86.3787 348.054 87.1113 348.054 87.914V97H345.058V87.914C345.058 86.9527 344.834 86.206 344.386 85.674C343.947 85.142 343.275 84.876 342.37 84.876C341.698 84.876 341.073 85.03 340.494 85.338C339.925 85.646 339.388 86.066 338.884 86.598V97H335.874V76.28H338.884V84.414ZM357.505 82.72V97H354.495V82.72H357.505ZM358.009 78.408C358.009 78.6787 357.953 78.9353 357.841 79.178C357.738 79.4207 357.594 79.6353 357.407 79.822C357.22 79.9993 357.001 80.144 356.749 80.256C356.506 80.3587 356.245 80.41 355.965 80.41C355.694 80.41 355.438 80.3587 355.195 80.256C354.962 80.144 354.756 79.9993 354.579 79.822C354.402 79.6353 354.257 79.4207 354.145 79.178C354.042 78.9353 353.991 78.6787 353.991 78.408C353.991 78.128 354.042 77.8667 354.145 77.624C354.257 77.3813 354.402 77.1713 354.579 76.994C354.756 76.8073 354.962 76.6627 355.195 76.56C355.438 76.448 355.694 76.392 355.965 76.392C356.245 76.392 356.506 76.448 356.749 76.56C357.001 76.6627 357.22 76.8073 357.407 76.994C357.594 77.1713 357.738 77.3813 357.841 77.624C357.953 77.8667 358.009 78.128 358.009 78.408ZM372.613 85.31C372.538 85.4407 372.454 85.534 372.361 85.59C372.268 85.646 372.151 85.674 372.011 85.674C371.852 85.674 371.68 85.6273 371.493 85.534C371.306 85.4313 371.087 85.3193 370.835 85.198C370.583 85.0767 370.284 84.9693 369.939 84.876C369.603 84.7733 369.206 84.722 368.749 84.722C368.376 84.722 368.035 84.7687 367.727 84.862C367.428 84.946 367.172 85.072 366.957 85.24C366.752 85.3987 366.593 85.59 366.481 85.814C366.369 86.0287 366.313 86.262 366.313 86.514C366.313 86.85 366.416 87.13 366.621 87.354C366.826 87.578 367.097 87.774 367.433 87.942C367.769 88.1007 368.152 88.2453 368.581 88.376C369.01 88.5067 369.449 88.6467 369.897 88.796C370.345 88.9453 370.784 89.118 371.213 89.314C371.642 89.51 372.025 89.7527 372.361 90.042C372.697 90.322 372.968 90.6673 373.173 91.078C373.378 91.4793 373.481 91.9693 373.481 92.548C373.481 93.22 373.36 93.8407 373.117 94.41C372.874 94.9793 372.52 95.474 372.053 95.894C371.586 96.314 371.003 96.6407 370.303 96.874C369.612 97.1073 368.819 97.224 367.923 97.224C367.428 97.224 366.948 97.1773 366.481 97.084C366.024 97 365.585 96.8833 365.165 96.734C364.754 96.5753 364.367 96.3887 364.003 96.174C363.648 95.9593 363.331 95.726 363.051 95.474L363.751 94.326C363.835 94.186 363.938 94.0787 364.059 94.004C364.19 93.92 364.348 93.878 364.535 93.878C364.731 93.878 364.922 93.9433 365.109 94.074C365.305 94.1953 365.529 94.3307 365.781 94.48C366.042 94.6293 366.355 94.7693 366.719 94.9C367.083 95.0213 367.536 95.082 368.077 95.082C368.525 95.082 368.912 95.0307 369.239 94.928C369.566 94.816 369.836 94.6667 370.051 94.48C370.266 94.2933 370.424 94.0833 370.527 93.85C370.63 93.6073 370.681 93.3507 370.681 93.08C370.681 92.716 370.578 92.4173 370.373 92.184C370.168 91.9507 369.892 91.75 369.547 91.582C369.211 91.414 368.824 91.2647 368.385 91.134C367.956 91.0033 367.517 90.8633 367.069 90.714C366.621 90.5647 366.178 90.392 365.739 90.196C365.31 90 364.922 89.7527 364.577 89.454C364.241 89.146 363.97 88.7773 363.765 88.348C363.56 87.9093 363.457 87.3773 363.457 86.752C363.457 86.1827 363.569 85.6413 363.793 85.128C364.026 84.6147 364.362 84.162 364.801 83.77C365.249 83.378 365.795 83.07 366.439 82.846C367.092 82.6127 367.844 82.496 368.693 82.496C369.654 82.496 370.527 82.65 371.311 82.958C372.095 83.266 372.753 83.686 373.285 84.218L372.613 85.31ZM382.568 76.84V84.848C382.568 85.688 382.53 86.514 382.456 87.326C382.381 88.1287 382.283 88.9967 382.162 89.93H380.132C380.001 88.9967 379.898 88.1287 379.824 87.326C379.758 86.514 379.726 85.688 379.726 84.848V76.84H382.568ZM379.152 95.264C379.152 94.9933 379.198 94.7413 379.292 94.508C379.394 94.2653 379.534 94.0553 379.712 93.878C379.889 93.7007 380.094 93.5607 380.328 93.458C380.561 93.3553 380.818 93.304 381.098 93.304C381.368 93.304 381.62 93.3553 381.854 93.458C382.096 93.5607 382.302 93.7007 382.47 93.878C382.647 94.0553 382.787 94.2653 382.89 94.508C382.992 94.7413 383.044 94.9933 383.044 95.264C383.044 95.544 382.992 95.8007 382.89 96.034C382.787 96.2673 382.647 96.4727 382.47 96.65C382.302 96.8273 382.096 96.9627 381.854 97.056C381.62 97.1587 381.368 97.21 381.098 97.21C380.818 97.21 380.561 97.1587 380.328 97.056C380.094 96.9627 379.889 96.8273 379.712 96.65C379.534 96.4727 379.394 96.2673 379.292 96.034C379.198 95.8007 379.152 95.544 379.152 95.264ZM278.443 160.506C278.621 160.506 278.775 160.576 278.905 160.716L280.207 162.13C279.386 163.119 278.378 163.885 277.183 164.426C275.989 164.958 274.561 165.224 272.899 165.224C271.425 165.224 270.09 164.972 268.895 164.468C267.71 163.955 266.697 163.245 265.857 162.34C265.017 161.425 264.369 160.338 263.911 159.078C263.463 157.818 263.239 156.432 263.239 154.92C263.239 153.408 263.477 152.022 263.953 150.762C264.439 149.493 265.115 148.405 265.983 147.5C266.861 146.585 267.906 145.876 269.119 145.372C270.342 144.868 271.686 144.616 273.151 144.616C274.607 144.616 275.891 144.854 277.001 145.33C278.121 145.797 279.092 146.422 279.913 147.206L278.835 148.732C278.761 148.835 278.672 148.923 278.569 148.998C278.467 149.073 278.327 149.11 278.149 149.11C277.963 149.11 277.748 149.026 277.505 148.858C277.272 148.681 276.969 148.489 276.595 148.284C276.231 148.069 275.769 147.878 275.209 147.71C274.659 147.533 273.968 147.444 273.137 147.444C272.176 147.444 271.294 147.612 270.491 147.948C269.689 148.284 268.998 148.774 268.419 149.418C267.841 150.062 267.388 150.846 267.061 151.77C266.744 152.694 266.585 153.744 266.585 154.92C266.585 156.105 266.753 157.165 267.089 158.098C267.425 159.022 267.887 159.806 268.475 160.45C269.063 161.085 269.754 161.57 270.547 161.906C271.341 162.242 272.195 162.41 273.109 162.41C273.669 162.41 274.169 162.382 274.607 162.326C275.055 162.261 275.466 162.163 275.839 162.032C276.213 161.892 276.563 161.719 276.889 161.514C277.225 161.309 277.557 161.057 277.883 160.758C278.07 160.59 278.257 160.506 278.443 160.506ZM288.343 144.28V165H285.333V144.28H288.343ZM297.994 150.72V165H294.984V150.72H297.994ZM298.498 146.408C298.498 146.679 298.442 146.935 298.33 147.178C298.228 147.421 298.083 147.635 297.896 147.822C297.71 147.999 297.49 148.144 297.238 148.256C296.996 148.359 296.734 148.41 296.454 148.41C296.184 148.41 295.927 148.359 295.684 148.256C295.451 148.144 295.246 147.999 295.068 147.822C294.891 147.635 294.746 147.421 294.634 147.178C294.532 146.935 294.48 146.679 294.48 146.408C294.48 146.128 294.532 145.867 294.634 145.624C294.746 145.381 294.891 145.171 295.068 144.994C295.246 144.807 295.451 144.663 295.684 144.56C295.927 144.448 296.184 144.392 296.454 144.392C296.734 144.392 296.996 144.448 297.238 144.56C297.49 144.663 297.71 144.807 297.896 144.994C298.083 145.171 298.228 145.381 298.33 145.624C298.442 145.867 298.498 146.128 298.498 146.408ZM314.67 153.52C314.577 153.641 314.488 153.735 314.404 153.8C314.32 153.865 314.199 153.898 314.04 153.898C313.882 153.898 313.714 153.842 313.536 153.73C313.368 153.618 313.163 153.497 312.92 153.366C312.687 153.226 312.402 153.1 312.066 152.988C311.73 152.876 311.31 152.82 310.806 152.82C310.153 152.82 309.579 152.937 309.084 153.17C308.599 153.403 308.188 153.739 307.852 154.178C307.526 154.607 307.278 155.135 307.11 155.76C306.952 156.376 306.872 157.071 306.872 157.846C306.872 158.649 306.961 159.363 307.138 159.988C307.316 160.613 307.568 161.141 307.894 161.57C308.23 161.999 308.632 162.326 309.098 162.55C309.574 162.774 310.106 162.886 310.694 162.886C311.273 162.886 311.744 162.816 312.108 162.676C312.472 162.536 312.776 162.382 313.018 162.214C313.261 162.046 313.466 161.892 313.634 161.752C313.812 161.612 313.998 161.542 314.194 161.542C314.437 161.542 314.624 161.635 314.754 161.822L315.608 162.928C315.263 163.348 314.88 163.703 314.46 163.992C314.04 164.281 313.597 164.519 313.13 164.706C312.664 164.883 312.178 165.009 311.674 165.084C311.17 165.168 310.662 165.21 310.148 165.21C309.262 165.21 308.431 165.047 307.656 164.72C306.891 164.384 306.219 163.903 305.64 163.278C305.071 162.643 304.618 161.873 304.282 160.968C303.956 160.053 303.792 159.013 303.792 157.846C303.792 156.791 303.942 155.816 304.24 154.92C304.539 154.015 304.973 153.235 305.542 152.582C306.121 151.929 306.835 151.42 307.684 151.056C308.534 150.683 309.514 150.496 310.624 150.496C311.66 150.496 312.57 150.664 313.354 151C314.148 151.336 314.852 151.812 315.468 152.428L314.67 153.52ZM323.839 144.28V156.292H324.483C324.689 156.292 324.857 156.264 324.987 156.208C325.118 156.152 325.253 156.035 325.393 155.858L329.397 151.28C329.537 151.093 329.691 150.953 329.859 150.86C330.027 150.767 330.242 150.72 330.503 150.72H333.233L328.417 156.152C328.137 156.516 327.829 156.805 327.493 157.02C327.68 157.151 327.843 157.3 327.983 157.468C328.123 157.627 328.259 157.809 328.389 158.014L333.527 165H330.839C330.597 165 330.387 164.963 330.209 164.888C330.041 164.804 329.892 164.655 329.761 164.44L325.631 158.84C325.491 158.625 325.351 158.49 325.211 158.434C325.071 158.369 324.861 158.336 324.581 158.336H323.839V165H320.829V144.28H323.839ZM354.205 150.496C355.26 150.496 356.212 150.669 357.061 151.014C357.92 151.359 358.648 151.849 359.245 152.484C359.852 153.119 360.318 153.889 360.645 154.794C360.972 155.699 361.135 156.717 361.135 157.846C361.135 158.975 360.972 159.993 360.645 160.898C360.318 161.803 359.852 162.578 359.245 163.222C358.648 163.857 357.92 164.347 357.061 164.692C356.212 165.037 355.26 165.21 354.205 165.21C353.141 165.21 352.18 165.037 351.321 164.692C350.472 164.347 349.744 163.857 349.137 163.222C348.53 162.578 348.064 161.803 347.737 160.898C347.41 159.993 347.247 158.975 347.247 157.846C347.247 156.717 347.41 155.699 347.737 154.794C348.064 153.889 348.53 153.119 349.137 152.484C349.744 151.849 350.472 151.359 351.321 151.014C352.18 150.669 353.141 150.496 354.205 150.496ZM354.205 162.858C355.493 162.858 356.45 162.429 357.075 161.57C357.71 160.702 358.027 159.465 358.027 157.86C358.027 156.255 357.71 155.018 357.075 154.15C356.45 153.273 355.493 152.834 354.205 152.834C352.898 152.834 351.928 153.273 351.293 154.15C350.658 155.018 350.341 156.255 350.341 157.86C350.341 159.465 350.658 160.702 351.293 161.57C351.928 162.429 352.898 162.858 354.205 162.858ZM369.641 152.61C369.949 152.293 370.266 152.008 370.593 151.756C370.929 151.495 371.284 151.271 371.657 151.084C372.03 150.897 372.427 150.753 372.847 150.65C373.267 150.547 373.724 150.496 374.219 150.496C375.003 150.496 375.689 150.627 376.277 150.888C376.874 151.149 377.374 151.518 377.775 151.994C378.186 152.47 378.494 153.044 378.699 153.716C378.904 154.379 379.007 155.111 379.007 155.914V165H376.011V155.914C376.011 154.953 375.787 154.206 375.339 153.674C374.9 153.142 374.228 152.876 373.323 152.876C372.651 152.876 372.026 153.03 371.447 153.338C370.878 153.646 370.341 154.066 369.837 154.598V165H366.827V150.72H368.647C369.058 150.72 369.319 150.911 369.431 151.294L369.641 152.61ZM395.095 165V150.72H396.915C397.326 150.72 397.587 150.911 397.699 151.294L397.895 152.54C398.156 152.241 398.427 151.971 398.707 151.728C398.987 151.476 399.286 151.261 399.603 151.084C399.93 150.897 400.275 150.753 400.639 150.65C401.012 150.547 401.414 150.496 401.843 150.496C402.3 150.496 402.72 150.561 403.103 150.692C403.486 150.823 403.822 151.009 404.111 151.252C404.41 151.495 404.666 151.789 404.881 152.134C405.096 152.479 405.273 152.867 405.413 153.296C405.628 152.801 405.898 152.377 406.225 152.022C406.552 151.667 406.916 151.378 407.317 151.154C407.718 150.93 408.143 150.767 408.591 150.664C409.048 150.552 409.51 150.496 409.977 150.496C410.742 150.496 411.424 150.617 412.021 150.86C412.628 151.103 413.136 151.457 413.547 151.924C413.967 152.381 414.284 152.946 414.499 153.618C414.714 154.29 414.821 155.055 414.821 155.914V165H411.811V155.914C411.811 154.906 411.592 154.15 411.153 153.646C410.724 153.133 410.084 152.876 409.235 152.876C408.852 152.876 408.493 152.941 408.157 153.072C407.821 153.203 407.527 153.394 407.275 153.646C407.023 153.898 406.822 154.215 406.673 154.598C406.533 154.971 406.463 155.41 406.463 155.914V165H403.453V155.914C403.453 154.869 403.243 154.103 402.823 153.618C402.403 153.123 401.787 152.876 400.975 152.876C400.415 152.876 399.897 153.021 399.421 153.31C398.945 153.59 398.506 153.977 398.105 154.472V165H395.095ZM430.503 156.25C430.503 155.746 430.428 155.279 430.279 154.85C430.139 154.411 429.929 154.033 429.649 153.716C429.369 153.389 429.019 153.137 428.599 152.96C428.188 152.773 427.712 152.68 427.171 152.68C426.079 152.68 425.22 152.993 424.595 153.618C423.97 154.243 423.573 155.121 423.405 156.25H430.503ZM423.321 158.098C423.358 158.91 423.484 159.615 423.699 160.212C423.914 160.8 424.198 161.29 424.553 161.682C424.917 162.074 425.346 162.368 425.841 162.564C426.345 162.751 426.905 162.844 427.521 162.844C428.109 162.844 428.618 162.779 429.047 162.648C429.476 162.508 429.85 162.359 430.167 162.2C430.484 162.032 430.755 161.883 430.979 161.752C431.203 161.612 431.408 161.542 431.595 161.542C431.838 161.542 432.024 161.635 432.155 161.822L433.009 162.928C432.654 163.348 432.253 163.703 431.805 163.992C431.357 164.281 430.881 164.519 430.377 164.706C429.873 164.883 429.355 165.009 428.823 165.084C428.291 165.168 427.773 165.21 427.269 165.21C426.28 165.21 425.36 165.047 424.511 164.72C423.671 164.384 422.938 163.894 422.313 163.25C421.697 162.606 421.212 161.808 420.857 160.856C420.512 159.904 420.339 158.807 420.339 157.566C420.339 156.577 420.493 155.653 420.801 154.794C421.118 153.935 421.566 153.189 422.145 152.554C422.733 151.919 423.442 151.42 424.273 151.056C425.113 150.683 426.06 150.496 427.115 150.496C427.992 150.496 428.804 150.641 429.551 150.93C430.298 151.21 430.942 151.625 431.483 152.176C432.024 152.727 432.444 153.403 432.743 154.206C433.051 154.999 433.205 155.905 433.205 156.922C433.205 157.389 433.154 157.701 433.051 157.86C432.948 158.019 432.762 158.098 432.491 158.098H423.321ZM270.724 184.72V199H267.714V184.72H270.724ZM271.228 180.408C271.228 180.679 271.172 180.935 271.06 181.178C270.958 181.421 270.813 181.635 270.626 181.822C270.44 181.999 270.22 182.144 269.968 182.256C269.726 182.359 269.464 182.41 269.184 182.41C268.914 182.41 268.657 182.359 268.414 182.256C268.181 182.144 267.976 181.999 267.798 181.822C267.621 181.635 267.476 181.421 267.364 181.178C267.262 180.935 267.21 180.679 267.21 180.408C267.21 180.128 267.262 179.867 267.364 179.624C267.476 179.381 267.621 179.171 267.798 178.994C267.976 178.807 268.181 178.663 268.414 178.56C268.657 178.448 268.914 178.392 269.184 178.392C269.464 178.392 269.726 178.448 269.968 178.56C270.22 178.663 270.44 178.807 270.626 178.994C270.813 179.171 270.958 179.381 271.06 179.624C271.172 179.867 271.228 180.128 271.228 180.408ZM278.272 199V187.114L276.872 186.918C276.639 186.871 276.448 186.787 276.298 186.666C276.158 186.545 276.088 186.372 276.088 186.148V184.916H278.272V183.712C278.272 182.9 278.389 182.172 278.622 181.528C278.865 180.884 279.206 180.338 279.644 179.89C280.092 179.442 280.634 179.101 281.268 178.868C281.903 178.625 282.617 178.504 283.41 178.504C283.737 178.504 284.045 178.527 284.334 178.574C284.633 178.621 284.922 178.691 285.202 178.784L285.146 180.296C285.128 180.548 285.002 180.697 284.768 180.744C284.544 180.791 284.26 180.814 283.914 180.814C283.494 180.814 283.116 180.865 282.78 180.968C282.444 181.061 282.155 181.225 281.912 181.458C281.679 181.691 281.497 181.999 281.366 182.382C281.245 182.765 281.184 183.241 281.184 183.81V184.916H285.09V187.086H281.282V199H278.272ZM311.244 184.72L303.376 203.06C303.274 203.275 303.148 203.443 302.998 203.564C302.858 203.685 302.639 203.746 302.34 203.746H300.114L302.746 198.034L296.922 184.72H299.54C299.792 184.72 299.984 184.781 300.114 184.902C300.254 185.014 300.357 185.149 300.422 185.308L303.824 193.414C303.908 193.647 303.983 193.881 304.048 194.114C304.123 194.338 304.193 194.571 304.258 194.814C304.333 194.571 304.408 194.333 304.482 194.1C304.557 193.867 304.641 193.633 304.734 193.4L307.996 185.308C308.062 185.14 308.169 185 308.318 184.888C308.477 184.776 308.65 184.72 308.836 184.72H311.244ZM321.767 184.496C322.822 184.496 323.774 184.669 324.623 185.014C325.482 185.359 326.21 185.849 326.807 186.484C327.414 187.119 327.88 187.889 328.207 188.794C328.534 189.699 328.697 190.717 328.697 191.846C328.697 192.975 328.534 193.993 328.207 194.898C327.88 195.803 327.414 196.578 326.807 197.222C326.21 197.857 325.482 198.347 324.623 198.692C323.774 199.037 322.822 199.21 321.767 199.21C320.703 199.21 319.742 199.037 318.883 198.692C318.034 198.347 317.306 197.857 316.699 197.222C316.092 196.578 315.626 195.803 315.299 194.898C314.972 193.993 314.809 192.975 314.809 191.846C314.809 190.717 314.972 189.699 315.299 188.794C315.626 187.889 316.092 187.119 316.699 186.484C317.306 185.849 318.034 185.359 318.883 185.014C319.742 184.669 320.703 184.496 321.767 184.496ZM321.767 196.858C323.055 196.858 324.012 196.429 324.637 195.57C325.272 194.702 325.589 193.465 325.589 191.86C325.589 190.255 325.272 189.018 324.637 188.15C324.012 187.273 323.055 186.834 321.767 186.834C320.46 186.834 319.49 187.273 318.855 188.15C318.22 189.018 317.903 190.255 317.903 191.86C317.903 193.465 318.22 194.702 318.855 195.57C319.49 196.429 320.46 196.858 321.767 196.858ZM346.429 184.72V199H344.609C344.208 199 343.951 198.809 343.839 198.426L343.615 197.096C343.316 197.413 342.999 197.703 342.663 197.964C342.336 198.225 341.986 198.449 341.613 198.636C341.24 198.823 340.838 198.967 340.409 199.07C339.989 199.173 339.536 199.224 339.051 199.224C338.267 199.224 337.576 199.093 336.979 198.832C336.382 198.571 335.878 198.202 335.467 197.726C335.066 197.25 334.762 196.681 334.557 196.018C334.352 195.346 334.249 194.609 334.249 193.806V184.72H337.259V193.806C337.259 194.767 337.478 195.514 337.917 196.046C338.365 196.578 339.042 196.844 339.947 196.844C340.61 196.844 341.226 196.695 341.795 196.396C342.374 196.088 342.915 195.668 343.419 195.136V184.72H346.429ZM365.471 186.61C365.779 186.293 366.096 186.008 366.423 185.756C366.759 185.495 367.114 185.271 367.487 185.084C367.86 184.897 368.257 184.753 368.677 184.65C369.097 184.547 369.554 184.496 370.049 184.496C370.833 184.496 371.519 184.627 372.107 184.888C372.704 185.149 373.204 185.518 373.605 185.994C374.016 186.47 374.324 187.044 374.529 187.716C374.734 188.379 374.837 189.111 374.837 189.914V199H371.841V189.914C371.841 188.953 371.617 188.206 371.169 187.674C370.73 187.142 370.058 186.876 369.153 186.876C368.481 186.876 367.856 187.03 367.277 187.338C366.708 187.646 366.171 188.066 365.667 188.598V199H362.657V184.72H364.477C364.888 184.72 365.149 184.911 365.261 185.294L365.471 186.61ZM390.518 190.25C390.518 189.746 390.444 189.279 390.294 188.85C390.154 188.411 389.944 188.033 389.664 187.716C389.384 187.389 389.034 187.137 388.614 186.96C388.204 186.773 387.728 186.68 387.186 186.68C386.094 186.68 385.236 186.993 384.61 187.618C383.985 188.243 383.588 189.121 383.42 190.25H390.518ZM383.336 192.098C383.374 192.91 383.5 193.615 383.714 194.212C383.929 194.8 384.214 195.29 384.568 195.682C384.932 196.074 385.362 196.368 385.856 196.564C386.36 196.751 386.92 196.844 387.536 196.844C388.124 196.844 388.633 196.779 389.062 196.648C389.492 196.508 389.865 196.359 390.182 196.2C390.5 196.032 390.77 195.883 390.994 195.752C391.218 195.612 391.424 195.542 391.61 195.542C391.853 195.542 392.04 195.635 392.17 195.822L393.024 196.928C392.67 197.348 392.268 197.703 391.82 197.992C391.372 198.281 390.896 198.519 390.392 198.706C389.888 198.883 389.37 199.009 388.838 199.084C388.306 199.168 387.788 199.21 387.284 199.21C386.295 199.21 385.376 199.047 384.526 198.72C383.686 198.384 382.954 197.894 382.328 197.25C381.712 196.606 381.227 195.808 380.872 194.856C380.527 193.904 380.354 192.807 380.354 191.566C380.354 190.577 380.508 189.653 380.816 188.794C381.134 187.935 381.582 187.189 382.16 186.554C382.748 185.919 383.458 185.42 384.288 185.056C385.128 184.683 386.076 184.496 387.13 184.496C388.008 184.496 388.82 184.641 389.566 184.93C390.313 185.21 390.957 185.625 391.498 186.176C392.04 186.727 392.46 187.403 392.758 188.206C393.066 188.999 393.22 189.905 393.22 190.922C393.22 191.389 393.169 191.701 393.066 191.86C392.964 192.019 392.777 192.098 392.506 192.098H383.336ZM408.193 190.25C408.193 189.746 408.119 189.279 407.969 188.85C407.829 188.411 407.619 188.033 407.339 187.716C407.059 187.389 406.709 187.137 406.289 186.96C405.879 186.773 405.403 186.68 404.861 186.68C403.769 186.68 402.911 186.993 402.285 187.618C401.66 188.243 401.263 189.121 401.095 190.25H408.193ZM401.011 192.098C401.049 192.91 401.175 193.615 401.389 194.212C401.604 194.8 401.889 195.29 402.243 195.682C402.607 196.074 403.037 196.368 403.531 196.564C404.035 196.751 404.595 196.844 405.211 196.844C405.799 196.844 406.308 196.779 406.737 196.648C407.167 196.508 407.54 196.359 407.857 196.2C408.175 196.032 408.445 195.883 408.669 195.752C408.893 195.612 409.099 195.542 409.285 195.542C409.528 195.542 409.715 195.635 409.845 195.822L410.699 196.928C410.345 197.348 409.943 197.703 409.495 197.992C409.047 198.281 408.571 198.519 408.067 198.706C407.563 198.883 407.045 199.009 406.513 199.084C405.981 199.168 405.463 199.21 404.959 199.21C403.97 199.21 403.051 199.047 402.201 198.72C401.361 198.384 400.629 197.894 400.003 197.25C399.387 196.606 398.902 195.808 398.547 194.856C398.202 193.904 398.029 192.807 398.029 191.566C398.029 190.577 398.183 189.653 398.491 188.794C398.809 187.935 399.257 187.189 399.835 186.554C400.423 185.919 401.133 185.42 401.963 185.056C402.803 184.683 403.751 184.496 404.805 184.496C405.683 184.496 406.495 184.641 407.241 184.93C407.988 185.21 408.632 185.625 409.173 186.176C409.715 186.727 410.135 187.403 410.433 188.206C410.741 188.999 410.895 189.905 410.895 190.922C410.895 191.389 410.844 191.701 410.741 191.86C410.639 192.019 410.452 192.098 410.181 192.098H401.011ZM425.616 188.234C425.196 187.693 424.734 187.315 424.23 187.1C423.726 186.885 423.18 186.778 422.592 186.778C421.416 186.778 420.497 187.212 419.834 188.08C419.172 188.939 418.84 190.213 418.84 191.902C418.84 192.779 418.915 193.531 419.064 194.156C419.214 194.772 419.428 195.276 419.708 195.668C419.988 196.06 420.329 196.345 420.73 196.522C421.132 196.699 421.584 196.788 422.088 196.788C422.854 196.788 423.512 196.625 424.062 196.298C424.622 195.962 425.14 195.491 425.616 194.884V188.234ZM428.626 178.28V199H426.806C426.405 199 426.148 198.809 426.036 198.426L425.77 196.872C425.173 197.572 424.492 198.137 423.726 198.566C422.97 198.995 422.088 199.21 421.08 199.21C420.278 199.21 419.55 199.051 418.896 198.734C418.243 198.407 417.683 197.936 417.216 197.32C416.75 196.704 416.386 195.943 416.124 195.038C415.872 194.123 415.746 193.078 415.746 191.902C415.746 190.838 415.886 189.853 416.166 188.948C416.456 188.043 416.866 187.259 417.398 186.596C417.93 185.924 418.574 185.401 419.33 185.028C420.096 184.645 420.95 184.454 421.892 184.454C422.732 184.454 423.446 184.589 424.034 184.86C424.622 185.121 425.15 185.49 425.616 185.966V178.28H428.626ZM320.957 220.414C321.545 219.835 322.189 219.373 322.889 219.028C323.589 218.673 324.406 218.496 325.339 218.496C326.123 218.496 326.809 218.627 327.397 218.888C327.995 219.149 328.494 219.518 328.895 219.994C329.306 220.47 329.614 221.044 329.819 221.716C330.025 222.379 330.127 223.111 330.127 223.914V233H327.131V223.914C327.131 222.953 326.907 222.206 326.459 221.674C326.021 221.142 325.349 220.876 324.443 220.876C323.771 220.876 323.146 221.03 322.567 221.338C321.998 221.646 321.461 222.066 320.957 222.598V233H317.947V212.28H320.957V220.414ZM345.809 224.25C345.809 223.746 345.734 223.279 345.585 222.85C345.445 222.411 345.235 222.033 344.955 221.716C344.675 221.389 344.325 221.137 343.905 220.96C343.494 220.773 343.018 220.68 342.477 220.68C341.385 220.68 340.526 220.993 339.901 221.618C339.275 222.243 338.879 223.121 338.711 224.25H345.809ZM338.627 226.098C338.664 226.91 338.79 227.615 339.005 228.212C339.219 228.8 339.504 229.29 339.859 229.682C340.223 230.074 340.652 230.368 341.147 230.564C341.651 230.751 342.211 230.844 342.827 230.844C343.415 230.844 343.923 230.779 344.353 230.648C344.782 230.508 345.155 230.359 345.473 230.2C345.79 230.032 346.061 229.883 346.285 229.752C346.509 229.612 346.714 229.542 346.901 229.542C347.143 229.542 347.33 229.635 347.461 229.822L348.315 230.928C347.96 231.348 347.559 231.703 347.111 231.992C346.663 232.281 346.187 232.519 345.683 232.706C345.179 232.883 344.661 233.009 344.129 233.084C343.597 233.168 343.079 233.21 342.575 233.21C341.585 233.21 340.666 233.047 339.817 232.72C338.977 232.384 338.244 231.894 337.619 231.25C337.003 230.606 336.517 229.808 336.163 228.856C335.817 227.904 335.645 226.807 335.645 225.566C335.645 224.577 335.799 223.653 336.107 222.794C336.424 221.935 336.872 221.189 337.451 220.554C338.039 219.919 338.748 219.42 339.579 219.056C340.419 218.683 341.366 218.496 342.421 218.496C343.298 218.496 344.11 218.641 344.857 218.93C345.603 219.21 346.247 219.625 346.789 220.176C347.33 220.727 347.75 221.403 348.049 222.206C348.357 222.999 348.511 223.905 348.511 224.922C348.511 225.389 348.459 225.701 348.357 225.86C348.254 226.019 348.067 226.098 347.797 226.098H338.627ZM357.184 212.28V233H354.174V212.28H357.184ZM366.709 229.416C367.129 229.957 367.586 230.34 368.081 230.564C368.585 230.779 369.14 230.886 369.747 230.886C370.923 230.886 371.838 230.457 372.491 229.598C373.154 228.739 373.485 227.461 373.485 225.762C373.485 224.885 373.41 224.138 373.261 223.522C373.112 222.897 372.897 222.388 372.617 221.996C372.337 221.604 371.996 221.319 371.595 221.142C371.194 220.965 370.741 220.876 370.237 220.876C369.472 220.876 368.809 221.044 368.249 221.38C367.698 221.707 367.185 222.178 366.709 222.794V229.416ZM366.555 220.792C367.152 220.092 367.829 219.527 368.585 219.098C369.35 218.669 370.237 218.454 371.245 218.454C372.048 218.454 372.776 218.617 373.429 218.944C374.082 219.261 374.642 219.728 375.109 220.344C375.576 220.96 375.935 221.725 376.187 222.64C376.448 223.545 376.579 224.586 376.579 225.762C376.579 226.817 376.434 227.801 376.145 228.716C375.865 229.621 375.459 230.41 374.927 231.082C374.395 231.745 373.751 232.267 372.995 232.65C372.239 233.023 371.385 233.21 370.433 233.21C369.593 233.21 368.879 233.075 368.291 232.804C367.712 232.533 367.185 232.16 366.709 231.684V237.746H363.699V218.72H365.519C365.93 218.72 366.191 218.911 366.303 219.294L366.555 220.792ZM381.842 231.264C381.842 230.993 381.888 230.741 381.982 230.508C382.084 230.265 382.22 230.055 382.388 229.878C382.565 229.701 382.77 229.561 383.004 229.458C383.246 229.355 383.503 229.304 383.774 229.304C384.044 229.304 384.296 229.355 384.53 229.458C384.772 229.561 384.982 229.701 385.16 229.878C385.337 230.055 385.477 230.265 385.58 230.508C385.682 230.741 385.734 230.993 385.734 231.264C385.734 231.544 385.682 231.801 385.58 232.034C385.477 232.267 385.337 232.473 385.16 232.65C384.982 232.827 384.772 232.963 384.53 233.056C384.296 233.159 384.044 233.21 383.774 233.21C383.503 233.21 383.246 233.159 383.004 233.056C382.77 232.963 382.565 232.827 382.388 232.65C382.22 232.473 382.084 232.267 381.982 232.034C381.888 231.801 381.842 231.544 381.842 231.264Z" fill="black"/>
<defs>
<filter id="filter0_d_271_57" x="136" y="0" width="367" height="284.73" filterUnits="userSpaceOnUse" color-interpolation-filters="sRGB">
<feFlood flood-opacity="0" result="BackgroundImageFix"/>
<feColorMatrix in="SourceAlpha" type="matrix" values="0 0 0 0 0 0 0 0 0 0 0 0 0 0 0 0 0 0 127 0" result="hardAlpha"/>
<feOffset dy="4"/>
<feGaussianBlur stdDeviation="2"/>
<feComposite in2="hardAlpha" operator="out"/>
<feColorMatrix type="matrix" values="0 0 0 0 0 0 0 0 0 0 0 0 0 0 0 0 0 0 0.25 0"/>
<feBlend mode="normal" in2="BackgroundImageFix" result="effect1_dropShadow_271_57"/>
<feBlend mode="normal" in="SourceGraphic" in2="effect1_dropShadow_271_57" result="shape"/>
</filter>
<filter id="filter1_d_271_57" x="0" y="92" width="269.643" height="262.265" filterUnits="userSpaceOnUse" color-interpolation-filters="sRGB">
<feFlood flood-opacity="0" result="BackgroundImageFix"/>
<feColorMatrix in="SourceAlpha" type="matrix" values="0 0 0 0 0 0 0 0 0 0 0 0 0 0 0 0 0 0 127 0" result="hardAlpha"/>
<feOffset dy="4"/>
<feGaussianBlur stdDeviation="2"/>
<feComposite in2="hardAlpha" operator="out"/>
<feColorMatrix type="matrix" values="0 0 0 0 0 0 0 0 0 0 0 0 0 0 0 0 0 0 0.25 0"/>
<feBlend mode="normal" in2="BackgroundImageFix" result="effect1_dropShadow_271_57"/>
<feBlend mode="normal" in="SourceGraphic" in2="effect1_dropShadow_271_57" result="shape"/>
</filter>
</defs>
</svg>
