<svg width="661" height="263" viewBox="0 0 661 263" fill="none" xmlns="http://www.w3.org/2000/svg">
<g filter="url(#filter0_d_271_57)">
<mask id="path-1-inside-1_271_57" fill="white">
<path fill-rule="evenodd" clip-rule="evenodd" d="M647 26C652.523 26 657 30.4771 657 36V140.661C657 146.184 652.523 150.661 647 150.661H332.825C307.087 152.616 294.05 157.089 282.974 160.888C274.49 163.799 267.158 166.314 256.15 167C268.562 165.127 274.554 155.043 261.482 150.661H127C121.477 150.661 117 146.184 117 140.661V36C117 30.4772 121.477 26 127 26H647Z"/>
</mask>
<path fill-rule="evenodd" clip-rule="evenodd" d="M647 26C652.523 26 657 30.4771 657 36V140.661C657 146.184 652.523 150.661 647 150.661H332.825C307.087 152.616 294.05 157.089 282.974 160.888C274.49 163.799 267.158 166.314 256.15 167C268.562 165.127 274.554 155.043 261.482 150.661H127C121.477 150.661 117 146.184 117 140.661V36C117 30.4772 121.477 26 127 26H647Z" fill="white"/>
<path d="M332.825 150.661L332.787 150.163L332.806 150.161H332.825V150.661ZM282.974 160.888L282.812 160.415L282.812 160.415L282.974 160.888ZM256.15 167L256.181 167.499L256.075 166.506L256.15 167ZM261.482 150.661V150.161H261.563L261.641 150.187L261.482 150.661ZM656.5 36C656.5 30.7533 652.247 26.5 647 26.5V25.5C652.799 25.5 657.5 30.201 657.5 36H656.5ZM656.5 140.661V36H657.5V140.661H656.5ZM647 150.161C652.247 150.161 656.5 145.908 656.5 140.661H657.5C657.5 146.46 652.799 151.161 647 151.161V150.161ZM332.825 150.161H647V151.161H332.825V150.161ZM332.863 151.16C307.183 153.11 294.19 157.569 283.137 161.361L282.812 160.415C293.909 156.608 306.991 152.122 332.787 150.163L332.863 151.16ZM283.137 161.361C274.649 164.273 267.261 166.808 256.181 167.499L256.119 166.501C267.054 165.819 274.332 163.324 282.812 160.415L283.137 161.361ZM256.075 166.506C259.121 166.046 261.758 165.085 263.798 163.846C265.844 162.603 267.259 161.101 267.913 159.574C268.558 158.07 268.476 156.522 267.496 155.081C266.498 153.615 264.536 152.212 261.323 151.135L261.641 150.187C264.963 151.301 267.155 152.802 268.323 154.518C269.507 156.259 269.603 158.17 268.832 159.968C268.071 161.745 266.478 163.388 264.317 164.7C262.151 166.016 259.385 167.017 256.224 167.494L256.075 166.506ZM127 150.161H261.482V151.161H127V150.161ZM117.5 140.661C117.5 145.908 121.753 150.161 127 150.161V151.161C121.201 151.161 116.5 146.46 116.5 140.661H117.5ZM117.5 36V140.661H116.5V36H117.5ZM127 26.5C121.753 26.5 117.5 30.7533 117.5 36H116.5C116.5 30.201 121.201 25.5 127 25.5V26.5ZM647 26.5H127V25.5H647V26.5Z" fill="black" mask="url(#path-1-inside-1_271_57)"/>
</g>
<path d="M270.394 76.6024C270.571 76.6024 270.725 76.6724 270.856 76.8124L272.158 78.2264C271.337 79.2158 270.329 79.9811 269.134 80.5224C267.939 81.0544 266.511 81.3204 264.85 81.3204C263.375 81.3204 262.041 81.0684 260.846 80.5644C259.661 80.0511 258.648 79.3418 257.808 78.4364C256.968 77.5218 256.319 76.4344 255.862 75.1744C255.414 73.9144 255.19 72.5284 255.19 71.0164C255.19 69.5044 255.428 68.1184 255.904 66.8584C256.389 65.5891 257.066 64.5018 257.934 63.5964C258.811 62.6818 259.857 61.9724 261.07 61.4684C262.293 60.9644 263.637 60.7124 265.102 60.7124C266.558 60.7124 267.841 60.9504 268.952 61.4264C270.072 61.8931 271.043 62.5184 271.864 63.3024L270.786 64.8284C270.711 64.9311 270.623 65.0198 270.52 65.0944C270.417 65.1691 270.277 65.2064 270.1 65.2064C269.913 65.2064 269.699 65.1224 269.456 64.9544C269.223 64.7771 268.919 64.5858 268.546 64.3804C268.182 64.1658 267.72 63.9744 267.16 63.8064C266.609 63.6291 265.919 63.5404 265.088 63.5404C264.127 63.5404 263.245 63.7084 262.442 64.0444C261.639 64.3804 260.949 64.8704 260.37 65.5144C259.791 66.1584 259.339 66.9424 259.012 67.8664C258.695 68.7904 258.536 69.8404 258.536 71.0164C258.536 72.2018 258.704 73.2611 259.04 74.1944C259.376 75.1184 259.838 75.9024 260.426 76.5464C261.014 77.1811 261.705 77.6664 262.498 78.0024C263.291 78.3384 264.145 78.5064 265.06 78.5064C265.62 78.5064 266.119 78.4784 266.558 78.4224C267.006 78.3571 267.417 78.2591 267.79 78.1284C268.163 77.9884 268.513 77.8158 268.84 77.6104C269.176 77.4051 269.507 77.1531 269.834 76.8544C270.021 76.6864 270.207 76.6024 270.394 76.6024ZM280.294 60.3764V81.0964H277.284V60.3764H280.294ZM289.945 66.8164V81.0964H286.935V66.8164H289.945ZM290.449 62.5044C290.449 62.7751 290.393 63.0318 290.281 63.2744C290.178 63.5171 290.034 63.7318 289.847 63.9184C289.66 64.0958 289.441 64.2404 289.189 64.3524C288.946 64.4551 288.685 64.5064 288.405 64.5064C288.134 64.5064 287.878 64.4551 287.635 64.3524C287.402 64.2404 287.196 64.0958 287.019 63.9184C286.842 63.7318 286.697 63.5171 286.585 63.2744C286.482 63.0318 286.431 62.7751 286.431 62.5044C286.431 62.2244 286.482 61.9631 286.585 61.7204C286.697 61.4778 286.842 61.2678 287.019 61.0904C287.196 60.9038 287.402 60.7591 287.635 60.6564C287.878 60.5444 288.134 60.4884 288.405 60.4884C288.685 60.4884 288.946 60.5444 289.189 60.6564C289.441 60.7591 289.66 60.9038 289.847 61.0904C290.034 61.2678 290.178 61.4778 290.281 61.7204C290.393 61.9631 290.449 62.2244 290.449 62.5044ZM306.621 69.6164C306.528 69.7378 306.439 69.8311 306.355 69.8964C306.271 69.9618 306.15 69.9944 305.991 69.9944C305.832 69.9944 305.664 69.9384 305.487 69.8264C305.319 69.7144 305.114 69.5931 304.871 69.4624C304.638 69.3224 304.353 69.1964 304.017 69.0844C303.681 68.9724 303.261 68.9164 302.757 68.9164C302.104 68.9164 301.53 69.0331 301.035 69.2664C300.55 69.4998 300.139 69.8358 299.803 70.2744C299.476 70.7038 299.229 71.2311 299.061 71.8564C298.902 72.4724 298.823 73.1678 298.823 73.9424C298.823 74.7451 298.912 75.4591 299.089 76.0844C299.266 76.7098 299.518 77.2371 299.845 77.6664C300.181 78.0958 300.582 78.4224 301.049 78.6464C301.525 78.8704 302.057 78.9824 302.645 78.9824C303.224 78.9824 303.695 78.9124 304.059 78.7724C304.423 78.6324 304.726 78.4784 304.969 78.3104C305.212 78.1424 305.417 77.9884 305.585 77.8484C305.762 77.7084 305.949 77.6384 306.145 77.6384C306.388 77.6384 306.574 77.7318 306.705 77.9184L307.559 79.0244C307.214 79.4444 306.831 79.7991 306.411 80.0884C305.991 80.3778 305.548 80.6158 305.081 80.8024C304.614 80.9798 304.129 81.1058 303.625 81.1804C303.121 81.2644 302.612 81.3064 302.099 81.3064C301.212 81.3064 300.382 81.1431 299.607 80.8164C298.842 80.4804 298.17 79.9998 297.591 79.3744C297.022 78.7398 296.569 77.9698 296.233 77.0644C295.906 76.1498 295.743 75.1091 295.743 73.9424C295.743 72.8878 295.892 71.9124 296.191 71.0164C296.49 70.1111 296.924 69.3318 297.493 68.6784C298.072 68.0251 298.786 67.5164 299.635 67.1524C300.484 66.7791 301.464 66.5924 302.575 66.5924C303.611 66.5924 304.521 66.7604 305.305 67.0964C306.098 67.4324 306.803 67.9084 307.419 68.5244L306.621 69.6164ZM315.79 60.3764V72.3884H316.434C316.639 72.3884 316.807 72.3604 316.938 72.3044C317.069 72.2484 317.204 72.1318 317.344 71.9544L321.348 67.3764C321.488 67.1898 321.642 67.0498 321.81 66.9564C321.978 66.8631 322.193 66.8164 322.454 66.8164H325.184L320.368 72.2484C320.088 72.6124 319.78 72.9018 319.444 73.1164C319.631 73.2471 319.794 73.3964 319.934 73.5644C320.074 73.7231 320.209 73.9051 320.34 74.1104L325.478 81.0964H322.79C322.547 81.0964 322.337 81.0591 322.16 80.9844C321.992 80.9004 321.843 80.7511 321.712 80.5364L317.582 74.9364C317.442 74.7218 317.302 74.5864 317.162 74.5304C317.022 74.4651 316.812 74.4324 316.532 74.4324H315.79V81.0964H312.78V60.3764H315.79ZM346.156 66.5924C347.21 66.5924 348.162 66.7651 349.012 67.1104C349.87 67.4558 350.598 67.9458 351.196 68.5804C351.802 69.2151 352.269 69.9851 352.596 70.8904C352.922 71.7958 353.086 72.8131 353.086 73.9424C353.086 75.0718 352.922 76.0891 352.596 76.9944C352.269 77.8998 351.802 78.6744 351.196 79.3184C350.598 79.9531 349.87 80.4431 349.012 80.7884C348.162 81.1338 347.21 81.3064 346.156 81.3064C345.092 81.3064 344.13 81.1338 343.272 80.7884C342.422 80.4431 341.694 79.9531 341.088 79.3184C340.481 78.6744 340.014 77.8998 339.688 76.9944C339.361 76.0891 339.198 75.0718 339.198 73.9424C339.198 72.8131 339.361 71.7958 339.688 70.8904C340.014 69.9851 340.481 69.2151 341.088 68.5804C341.694 67.9458 342.422 67.4558 343.272 67.1104C344.13 66.7651 345.092 66.5924 346.156 66.5924ZM346.156 78.9544C347.444 78.9544 348.4 78.5251 349.026 77.6664C349.66 76.7984 349.978 75.5618 349.978 73.9564C349.978 72.3511 349.66 71.1144 349.026 70.2464C348.4 69.3691 347.444 68.9304 346.156 68.9304C344.849 68.9304 343.878 69.3691 343.244 70.2464C342.609 71.1144 342.292 72.3511 342.292 73.9564C342.292 75.5618 342.609 76.7984 343.244 77.6664C343.878 78.5251 344.849 78.9544 346.156 78.9544ZM361.592 68.7064C361.9 68.3891 362.217 68.1044 362.544 67.8524C362.88 67.5911 363.234 67.3671 363.608 67.1804C363.981 66.9938 364.378 66.8491 364.798 66.7464C365.218 66.6438 365.675 66.5924 366.17 66.5924C366.954 66.5924 367.64 66.7231 368.228 66.9844C368.825 67.2458 369.324 67.6144 369.726 68.0904C370.136 68.5664 370.444 69.1404 370.65 69.8124C370.855 70.4751 370.958 71.2078 370.958 72.0104V81.0964H367.962V72.0104C367.962 71.0491 367.738 70.3024 367.29 69.7704C366.851 69.2384 366.179 68.9724 365.274 68.9724C364.602 68.9724 363.976 69.1264 363.398 69.4344C362.828 69.7424 362.292 70.1624 361.788 70.6944V81.0964H358.778V66.8164H360.598C361.008 66.8164 361.27 67.0078 361.382 67.3904L361.592 68.7064ZM387.046 81.0964V66.8164H388.866C389.276 66.8164 389.538 67.0078 389.65 67.3904L389.846 68.6364C390.107 68.3378 390.378 68.0671 390.658 67.8244C390.938 67.5724 391.236 67.3578 391.554 67.1804C391.88 66.9938 392.226 66.8491 392.59 66.7464C392.963 66.6438 393.364 66.5924 393.794 66.5924C394.251 66.5924 394.671 66.6578 395.054 66.7884C395.436 66.9191 395.772 67.1058 396.062 67.3484C396.36 67.5911 396.617 67.8851 396.832 68.2304C397.046 68.5758 397.224 68.9631 397.364 69.3924C397.578 68.8978 397.849 68.4731 398.176 68.1184C398.502 67.7638 398.866 67.4744 399.268 67.2504C399.669 67.0264 400.094 66.8631 400.542 66.7604C400.999 66.6484 401.461 66.5924 401.928 66.5924C402.693 66.5924 403.374 66.7138 403.972 66.9564C404.578 67.1991 405.087 67.5538 405.498 68.0204C405.918 68.4778 406.235 69.0424 406.45 69.7144C406.664 70.3864 406.772 71.1518 406.772 72.0104V81.0964H403.762V72.0104C403.762 71.0024 403.542 70.2464 403.104 69.7424C402.674 69.2291 402.035 68.9724 401.186 68.9724C400.803 68.9724 400.444 69.0378 400.108 69.1684C399.772 69.2991 399.478 69.4904 399.226 69.7424C398.974 69.9944 398.773 70.3118 398.624 70.6944C398.484 71.0678 398.414 71.5064 398.414 72.0104V81.0964H395.404V72.0104C395.404 70.9651 395.194 70.1998 394.774 69.7144C394.354 69.2198 393.738 68.9724 392.926 68.9724C392.366 68.9724 391.848 69.1171 391.372 69.4064C390.896 69.6864 390.457 70.0738 390.056 70.5684V81.0964H387.046ZM422.454 72.3464C422.454 71.8424 422.379 71.3758 422.23 70.9464C422.09 70.5078 421.88 70.1298 421.6 69.8124C421.32 69.4858 420.97 69.2338 420.55 69.0564C420.139 68.8698 419.663 68.7764 419.122 68.7764C418.03 68.7764 417.171 69.0891 416.546 69.7144C415.921 70.3398 415.524 71.2171 415.356 72.3464H422.454ZM415.272 74.1944C415.309 75.0064 415.435 75.7111 415.65 76.3084C415.865 76.8964 416.149 77.3864 416.504 77.7784C416.868 78.1704 417.297 78.4644 417.792 78.6604C418.296 78.8471 418.856 78.9404 419.472 78.9404C420.06 78.9404 420.569 78.8751 420.998 78.7444C421.427 78.6044 421.801 78.4551 422.118 78.2964C422.435 78.1284 422.706 77.9791 422.93 77.8484C423.154 77.7084 423.359 77.6384 423.546 77.6384C423.789 77.6384 423.975 77.7318 424.106 77.9184L424.96 79.0244C424.605 79.4444 424.204 79.7991 423.756 80.0884C423.308 80.3778 422.832 80.6158 422.328 80.8024C421.824 80.9798 421.306 81.1058 420.774 81.1804C420.242 81.2644 419.724 81.3064 419.22 81.3064C418.231 81.3064 417.311 81.1431 416.462 80.8164C415.622 80.4804 414.889 79.9904 414.264 79.3464C413.648 78.7024 413.163 77.9044 412.808 76.9524C412.463 76.0004 412.29 74.9038 412.29 73.6624C412.29 72.6731 412.444 71.7491 412.752 70.8904C413.069 70.0318 413.517 69.2851 414.096 68.6504C414.684 68.0158 415.393 67.5164 416.224 67.1524C417.064 66.7791 418.011 66.5924 419.066 66.5924C419.943 66.5924 420.755 66.7371 421.502 67.0264C422.249 67.3064 422.893 67.7218 423.434 68.2724C423.975 68.8231 424.395 69.4998 424.694 70.3024C425.002 71.0958 425.156 72.0011 425.156 73.0184C425.156 73.4851 425.105 73.7978 425.002 73.9564C424.899 74.1151 424.713 74.1944 424.442 74.1944H415.272ZM445.114 81.3204C443.928 81.3204 443.014 80.9891 442.37 80.3264C441.735 79.6544 441.418 78.7118 441.418 77.4984V69.1824H439.85C439.682 69.1824 439.537 69.1311 439.416 69.0284C439.294 68.9164 439.234 68.7531 439.234 68.5384V67.3204L441.544 66.9844L442.202 62.8544C442.248 62.6958 442.328 62.5698 442.44 62.4764C442.552 62.3738 442.701 62.3224 442.888 62.3224H444.428V67.0124H448.39V69.1824H444.428V77.2884C444.428 77.8018 444.554 78.1938 444.806 78.4644C445.058 78.7351 445.394 78.8704 445.814 78.8704C446.047 78.8704 446.248 78.8424 446.416 78.7864C446.584 78.7211 446.728 78.6558 446.85 78.5904C446.971 78.5158 447.074 78.4504 447.158 78.3944C447.251 78.3291 447.34 78.2964 447.424 78.2964C447.592 78.2964 447.727 78.3898 447.83 78.5764L448.726 80.0464C448.259 80.4571 447.708 80.7744 447.074 80.9984C446.439 81.2131 445.786 81.3204 445.114 81.3204ZM459.627 66.5924C460.681 66.5924 461.633 66.7651 462.483 67.1104C463.341 67.4558 464.069 67.9458 464.667 68.5804C465.273 69.2151 465.74 69.9851 466.067 70.8904C466.393 71.7958 466.557 72.8131 466.557 73.9424C466.557 75.0718 466.393 76.0891 466.067 76.9944C465.74 77.8998 465.273 78.6744 464.667 79.3184C464.069 79.9531 463.341 80.4431 462.483 80.7884C461.633 81.1338 460.681 81.3064 459.627 81.3064C458.563 81.3064 457.601 81.1338 456.743 80.7884C455.893 80.4431 455.165 79.9531 454.559 79.3184C453.952 78.6744 453.485 77.8998 453.159 76.9944C452.832 76.0891 452.669 75.0718 452.669 73.9424C452.669 72.8131 452.832 71.7958 453.159 70.8904C453.485 69.9851 453.952 69.2151 454.559 68.5804C455.165 67.9458 455.893 67.4558 456.743 67.1104C457.601 66.7651 458.563 66.5924 459.627 66.5924ZM459.627 78.9544C460.915 78.9544 461.871 78.5251 462.497 77.6664C463.131 76.7984 463.449 75.5618 463.449 73.9564C463.449 72.3511 463.131 71.1144 462.497 70.2464C461.871 69.3691 460.915 68.9304 459.627 68.9304C458.32 68.9304 457.349 69.3691 456.715 70.2464C456.08 71.1144 455.763 72.3511 455.763 73.9564C455.763 75.5618 456.08 76.7984 456.715 77.6664C457.349 78.5251 458.32 78.9544 459.627 78.9544ZM478.423 66.5924C479.478 66.5924 480.43 66.7651 481.279 67.1104C482.138 67.4558 482.866 67.9458 483.463 68.5804C484.07 69.2151 484.536 69.9851 484.863 70.8904C485.19 71.7958 485.353 72.8131 485.353 73.9424C485.353 75.0718 485.19 76.0891 484.863 76.9944C484.536 77.8998 484.07 78.6744 483.463 79.3184C482.866 79.9531 482.138 80.4431 481.279 80.7884C480.43 81.1338 479.478 81.3064 478.423 81.3064C477.359 81.3064 476.398 81.1338 475.539 80.7884C474.69 80.4431 473.962 79.9531 473.355 79.3184C472.748 78.6744 472.282 77.8998 471.955 76.9944C471.628 76.0891 471.465 75.0718 471.465 73.9424C471.465 72.8131 471.628 71.7958 471.955 70.8904C472.282 69.9851 472.748 69.2151 473.355 68.5804C473.962 67.9458 474.69 67.4558 475.539 67.1104C476.398 66.7651 477.359 66.5924 478.423 66.5924ZM478.423 78.9544C479.711 78.9544 480.668 78.5251 481.293 77.6664C481.928 76.7984 482.245 75.5618 482.245 73.9564C482.245 72.3511 481.928 71.1144 481.293 70.2464C480.668 69.3691 479.711 68.9304 478.423 68.9304C477.116 68.9304 476.146 69.3691 475.511 70.2464C474.876 71.1144 474.559 72.3511 474.559 73.9564C474.559 75.5618 474.876 76.7984 475.511 77.6664C476.146 78.5251 477.116 78.9544 478.423 78.9544ZM509.344 69.4064C509.269 69.5371 509.185 69.6304 509.092 69.6864C508.998 69.7424 508.882 69.7704 508.742 69.7704C508.583 69.7704 508.41 69.7238 508.224 69.6304C508.037 69.5278 507.818 69.4158 507.566 69.2944C507.314 69.1731 507.015 69.0658 506.67 68.9724C506.334 68.8698 505.937 68.8184 505.48 68.8184C505.106 68.8184 504.766 68.8651 504.458 68.9584C504.159 69.0424 503.902 69.1684 503.688 69.3364C503.482 69.4951 503.324 69.6864 503.212 69.9104C503.1 70.1251 503.044 70.3584 503.044 70.6104C503.044 70.9464 503.146 71.2264 503.352 71.4504C503.557 71.6744 503.828 71.8704 504.164 72.0384C504.5 72.1971 504.882 72.3418 505.312 72.4724C505.741 72.6031 506.18 72.7431 506.628 72.8924C507.076 73.0418 507.514 73.2144 507.944 73.4104C508.373 73.6064 508.756 73.8491 509.092 74.1384C509.428 74.4184 509.698 74.7638 509.904 75.1744C510.109 75.5758 510.212 76.0658 510.212 76.6444C510.212 77.3164 510.09 77.9371 509.848 78.5064C509.605 79.0758 509.25 79.5704 508.784 79.9904C508.317 80.4104 507.734 80.7371 507.034 80.9704C506.343 81.2038 505.55 81.3204 504.654 81.3204C504.159 81.3204 503.678 81.2738 503.212 81.1804C502.754 81.0964 502.316 80.9798 501.896 80.8304C501.485 80.6718 501.098 80.4851 500.734 80.2704C500.379 80.0558 500.062 79.8224 499.782 79.5704L500.482 78.4224C500.566 78.2824 500.668 78.1751 500.79 78.1004C500.92 78.0164 501.079 77.9744 501.266 77.9744C501.462 77.9744 501.653 78.0398 501.84 78.1704C502.036 78.2918 502.26 78.4271 502.512 78.5764C502.773 78.7258 503.086 78.8658 503.45 78.9964C503.814 79.1178 504.266 79.1784 504.808 79.1784C505.256 79.1784 505.643 79.1271 505.97 79.0244C506.296 78.9124 506.567 78.7631 506.782 78.5764C506.996 78.3898 507.155 78.1798 507.258 77.9464C507.36 77.7038 507.412 77.4471 507.412 77.1764C507.412 76.8124 507.309 76.5138 507.104 76.2804C506.898 76.0471 506.623 75.8464 506.278 75.6784C505.942 75.5104 505.554 75.3611 505.116 75.2304C504.686 75.0998 504.248 74.9598 503.8 74.8104C503.352 74.6611 502.908 74.4884 502.47 74.2924C502.04 74.0964 501.653 73.8491 501.308 73.5504C500.972 73.2424 500.701 72.8738 500.496 72.4444C500.29 72.0058 500.188 71.4738 500.188 70.8484C500.188 70.2791 500.3 69.7378 500.524 69.2244C500.757 68.7111 501.093 68.2584 501.532 67.8664C501.98 67.4744 502.526 67.1664 503.17 66.9424C503.823 66.7091 504.574 66.5924 505.424 66.5924C506.385 66.5924 507.258 66.7464 508.042 67.0544C508.826 67.3624 509.484 67.7824 510.016 68.3144L509.344 69.4064ZM525.206 72.3464C525.206 71.8424 525.132 71.3758 524.982 70.9464C524.842 70.5078 524.632 70.1298 524.352 69.8124C524.072 69.4858 523.722 69.2338 523.302 69.0564C522.892 68.8698 522.416 68.7764 521.874 68.7764C520.782 68.7764 519.924 69.0891 519.298 69.7144C518.673 70.3398 518.276 71.2171 518.108 72.3464H525.206ZM518.024 74.1944C518.062 75.0064 518.188 75.7111 518.402 76.3084C518.617 76.8964 518.902 77.3864 519.256 77.7784C519.62 78.1704 520.05 78.4644 520.544 78.6604C521.048 78.8471 521.608 78.9404 522.224 78.9404C522.812 78.9404 523.321 78.8751 523.75 78.7444C524.18 78.6044 524.553 78.4551 524.87 78.2964C525.188 78.1284 525.458 77.9791 525.682 77.8484C525.906 77.7084 526.112 77.6384 526.298 77.6384C526.541 77.6384 526.728 77.7318 526.858 77.9184L527.712 79.0244C527.358 79.4444 526.956 79.7991 526.508 80.0884C526.06 80.3778 525.584 80.6158 525.08 80.8024C524.576 80.9798 524.058 81.1058 523.526 81.1804C522.994 81.2644 522.476 81.3064 521.972 81.3064C520.983 81.3064 520.064 81.1431 519.214 80.8164C518.374 80.4804 517.642 79.9904 517.016 79.3464C516.4 78.7024 515.915 77.9044 515.56 76.9524C515.215 76.0004 515.042 74.9038 515.042 73.6624C515.042 72.6731 515.196 71.7491 515.504 70.8904C515.822 70.0318 516.27 69.2851 516.848 68.6504C517.436 68.0158 518.146 67.5164 518.976 67.1524C519.816 66.7791 520.764 66.5924 521.818 66.5924C522.696 66.5924 523.508 66.7371 524.254 67.0264C525.001 67.3064 525.645 67.7218 526.186 68.2724C526.728 68.8231 527.148 69.4998 527.446 70.3024C527.754 71.0958 527.908 72.0011 527.908 73.0184C527.908 73.4851 527.857 73.7978 527.754 73.9564C527.652 74.1151 527.465 74.1944 527.194 74.1944H518.024ZM542.881 72.3464C542.881 71.8424 542.807 71.3758 542.657 70.9464C542.517 70.5078 542.307 70.1298 542.027 69.8124C541.747 69.4858 541.397 69.2338 540.977 69.0564C540.567 68.8698 540.091 68.7764 539.549 68.7764C538.457 68.7764 537.599 69.0891 536.973 69.7144C536.348 70.3398 535.951 71.2171 535.783 72.3464H542.881ZM535.699 74.1944C535.737 75.0064 535.863 75.7111 536.077 76.3084C536.292 76.8964 536.577 77.3864 536.931 77.7784C537.295 78.1704 537.725 78.4644 538.219 78.6604C538.723 78.8471 539.283 78.9404 539.899 78.9404C540.487 78.9404 540.996 78.8751 541.425 78.7444C541.855 78.6044 542.228 78.4551 542.545 78.2964C542.863 78.1284 543.133 77.9791 543.357 77.8484C543.581 77.7084 543.787 77.6384 543.973 77.6384C544.216 77.6384 544.403 77.7318 544.533 77.9184L545.387 79.0244C545.033 79.4444 544.631 79.7991 544.183 80.0884C543.735 80.3778 543.259 80.6158 542.755 80.8024C542.251 80.9798 541.733 81.1058 541.201 81.1804C540.669 81.2644 540.151 81.3064 539.647 81.3064C538.658 81.3064 537.739 81.1431 536.889 80.8164C536.049 80.4804 535.317 79.9904 534.691 79.3464C534.075 78.7024 533.59 77.9044 533.235 76.9524C532.89 76.0004 532.717 74.9038 532.717 73.6624C532.717 72.6731 532.871 71.7491 533.179 70.8904C533.497 70.0318 533.945 69.2851 534.523 68.6504C535.111 68.0158 535.821 67.5164 536.651 67.1524C537.491 66.7791 538.439 66.5924 539.493 66.5924C540.371 66.5924 541.183 66.7371 541.929 67.0264C542.676 67.3064 543.32 67.7218 543.861 68.2724C544.403 68.8231 544.823 69.4998 545.121 70.3024C545.429 71.0958 545.583 72.0011 545.583 73.0184C545.583 73.4851 545.532 73.7978 545.429 73.9564C545.327 74.1151 545.14 74.1944 544.869 74.1944H535.699ZM260.412 115.32C259.227 115.32 258.312 114.989 257.668 114.326C257.033 113.654 256.716 112.712 256.716 111.498V103.182H255.148C254.98 103.182 254.835 103.131 254.714 103.028C254.593 102.916 254.532 102.753 254.532 102.538V101.32L256.842 100.984L257.5 96.8544C257.547 96.6958 257.626 96.5698 257.738 96.4764C257.85 96.3738 257.999 96.3224 258.186 96.3224H259.726V101.012H263.688V103.182H259.726V111.288C259.726 111.802 259.852 112.194 260.104 112.464C260.356 112.735 260.692 112.87 261.112 112.87C261.345 112.87 261.546 112.842 261.714 112.786C261.882 112.721 262.027 112.656 262.148 112.59C262.269 112.516 262.372 112.45 262.456 112.394C262.549 112.329 262.638 112.296 262.722 112.296C262.89 112.296 263.025 112.39 263.128 112.576L264.024 114.046C263.557 114.457 263.007 114.774 262.372 114.998C261.737 115.213 261.084 115.32 260.412 115.32ZM271.871 102.51C272.459 101.932 273.103 101.47 273.803 101.124C274.503 100.77 275.319 100.592 276.253 100.592C277.037 100.592 277.723 100.723 278.311 100.984C278.908 101.246 279.407 101.614 279.809 102.09C280.219 102.566 280.527 103.14 280.733 103.812C280.938 104.475 281.041 105.208 281.041 106.01V115.096H278.045V106.01C278.045 105.049 277.821 104.302 277.373 103.77C276.934 103.238 276.262 102.972 275.357 102.972C274.685 102.972 274.059 103.126 273.481 103.434C272.911 103.742 272.375 104.162 271.871 104.694V115.096H268.861V94.3764H271.871V102.51ZM296.722 106.346C296.722 105.842 296.647 105.376 296.498 104.946C296.358 104.508 296.148 104.13 295.868 103.812C295.588 103.486 295.238 103.234 294.818 103.056C294.407 102.87 293.931 102.776 293.39 102.776C292.298 102.776 291.439 103.089 290.814 103.714C290.189 104.34 289.792 105.217 289.624 106.346H296.722ZM289.54 108.194C289.577 109.006 289.703 109.711 289.918 110.308C290.133 110.896 290.417 111.386 290.772 111.778C291.136 112.17 291.565 112.464 292.06 112.66C292.564 112.847 293.124 112.94 293.74 112.94C294.328 112.94 294.837 112.875 295.266 112.744C295.695 112.604 296.069 112.455 296.386 112.296C296.703 112.128 296.974 111.979 297.198 111.848C297.422 111.708 297.627 111.638 297.814 111.638C298.057 111.638 298.243 111.732 298.374 111.918L299.228 113.024C298.873 113.444 298.472 113.799 298.024 114.088C297.576 114.378 297.1 114.616 296.596 114.802C296.092 114.98 295.574 115.106 295.042 115.18C294.51 115.264 293.992 115.306 293.488 115.306C292.499 115.306 291.579 115.143 290.73 114.816C289.89 114.48 289.157 113.99 288.532 113.346C287.916 112.702 287.431 111.904 287.076 110.952C286.731 110 286.558 108.904 286.558 107.662C286.558 106.673 286.712 105.749 287.02 104.89C287.337 104.032 287.785 103.285 288.364 102.65C288.952 102.016 289.661 101.516 290.492 101.152C291.332 100.779 292.279 100.592 293.334 100.592C294.211 100.592 295.023 100.737 295.77 101.026C296.517 101.306 297.161 101.722 297.702 102.272C298.243 102.823 298.663 103.5 298.962 104.302C299.27 105.096 299.424 106.001 299.424 107.018C299.424 107.485 299.373 107.798 299.27 107.956C299.167 108.115 298.981 108.194 298.71 108.194H289.54ZM317.94 100.816V115.096H314.93V100.816H317.94ZM318.444 96.5044C318.444 96.7751 318.388 97.0318 318.276 97.2744C318.173 97.5171 318.028 97.7318 317.842 97.9184C317.655 98.0958 317.436 98.2404 317.184 98.3524C316.941 98.4551 316.68 98.5064 316.4 98.5064C316.129 98.5064 315.872 98.4551 315.63 98.3524C315.396 98.2404 315.191 98.0958 315.014 97.9184C314.836 97.7318 314.692 97.5171 314.58 97.2744C314.477 97.0318 314.426 96.7751 314.426 96.5044C314.426 96.2244 314.477 95.9631 314.58 95.7204C314.692 95.4778 314.836 95.2678 315.014 95.0904C315.191 94.9038 315.396 94.7591 315.63 94.6564C315.872 94.5444 316.129 94.4884 316.4 94.4884C316.68 94.4884 316.941 94.5444 317.184 94.6564C317.436 94.7591 317.655 94.9038 317.842 95.0904C318.028 95.2678 318.173 95.4778 318.276 95.7204C318.388 95.9631 318.444 96.2244 318.444 96.5044ZM327.336 102.706C327.644 102.389 327.961 102.104 328.288 101.852C328.624 101.591 328.978 101.367 329.352 101.18C329.725 100.994 330.122 100.849 330.542 100.746C330.962 100.644 331.419 100.592 331.914 100.592C332.698 100.592 333.384 100.723 333.972 100.984C334.569 101.246 335.068 101.614 335.47 102.09C335.88 102.566 336.188 103.14 336.394 103.812C336.599 104.475 336.702 105.208 336.702 106.01V115.096H333.706V106.01C333.706 105.049 333.482 104.302 333.034 103.77C332.595 103.238 331.923 102.972 331.018 102.972C330.346 102.972 329.72 103.126 329.142 103.434C328.572 103.742 328.036 104.162 327.532 104.694V115.096H324.522V100.816H326.342C326.752 100.816 327.014 101.008 327.126 101.39L327.336 102.706ZM351.543 103.406C351.468 103.537 351.384 103.63 351.291 103.686C351.197 103.742 351.081 103.77 350.941 103.77C350.782 103.77 350.609 103.724 350.423 103.63C350.236 103.528 350.017 103.416 349.765 103.294C349.513 103.173 349.214 103.066 348.869 102.972C348.533 102.87 348.136 102.818 347.679 102.818C347.305 102.818 346.965 102.865 346.657 102.958C346.358 103.042 346.101 103.168 345.887 103.336C345.681 103.495 345.523 103.686 345.411 103.91C345.299 104.125 345.243 104.358 345.243 104.61C345.243 104.946 345.345 105.226 345.551 105.45C345.756 105.674 346.027 105.87 346.363 106.038C346.699 106.197 347.081 106.342 347.511 106.472C347.94 106.603 348.379 106.743 348.827 106.892C349.275 107.042 349.713 107.214 350.143 107.41C350.572 107.606 350.955 107.849 351.291 108.138C351.627 108.418 351.897 108.764 352.103 109.174C352.308 109.576 352.411 110.066 352.411 110.644C352.411 111.316 352.289 111.937 352.047 112.506C351.804 113.076 351.449 113.57 350.983 113.99C350.516 114.41 349.933 114.737 349.233 114.97C348.542 115.204 347.749 115.32 346.853 115.32C346.358 115.32 345.877 115.274 345.411 115.18C344.953 115.096 344.515 114.98 344.095 114.83C343.684 114.672 343.297 114.485 342.933 114.27C342.578 114.056 342.261 113.822 341.981 113.57L342.681 112.422C342.765 112.282 342.867 112.175 342.989 112.1C343.119 112.016 343.278 111.974 343.465 111.974C343.661 111.974 343.852 112.04 344.039 112.17C344.235 112.292 344.459 112.427 344.711 112.576C344.972 112.726 345.285 112.866 345.649 112.996C346.013 113.118 346.465 113.178 347.007 113.178C347.455 113.178 347.842 113.127 348.169 113.024C348.495 112.912 348.766 112.763 348.981 112.576C349.195 112.39 349.354 112.18 349.457 111.946C349.559 111.704 349.611 111.447 349.611 111.176C349.611 110.812 349.508 110.514 349.303 110.28C349.097 110.047 348.822 109.846 348.477 109.678C348.141 109.51 347.753 109.361 347.315 109.23C346.885 109.1 346.447 108.96 345.999 108.81C345.551 108.661 345.107 108.488 344.669 108.292C344.239 108.096 343.852 107.849 343.507 107.55C343.171 107.242 342.9 106.874 342.695 106.444C342.489 106.006 342.387 105.474 342.387 104.848C342.387 104.279 342.499 103.738 342.723 103.224C342.956 102.711 343.292 102.258 343.731 101.866C344.179 101.474 344.725 101.166 345.369 100.942C346.022 100.709 346.773 100.592 347.623 100.592C348.584 100.592 349.457 100.746 350.241 101.054C351.025 101.362 351.683 101.782 352.215 102.314L351.543 103.406ZM362.617 115.32C361.432 115.32 360.517 114.989 359.873 114.326C359.239 113.654 358.921 112.712 358.921 111.498V103.182H357.353C357.185 103.182 357.041 103.131 356.919 103.028C356.798 102.916 356.737 102.753 356.737 102.538V101.32L359.047 100.984L359.705 96.8544C359.752 96.6958 359.831 96.5698 359.943 96.4764C360.055 96.3738 360.205 96.3224 360.391 96.3224H361.931V101.012H365.893V103.182H361.931V111.288C361.931 111.802 362.057 112.194 362.309 112.464C362.561 112.735 362.897 112.87 363.317 112.87C363.551 112.87 363.751 112.842 363.919 112.786C364.087 112.721 364.232 112.656 364.353 112.59C364.475 112.516 364.577 112.45 364.661 112.394C364.755 112.329 364.843 112.296 364.927 112.296C365.095 112.296 365.231 112.39 365.333 112.576L366.229 114.046C365.763 114.457 365.212 114.774 364.577 114.998C363.943 115.213 363.289 115.32 362.617 115.32ZM373.908 103.462C374.356 102.557 374.897 101.848 375.532 101.334C376.167 100.812 376.927 100.55 377.814 100.55C378.122 100.55 378.411 100.588 378.682 100.662C378.953 100.728 379.195 100.83 379.41 100.97L379.2 103.238C379.163 103.397 379.102 103.509 379.018 103.574C378.943 103.63 378.841 103.658 378.71 103.658C378.57 103.658 378.369 103.635 378.108 103.588C377.847 103.532 377.571 103.504 377.282 103.504C376.862 103.504 376.489 103.565 376.162 103.686C375.845 103.808 375.555 103.985 375.294 104.218C375.042 104.452 374.818 104.736 374.622 105.072C374.426 105.408 374.244 105.791 374.076 106.22V115.096H371.066V100.816H372.816C373.133 100.816 373.353 100.877 373.474 100.998C373.595 101.11 373.679 101.311 373.726 101.6L373.908 103.462ZM396.242 100.816V115.096H394.422C394.021 115.096 393.764 114.905 393.652 114.522L393.428 113.192C393.129 113.51 392.812 113.799 392.476 114.06C392.149 114.322 391.799 114.546 391.426 114.732C391.053 114.919 390.651 115.064 390.222 115.166C389.802 115.269 389.349 115.32 388.864 115.32C388.08 115.32 387.389 115.19 386.792 114.928C386.195 114.667 385.691 114.298 385.28 113.822C384.879 113.346 384.575 112.777 384.37 112.114C384.165 111.442 384.062 110.705 384.062 109.902V100.816H387.072V109.902C387.072 110.864 387.291 111.61 387.73 112.142C388.178 112.674 388.855 112.94 389.76 112.94C390.423 112.94 391.039 112.791 391.608 112.492C392.187 112.184 392.728 111.764 393.232 111.232V100.816H396.242ZM412.791 103.616C412.698 103.738 412.609 103.831 412.525 103.896C412.441 103.962 412.32 103.994 412.161 103.994C412.003 103.994 411.835 103.938 411.657 103.826C411.489 103.714 411.284 103.593 411.041 103.462C410.808 103.322 410.523 103.196 410.187 103.084C409.851 102.972 409.431 102.916 408.927 102.916C408.274 102.916 407.7 103.033 407.205 103.266C406.72 103.5 406.309 103.836 405.973 104.274C405.647 104.704 405.399 105.231 405.231 105.856C405.073 106.472 404.993 107.168 404.993 107.942C404.993 108.745 405.082 109.459 405.259 110.084C405.437 110.71 405.689 111.237 406.015 111.666C406.351 112.096 406.753 112.422 407.219 112.646C407.695 112.87 408.227 112.982 408.815 112.982C409.394 112.982 409.865 112.912 410.229 112.772C410.593 112.632 410.897 112.478 411.139 112.31C411.382 112.142 411.587 111.988 411.755 111.848C411.933 111.708 412.119 111.638 412.315 111.638C412.558 111.638 412.745 111.732 412.875 111.918L413.729 113.024C413.384 113.444 413.001 113.799 412.581 114.088C412.161 114.378 411.718 114.616 411.251 114.802C410.785 114.98 410.299 115.106 409.795 115.18C409.291 115.264 408.783 115.306 408.269 115.306C407.383 115.306 406.552 115.143 405.777 114.816C405.012 114.48 404.34 114 403.761 113.374C403.192 112.74 402.739 111.97 402.403 111.064C402.077 110.15 401.913 109.109 401.913 107.942C401.913 106.888 402.063 105.912 402.361 105.016C402.66 104.111 403.094 103.332 403.663 102.678C404.242 102.025 404.956 101.516 405.805 101.152C406.655 100.779 407.635 100.592 408.745 100.592C409.781 100.592 410.691 100.76 411.475 101.096C412.269 101.432 412.973 101.908 413.589 102.524L412.791 103.616ZM432.81 115.096H429.8V103.182H422.842V111.288C422.842 111.802 422.968 112.194 423.22 112.464C423.472 112.735 423.808 112.87 424.228 112.87C424.462 112.87 424.662 112.842 424.83 112.786C424.998 112.721 425.143 112.656 425.264 112.59C425.386 112.516 425.488 112.45 425.572 112.394C425.666 112.329 425.754 112.296 425.838 112.296C426.006 112.296 426.142 112.39 426.244 112.576L427.14 114.046C426.674 114.457 426.123 114.774 425.488 114.998C424.854 115.213 424.2 115.32 423.528 115.32C422.343 115.32 421.428 114.989 420.784 114.326C420.15 113.654 419.832 112.712 419.832 111.498V103.182H418.264C418.096 103.182 417.952 103.131 417.83 103.028C417.709 102.916 417.648 102.753 417.648 102.538V101.32L419.958 100.984L420.616 96.8544C420.663 96.6958 420.742 96.5698 420.854 96.4764C420.966 96.3738 421.116 96.3224 421.302 96.3224H422.842V101.012H432.81V115.096ZM433.426 96.4344C433.426 96.7051 433.37 96.9618 433.258 97.2044C433.156 97.4378 433.011 97.6478 432.824 97.8344C432.638 98.0118 432.418 98.1564 432.166 98.2684C431.924 98.3711 431.667 98.4224 431.396 98.4224C431.126 98.4224 430.869 98.3711 430.626 98.2684C430.393 98.1564 430.183 98.0118 429.996 97.8344C429.819 97.6478 429.674 97.4378 429.562 97.2044C429.46 96.9618 429.408 96.7051 429.408 96.4344C429.408 96.1544 429.46 95.8931 429.562 95.6504C429.674 95.3984 429.819 95.1838 429.996 95.0064C430.183 94.8198 430.393 94.6751 430.626 94.5724C430.869 94.4604 431.126 94.4044 431.396 94.4044C431.667 94.4044 431.924 94.4604 432.166 94.5724C432.418 94.6751 432.638 94.8198 432.824 95.0064C433.011 95.1838 433.156 95.3984 433.258 95.6504C433.37 95.8931 433.426 96.1544 433.426 96.4344ZM445.588 100.592C446.643 100.592 447.595 100.765 448.444 101.11C449.303 101.456 450.031 101.946 450.628 102.58C451.235 103.215 451.702 103.985 452.028 104.89C452.355 105.796 452.518 106.813 452.518 107.942C452.518 109.072 452.355 110.089 452.028 110.994C451.702 111.9 451.235 112.674 450.628 113.318C450.031 113.953 449.303 114.443 448.444 114.788C447.595 115.134 446.643 115.306 445.588 115.306C444.524 115.306 443.563 115.134 442.704 114.788C441.855 114.443 441.127 113.953 440.52 113.318C439.914 112.674 439.447 111.9 439.12 110.994C438.794 110.089 438.63 109.072 438.63 107.942C438.63 106.813 438.794 105.796 439.12 104.89C439.447 103.985 439.914 103.215 440.52 102.58C441.127 101.946 441.855 101.456 442.704 101.11C443.563 100.765 444.524 100.592 445.588 100.592ZM445.588 112.954C446.876 112.954 447.833 112.525 448.458 111.666C449.093 110.798 449.41 109.562 449.41 107.956C449.41 106.351 449.093 105.114 448.458 104.246C447.833 103.369 446.876 102.93 445.588 102.93C444.282 102.93 443.311 103.369 442.676 104.246C442.042 105.114 441.724 106.351 441.724 107.956C441.724 109.562 442.042 110.798 442.676 111.666C443.311 112.525 444.282 112.954 445.588 112.954ZM461.025 102.706C461.333 102.389 461.65 102.104 461.977 101.852C462.313 101.591 462.667 101.367 463.041 101.18C463.414 100.994 463.811 100.849 464.231 100.746C464.651 100.644 465.108 100.592 465.603 100.592C466.387 100.592 467.073 100.723 467.661 100.984C468.258 101.246 468.757 101.614 469.159 102.09C469.569 102.566 469.877 103.14 470.083 103.812C470.288 104.475 470.391 105.208 470.391 106.01V115.096H467.395V106.01C467.395 105.049 467.171 104.302 466.723 103.77C466.284 103.238 465.612 102.972 464.707 102.972C464.035 102.972 463.409 103.126 462.831 103.434C462.261 103.742 461.725 104.162 461.221 104.694V115.096H458.211V100.816H460.031C460.441 100.816 460.703 101.008 460.815 101.39L461.025 102.706ZM485.232 103.406C485.157 103.537 485.073 103.63 484.98 103.686C484.887 103.742 484.77 103.77 484.63 103.77C484.471 103.77 484.299 103.724 484.112 103.63C483.925 103.528 483.706 103.416 483.454 103.294C483.202 103.173 482.903 103.066 482.558 102.972C482.222 102.87 481.825 102.818 481.368 102.818C480.995 102.818 480.654 102.865 480.346 102.958C480.047 103.042 479.791 103.168 479.576 103.336C479.371 103.495 479.212 103.686 479.1 103.91C478.988 104.125 478.932 104.358 478.932 104.61C478.932 104.946 479.035 105.226 479.24 105.45C479.445 105.674 479.716 105.87 480.052 106.038C480.388 106.197 480.771 106.342 481.2 106.472C481.629 106.603 482.068 106.743 482.516 106.892C482.964 107.042 483.403 107.214 483.832 107.41C484.261 107.606 484.644 107.849 484.98 108.138C485.316 108.418 485.587 108.764 485.792 109.174C485.997 109.576 486.1 110.066 486.1 110.644C486.1 111.316 485.979 111.937 485.736 112.506C485.493 113.076 485.139 113.57 484.672 113.99C484.205 114.41 483.622 114.737 482.922 114.97C482.231 115.204 481.438 115.32 480.542 115.32C480.047 115.32 479.567 115.274 479.1 115.18C478.643 115.096 478.204 114.98 477.784 114.83C477.373 114.672 476.986 114.485 476.622 114.27C476.267 114.056 475.95 113.822 475.67 113.57L476.37 112.422C476.454 112.282 476.557 112.175 476.678 112.1C476.809 112.016 476.967 111.974 477.154 111.974C477.35 111.974 477.541 112.04 477.728 112.17C477.924 112.292 478.148 112.427 478.4 112.576C478.661 112.726 478.974 112.866 479.338 112.996C479.702 113.118 480.155 113.178 480.696 113.178C481.144 113.178 481.531 113.127 481.858 113.024C482.185 112.912 482.455 112.763 482.67 112.576C482.885 112.39 483.043 112.18 483.146 111.946C483.249 111.704 483.3 111.447 483.3 111.176C483.3 110.812 483.197 110.514 482.992 110.28C482.787 110.047 482.511 109.846 482.166 109.678C481.83 109.51 481.443 109.361 481.004 109.23C480.575 109.1 480.136 108.96 479.688 108.81C479.24 108.661 478.797 108.488 478.358 108.292C477.929 108.096 477.541 107.849 477.196 107.55C476.86 107.242 476.589 106.874 476.384 106.444C476.179 106.006 476.076 105.474 476.076 104.848C476.076 104.279 476.188 103.738 476.412 103.224C476.645 102.711 476.981 102.258 477.42 101.866C477.868 101.474 478.414 101.166 479.058 100.942C479.711 100.709 480.463 100.592 481.312 100.592C482.273 100.592 483.146 100.746 483.93 101.054C484.714 101.362 485.372 101.782 485.904 102.314L485.232 103.406ZM509.131 108.852C508.058 108.89 507.153 108.978 506.415 109.118C505.678 109.249 505.081 109.422 504.623 109.636C504.166 109.842 503.835 110.089 503.629 110.378C503.433 110.668 503.335 110.985 503.335 111.33C503.335 111.666 503.387 111.956 503.489 112.198C503.601 112.432 503.751 112.628 503.937 112.786C504.133 112.936 504.357 113.048 504.609 113.122C504.871 113.188 505.155 113.22 505.463 113.22C506.247 113.22 506.919 113.076 507.479 112.786C508.049 112.488 508.599 112.058 509.131 111.498V108.852ZM501.151 102.804C502.766 101.302 504.689 100.55 506.919 100.55C507.741 100.55 508.469 100.686 509.103 100.956C509.747 101.218 510.284 101.591 510.713 102.076C511.152 102.562 511.483 103.14 511.707 103.812C511.941 104.475 512.057 105.212 512.057 106.024V115.096H510.713C510.424 115.096 510.205 115.054 510.055 114.97C509.906 114.877 509.78 114.695 509.677 114.424L509.383 113.262C509.019 113.589 508.66 113.883 508.305 114.144C507.951 114.396 507.582 114.611 507.199 114.788C506.826 114.966 506.42 115.096 505.981 115.18C505.552 115.274 505.076 115.32 504.553 115.32C503.975 115.32 503.433 115.241 502.929 115.082C502.435 114.924 502.005 114.686 501.641 114.368C501.277 114.042 500.988 113.64 500.773 113.164C500.568 112.688 500.465 112.128 500.465 111.484C500.465 110.934 500.61 110.397 500.899 109.874C501.198 109.352 501.683 108.885 502.355 108.474C503.037 108.054 503.928 107.709 505.029 107.438C506.14 107.168 507.507 107.014 509.131 106.976V106.024C509.131 104.998 508.912 104.232 508.473 103.728C508.035 103.224 507.391 102.972 506.541 102.972C505.963 102.972 505.477 103.047 505.085 103.196C504.693 103.336 504.353 103.49 504.063 103.658C503.774 103.826 503.517 103.985 503.293 104.134C503.069 104.274 502.831 104.344 502.579 104.344C502.374 104.344 502.197 104.293 502.047 104.19C501.907 104.078 501.791 103.943 501.697 103.784L501.151 102.804ZM523.479 107.83C524.413 107.83 525.113 107.592 525.579 107.116C526.046 106.64 526.279 106.02 526.279 105.254C526.279 104.47 526.046 103.85 525.579 103.392C525.113 102.935 524.413 102.706 523.479 102.706C522.555 102.706 521.855 102.935 521.379 103.392C520.913 103.85 520.679 104.47 520.679 105.254C520.679 105.628 520.74 105.973 520.861 106.29C520.983 106.608 521.16 106.883 521.393 107.116C521.627 107.34 521.916 107.518 522.261 107.648C522.616 107.77 523.022 107.83 523.479 107.83ZM527.665 115.796C527.665 115.479 527.572 115.227 527.385 115.04C527.208 114.844 526.965 114.695 526.657 114.592C526.349 114.48 525.99 114.401 525.579 114.354C525.169 114.298 524.73 114.261 524.263 114.242C523.806 114.214 523.335 114.191 522.849 114.172C522.373 114.144 521.911 114.098 521.463 114.032C521.015 114.266 520.647 114.546 520.357 114.872C520.077 115.199 519.937 115.577 519.937 116.006C519.937 116.286 520.007 116.548 520.147 116.79C520.297 117.033 520.521 117.243 520.819 117.42C521.127 117.598 521.515 117.738 521.981 117.84C522.457 117.943 523.027 117.994 523.689 117.994C525.015 117.994 526.009 117.789 526.671 117.378C527.334 116.968 527.665 116.44 527.665 115.796ZM530.689 101.334V102.454C530.689 102.828 530.465 103.056 530.017 103.14L528.589 103.378C528.832 103.92 528.953 104.522 528.953 105.184C528.953 105.884 528.813 106.519 528.533 107.088C528.263 107.658 527.885 108.143 527.399 108.544C526.914 108.946 526.335 109.254 525.663 109.468C524.991 109.683 524.263 109.79 523.479 109.79C523.181 109.79 522.887 109.776 522.597 109.748C522.317 109.711 522.042 109.664 521.771 109.608C521.501 109.767 521.3 109.935 521.169 110.112C521.039 110.29 520.973 110.472 520.973 110.658C520.973 110.966 521.109 111.195 521.379 111.344C521.65 111.494 522.005 111.601 522.443 111.666C522.891 111.732 523.4 111.774 523.969 111.792C524.539 111.811 525.117 111.844 525.705 111.89C526.293 111.937 526.872 112.016 527.441 112.128C528.011 112.231 528.515 112.408 528.953 112.66C529.401 112.903 529.761 113.234 530.031 113.654C530.302 114.074 530.437 114.62 530.437 115.292C530.437 115.908 530.283 116.51 529.975 117.098C529.667 117.686 529.219 118.209 528.631 118.666C528.053 119.124 527.343 119.488 526.503 119.758C525.663 120.038 524.707 120.178 523.633 120.178C522.569 120.178 521.641 120.076 520.847 119.87C520.063 119.665 519.405 119.385 518.873 119.03C518.351 118.685 517.959 118.284 517.697 117.826C517.445 117.369 517.319 116.893 517.319 116.398C517.319 115.726 517.529 115.152 517.949 114.676C518.379 114.2 518.957 113.827 519.685 113.556C519.293 113.37 518.976 113.113 518.733 112.786C518.5 112.46 518.383 112.03 518.383 111.498C518.383 111.078 518.537 110.64 518.845 110.182C519.153 109.725 519.615 109.338 520.231 109.02C519.522 108.628 518.962 108.11 518.551 107.466C518.141 106.813 517.935 106.052 517.935 105.184C517.935 104.475 518.071 103.836 518.341 103.266C518.621 102.697 519.009 102.212 519.503 101.81C519.998 101.409 520.581 101.101 521.253 100.886C521.935 100.672 522.677 100.564 523.479 100.564C524.711 100.564 525.785 100.821 526.699 101.334H530.689ZM543.497 108.852C542.423 108.89 541.518 108.978 540.781 109.118C540.043 109.249 539.446 109.422 538.989 109.636C538.531 109.842 538.2 110.089 537.995 110.378C537.799 110.668 537.701 110.985 537.701 111.33C537.701 111.666 537.752 111.956 537.855 112.198C537.967 112.432 538.116 112.628 538.303 112.786C538.499 112.936 538.723 113.048 538.975 113.122C539.236 113.188 539.521 113.22 539.829 113.22C540.613 113.22 541.285 113.076 541.845 112.786C542.414 112.488 542.965 112.058 543.497 111.498V108.852ZM535.517 102.804C537.131 101.302 539.054 100.55 541.285 100.55C542.106 100.55 542.834 100.686 543.469 100.956C544.113 101.218 544.649 101.591 545.079 102.076C545.517 102.562 545.849 103.14 546.073 103.812C546.306 104.475 546.423 105.212 546.423 106.024V115.096H545.079C544.789 115.096 544.57 115.054 544.421 114.97C544.271 114.877 544.145 114.695 544.043 114.424L543.749 113.262C543.385 113.589 543.025 113.883 542.671 114.144C542.316 114.396 541.947 114.611 541.565 114.788C541.191 114.966 540.785 115.096 540.347 115.18C539.917 115.274 539.441 115.32 538.919 115.32C538.34 115.32 537.799 115.241 537.295 115.082C536.8 114.924 536.371 114.686 536.007 114.368C535.643 114.042 535.353 113.64 535.139 113.164C534.933 112.688 534.831 112.128 534.831 111.484C534.831 110.934 534.975 110.397 535.265 109.874C535.563 109.352 536.049 108.885 536.721 108.474C537.402 108.054 538.293 107.709 539.395 107.438C540.505 107.168 541.873 107.014 543.497 106.976V106.024C543.497 104.998 543.277 104.232 542.839 103.728C542.4 103.224 541.756 102.972 540.907 102.972C540.328 102.972 539.843 103.047 539.451 103.196C539.059 103.336 538.718 103.49 538.429 103.658C538.139 103.826 537.883 103.985 537.659 104.134C537.435 104.274 537.197 104.344 536.945 104.344C536.739 104.344 536.562 104.293 536.413 104.19C536.273 104.078 536.156 103.943 536.063 103.784L535.517 102.804ZM555.885 100.816V115.096H552.875V100.816H555.885ZM556.389 96.5044C556.389 96.7751 556.333 97.0318 556.221 97.2744C556.118 97.5171 555.974 97.7318 555.787 97.9184C555.6 98.0958 555.381 98.2404 555.129 98.3524C554.886 98.4551 554.625 98.5064 554.345 98.5064C554.074 98.5064 553.818 98.4551 553.575 98.3524C553.342 98.2404 553.136 98.0958 552.959 97.9184C552.782 97.7318 552.637 97.5171 552.525 97.2744C552.422 97.0318 552.371 96.7751 552.371 96.5044C552.371 96.2244 552.422 95.9631 552.525 95.7204C552.637 95.4778 552.782 95.2678 552.959 95.0904C553.136 94.9038 553.342 94.7591 553.575 94.6564C553.818 94.5444 554.074 94.4884 554.345 94.4884C554.625 94.4884 554.886 94.5444 555.129 94.6564C555.381 94.7591 555.6 94.9038 555.787 95.0904C555.974 95.2678 556.118 95.4778 556.221 95.7204C556.333 95.9631 556.389 96.2244 556.389 96.5044ZM565.281 102.706C565.589 102.389 565.906 102.104 566.233 101.852C566.569 101.591 566.923 101.367 567.297 101.18C567.67 100.994 568.067 100.849 568.487 100.746C568.907 100.644 569.364 100.592 569.859 100.592C570.643 100.592 571.329 100.723 571.917 100.984C572.514 101.246 573.013 101.614 573.415 102.09C573.825 102.566 574.133 103.14 574.339 103.812C574.544 104.475 574.647 105.208 574.647 106.01V115.096H571.651V106.01C571.651 105.049 571.427 104.302 570.979 103.77C570.54 103.238 569.868 102.972 568.963 102.972C568.291 102.972 567.665 103.126 567.087 103.434C566.517 103.742 565.981 104.162 565.477 104.694V115.096H562.467V100.816H564.287C564.697 100.816 564.959 101.008 565.071 101.39L565.281 102.706ZM584.42 94.9364V102.944C584.42 103.784 584.383 104.61 584.308 105.422C584.233 106.225 584.135 107.093 584.014 108.026H581.984C581.853 107.093 581.751 106.225 581.676 105.422C581.611 104.61 581.578 103.784 581.578 102.944V94.9364H584.42ZM581.004 113.36C581.004 113.09 581.051 112.838 581.144 112.604C581.247 112.362 581.387 112.152 581.564 111.974C581.741 111.797 581.947 111.657 582.18 111.554C582.413 111.452 582.67 111.4 582.95 111.4C583.221 111.4 583.473 111.452 583.706 111.554C583.949 111.657 584.154 111.797 584.322 111.974C584.499 112.152 584.639 112.362 584.742 112.604C584.845 112.838 584.896 113.09 584.896 113.36C584.896 113.64 584.845 113.897 584.742 114.13C584.639 114.364 584.499 114.569 584.322 114.746C584.154 114.924 583.949 115.059 583.706 115.152C583.473 115.255 583.221 115.306 582.95 115.306C582.67 115.306 582.413 115.255 582.18 115.152C581.947 115.059 581.741 114.924 581.564 114.746C581.387 114.569 581.247 114.364 581.144 114.13C581.051 113.897 581.004 113.64 581.004 113.36Z" fill="black"/>
<g filter="url(#filter1_d_271_57)">
<path d="M64.8523 104.87C68.5952 109.327 64.8523 118.51 85.2265 111.151C84.0793 104.349 55.2487 36.5507 16.1402 32.8539C16.0078 34.393 16.0149 37.908 17.1025 39.6554C17.7469 38.1603 17.3232 37.0902 19.2388 38.8055C20.2628 38.8935 16.7054 44.2726 17.4646 47.4388C19.133 46.0318 20.0688 47.146 17.0234 52.569C22.0726 47.8351 22.8584 56.6887 26.4425 56.9969C25.4185 56.9089 18.0739 58.3444 31.236 67.2288C28.8967 64.4435 28.6494 61.3213 34.9966 65.485C35.7999 68.1382 31.8188 72.4471 40.4612 79.9092C37.7422 75.5407 40.4787 73.7088 43.3476 70.3379C45.6869 73.1232 42.9504 74.9551 46.6052 80.4376C46.9141 76.8465 48.1692 72.3459 52.1153 80.4376C53.3096 82.8865 54.4056 83.8531 55.0117 84.1932C54.0433 84.1062 51.5438 84.3919 46.6052 87.034C65.0874 91.1408 59.5168 92.3517 58.8223 92.0091C59.1466 91.6467 59.2808 91.5651 58.9351 91.7554C58.7237 91.8718 58.7184 91.9578 58.8223 92.0091C57.623 93.3495 53.824 98.5318 62.0827 108.018C61.8396 98.8509 59.9843 99.0998 64.8523 99.0998C71.3996 99.0998 74.0688 111.653 64.8523 104.87Z" fill="white"/>
<path d="M16.1402 32.8539C16.0078 34.393 16.0149 37.908 17.1025 39.6554C17.7469 38.1603 17.3232 37.0902 19.2388 38.8055C20.2628 38.8935 16.7054 44.2726 17.4646 47.4388C19.133 46.0318 20.0687 47.146 17.0233 52.569C22.0726 47.8351 22.8584 56.6887 26.4425 56.9969C25.4185 56.9089 18.0739 58.3444 31.236 67.2288C28.8967 64.4435 28.6494 61.3213 34.9966 65.485C35.7999 68.1382 31.8188 72.4471 40.4612 79.9092C37.7422 75.5407 40.4787 73.7088 43.3476 70.3379C45.6869 73.1232 42.9504 74.9551 46.6052 80.4376C46.9141 76.8465 48.1692 72.3459 52.1153 80.4376C56.0614 88.5293 58.9351 80.4376 46.6052 87.034C67.8533 91.7554 57.3108 92.6493 58.9351 91.7554C60.5594 90.8615 51.5907 95.9667 62.0827 108.018C61.8396 98.8509 59.9843 99.0998 64.8523 99.0998C71.3996 99.0998 74.0688 111.653 64.8523 104.87C68.5952 109.327 64.8523 118.51 85.2265 111.151C84.0793 104.349 55.2487 36.5507 16.1402 32.8539Z" stroke="black" stroke-width="2"/>
<path d="M151.833 56.0463C125.079 51.3249 111.439 56.0463 98.3244 56.0463C87.2426 56.0463 46.9456 29.0784 20.1594 21.35C14.3888 20.8982 9.6674 12.5047 7.04444 19.3244C6.51984 29.2918 10.7166 23.939 15.5763 29.2918C24.392 39.002 36.4219 51.9852 36.4219 56.0463C49.0122 56.0463 38.5203 71.7842 48.4876 71.7842C58.455 71.7842 56.8812 79.6532 56.8812 98.5387C66.8485 79.6532 66.8485 81.7516 75.7667 98.5387C75.7667 117.949 75.7667 132.637 66.8485 143.654C78.7799 140.506 78.2553 136.834 85.2095 133.162C76.2913 143.654 74.4072 144.79 72.6191 156.244C71.8821 160.966 75.7667 159.917 75.7667 168.31C80.4881 171.458 77.8651 173.556 77.8651 178.802C114.587 183.523 77.8651 195.589 90.98 201.36C77.8651 213.95 82.7489 213.551 98.3244 218.485C129.117 228.241 65.5498 231.376 156.703 253C156.703 222.228 193.713 225.97 193.713 206.01C190.165 218.485 179.158 208.921 189.08 201.36C220.031 167.786 213.211 137.359 195.9 117.949C218.982 127.916 226.851 124.244 217.933 124.244C209.014 124.244 195.375 103.26 189.08 98.5387C189.08 93.3292 226.471 92.8046 217.933 71.2961C210.019 51.3614 264.097 24.5704 266.196 10.4063C268.993 -8.47923 258.327 6.20952 243.638 10.4063C207.965 7.25873 162.325 49.2265 151.833 56.0463Z" fill="#439BA8" stroke="#2E234A" stroke-width="2"/>
<path d="M88.8374 81.098C123.985 72.1799 125.559 69.5569 163.33 81.098C170.675 107.853 175.396 112.574 185.888 119.394C172.773 128.836 176.97 133.558 185.888 133.558C185.888 145.099 183.79 144.05 195.855 144.05C191.134 151.394 175.921 158.214 183.79 178.149C154.937 198.083 146.019 218.543 144.969 232.707C112.444 216.61 141.822 199.298 93.0342 195.101C99.0623 185.827 95.6633 167.946 85.7357 168.267C84.6739 168.968 83.2778 169.396 81.493 169.396C83.0155 168.665 84.4319 168.309 85.7357 168.267C92.476 163.813 85.7396 148.312 79.3947 161.002C79.3947 144.05 98.8048 119.394 76.2471 133.558C81.493 114.672 84.6406 114.672 79.3947 105.23C88.8374 94.7376 79.3947 94.213 76.2471 92.1146C85.1652 88.4424 86.739 86.8686 81.493 81.098H88.8374Z" fill="#C2E2E8"/>
<path d="M135.734 128.375C134.204 131.214 131.883 130.251 128.258 135.961C132.867 137.338 137.917 127.001 144.194 127.877C148.106 128.423 150.962 127.478 150.736 123.644C149.27 127.578 143.968 124.043 146.224 123.91C152.654 123.531 146.063 121.172 150.575 120.906C153.765 120.718 152.734 119.13 156.423 114.516C148.147 118.118 132.421 125.933 135.734 128.375Z" fill="#2E234A"/>
<path d="M153.089 125.155C157.187 124.913 156.778 120.54 154.957 118.449C153.427 121.288 156.025 120.693 155.747 122.25C154.813 125.603 152.331 121.902 153.089 125.155Z" fill="#2E234A"/>
<path d="M104.93 96.889C101.35 99.6359 95.2942 100.982 84.5129 104.03C88.0301 107.93 97.5009 108.728 101.797 108.639C102.35 106.566 105.266 103.642 108.076 111.795C114.019 108.197 113.813 114.312 116.165 116.173C117.014 115.659 119.419 110.377 118.561 107.187C117.488 103.199 113.572 99.1936 104.93 96.889Z" fill="#439BA8"/>
<path d="M104.05 117.461C95.6568 117.461 98.8044 111.165 90.4108 113.788C94.6077 123.756 86.2141 119.559 107.723 140.018C106.673 134.248 93.2216 124.28 95.6568 119.559C96.2098 117.485 98.6174 118.75 101.427 126.903C107.723 125.33 104.575 129.002 105.624 130.576C108.422 134.772 108.247 125.835 105.624 125.33C99.3289 121.657 107.198 122.182 104.05 117.461Z" fill="#2E234A"/>
<path d="M140.511 96.5623C143.92 96.5623 155.461 96.5623 163.855 105.395C162.535 107.12 155.986 103.638 155.461 105.395C154.412 103.114 136.576 97.8762 137.618 110.353C132.117 107.032 132.315 112.687 130.141 114.411C129.355 113.937 130.141 110.353 130.141 104.346C130.141 99.9106 132.521 98.7034 140.511 96.5623Z" fill="#439BA8"/>
<path d="M103.526 166.248C106.674 142.641 88.3129 148.936 94.0834 127.428C94.0834 140.637 101.952 138.445 110.346 155.232C127.658 144.215 116.117 166.248 140.248 159.953C164.379 153.658 169.101 155.232 178.544 159.953C163.33 159.953 150.356 157.443 140.248 176.216C125.559 203.495 94.0834 179.888 103.526 166.248Z" fill="#439BA8"/>
<path d="M102.626 179.002C96.6491 172.259 98.8905 163.268 108.603 163.268C114.829 163.268 119.661 159.972 122.052 167.764C125.04 177.504 108.603 185.746 102.626 179.002Z" fill="#2E234A"/>
<path d="M153.888 166.773C148.117 183.035 159.133 175.166 164.904 179.363C164.904 172.229 153.888 183.035 153.888 166.773Z" fill="#2E234A"/>
<path d="M104.599 182.669C100.822 182.106 98.1755 186.666 97.6566 191.616C102.085 190.746 101.258 187.49 104.599 182.669Z" fill="#2E234A"/>
<path d="M221.036 84.9356C216.839 89.1324 206.347 100.149 182.215 84.9356C183.202 81.1232 189.56 83.3618 203.724 84.9356C197.429 84.1448 182.215 73.919 196.904 73.919C185.363 59.2303 195.855 67.0993 203.724 61.3287C188.511 54.5089 212.642 49.7876 201.791 49.7876C221.036 28.8037 246.407 35.1249 259.331 11.4919C259.331 13.0657 259.016 16.633 257.757 18.3117C257.233 16.7379 257.757 15.6887 255.659 17.2625C254.61 17.2625 257.757 23.0331 256.708 26.1807C255.134 24.6069 254.085 25.6561 256.708 31.4266C251.987 26.1807 250.413 35.0988 246.741 35.0988C247.79 35.0988 255.134 37.1972 240.97 45.0662C243.593 42.4432 244.118 39.2956 237.298 42.9678C236.249 45.5908 239.921 50.3122 230.478 57.1319C233.626 52.9351 231.003 50.8368 228.38 47.1646C225.757 49.7876 228.38 51.8859 224.183 57.1319C224.183 53.4597 221.036 44.5416 216.314 52.4105C211.593 60.2795 224.183 63.4271 228.38 66.5747C221.036 66.5747 219.462 71.2961 214.74 66.5747C213.167 65.5255 218.937 75.4928 214.74 81.2634C215.79 71.9797 208.445 72.8698 203.724 77.5912C199.002 82.3126 211.068 91.0159 221.036 84.9356Z" fill="white" stroke="black" stroke-width="2"/>
</g>
<defs>
<filter id="filter0_d_271_57" x="113" y="26" width="548" height="149" filterUnits="userSpaceOnUse" color-interpolation-filters="sRGB">
<feFlood flood-opacity="0" result="BackgroundImageFix"/>
<feColorMatrix in="SourceAlpha" type="matrix" values="0 0 0 0 0 0 0 0 0 0 0 0 0 0 0 0 0 0 127 0" result="hardAlpha"/>
<feOffset dy="4"/>
<feGaussianBlur stdDeviation="2"/>
<feComposite in2="hardAlpha" operator="out"/>
<feColorMatrix type="matrix" values="0 0 0 0 0 0 0 0 0 0 0 0 0 0 0 0 0 0 0.25 0"/>
<feBlend mode="normal" in2="BackgroundImageFix" result="effect1_dropShadow_271_57"/>
<feBlend mode="normal" in="SourceGraphic" in2="effect1_dropShadow_271_57" result="shape"/>
</filter>
<filter id="filter1_d_271_57" x="0" y="0" width="269.643" height="262.265" filterUnits="userSpaceOnUse" color-interpolation-filters="sRGB">
<feFlood flood-opacity="0" result="BackgroundImageFix"/>
<feColorMatrix in="SourceAlpha" type="matrix" values="0 0 0 0 0 0 0 0 0 0 0 0 0 0 0 0 0 0 127 0" result="hardAlpha"/>
<feOffset dx="-2" dy="4"/>
<feGaussianBlur stdDeviation="2"/>
<feComposite in2="hardAlpha" operator="out"/>
<feColorMatrix type="matrix" values="0 0 0 0 0 0 0 0 0 0 0 0 0 0 0 0 0 0 0.49 0"/>
<feBlend mode="normal" in2="BackgroundImageFix" result="effect1_dropShadow_271_57"/>
<feBlend mode="normal" in="SourceGraphic" in2="effect1_dropShadow_271_57" result="shape"/>
</filter>
</defs>
</svg>
